<svg xmlns="http://www.w3.org/2000/svg" xmlns:xlink="http://www.w3.org/1999/xlink" viewBox="0 0 1380.19 569.26"><defs><style>.cls-1{fill:url(#linear-gradient);}.cls-2{fill:#4d4d4d;}.cls-3{fill:#666;}.cls-4{fill:#333;}.cls-5{fill:url(#linear-gradient-2);}.cls-6{fill:#706954;}.cls-7{fill:#605a4c;}.cls-8{fill:#847e6c;}.cls-9{fill:#8a8574;}</style><linearGradient id="linear-gradient" x1="819.43" y1="769.84" x2="85.96" y2="175.87" gradientUnits="userSpaceOnUse"><stop offset="0" stop-color="#9cb779"/><stop offset="1" stop-color="#73704f"/></linearGradient><linearGradient id="linear-gradient-2" x1="969.89" y1="584.04" x2="236.43" y2="-9.93" xlink:href="#linear-gradient"/></defs><title>bridgescene-ground</title><g id="Layer_2" data-name="Layer 2"><g id="Layer_1-2" data-name="Layer 1"><path class="cls-1" d="M27.07,164.59C102.17,143,196.69,130.52,271.8,127.65s189.06-18.57,189.06-18.57L385.41,330.74,2.75,478.87Z"/><polygon class="cls-2" points="31.93 254.37 81.42 242.82 146.38 210.87 229.57 192.98 290.65 168.85 356.93 146.56 416.73 139.71 449.21 122.27 459.6 112.78 427.63 266.16 402.89 300.88 366.79 522.84 0 564.83 31.93 254.37"/><polygon class="cls-3" points="244.75 261.65 233.31 336.96 281.75 379.12 272.24 453.08 264.15 523.85 264.15 569.26 366.79 522.84 402.89 300.88 427.63 266.16 459.6 112.78 449.21 122.27 416.73 139.71 356.93 146.56 244.75 261.65"/><polygon class="cls-4" points="194.62 542.55 213.68 357.38 233.31 336.96 244.75 261.65 229.57 192.98 146.38 210.87 168.75 357.38 188.4 361.31 194.62 542.55"/><path class="cls-5" d="M1141.06,236.35c-73.79-13.12-164.65-25.11-245.79-33.51l-44.06,3.49-217.68,90L622.34,321.4l-23.56-1.51-78,28.66L508.44,373.9l-22.2,2.63-16.31,12.13-20.2-1.29L335.12,432.73l-29.94,22.41-57.83,9.47-46-2.95s-72.14,17.68-77.93,18.59h0l-1.48,75.14,1244.62-4.84,13.63-292.29S1270.54,259.38,1141.06,236.35Z"/><path class="cls-6" d="M88.14,186.34c1.41-.93,11.91-3.8,28-7.78V81.19c-7.62-1.21-11.91-1.68-11.91-1.68-4.51-1.88-9.92-1.8-9.28-7.59s10.38-7.51,10.38-7.51c3.65.73,7.24,1.49,10.81,2.25v-17A18.61,18.61,0,0,0,97.53,31.06h0A18.61,18.61,0,0,0,79,49.62V181.35a18.42,18.42,0,0,0,3.13,10.28A29.35,29.35,0,0,1,88.14,186.34Z"/><path class="cls-6" d="M351.89,128.75V30.66c-3.93.22-6,.4-6,.4-4.89-.91-10.48.21-10.52-5.38s9.82-9.08,9.82-9.08h6.75v0A16.62,16.62,0,0,0,335.32,0h0a16.62,16.62,0,0,0-16.57,16.57V133.89c7.65-1.42,14.17-2.55,19.21-3.3Q345.05,129.54,351.89,128.75Z"/><path class="cls-7" d="M765.45,307.19c-2.4-1.34-5.33-2.81-8.56-4.33v1.67a20.36,20.36,0,0,1-40.71,0V288a16.74,16.74,0,0,0-2.61-.26,39.71,39.71,0,0,0-11.11,2.05c2.94,10.47-.36,13.66-.36,13.66s-142.52,63.36-230,102.32v32.48a22.86,22.86,0,0,1-22.8,22.8h0a22.86,22.86,0,0,1-22.8-22.8V426.14c-11.89,5.31-19.45,8.7-20.8,9.34-8.11,3.82-13.41-5.45-14.42-7.42l-8.42,3.76s-13.34,4.33-14.1,13.38,0,30.16,0,30.16l86,38.58L776,360V326.8S779,314.73,765.45,307.19Z"/><path class="cls-6" d="M338.66,168.7q-8.47-6.16-17.17-11.78c-78.1,18.67-157.86,39.81-159.4,47.32-.68,3.34-.44,5.79.43,7.6,2.21,4.62,8.48,5,13.64,4.86,7.17-.13,49.19,14.81,46.28,34.15s10.45,17.27,10.45,17.27L250,262.58c-.11-6.42,3.76-13.2,3.76-13.2l129.29-42.14A330.64,330.64,0,0,0,338.66,168.7Z"/><path class="cls-6" d="M440.6,130l-3.91.83c-24.84,5.27-60.43,13.21-97.8,22q8.34,5.51,15.86,11a328.43,328.43,0,0,1,43.89,38.33l154-50.21a26,26,0,0,1,8.66-1.21C554.47,142.24,512.77,114.79,440.6,130Z"/><path class="cls-8" d="M340.06,321.57s37.84-14.13,86.48-32V276.47a22.59,22.59,0,0,1,1.3-7.56,268.6,268.6,0,0,0-36-52.15L250,262.58c.07,4,1.63,7.77,6.54,9.8,12.88,5.34,64.6,26.93,69.06,60.16a6.67,6.67,0,0,0,3.62,3.84C329.16,326,340.06,321.57,340.06,321.57Z"/><path class="cls-8" d="M628.17,207.12c-5.27-18.35-39.66-55.79-66.83-56.37a26,26,0,0,0-8.66,1.21l-154,50.21q4.62,4.86,8.7,9.59a226.77,226.77,0,0,1,30.74,44.92,22.59,22.59,0,0,1,11.26-3h0A22.88,22.88,0,0,1,471.87,273c65.5-23.82,135.33-48.63,157.46-54.43A28.34,28.34,0,0,0,628.17,207.12Z"/><path class="cls-8" d="M383.09,207.24,253.8,249.38s-3.87,6.77-3.76,13.2l141.79-45.81Q387.55,211.89,383.09,207.24Z"/><path class="cls-6" d="M702.46,289.82c-.09-.3-.16-.59-.25-.91,0,0-23.17-60.39-66-71.54-.77-.2-3.15.24-6.89,1.22-22.13,5.8-92,30.62-157.46,54.43a22.73,22.73,0,0,1,.26,3.45V405.8c87.45-39,230-102.32,230-102.32S705.4,300.29,702.46,289.82Z"/><path class="cls-6" d="M340.06,321.57s-10.89,4.41-10.8,14.81a18.57,18.57,0,0,0,1.62,7.16c6.65,15.58,41.65,8.45,60.26,84.15l.18.36c1,2,6.31,11.24,14.42,7.42,1.35-.64,8.92-4,20.8-9.34V289.59C377.9,307.44,340.06,321.57,340.06,321.57Z"/><path class="cls-7" d="M94.9,71.92c-.64,5.79,4.77,5.71,9.28,7.59,0,0,4.29.47,11.91,1.68V66.66c-3.57-.76-7.16-1.51-10.81-2.25C105.28,64.41,95.54,66.13,94.9,71.92Z"/><path class="cls-7" d="M407.33,211.76q-4.08-4.72-8.7-9.59a328.43,328.43,0,0,0-43.89-38.33q-7.52-5.52-15.86-11c37.37-8.79,73-16.73,97.8-22-20.09-5-49.81-6.1-84.79-2.06q-6.84.79-13.93,1.84c-5,.75-11.55,1.88-19.21,3.3l-8.39,1.59C263.24,109.2,200.25,84.56,116.09,66.66V81.19c28.37,4.5,103,19.25,175.37,58-54.47,11.06-133.67,29-175.37,39.32-16,4-26.54,6.85-28,7.78a29.35,29.35,0,0,0-6,5.28c-3.42,4-4.88,8.68,0,11.57,7.38,4.34,58.28-2.8,65.93,5.59,2.13,2.34,7.53,3.14,14.45,3-.86-1.8-1.11-4.26-.43-7.6,1.53-7.51,81.29-28.65,159.4-47.32q8.69,5.62,17.17,11.78a330.64,330.64,0,0,1,44.42,38.54q4.46,4.65,8.74,9.53a268.6,268.6,0,0,1,36,52.15,23,23,0,0,1,10.24-12.24A226.77,226.77,0,0,0,407.33,211.76Z"/><path class="cls-9" d="M471.87,273a22.88,22.88,0,0,0-22.53-19.35h0a22.59,22.59,0,0,0-11.26,3,23,23,0,0,0-10.24,12.24,22.59,22.59,0,0,0-1.3,7.56V438.28a22.86,22.86,0,0,0,22.8,22.8h0a22.86,22.86,0,0,0,22.8-22.8V276.47A22.73,22.73,0,0,0,471.87,273Z"/><path class="cls-7" d="M351.89,16.61h-6.75s-9.86,3.49-9.82,9.08,5.63,4.47,10.52,5.38c0,0,2.12-.18,6-.4C392.3,28.42,624.45,22.11,716.18,165v-11.9a20.16,20.16,0,0,1,2.88-10.36C694.74,106,611.24,17.57,351.89,16.61Z"/><path class="cls-9" d="M736.53,132.73a20.38,20.38,0,0,0-17.47,10,20.16,20.16,0,0,0-2.88,10.36V304.54a20.36,20.36,0,0,0,40.71,0V153.09A20.42,20.42,0,0,0,736.53,132.73Z"/></g></g></svg>