<svg xmlns="http://www.w3.org/2000/svg" viewBox="0 0 234.4 234.5"><defs><style>.cls-1{fill:#8e8e8e;}</style></defs><title>brobot-medal-silhouette</title><g id="Layer_2" data-name="Layer 2"><g id="Layer_1-2" data-name="Layer 1"><path class="cls-1" d="M234.3,109.75a134.78,134.78,0,0,0-1.65-14.55,109.22,109.22,0,0,0-13.2-35.8,12.06,12.06,0,0,1-.55-1.25,130,130,0,0,0-18.75-23.9,118,118,0,0,0-30.8-22.4A111.14,111.14,0,0,0,128.8.55Q123.15,0,117.2,0,68.65,0,34.3,34.25,4.25,64.4.55,105.35,0,111.2,0,117.2q0,48.65,34.3,83A116.74,116.74,0,0,0,69.65,224.8q21.65,9.7,47.55,9.7,48.55,0,83-34.35t34.25-83Q234.4,113.4,234.3,109.75Z"/></g></g></svg>