<svg xmlns="http://www.w3.org/2000/svg" viewBox="0 0 234.4 234.5"><defs><style>.cls-1{fill:#fc3;}.cls-2{fill:#d4a92a;}.cls-3{fill:#666;}.cls-4{fill:#ffe7a1;}.cls-5{fill:#b38e23;}</style></defs><title>brobot-medal</title><g id="Layer_2" data-name="Layer 2"><g id="Layer_1-2" data-name="Layer 1"><g id="Layer1_0_FILL" data-name="Layer1 0 FILL"><path class="cls-1" d="M208.75,135.5q-3.15-34.8-13.2-6.25-3.35,26-22.55,45.2-23.2,23.25-56.1,23.25a76.26,76.26,0,0,1-56.15-23.25Q39.1,152.9,37.65,122.9q-6-25-13.55,6,3.25,32,26.8,55.4A94.56,94.56,0,0,0,79.05,204a91.58,91.58,0,0,0,37.85,7.7q38.6,0,65.95-27.35,21.1-21,25.9-48.8m-74.8-55.8-33,.45v52h23.9l-4.45,22.35,19.3-26.45h-23.9l18.2-48.35m85-21.55a130,130,0,0,0-18.75-23.9,118,118,0,0,0-30.8-22.4A111.14,111.14,0,0,0,128.8.55Q123.15,0,117.2,0,68.65,0,34.3,34.25,4.25,64.4.55,105.35q14.3,46.7,23.55,23.55a100.72,100.72,0,0,1-.55-10.6q0-38.6,27.35-65.95t66-27.25q3.2,0,6.35.25a89.71,89.71,0,0,1,40.4,12.05,7.38,7.38,0,0,0,1,.65h.1a95.32,95.32,0,0,1,18.1,14.3,99.48,99.48,0,0,1,15,19q.25.4.55,1a88.1,88.1,0,0,1,10.4,28.45,103.91,103.91,0,0,1,1.45,17.5,99.23,99.23,0,0,1-1.45,17.2q16.4,21.35,25.55-25.75a134.79,134.79,0,0,0-1.65-14.55,109.22,109.22,0,0,0-13.2-35.8A12.07,12.07,0,0,1,218.9,58.15Z"/><path class="cls-2" d="M234.4,117.2q0-3.8-.1-7.45-9.15,47.1-25.55,25.75-4.8,27.8-25.9,48.8-27.35,27.35-65.95,27.35A91.58,91.58,0,0,1,79.05,204,94.56,94.56,0,0,1,50.9,184.3q-23.55-23.45-26.8-55.4Q14.85,152,.55,105.35,0,111.2,0,117.2q0,48.65,34.3,82.95A116.74,116.74,0,0,0,69.65,224.8q21.65,9.7,47.55,9.7,48.55,0,83-34.35T234.4,117.2M198.35,72.35q-.3-.6-.55-1a99.48,99.48,0,0,0-15-19,95.32,95.32,0,0,0-18.1-14.3h-.1a7.38,7.38,0,0,1-1-.65,89.71,89.71,0,0,0-40.4-12.05q-3.15-.25-6.35-.25-38.65,0-66,27.25T23.55,118.3a100.72,100.72,0,0,0,.55,10.6q7.6-31,13.55-6-.15-2.25-.15-4.45,0-32.95,23.25-56.25T116.9,38.95q2.55,0,5.1.25a75.16,75.16,0,0,1,42.65,15.6A82.41,82.41,0,0,1,173,62.2a87.88,87.88,0,0,1,12.75,16.15,2.17,2.17,0,0,0,.35.8,75.64,75.64,0,0,1,8.9,24.3,87,87,0,0,1,1.25,15,81.65,81.65,0,0,1-.7,10.8q10-28.55,13.2,6.25a99.23,99.23,0,0,0,1.45-17.2,103.91,103.91,0,0,0-1.45-17.5A88.1,88.1,0,0,0,198.35,72.35Z"/><path class="cls-3" d="M196.25,118.45a87,87,0,0,0-1.25-15,75.64,75.64,0,0,0-8.9-24.3,2.17,2.17,0,0,1-.35-.8A87.88,87.88,0,0,0,173,62.2a82.41,82.41,0,0,0-8.35-7.4A75.16,75.16,0,0,0,122,39.2q-2.55-.25-5.1-.25Q84,38.95,60.75,62.2T37.5,118.45q0,2.2.15,4.45,1.45,30,23.1,51.55A76.26,76.26,0,0,0,116.9,197.7q32.9,0,56.1-23.25,19.2-19.2,22.55-45.2a81.65,81.65,0,0,0,.7-10.8M149.6,66.55l-22.25,51.2H157.4l-51.9,70.1,10.25-45.75H88.95l-1.2-75.55Z"/><path class="cls-4" d="M115.75,142.1l9.05-10H100.9l-12,10h26.8m41.65-24.35H127.35l-11.6,10.3h23.9l17.75-10.3M87.75,66.55l13.15,13.6,33-.45L149.6,66.55Z"/><path class="cls-5" d="M139.65,128.05l-19.3,26.45,4.45-22.35-9.05,10L105.5,187.85l51.9-70.1-17.75,10.3m-12.3-10.3,22.25-51.2L133.95,79.7l-18.2,48.35,11.6-10.3M100.9,80.15,87.75,66.55l1.2,75.55,12-10Z"/></g></g></g></svg>