<svg xmlns="http://www.w3.org/2000/svg" viewBox="0 0 197.83 231.03"><defs><style>.cls-1{fill:#ccc;}.cls-2{fill:#47476b;}.cls-3{fill:#333;}.cls-4{fill:#669;}.cls-5{fill:#5e5e5e;}.cls-6{fill:#a0a0a0;}.cls-7{fill:#f0f0f0;}</style></defs><title>charger-empty</title><g id="Layer_2" data-name="Layer 2"><g id="Layer_1-2" data-name="Layer 1"><g id="Layer1_0_FILL" data-name="Layer1 0 FILL"><path class="cls-1" d="M39,180.18a3,3,0,0,0-1-.2,18.32,18.32,0,0,0-5.7,2.35,25.16,25.16,0,0,0-3.6,2.1,86.49,86.49,0,0,0-16.2,15q-1.35,1.3-1,2.45.55,1.35,2.8.75a19.14,19.14,0,0,0,6.6-2.55,46.8,46.8,0,0,0,5.9-4.25q6.15-5.05,10.1-8.4l3.1-2.75q1.8-1.8,1.45-3-.35-1.1-2.45-1.45m-14.4-14q-3.7,2.1-9.3,4.9-9.5,4.8-13.95,9.25-1.8,1.15-1.25,2.6.8,1.35,3.25,1a32.24,32.24,0,0,0,8.5-3.45,104.61,104.61,0,0,0,14.5-8.5l4.4-3.25q1.2-1.25,1.2-1.8a1.57,1.57,0,0,0-.55-1.8,4.13,4.13,0,0,0-1.9-.85h-1.8Q26.38,165,24.63,166.13Z"/><path class="cls-2" d="M48,188.23a14.5,14.5,0,0,0,.2-5.25,34.68,34.68,0,0,0-4.9-13.3,38.27,38.27,0,0,0-9.15-10.95q-5-3.8-7.75-2.1a1.23,1.23,0,0,0-.55.4q-2.2,1.8-1.55,7.4a11.88,11.88,0,0,0,.35,1.7q1.75-1.15,3.1-1.9h1.8a4.13,4.13,0,0,1,1.9.85,1.57,1.57,0,0,1,.55,1.8q0,.55-1.2,1.8l-4.4,3.25a43.32,43.32,0,0,0,2.95,5.8q1.45,2.45,3,4.6A18.32,18.32,0,0,1,38,180a3,3,0,0,1,1,.2q2.1.35,2.45,1.45.35,1.25-1.45,3l-3.1,2.75a15,15,0,0,0,1.3,1.25q5.05,3.8,8,2.1a2.33,2.33,0,0,0,1-.75A11.24,11.24,0,0,0,48,188.23Z"/><path class="cls-3" d="M60.48,149q2.15,2.3,5.15,5.35,4.15,4.7,4.35,7.25a17.56,17.56,0,0,0,2-2.45l2.7-2.7a33.63,33.63,0,0,0,2.7-2.8,30.5,30.5,0,0,0,5.7-11.6L63.28,145q-1.25,1.9-2.8,4M143.28,7.18a34,34,0,0,0-13.15-5.9A45.43,45.43,0,0,0,115.78.13,68.33,68.33,0,0,0,91.23,6.18,65.26,65.26,0,0,0,70.88,20.93a64.19,64.19,0,0,0-13.5,21.35,65.75,65.75,0,0,0-4.6,24.8,84.93,84.93,0,0,0,2.55,19.55q1.25,5.6,4.15,14.9l11.2-19.9q-.15-.8-.25-1.55-1.55-14.2-.9-22.6,1-12.6,6.7-20.8,6.4-9.25,22.15-16.3,13.6-6.35,22.7-4.9A18.45,18.45,0,0,1,131.33,21a17.6,17.6,0,0,1,3.25,5.25H154a24.68,24.68,0,0,0-1.9-7.8A25.27,25.27,0,0,0,143.28,7.18Z"/><path class="cls-4" d="M65.63,154.38q-3-3-5.15-5.35a20.06,20.06,0,0,0-5.7-4.25,17.91,17.91,0,0,0-8.05-1.15A25.73,25.73,0,0,0,38.58,146q-4.8,2.7-12.95,10.75a1.16,1.16,0,0,0,.2.3,1.23,1.23,0,0,1,.55-.4q2.8-1.7,7.75,2.1a38.27,38.27,0,0,1,9.15,10.95,34.68,34.68,0,0,1,4.9,13.3,14.5,14.5,0,0,1-.2,5.25,11.24,11.24,0,0,1-.8,1.8q24.25-10.5,22.8-28.4Q69.78,159.08,65.63,154.38Z"/><path class="cls-5" d="M83.08,142.08l.85-.2,7.4-17.35-48.05,6.05,20,14.4,19.8-2.9m105.25-27.6-15.4-26.8L49.78,222.63l29.7,8.4L188.33,114.48m-87.4,35.2,9-27.6-4.9-7.85-24.35,57,20.2-21.55m41.8-44.95,6.6-7H113.78l5.8,8.5,23.15-1.5M155.93,44l6.6-8.5H106.28L61.73,118.83l14.75-1.55,38.1-72L155.93,44m41.9,13.3-14.75-31-50.65,61.4h33.65Z"/><path class="cls-6" d="M154,26.28H101.48L70.68,81.63l-11.2,19.9-16.2,29.05,48.05-6.05-7.4,17.35L49.78,222.63,172.93,87.68h-40.5l50.65-61.4H154m8.5,9.2-6.6,8.5L113.78,97.73h35.55l-6.6,7-41.8,44.95-20.2,21.55,24.35-57-28.6,3-14.75,1.55,44.55-83.35Z"/></g><polyline class="cls-7" points="119.58 106.23 113.78 97.73 155.93 43.98 114.58 45.28 76.48 117.28 105.08 114.23 109.98 122.08 100.93 149.68 142.73 104.73 119.58 106.23"/></g></g></svg>