<svg xmlns="http://www.w3.org/2000/svg" viewBox="0 0 221.81 259.11"><defs><style>.cls-1{fill:#8e8e8e;}</style></defs><title>charger-silhouette</title><g id="Layer_2" data-name="Layer 2"><g id="Layer_1-2" data-name="Layer 1"><path class="cls-1" d="M186.21,98.31l35.6-34.1-16.55-34.6h-32.6a26.7,26.7,0,0,0-2.15-8.9A28.63,28.63,0,0,0,160.61,8a38.91,38.91,0,0,0-14.8-6.65A56.58,56.58,0,0,0,129.76.11a74,74,0,0,0-50.4,23.35,72.23,72.23,0,0,0-15.15,24,74.6,74.6,0,0,0-5.15,27.8,94.53,94.53,0,0,0,2.9,22q1.35,6.25,4.65,16.7l-18.2,32.55,22.45,16.3q-1.4,2-3.15,4.4a23.66,23.66,0,0,0-6.4-4.75,19.28,19.28,0,0,0-9-1.25,30.36,30.36,0,0,0-9.15,2.6q-5.4,3.05-14.55,12.2l.25.25q-2.5,2.1-1.75,8.25a14.42,14.42,0,0,0,.35,1.9q-4.1,2.35-10.4,5.5-10.65,5.5-15.65,10.4-1.5,1-1.4,2.15a6.31,6.31,0,0,0,.75,1.5,3.52,3.52,0,0,0,2.9.35,33.06,33.06,0,0,0,9.55-3.85,126.64,126.64,0,0,0,16.25-9.55,42.63,42.63,0,0,0,3.3,6.5,50.87,50.87,0,0,0,3.35,5.15,31.74,31.74,0,0,0-4,2.4A93.71,93.71,0,0,0,14,223.66a3.24,3.24,0,0,0-1.15,2.75q.65,1.65,3.15.9a22.42,22.42,0,0,0,7.4-2.9A56.49,56.49,0,0,0,30,219.66q6.85-5.55,11.25-9.4a18.27,18.27,0,0,0,1.5,1.35q5.65,4.25,8.9,2.5a3.61,3.61,0,0,0,1.15-1Q80,201.36,78.36,181.26a23.2,23.2,0,0,0,2.4-2.75l2.9-2.85q1.85-1.9,3-3.3a33.48,33.48,0,0,0,6.4-13l1-.25-38.4,90.6L89,259.11,211.26,128.36l-17.45-30ZM78.86,89.76q-1.75-15.9-1-25.3,1.25-14,7.55-23.35,7.15-10.4,24.8-18.3,15.3-7,25.45-5.4a19.82,19.82,0,0,1,11.55,6.3,17.87,17.87,0,0,1,3.65,5.9H113.71l-34.6,61.9Q79,90.66,78.86,89.76Z"/></g></g></svg>