<svg xmlns="http://www.w3.org/2000/svg" viewBox="0 0 221.81 259.11"><defs><style>.cls-1{fill:#ccc;}.cls-2{fill:#47476b;}.cls-3{fill:#669;}.cls-4{fill:#b3478f;}.cls-5{fill:#333;}.cls-6{fill:#f6c;}.cls-7{fill:#ffabe3;}.cls-8{fill:#d46d64;}</style></defs><title>charger-full</title><g id="Layer_2" data-name="Layer 2"><g id="Layer_1-2" data-name="Layer 1"><g id="Layer1_0_FILL" data-name="Layer1 0 FILL"><path class="cls-1" d="M16,227.31a22.42,22.42,0,0,0,7.4-2.9A56.48,56.48,0,0,0,30,219.66q6.85-5.55,11.25-9.4,2-1.8,3.5-3.05,2-2,1.65-3.5-.4-1.1-2.75-1.6l-1.15-.25a20.87,20.87,0,0,0-6.4,2.6,31.75,31.75,0,0,0-4,2.4A93.72,93.72,0,0,0,14,223.66a3.24,3.24,0,0,0-1.15,2.75q.65,1.65,3.15.9M33,184.16H31q-1.55,1-3.55,2.15-4.1,2.35-10.4,5.5-10.65,5.5-15.65,10.4-1.5,1-1.4,2.15a6.31,6.31,0,0,0,.75,1.5,3.52,3.52,0,0,0,2.9.35,33.06,33.06,0,0,0,9.55-3.85,126.64,126.64,0,0,0,16.25-9.55q2.55-1.75,4.9-3.65,1.4-1.35,1.4-2a1.81,1.81,0,0,0-.65-2A7.69,7.69,0,0,0,33,184.16Z"/><path class="cls-2" d="M29.46,175.66a4.76,4.76,0,0,0-.6.5q-2.5,2.1-1.75,8.25a14.43,14.43,0,0,0,.35,1.9q2-1.15,3.55-2.15h2a7.69,7.69,0,0,1,2.1,1,1.81,1.81,0,0,1,.65,2q0,.65-1.4,2-2.35,1.9-4.9,3.65a42.63,42.63,0,0,0,3.3,6.5,50.87,50.87,0,0,0,3.35,5.15,20.87,20.87,0,0,1,6.4-2.6l1.15.25q2.35.5,2.75,1.6.35,1.5-1.65,3.5-1.5,1.25-3.5,3.05a18.26,18.26,0,0,0,1.5,1.35q5.65,4.25,8.9,2.5a3.61,3.61,0,0,0,1.15-1,5.42,5.42,0,0,0,.85-2,15.67,15.67,0,0,0,.25-5.9,39,39,0,0,0-5.5-14.8A43.86,43.86,0,0,0,38.26,178Q32.61,173.76,29.46,175.66Z"/><path class="cls-3" d="M67.71,167.11a23.66,23.66,0,0,0-6.4-4.75,19.28,19.28,0,0,0-9-1.25,30.36,30.36,0,0,0-9.15,2.6q-5.4,3.05-14.55,12.2l.25.25a4.76,4.76,0,0,1,.6-.5q3.15-1.9,8.8,2.35a43.86,43.86,0,0,1,10.15,12.4,39,39,0,0,1,5.5,14.8,15.67,15.67,0,0,1-.25,5.9,5.42,5.42,0,0,1-.85,2Q80,201.36,78.36,181.26q-.25-2.85-4.85-8Z"/><path class="cls-4" d="M94.06,159.11l8.25-19.45-53.9,6.75,22.45,16.3,22.2-3.35,1-.25m117.2-30.75L193.81,98.31,55.66,249.71,89,259.11,211.26,128.36m-25-30.05,35.6-34.1-16.55-34.6-56.8,68.7Z"/><path class="cls-5" d="M86.66,172.36a33.48,33.48,0,0,0,6.4-13l-22.2,3.35q-1.4,2-3.15,4.4l5.8,6.15q4.6,5.15,4.85,8a23.2,23.2,0,0,0,2.4-2.75l2.9-2.85q1.85-1.9,3-3.3M170.51,20.71A28.63,28.63,0,0,0,160.61,8a38.91,38.91,0,0,0-14.8-6.65A56.58,56.58,0,0,0,129.76.11a74,74,0,0,0-50.4,23.35A72.23,72.23,0,0,0,64.21,47.41a74.6,74.6,0,0,0-5.15,27.8,94.53,94.53,0,0,0,2.9,22q1.35,6.25,4.65,16.7l12.5-22.35q-.1-.85-.25-1.75-1.75-15.9-1-25.3,1.25-14.05,7.55-23.35,7.15-10.4,24.8-18.3,15.3-7,25.45-5.4a19.82,19.82,0,0,1,11.55,6.3,17.87,17.87,0,0,1,3.65,5.9h21.8A26.7,26.7,0,0,0,170.51,20.71Z"/><path class="cls-6" d="M205.26,29.61H113.71l-34.6,61.9-12.5,22.35-18.2,32.55,53.9-6.75-8.25,19.45-38.4,90.6L193.81,98.31H148.46l56.8-68.7m-23.1,10.15-7.4,9.5-47.25,60.45h39.85l-7.35,7.9-46.9,50.25-22.7,24.2,27.35-63.95-32.1,3.4-16.55,1.75,50-93.5Z"/><path class="cls-7" d="M113.11,167.86,123.26,137l-5.5-8.9L90.41,192.06l22.7-24.2M160,117.61l7.35-7.9H127.51l6.55,9.4,25.95-1.5m14.75-68.35,7.4-9.5H119.11l-50,93.5,16.55-1.75,42.75-80.75Z"/><path class="cls-8" d="M134.06,119.11l-6.55-9.4,47.25-60.45-46.35,1.5L85.66,131.51l32.1-3.4,5.5,8.9-10.15,30.85L160,117.61Z"/></g></g></g></svg>