<svg xmlns="http://www.w3.org/2000/svg" viewBox="0 0 309.88 194.96"><defs><style>.cls-1{fill:#8e8e8e;}</style></defs><title>pie-silhouette</title><g id="Layer_2" data-name="Layer 2"><g id="Layer_1-2" data-name="Layer 1"><path class="cls-1" d="M306.45,89.34q-4.25-4.55-9.7-4.2a9.24,9.24,0,0,0,4.7-2.2,8.78,8.78,0,0,0,3-4.85q-10.8-1.75-17.05-2.55A104.4,104.4,0,0,0,276.85,55a109.53,109.53,0,0,0-16.3-19.45A124.33,124.33,0,0,0,215.1,8a145.9,145.9,0,0,0-52.3-8A181.69,181.69,0,0,0,110,9.44Q73.8,21.49,52,42.64a89.19,89.19,0,0,0-9.55,10.65A111.28,111.28,0,0,0,31.8,69.79a87.1,87.1,0,0,0-7.5,21.45A30.08,30.08,0,0,0,7.85,101.59Q0,110.79,0,121.79a42.66,42.66,0,0,0,23-4q-5,3.3-2.2,10t8.9,7.2a18.39,18.39,0,0,0,9.6-1.4l39.45,45.6a226.83,226.83,0,0,0,35,11,188.3,188.3,0,0,0,44,4.7,180,180,0,0,0,42.15-5.3,200.09,200.09,0,0,0,32.9-11.3q6.15-2.65,12.4-6l32.9-45a34.52,34.52,0,0,0,4.55,0q7.35-.65,11.1-8.5,3.3-7.65-2-10.95a11,11,0,0,0,7.65,1.1,13.23,13.23,0,0,0,2.8-1q6.15-2.65,7.4-8.3T306.45,89.34Z"/></g></g></svg>