<svg xmlns="http://www.w3.org/2000/svg" viewBox="0 0 309.88 194.96"><defs><style>.cls-1{fill:#999;}.cls-2{fill:#ccc;}.cls-3{fill:#a8a85f;}.cls-4{fill:#e0e07e;}.cls-5{fill:#d46d64;}</style></defs><title>pie</title><g id="Layer_2" data-name="Layer 2"><g id="Layer_1-2" data-name="Layer 1"><g id="Layer1_0_FILL" data-name="Layer1 0 FILL"><path class="cls-1" d="M152.9,149a16.28,16.28,0,0,1-17.55-11.1,13.56,13.56,0,0,1-4.35,6.85q-1.1.8-2.35,1.6a15,15,0,0,1-10.85,2.35,16.31,16.31,0,0,1-9.4-5.8,15.91,15.91,0,0,1-3.45-10.35q-5.15,7.85-16.1,5.95A13.29,13.29,0,0,1,83.5,137l30.25,53.25a188.29,188.29,0,0,0,44,4.7L153.4,149h-.5m92.45-13.8a30.87,30.87,0,0,1-12.55.95,31.19,31.19,0,0,1-18.3-7.5,11.84,11.84,0,0,1-9.25,14.85l-5.35,46.1a200.09,200.09,0,0,0,32.9-11.3Z"/><path class="cls-2" d="M170.6,140.44a12.28,12.28,0,0,1-4.5-7.2,15.35,15.35,0,0,1-3.8,10.3,14.32,14.32,0,0,1-8.9,5.5l4.35,45.9a180,180,0,0,0,42.15-5.3l5.35-46.1a11.28,11.28,0,0,1-9.4-2.5,11,11,0,0,1-4.7-8.45,13,13,0,0,1-4.4,7.7,13.87,13.87,0,0,1-4.4,2.5,11.64,11.64,0,0,1-3.6.6,12.51,12.51,0,0,1-8.15-2.95M41.35,132.59a11.69,11.69,0,0,1-2,1.1l39.45,45.6a226.83,226.83,0,0,0,34.95,11L83.5,137a13.31,13.31,0,0,1-7.65-9.55Q72.4,134.79,63,134t-11.45-8.6a55.63,55.63,0,0,1-10.2,7.2m236.75-5.15a51.26,51.26,0,0,1-9.7-2.55q-7.7-3.1-12.1-4.5,2.05,1.25,1.1,4.85a10.58,10.58,0,0,1-5.15,7.05,35,35,0,0,1-6.9,2.95l-12.55,43.1q6.15-2.65,12.4-6Z"/><path class="cls-3" d="M166.1,133.24a12.28,12.28,0,0,0,4.5,7.2,12.51,12.51,0,0,0,8.15,2.95,11.64,11.64,0,0,0,3.6-.6,2.47,2.47,0,0,0-.75-.15,13.22,13.22,0,0,1-9.1-14.9,12.57,12.57,0,0,1,3.45-7.35q-3.75,3.1-10.35,3.1a68.15,68.15,0,0,1-11.45-2.65,11.69,11.69,0,0,1,5.8,5.8,16,16,0,0,1,1.75,8.45,18.82,18.82,0,0,1-6.45,12.55,14.21,14.21,0,0,1-1.85,1.4,14.32,14.32,0,0,0,8.9-5.5,15.35,15.35,0,0,0,3.8-10.3M42.45,53.29A111.29,111.29,0,0,0,31.8,69.79a87.1,87.1,0,0,0-7.5,21.45A30.08,30.08,0,0,0,7.85,101.59Q0,110.79,0,121.79a42.66,42.66,0,0,0,23.05-3.95q-5.05,3.3-2.2,10t8.9,7.2a18.39,18.39,0,0,0,9.6-1.4,11.69,11.69,0,0,0,2-1.1,55.63,55.63,0,0,0,10.2-7.2Q53.6,133.24,63,134t12.85-6.55a14.85,14.85,0,0,0,13,11.1q11,1.9,16.1-5.95a15.91,15.91,0,0,0,3.45,10.35,16.31,16.31,0,0,0,9.4,5.8,15,15,0,0,0,10.85-2.35q1.25-.8,2.35-1.6a14.61,14.61,0,0,1-7.4,0,19.67,19.67,0,0,1-9.55-5.75,29.71,29.71,0,0,1-6-9.1q-1.4-3.3-3.75-10.65a13.37,13.37,0,0,1-6.25,8.3,14.61,14.61,0,0,1-10.35,2.2,16,16,0,0,1-9.4-5.05,20.22,20.22,0,0,1-5.2-8.6,8.73,8.73,0,0,1-2,7.05q-3.15,3.9-7.25,3.45a8.31,8.31,0,0,1-6.55-4.7,8.28,8.28,0,0,1-.65-8.15,30.18,30.18,0,0,1-13,10.35q-4.85,1.7-7.05.75-3.75-1.55-3.75-6.55a23.16,23.16,0,0,1,2.05-9,5.21,5.21,0,0,1-5,2.05,6.24,6.24,0,0,1-4.7-3,7.66,7.66,0,0,1-.8-5.6A8.92,8.92,0,0,1,27.6,98a14.84,14.84,0,0,1,11-2.7,70.91,70.91,0,0,1,.3-30.4,60.19,60.19,0,0,1,3.6-11.6m65.35,50a4,4,0,0,0-1.9-2.8,4.56,4.56,0,0,0-2-.65q-2.05,3.75-3.15,5.5l-.3,1.7a3.09,3.09,0,0,0,.3,1.4,14.36,14.36,0,0,0,2.5,3.8q.95.45,1.1.15a2.28,2.28,0,0,0,1.7-.8q3.15-4,1.75-8.3m76-65.8a46.77,46.77,0,0,0-5.2-6.25q-.6-.65-1.25-1.45-11.1-11.1-19.9-15.15a42.9,42.9,0,0,0-18.3-4.25,8.12,8.12,0,0,0-3,3.75,3.82,3.82,0,0,0-.15,1.1,71.88,71.88,0,0,1,29.6,15.05l2.65,2.35a75.41,75.41,0,0,1,16.65,21.6,3.56,3.56,0,0,0,2.65-1.4q2.35-2.35.6-6.6a25.26,25.26,0,0,0-4.35-8.75m-124,51.7a4.08,4.08,0,0,0-3,.3q-2.15,5-2.5,5.65a3.88,3.88,0,0,0-.75,2.2,8.16,8.16,0,0,0,.6,3.15l1.4,4.35a5.67,5.67,0,0,0,1.45,2.2,1.88,1.88,0,0,0,2.5,0,5.74,5.74,0,0,0,2-2Q63.9,100.79,63,94.19q-.5-3.75-3.15-5m54.2-46.55q-4.55-3.25-9.4-6.1A101.87,101.87,0,0,0,82.1,27.29a13.89,13.89,0,0,0-2.65.95Q74.9,30.29,74.1,34a7.6,7.6,0,0,0,1.4,5.35,108.4,108.4,0,0,1,12.85,1.25,42.22,42.22,0,0,1,14.25,4.85,3.29,3.29,0,0,0,.5.3,40.15,40.15,0,0,1,8.6,6.75q2.5,2.35,7.35,8,.8.75,1.9,1.85h1.55q5.2,0,6.3-2.95.75-2.35-2.35-5.2a88.76,88.76,0,0,0-12.4-11.6M226.25,26a98.45,98.45,0,0,0-10.8-11.25,65.1,65.1,0,0,0-10.7-6.9,24.33,24.33,0,0,0-2.8-1.1.61.61,0,0,0-.45-.15,16.57,16.57,0,0,0-9.9,1.85q7.4,3.45,11.6,5.95a59,59,0,0,1,15.5,12.85q.65.95,1.25,1.75a81.38,81.38,0,0,1,6.6,12.2q1.1,2.05,2,3.75a5.36,5.36,0,0,0,3,.8,3.81,3.81,0,0,0,2-2.65,5.12,5.12,0,0,0-.45-3.6A34,34,0,0,0,226.85,27Q226.55,26.54,226.25,26Z"/><path class="cls-4" d="M260.55,35.59A124.33,124.33,0,0,0,215.1,8a145.9,145.9,0,0,0-52.3-8A181.69,181.69,0,0,0,110,9.44Q73.8,21.49,52,42.64a89.18,89.18,0,0,0-9.55,10.65,60.19,60.19,0,0,0-3.6,11.6,70.91,70.91,0,0,0-.3,30.4,14.84,14.84,0,0,0-11,2.7,8.92,8.92,0,0,0-3.15,4.85,7.66,7.66,0,0,0,.8,5.6,6.24,6.24,0,0,0,4.7,3,5.21,5.21,0,0,0,5-2.05,23.16,23.16,0,0,0-2.05,9q0,5,3.75,6.55,2.2.95,7.05-.75a30.18,30.18,0,0,0,13-10.35,8.28,8.28,0,0,0,.65,8.15,8.31,8.31,0,0,0,6.55,4.7q4.1.45,7.25-3.45a8.73,8.73,0,0,0,2-7.05,20.22,20.22,0,0,0,5.2,8.6,16,16,0,0,0,9.4,5.05,14.61,14.61,0,0,0,10.35-2.2,13.37,13.37,0,0,0,6.25-8.3q2.35,7.35,3.75,10.65a29.71,29.71,0,0,0,6,9.1,19.67,19.67,0,0,0,9.55,5.75,14.61,14.61,0,0,0,7.4,0,13.56,13.56,0,0,0,4.35-6.85A16.28,16.28,0,0,0,152.9,149h.5a14.21,14.21,0,0,0,1.85-1.4,18.82,18.82,0,0,0,6.45-12.55,16,16,0,0,0-1.75-8.45,11.69,11.69,0,0,0-5.8-5.8,68.15,68.15,0,0,0,11.45,2.65q6.6,0,10.35-3.1a12.57,12.57,0,0,0-3.45,7.35,13.22,13.22,0,0,0,9.1,14.9,2.47,2.47,0,0,1,.75.15,13.87,13.87,0,0,0,4.4-2.5,13,13,0,0,0,4.4-7.7,11,11,0,0,0,4.7,8.45,11.28,11.28,0,0,0,9.4,2.5,11.84,11.84,0,0,0,9.25-14.85,31.19,31.19,0,0,0,18.3,7.5,30.87,30.87,0,0,0,12.55-.95,35,35,0,0,0,6.9-2.95,10.58,10.58,0,0,0,5.15-7.05q.95-3.6-1.1-4.85,4.4,1.4,12.1,4.5a51.26,51.26,0,0,0,9.7,2.55,34.53,34.53,0,0,0,4.55,0q7.35-.65,11.1-8.5,3.3-7.65-2-10.95a11,11,0,0,0,7.65,1.1,13.23,13.23,0,0,0,2.8-1q6.15-2.65,7.4-8.3t-3.15-10.5q-4.25-4.55-9.7-4.2a9.24,9.24,0,0,0,4.7-2.2,8.78,8.78,0,0,0,3-4.85q-10.8-1.75-17.05-2.55A104.4,104.4,0,0,0,276.85,55a109.53,109.53,0,0,0-16.3-19.45m-45.1-20.8A98.45,98.45,0,0,1,226.25,26q.3.5.6.95a34,34,0,0,1,6.3,12.55,5.12,5.12,0,0,1,.45,3.6,3.81,3.81,0,0,1-2,2.65,5.36,5.36,0,0,1-3-.8l-1.1-.3q-9.1-6.1-21.8-16.45-6.9-5.65-14.7-12.55-2.7-2.65-2.35-3.9a6.12,6.12,0,0,1,2.95-3.3,16.57,16.57,0,0,1,9.9-1.85.61.61,0,0,1,.45.15,24.33,24.33,0,0,1,2.8,1.1,65.1,65.1,0,0,1,10.7,6.9M104.65,36.54q4.85,2.85,9.4,6.1a88.76,88.76,0,0,1,12.4,11.6q3.1,2.85,2.35,5.2-1.1,3-6.3,2.95h-1.55a57.9,57.9,0,0,1-22.4-5.3A79.26,79.26,0,0,1,86.65,50a66.6,66.6,0,0,1-8.3-7.4,23.92,23.92,0,0,1-2.85-3.25A7.6,7.6,0,0,1,74.1,34q.8-3.75,5.35-5.8a13.89,13.89,0,0,1,2.65-.95,101.87,101.87,0,0,1,22.55,9.25M56.85,89.49a4.08,4.08,0,0,1,3-.3q2.65,1.25,3.15,5,.9,6.6-1.45,10.85a5.74,5.74,0,0,1-2,2,1.88,1.88,0,0,1-2.5,0,5.67,5.67,0,0,1-1.45-2.2l-1.4-4.35a8.16,8.16,0,0,1-.6-3.15,3.88,3.88,0,0,1,.75-2.2q.35-.6,2.5-5.65M178.6,31.24a46.77,46.77,0,0,1,5.2,6.25,25.26,25.26,0,0,1,4.35,8.75q1.75,4.25-.6,6.6a3.56,3.56,0,0,1-2.65,1.4,8.23,8.23,0,0,1-4-.3q-5.8-.95-14.1-5.65a122.45,122.45,0,0,1-15.8-10q-1.6-1.25-3-2.5a49.15,49.15,0,0,1-9.55-11q-3.45-5.45-2.5-9.55a3.82,3.82,0,0,1,.15-1.1,8.12,8.12,0,0,1,3-3.75,42.9,42.9,0,0,1,18.3,4.25q8.8,4,19.9,15.15.65.8,1.25,1.45m-72.7,69.25a4,4,0,0,1,1.9,2.8q1.4,4.25-1.75,8.3a2.28,2.28,0,0,1-1.7.8q-.15.3-1.1-.15a14.36,14.36,0,0,1-2.5-3.8,3.09,3.09,0,0,1-.3-1.4l.3-1.7q1.1-1.75,3.15-5.5A4.56,4.56,0,0,1,105.9,100.49Z"/><path class="cls-5" d="M138.5,24.79a49.15,49.15,0,0,0,9.55,11q1.4,1.25,3,2.5a122.45,122.45,0,0,0,15.8,10q8.3,4.7,14.1,5.65a8.23,8.23,0,0,0,4,.3,75.41,75.41,0,0,0-16.65-21.6l-2.65-2.35A71.88,71.88,0,0,0,136,15.24q-.95,4.1,2.5,9.55m-35.9,20.7a42.22,42.22,0,0,0-14.25-4.85A108.4,108.4,0,0,0,75.5,39.39a23.92,23.92,0,0,0,2.85,3.25,66.6,66.6,0,0,0,8.3,7.4,79.26,79.26,0,0,0,11.9,7.05,57.9,57.9,0,0,0,22.4,5.3q-1.1-1.1-1.9-1.85-4.85-5.65-7.35-8a40.15,40.15,0,0,0-8.6-6.75,3.29,3.29,0,0,1-.5-.3m124-4.25a81.38,81.38,0,0,0-6.6-12.2q-.6-.8-1.25-1.75a59,59,0,0,0-15.5-12.85q-4.2-2.5-11.6-5.95a6.12,6.12,0,0,0-2.95,3.3Q188.3,13,191,15.69q7.8,6.9,14.7,12.55,12.7,10.35,21.8,16.45l1.1.3Q227.65,43.29,226.55,41.24Z"/></g></g></g></svg>