<?xml version="1.0" encoding="iso-8859-1"?>
<!-- Generator: Adobe Illustrator 19.0.0, SVG Export Plug-In . SVG Version: 6.00 Build 0)  -->
<svg version="1.1" id="Layer_1" xmlns="http://www.w3.org/2000/svg" xmlns:xlink="http://www.w3.org/1999/xlink" x="0px" y="0px"
	 viewBox="0 0 511.992 511.992" style="enable-background:new 0 0 511.992 511.992;" xml:space="preserve">
<polygon style="fill:#FFCE54;" points="165.998,8.672 65.999,15.328 42.672,28.671 42.672,456.024 465.992,450.024 469.992,12 "/>
<polygon style="fill:#F5F7FA;" points="392.666,202.669 387.994,173.341 371.338,143.685 357.338,128.67 318.667,117.342 
	301.34,124.014 280.668,109.342 241.34,109.342 208.669,122.014 179.997,122.014 144.67,134.67 121.998,178.013 125.998,209.34 
	145.998,235.34 173.342,250.668 171.342,361.338 340.666,361.338 338.666,262.012 351.994,243.34 "/>
<rect x="42.672" y="462.496" style="fill:#E6E9ED;" width="415.82" height="33.499"/>
<path d="M479.992,458.774V10.656C479.992,4.781,475.226,0,469.336,0H74.671C51.109,0,32,19.093,32,42.656c0,0,0,0.016,0,0.031
	v437.305l0,0c0,17.672,14.344,32,31.999,32h405.337l0,0c5.891,0,10.656-4.781,10.656-10.672s-4.766-10.672-10.656-10.672v-21.219
	C475.226,469.43,479.992,464.664,479.992,458.774z M53.343,42.656c0-11.75,9.562-21.312,21.328-21.312h383.994v426.759H63.999
	v-0.109c-0.859,0-1.719,0.031-2.578,0.109h-8.078v-10.547V42.656z M53.343,479.992c0-5.375,4-9.844,9.188-10.562h384.025
	c-5.219,0.719-9.219,5.156-9.219,10.562c0,5.891,4.781,10.656,10.656,10.656H63.999C58.124,490.648,53.343,485.867,53.343,479.992z"
	/>
<path d="M160.123,258.058v115.279h192.043V258.058c28.188-11.766,48.016-39.593,48.016-72.03c0-43.093-34.938-78.03-78.03-78.03
	c-7.344,0-14.469,1.031-21.218,2.938c-12.469-9.375-27.984-14.938-44.781-14.938c-16.812,0-32.327,5.562-44.812,14.938
	c-6.75-1.906-13.859-2.938-21.219-2.938c-43.093,0-78.015,34.937-78.015,78.03C112.107,218.465,131.935,246.293,160.123,258.058z
	 M330.808,351.994c0-5.891-4.781-10.656-10.656-10.656c-5.906,0-10.688,4.766-10.688,10.656h-10.655
	c0-5.891-4.781-10.656-10.656-10.656c-5.906,0-10.688,4.766-10.688,10.656h-10.656c0-5.891-4.781-10.656-10.656-10.656
	c-5.906,0-10.688,4.766-10.688,10.656H234.81c0-5.891-4.781-10.656-10.656-10.656c-5.906,0-10.688,4.766-10.688,10.656H202.81
	c0-5.891-4.781-10.656-10.656-10.656c-5.906,0-10.688,4.766-10.688,10.656l0,0v-10.656h10.688h32h31.999h32h31.999h10.688v10.656
	H330.808z M190.122,129.342c1.25,0,2.5,0.031,3.75,0.125c-7.531,11.344-12.031,24.859-12.375,39.406
	c-0.094,0.594-0.156,1.188-0.156,1.781c0,5.906,4.781,10.687,10.656,10.687c5.906,0,10.672-4.781,10.672-10.687h0.141
	c0-29.406,23.922-53.312,53.343-53.312c28.938,0,52.53,23.156,53.28,51.921c-0.062,0.453-0.094,0.922-0.094,1.391
	c0,5.906,4.781,10.687,10.656,10.687c5.906,0,10.672-4.781,10.672-10.687h0.141c0-15.219-4.562-29.375-12.406-41.187
	c1.25-0.094,2.5-0.125,3.75-0.125c31.265,0,56.687,25.421,56.687,56.687c0,11.406-3.375,22.39-9.75,31.781
	c-6.234,9.188-14.938,16.297-25.141,20.562l-13.108,5.468v14.219v61.937H181.466v-61.937V243.84l-13.124-5.468
	c-21.203-8.844-34.906-29.391-34.906-52.343C133.435,154.763,158.873,129.342,190.122,129.342z"/>
<path d="M202.669,277.34c0,5.875,4.781,10.656,10.672,10.656s10.656-4.781,10.656-10.656c0-0.016,0-0.016,0-0.016v-53.328l0,0
	c0-5.891-4.766-10.656-10.656-10.656s-10.672,4.766-10.672,10.656l0,0v53.328C202.669,277.324,202.669,277.324,202.669,277.34z"/>
<path d="M245.34,277.34c0,5.875,4.781,10.656,10.656,10.656c5.906,0,10.672-4.781,10.672-10.656c0-0.016,0-0.016,0-0.016v-53.328
	l0,0c0-5.891-4.766-10.656-10.672-10.656c-5.875,0-10.656,4.766-10.656,10.656l0,0v53.328
	C245.34,277.324,245.34,277.324,245.34,277.34z"/>
<path d="M287.996,277.34c0,5.875,4.781,10.656,10.672,10.656c5.89,0,10.671-4.781,10.671-10.656c0-0.016,0-0.016,0-0.016v-53.328
	l0,0c0-5.891-4.781-10.656-10.671-10.656c-5.891,0-10.672,4.766-10.672,10.656l0,0v53.328
	C287.996,277.324,287.996,277.324,287.996,277.34z"/>
<g>
</g>
<g>
</g>
<g>
</g>
<g>
</g>
<g>
</g>
<g>
</g>
<g>
</g>
<g>
</g>
<g>
</g>
<g>
</g>
<g>
</g>
<g>
</g>
<g>
</g>
<g>
</g>
<g>
</g>
</svg>
