<svg xmlns="http://www.w3.org/2000/svg" viewBox="0 0 251.45 228.7"><defs><style>.cls-1{fill:#857a58;}.cls-2{fill:#a3966a;}.cls-3{fill:#9c988a;}.cls-4{fill:#423d2b;}.cls-5{fill:#ebe5d1;}.cls-6{fill:#665e43;}</style></defs><title>recipe-book</title><g id="Layer_2" data-name="Layer 2"><g id="Layer_1-2" data-name="Layer 1"><g id="Layer1_0_FILL" data-name="Layer1 0 FILL"><path class="cls-1" d="M0,182.1l153.4-29.5L223.2,0,84.8,29.5,0,182.1M79.2,96.25a9.34,9.34,0,0,1-5.85-2.1,14.18,14.18,0,0,1-3.8-4.95q-1.7-5.25,0-12.7,3.25-13,14.6-21.95,10.85-8.55,23-3.3,6.95-10.4,13.8-11.2a24,24,0,0,1,11.8,1q4.35,1.8,5.35,3.7a.62.62,0,0,0,.15.35A86.58,86.58,0,0,1,151.7,36a23.51,23.51,0,0,1,9.65-2.55,16,16,0,0,1,9.3,2A16.87,16.87,0,0,1,177.3,42a20.61,20.61,0,0,1,2.65,9q.8,7.85-3.9,18.65-3.8,8-8.2,11.3a14.4,14.4,0,0,1-6.5,2.6,10.21,10.21,0,0,1-6.85-1.25,42.13,42.13,0,0,0-2.35,5.05L138,127.7q-6.15-.25-21,3.7-3.1.8-6.7,1.8Q90.2,139,59,142.15a274.66,274.66,0,0,1,20.2-45.9M127.35,89q-5.5.9-16.3,3.1L85.7,97.85a226.54,226.54,0,0,0-15.25,35.8q16.5-3.15,48.35-9.65l5.3-1.15q3-.65,4.05-1a17.38,17.38,0,0,0,3.7-2,11.85,11.85,0,0,0,2.55-3.7q.45-1,1.7-4.3a162.72,162.72,0,0,1,9.55-24.2,86.73,86.73,0,0,0-17.4,1.2,2.83,2.83,0,0,0-.9.15M80.45,71Q76.75,78.2,79.2,83a8.3,8.3,0,0,0,5,4A12.9,12.9,0,0,0,91,87.3q5.05-1.15,11.55-6.5a25,25,0,0,0,9.65,4.5,26.1,26.1,0,0,0,10.65.2,29.28,29.28,0,0,0,5.85-1.9q1.9-1.15,3.8-2.5a22.92,22.92,0,0,0,6.95-7.85,22.42,22.42,0,0,0,9.45,2.4,23.16,23.16,0,0,0,9.3-1.95,21.56,21.56,0,0,0,12-14.25,17.47,17.47,0,0,0,0-8.3,10.67,10.67,0,0,0-4.25-6.5,10.94,10.94,0,0,0-7.65-2,16.5,16.5,0,0,0-7.6,2.55q-4.75,3-10.8,11.8a15.54,15.54,0,0,0-3.7-4.25,18.81,18.81,0,0,0-5-2.7,21,21,0,0,0-11.55-.55Q110.3,52,103.8,61a10.11,10.11,0,0,0-6.75-3.4,12.55,12.55,0,0,0-7.3,1.6Q84.05,62.6,80.45,71Z"/><path class="cls-2" d="M73.35,94.15a9.34,9.34,0,0,0,5.85,2.1A274.66,274.66,0,0,0,59,142.15q31.2-3.1,51.3-8.95,3.6-1,6.7-1.8,14.85-3.95,21-3.7l14.15-40.3a42.13,42.13,0,0,1,2.35-5.05,10.21,10.21,0,0,0,6.85,1.25,14.4,14.4,0,0,0,6.5-2.6q4.4-3.25,8.2-11.3,4.7-10.8,3.9-18.65a20.61,20.61,0,0,0-2.65-9,16.87,16.87,0,0,0-6.65-6.6,16,16,0,0,0-9.3-2A23.51,23.51,0,0,0,151.7,36a86.58,86.58,0,0,0-13.45,9.1.62.62,0,0,1-.15-.35q-1-1.9-5.35-3.7a24,24,0,0,0-11.8-1q-6.85.8-13.8,11.2Q95,46,84.15,54.55q-11.35,9-14.6,21.95-1.7,7.45,0,12.7a14.18,14.18,0,0,0,3.8,4.95M79.2,83Q76.75,78.2,80.45,71q3.6-8.4,9.3-11.75a12.55,12.55,0,0,1,7.3-1.6A10.11,10.11,0,0,1,103.8,61q6.5-9.1,15.8-11.55a21,21,0,0,1,11.55.55,18.81,18.81,0,0,1,5,2.7A15.54,15.54,0,0,1,139.9,57q6-8.75,10.8-11.8a16.5,16.5,0,0,1,7.6-2.55,10.94,10.94,0,0,1,7.65,2,10.67,10.67,0,0,1,4.25,6.5,17.47,17.47,0,0,1,0,8.3,21.56,21.56,0,0,1-12,14.25,23.16,23.16,0,0,1-9.3,1.95,22.42,22.42,0,0,1-9.45-2.4,22.92,22.92,0,0,1-6.95,7.85q-1.9,1.35-3.8,2.5a29.28,29.28,0,0,1-5.85,1.9,26.1,26.1,0,0,1-10.65-.2,25,25,0,0,1-9.65-4.5Q96.05,86.15,91,87.3A12.9,12.9,0,0,1,84.15,87a8.3,8.3,0,0,1-5-4m31.85,9.05q10.8-2.2,16.3-3.1a2.83,2.83,0,0,1,.9-.15,86.73,86.73,0,0,1,17.4-1.2,162.72,162.72,0,0,0-9.55,24.2q-1.25,3.3-1.7,4.3a11.85,11.85,0,0,1-2.55,3.7,17.38,17.38,0,0,1-3.7,2q-1.05.35-4.05,1L118.8,124q-31.85,6.5-48.35,9.65A226.54,226.54,0,0,1,85.7,97.85l25.35-5.75m140.4-41.5q-.1-34-28.25-50.6L153.4,152.6q25.8,18.65,30.6,49Z"/><path class="cls-3" d="M48.45,190.85l-9.2,2.6-5.5,9Z"/><path class="cls-4" d="M177.3,198a44.31,44.31,0,0,0-1.35-9.65L40.95,214l-.9-1.25L34.2,224Z"/><path class="cls-5" d="M175.95,188.3q-4.5-15.95-23-29L18.6,185.25l11.55,10.8,9.1-2.6,9.2-2.6-14.7,11.6,6.3,10.3.9,1.25Z"/><path class="cls-6" d="M0,182.1l8.3,5.2,10.3-2.05,134.35-25.9q18.5,13,23,29A44.31,44.31,0,0,1,177.3,198L34.2,224l8,4.7L184,201.65q-4.8-30.4-30.6-49Z"/></g></g></g></svg>