<svg xmlns="http://www.w3.org/2000/svg" viewBox="0 0 220.6 220.6"><defs><style>.cls-1{fill:#d4a92a;}.cls-2{fill:#fc3;}.cls-3{fill:#666;}.cls-4{fill:#b38e23;}.cls-5{fill:#ffe7a1;}</style></defs><title>woat-medal</title><g id="Layer_2" data-name="Layer 2"><g id="Layer_1-2" data-name="Layer 1"><g id="Layer1_0_FILL" data-name="Layer1 0 FILL"><path class="cls-1" d="M188.25,188.25q32.35-32.25,32.35-78,0-3.6-.2-7.05-8.6,44.3-24.05,24.25-4.5,26.15-24.35,45.9-25.65,25.7-62.05,25.7a86.38,86.38,0,0,1-35.6-7.25A87.69,87.69,0,0,1,47.9,173.35q-22.15-22-25.2-52.1Q13.95,143,.55,99.1A111,111,0,0,0,0,110.25q0,45.75,32.25,78a110,110,0,0,0,33.25,23.2,108.09,108.09,0,0,0,44.75,9.15q45.8,0,78-32.35m8.1-93.45A82.61,82.61,0,0,0,186.6,68a7.3,7.3,0,0,1-.55-.9,91.24,91.24,0,0,0-14-17.85Q146.35,23.6,109.95,23.6t-62,25.65Q22.15,74.95,22.15,111.3a90,90,0,0,0,.55,9.95Q29.8,92,35.4,115.6q-.1-2.1-.1-4.2,0-31,21.8-52.95t52.85-21.8q30.95,0,52.8,21.8A82.65,82.65,0,0,1,174.7,73.7a5.16,5.16,0,0,0,.35.75,70.18,70.18,0,0,1,8.4,22.85,83.87,83.87,0,0,1,1.15,14.1,77.15,77.15,0,0,1-.65,10.15q9.55-26.85,12.4,5.9a94,94,0,0,0,1.35-16.15A99,99,0,0,0,196.35,94.8Z"/><path class="cls-2" d="M196.35,127.45q-2.85-32.75-12.4-5.9-3.15,24.5-21.2,42.55Q140.9,186,109.95,185.95a73.76,73.76,0,0,1-30.25-6.1A74.68,74.68,0,0,1,57.1,164.1q-20.35-20.25-21.7-48.5Q29.8,92,22.7,121.25q3.05,30,25.2,52.1A87.69,87.69,0,0,0,74.35,191.8a86.38,86.38,0,0,0,35.6,7.25q36.4,0,62.05-25.7,19.85-19.75,24.35-45.9M95.55,139.1a9.73,9.73,0,0,0-1.8,5.55,8.68,8.68,0,0,0,.75,3.8,7,7,0,0,0,3.35,2.95,11,11,0,0,0,2.45.5h1.85a17.69,17.69,0,0,0,8-4.1q.3-.3,3.35-2.7a24.07,24.07,0,0,1,3.7-2.55,6.76,6.76,0,0,1-4.55-2.8,7.35,7.35,0,0,1-1.55-5.35,9.73,9.73,0,0,1-6.6.2,6.32,6.32,0,0,1-1.2-.3q-.7-.35-1.35-.75a13.78,13.78,0,0,0-2.2,1.35,4.38,4.38,0,0,0-.85.65,12.82,12.82,0,0,0-3.35,3.55m-11-20.35q-4.35-4.85-4.45-8.3a19.85,19.85,0,0,0-6.05,6.2,12,12,0,0,0-1.2,4.3,7.26,7.26,0,0,0,.75,4.1,10,10,0,0,0,4.4,4.2,18.4,18.4,0,0,0,6.75,2.8h.6a8.07,8.07,0,0,0,7.7-2.1.94.94,0,0,0,.2-1.65l-8.7-9.55m20-42.45a22.56,22.56,0,0,0-3.15,1.9,25,25,0,0,0-6.75,6.6h-.1v.25q-.3.4-.65.8a12.2,12.2,0,0,0-.5-1.25,15,15,0,0,0-3.15-.7,4,4,0,0,0-1-.15,15.37,15.37,0,0,0-5.45.35,1.25,1.25,0,0,0-.55.1,17.5,17.5,0,0,0-1.65,4.7,3.28,3.28,0,0,1-.25.75,12.63,12.63,0,0,0,2.85,10.3,10.14,10.14,0,0,0,2.2,2,8.79,8.79,0,0,0,3.15,1.25,9,9,0,0,0,1,.2q1.6,0,4.1-.2-.1,4.85-.4,7.45a13.19,13.19,0,0,0,.6,7.15,15,15,0,0,0,3.9,5.35q0,.1.2.2a19.38,19.38,0,0,0,5.55,3.45q.55.25.85.35a11.07,11.07,0,0,0,7.15.3v-.5l.4.4a.89.89,0,0,0-.4.1,10.59,10.59,0,0,0,1.15,3.9,14.78,14.78,0,0,0,2.2,2.5,9.25,9.25,0,0,1,1.9,1.5,7.27,7.27,0,0,1,.75.6,5.18,5.18,0,0,1,.85.55,26.26,26.26,0,0,0,6,3.55,21.47,21.47,0,0,0,4.95,1,20.17,20.17,0,0,0,2.1.1h2.1q3.8-.2,5.15-.4a13.92,13.92,0,0,0,4.7-1.5,9.14,9.14,0,0,0,1.4-.7,14.11,14.11,0,0,0,3-2.95,13.87,13.87,0,0,0,2.6-10.7l-.4-1.7q-.85-.65-1.7-1.25a1.94,1.94,0,0,0,1-.45h.2v-.3a6.18,6.18,0,0,1-.3-.95q-.55-2.5-1.15-4.8-.65-2.75-1.4-5.05a4.37,4.37,0,0,0,2.45.1.77.77,0,0,0,.3-.1,6.57,6.57,0,0,0,2.2-1.9q1.15-1.55,1.5-5.35a46.44,46.44,0,0,0-.35-8.1h-.1a18.15,18.15,0,0,0-3.45-2.7,32.25,32.25,0,0,0-4.75-2,18.64,18.64,0,0,0-4.8-.85,1.23,1.23,0,0,0-.45.1,5.92,5.92,0,0,0-3.55,3.05q-.85,1.9.5,6,1.3,3.85.65,5.75a14.25,14.25,0,0,0-2.75-4.95,10.65,10.65,0,0,0-1.55-1.45,8.58,8.58,0,0,0-1.6-1.15,11,11,0,0,0-5.45-1.7,15.66,15.66,0,0,0,2.55-4.8,61.41,61.41,0,0,0,1.35-6.95q.4-2.7.65-4.3a14.5,14.5,0,0,0-4.1-3.35,17.64,17.64,0,0,0-5.35-1.7l-.85-.2a25.17,25.17,0,0,0-15.95,2.4m7.85,6a10.82,10.82,0,0,1,2.2-1.9,8,8,0,0,1,3.25-1.25,7.73,7.73,0,0,1,.75.2h.3a8.09,8.09,0,0,1,3.5,2.1A4.88,4.88,0,0,1,124,84.7a3.38,3.38,0,0,1-1,2.65,4.9,4.9,0,0,1-2.6,1.35,10.31,10.31,0,0,1-5.8-.5,7.54,7.54,0,0,1-2.3-1.6,3.41,3.41,0,0,1-.85-2.4,4,4,0,0,1,.85-1.9M88.5,90.7a.77.77,0,0,0,.1-.3,3.74,3.74,0,0,1,1.8-1.25l1.7.4a9.83,9.83,0,0,1,1.05.5,5.82,5.82,0,0,1,2.1,1.9,3.5,3.5,0,0,1,.4,2,2.79,2.79,0,0,1-.75,1.8,3.57,3.57,0,0,1-3.25.5,4.89,4.89,0,0,1-.5-.3A4.46,4.46,0,0,1,88.4,93.1a4.31,4.31,0,0,1,0-1.85q0-.15,0-.25a.09.09,0,0,1,.1-.1v-.2m12.95,3.55a9.24,9.24,0,0,0-1-2.5q.6.55,1.25,1.05a39.06,39.06,0,0,0,6.9,3.9q1.4.6,2.75,1.05a30.24,30.24,0,0,0,8.5,1.65,39.54,39.54,0,0,1-9.65,1.9,26.43,26.43,0,0,1-3.25,0q-2.55-.1-3.7-.1-1.55,0-2.7.1a3.58,3.58,0,0,1-.75.1,3.56,3.56,0,0,0,.85-1.15,7.51,7.51,0,0,0,1.05-4.3,7.4,7.4,0,0,0-.2-1.7m19,12.6q.1.35.2.65a29.43,29.43,0,0,0,5.25,2.2q1.15.45,2.5.85a1.07,1.07,0,0,0,.35.2l.6.2a1.74,1.74,0,0,1,.75.35l-1.35-.55a9.59,9.59,0,0,0-3.05-.5,9.74,9.74,0,0,0-3.35.6,7.4,7.4,0,0,0-2.75,1.4,8.86,8.86,0,0,0-2.65,3.15,35.59,35.59,0,0,1,1.7-3.5,7.6,7.6,0,0,0,.95-5.95.62.62,0,0,1-.1-.35,9.45,9.45,0,0,1,.95,1.25m24.25-12a3.93,3.93,0,0,1,.85.1,12,12,0,0,1,2.5,1.05,11.09,11.09,0,0,1,2,1.6,3.18,3.18,0,0,1,1.15,1.85q.55,1.8-1.9,3.4a5.39,5.39,0,0,1-4.3.8.77.77,0,0,0-.3-.1,3.66,3.66,0,0,1-2.65-2.95,3.94,3.94,0,0,1,.25-2.2,15.81,15.81,0,0,1,2.4-3.55m-6.4,25.95,1,.5a8.41,8.41,0,0,1,4.6,5.9,3.42,3.42,0,0,1-.65,3.75,3.86,3.86,0,0,1-2.1.95,13.16,13.16,0,0,1-4.9.2,13.33,13.33,0,0,1-1.4-.3,16,16,0,0,1-3.45-1.8,5.39,5.39,0,0,1-1.55-1.45,7.12,7.12,0,0,1-1.9-3.8,7.9,7.9,0,0,1,.3-3.75.29.29,0,0,0,.2-.1q2.45-.75,3.25-.95h.85a11.81,11.81,0,0,1,5.8.85M97.75,53a11,11,0,0,1-1.45.1,13,13,0,0,0-4,1.15,57.49,57.49,0,0,0,0,8.3q.1,1,.2,2.2.55,2.95,1.35,5.9a41.91,41.91,0,0,0,1.3,4.1q.4-1.8.95-3.7.3-1,.6-2.2a59.53,59.53,0,0,1,0-6.9l.2-1.5q.25-2.2.65-5.35l.2-2.1m108.8,2.85q-.35-.65-.65-1.15a115.22,115.22,0,0,0-17.65-22.5Q156.05,0,110.25,0t-78,32.2Q4,60.55.55,99.1,14,143,22.7,121.25a90,90,0,0,1-.55-9.95q0-36.35,25.75-62.05t62-25.65q36.4,0,62.05,25.65a91.24,91.24,0,0,1,14,17.85,7.3,7.3,0,0,0,.55.9,82.61,82.61,0,0,1,9.75,26.8,99,99,0,0,1,1.35,16.5,94,94,0,0,1-1.35,16.15q15.45,20,24.05-24.25a111.59,111.59,0,0,0-1.6-13.65A104.07,104.07,0,0,0,206.55,55.85Z"/><path class="cls-3" d="M183.45,97.3a70.18,70.18,0,0,0-8.4-22.85,5.16,5.16,0,0,1-.35-.75,82.65,82.65,0,0,0-11.95-15.25q-21.85-21.8-52.8-21.8T57.1,58.45Q35.3,80.4,35.3,111.4q0,2.1.1,4.2,1.35,28.25,21.7,48.5a74.68,74.68,0,0,0,22.6,15.75,73.76,73.76,0,0,0,30.25,6.1q30.95,0,52.8-21.85,18-18.05,21.2-42.55a77.15,77.15,0,0,0,.65-10.15,83.87,83.87,0,0,0-1.15-14.1M96.3,53.1a11,11,0,0,0,1.45-.1h.85a2,2,0,0,1,.65-.1,12.29,12.29,0,0,1,6.3,1.35,41.39,41.39,0,0,0-8.85,14.6q-.3,1.15-.6,2.2-.55,1.9-.95,3.7A41.33,41.33,0,0,0,94.5,84.8h.1a25,25,0,0,1,6.75-6.6,22.56,22.56,0,0,1,3.15-1.9,25.17,25.17,0,0,1,15.95-2.4l.85.2a17.64,17.64,0,0,1,5.35,1.7,14.5,14.5,0,0,1,4.1,3.35l.2.2a10.86,10.86,0,0,1,2.1,5.7,8.39,8.39,0,0,1-1.8,5.65,19.5,19.5,0,0,1,4.4-1.15H136a24.25,24.25,0,0,1,4.4,0,18.64,18.64,0,0,1,4.8.85,32.25,32.25,0,0,1,4.75,2,18.15,18.15,0,0,1,3.45,2.7h.1a24.35,24.35,0,0,1,2.55,3.25,16.34,16.34,0,0,1,1.65,13.55q-2,6.95-7.45,9.65h-.2a1.94,1.94,0,0,1-1,.45q.85.6,1.7,1.25,4.7,4.4,4.6,11.95-.1,8.75-6.3,13.65a15.18,15.18,0,0,1-4.5,2.55,20.3,20.3,0,0,1-10,.85,40.14,40.14,0,0,1-5.15-1.4l-.4-.2a21.66,21.66,0,0,1-7.9-5.85,35,35,0,0,1-3,3.95l-.55.55a29.06,29.06,0,0,1-11.25,7.55,22.23,22.23,0,0,1-9.65.75,16.82,16.82,0,0,1-8.8-3.8,14.21,14.21,0,0,1-4.65-8.3,12.48,12.48,0,0,1,1.6-9.25,15.16,15.16,0,0,1-11.75-2.6,14.86,14.86,0,0,1-4.3-21.4,3.27,3.27,0,0,0,.2-.35,16.11,16.11,0,0,1,5.85-5.25,12.71,12.71,0,0,1,4.3-1.35,10.63,10.63,0,0,1-2.9-2.5,10.46,10.46,0,0,1-2-6.65,11.46,11.46,0,0,1,4.5-9.65,10.77,10.77,0,0,1,4.4-2.3,1.25,1.25,0,0,1,.55-.1,15.37,15.37,0,0,1,5.45-.35,4,4,0,0,1,1,.15,15,15,0,0,1,3.15.7q-1-2.95-1.9-5.75a61.87,61.87,0,0,1-1.65-8.3A35.7,35.7,0,0,1,90,58.9q.3-3,1.65-4.2a4.5,4.5,0,0,0,.65-.45,13,13,0,0,1,4-1.15m16,74.35a.89.89,0,0,1,.4-.1l-.4-.4v.5M94.5,85.05l-1.15-.45a12.2,12.2,0,0,1,.5,1.25q.35-.4.65-.8m34.25,25.7,1.35.55a1.74,1.74,0,0,0-.75-.35Z"/><path class="cls-4" d="M153.5,95.1a46.44,46.44,0,0,1,.35,8.1q-.35,3.8-1.5,5.35a6.57,6.57,0,0,1-2.2,1.9.77.77,0,0,1-.3.1,4.37,4.37,0,0,1-2.45-.1q.75,2.3,1.4,5.05.6,2.3,1.15,4.8a6.18,6.18,0,0,0,.3.95v.3q5.45-2.7,7.45-9.65a16.34,16.34,0,0,0-1.65-13.55,24.35,24.35,0,0,0-2.55-3.25M130.95,79.35l-.2-.2q-.25,1.6-.65,4.3a61.41,61.41,0,0,1-1.35,6.95,15.66,15.66,0,0,1-2.55,4.8,11,11,0,0,1,5.45,1.7,8.58,8.58,0,0,1,1.6,1.15,10.65,10.65,0,0,1,1.55,1.45,14.25,14.25,0,0,1,2.75,4.95q.65-1.9-.65-5.75-1.35-4.1-.5-6a5.92,5.92,0,0,1,3.55-3.05,1.23,1.23,0,0,1,.45-.1,24.25,24.25,0,0,0-4.4,0h-.35a19.5,19.5,0,0,0-4.4,1.15,8.39,8.39,0,0,0,1.8-5.65,10.86,10.86,0,0,0-2.1-5.7M83.15,84.2a10.77,10.77,0,0,0-4.4,2.3,11.46,11.46,0,0,0-4.5,9.65,10.46,10.46,0,0,0,2,6.65,10.63,10.63,0,0,0,2.9,2.5,12.71,12.71,0,0,0-4.3,1.35A16.11,16.11,0,0,0,69,111.9a3.27,3.27,0,0,1-.2.35,14.86,14.86,0,0,0,4.3,21.4,15.16,15.16,0,0,0,11.75,2.6,12.48,12.48,0,0,0-1.6,9.25,14.21,14.21,0,0,0,4.65,8.3,16.82,16.82,0,0,0,8.8,3.8,22.23,22.23,0,0,0,9.65-.75,29.06,29.06,0,0,0,11.25-7.55l.55-.55a35,35,0,0,0,3-3.95,21.66,21.66,0,0,0,7.9,5.85l.4.2a40.14,40.14,0,0,0,5.15,1.4,20.3,20.3,0,0,0,10-.85,15.18,15.18,0,0,0,4.5-2.55q6.2-4.9,6.3-13.65.1-7.55-4.6-11.95l.4,1.7a13.87,13.87,0,0,1-2.6,10.7,14.11,14.11,0,0,1-3,2.95,9.14,9.14,0,0,1-1.4.7,13.92,13.92,0,0,1-4.7,1.5q-1.35.2-5.15.4h-2.1a20.17,20.17,0,0,1-2.1-.1,21.47,21.47,0,0,1-4.95-1,26.26,26.26,0,0,1-6-3.55,5.18,5.18,0,0,0-.85-.55,7.27,7.27,0,0,0-.75-.6,9.25,9.25,0,0,0-1.9-1.5,14.78,14.78,0,0,1-2.2-2.5,10.59,10.59,0,0,1-1.15-3.9,11.07,11.07,0,0,1-7.15-.3q-.3-.1-.85-.35a19.38,19.38,0,0,1-5.55-3.45q-.2-.1-.2-.2a15,15,0,0,1-3.9-5.35,13.19,13.19,0,0,1-.6-7.15q.3-2.6.4-7.45-2.5.2-4.1.2a9,9,0,0,1-1-.2,8.79,8.79,0,0,1-3.15-1.25,10.14,10.14,0,0,1-2.2-2,12.63,12.63,0,0,1-2.85-10.3,3.28,3.28,0,0,0,.25-.75,17.5,17.5,0,0,1,1.65-4.7M80.1,110.45q.1,3.45,4.45,8.3l8.7,9.55a.94.94,0,0,1-.2,1.65,8.07,8.07,0,0,1-7.7,2.1h-.6a18.4,18.4,0,0,1-6.75-2.8,10,10,0,0,1-4.4-4.2,7.26,7.26,0,0,1-.75-4.1,12,12,0,0,1,1.2-4.3,19.85,19.85,0,0,1,6.05-6.2m13.65,34.2a9.73,9.73,0,0,1,1.8-5.55,12.82,12.82,0,0,1,3.35-3.55,4.38,4.38,0,0,1,.85-.65,13.78,13.78,0,0,1,2.2-1.35q.65.4,1.35.75a6.32,6.32,0,0,0,1.2.3,9.73,9.73,0,0,0,6.6-.2,7.35,7.35,0,0,0,1.55,5.35,6.76,6.76,0,0,0,4.55,2.8,24.07,24.07,0,0,0-3.7,2.55q-3.05,2.4-3.35,2.7a17.69,17.69,0,0,1-8,4.1H100.3a11,11,0,0,1-2.45-.5,7,7,0,0,1-3.35-2.95,8.68,8.68,0,0,1-.75-3.8m26.9-37.15q-.1-.3-.2-.65a9.45,9.45,0,0,0-.95-1.25.62.62,0,0,0,.1.35,7.6,7.6,0,0,1-.95,5.95,35.59,35.59,0,0,0-1.7,3.5,8.86,8.86,0,0,1,2.65-3.15,7.4,7.4,0,0,1,2.75-1.4,9.74,9.74,0,0,1,3.35-.6,9.59,9.59,0,0,1,3.05.5,1.07,1.07,0,0,1-.35-.2q-1.35-.4-2.5-.85a29.43,29.43,0,0,1-5.25-2.2M100.4,91.75a9.24,9.24,0,0,1,1,2.5,7.4,7.4,0,0,1,.2,1.7,7.51,7.51,0,0,1-1.05,4.3,3.56,3.56,0,0,1-.85,1.15,3.58,3.58,0,0,0,.75-.1q1.15-.1,2.7-.1,1.15,0,3.7.1a26.43,26.43,0,0,0,3.25,0,39.54,39.54,0,0,0,9.65-1.9,30.24,30.24,0,0,1-8.5-1.65q-1.35-.45-2.75-1.05a39.06,39.06,0,0,1-6.9-3.9q-.65-.5-1.25-1.05m-8.1-37.5a4.5,4.5,0,0,1-.65.45Q90.3,55.85,90,58.9a35.7,35.7,0,0,0-.2,11.65,61.87,61.87,0,0,0,1.65,8.3q.85,2.8,1.9,5.75l1.15.45V84.8a41.33,41.33,0,0,1,.65-10.05,41.91,41.91,0,0,1-1.3-4.1q-.8-2.95-1.35-5.9-.1-1.15-.2-2.2A57.49,57.49,0,0,1,92.3,54.25Z"/><path class="cls-5" d="M139.25,121.25l-1-.5a11.81,11.81,0,0,0-5.8-.85h-.85q-.8.2-3.25.95a.29.29,0,0,1-.2.1,7.9,7.9,0,0,0-.3,3.75,7.12,7.12,0,0,0,1.9,3.8,5.39,5.39,0,0,0,1.55,1.45,16,16,0,0,0,3.45,1.8,13.33,13.33,0,0,0,1.4.3,13.16,13.16,0,0,0,4.9-.2,3.86,3.86,0,0,0,2.1-.95,3.42,3.42,0,0,0,.65-3.75,8.41,8.41,0,0,0-4.6-5.9m6.3-26.35a3.93,3.93,0,0,0-.85-.1,15.81,15.81,0,0,0-2.4,3.55,3.94,3.94,0,0,0-.25,2.2,3.66,3.66,0,0,0,2.65,2.95.77.77,0,0,1,.3.1,5.39,5.39,0,0,0,4.3-.8q2.45-1.6,1.9-3.4a3.18,3.18,0,0,0-1.15-1.85,11.09,11.09,0,0,0-2-1.6,12,12,0,0,0-2.5-1.05M88.6,90.4a.77.77,0,0,1-.1.3v.2a.09.09,0,0,0-.1.1q0,.1,0,.25a4.31,4.31,0,0,0,0,1.85,4.46,4.46,0,0,0,2.75,2.85,4.89,4.89,0,0,0,.5.3,3.57,3.57,0,0,0,3.25-.5,2.79,2.79,0,0,0,.75-1.8,3.5,3.5,0,0,0-.4-2,5.82,5.82,0,0,0-2.1-1.9,9.83,9.83,0,0,0-1.05-.5l-1.7-.4a3.74,3.74,0,0,0-1.8,1.25m25.95-10a10.82,10.82,0,0,0-2.2,1.9,4,4,0,0,0-.85,1.9,3.41,3.41,0,0,0,.85,2.4,7.54,7.54,0,0,0,2.3,1.6,10.31,10.31,0,0,0,5.8.5,4.9,4.9,0,0,0,2.6-1.35,3.38,3.38,0,0,0,1-2.65,4.88,4.88,0,0,0-1.65-3.25,8.09,8.09,0,0,0-3.5-2.1h-.3a7.73,7.73,0,0,0-.75-.2,8,8,0,0,0-3.25,1.25m-9-26.15a12.29,12.29,0,0,0-6.3-1.35,2,2,0,0,0-.65.1h-.85l-.2,2.1q-.4,3.15-.65,5.35l-.2,1.5a59.53,59.53,0,0,0,0,6.9A41.39,41.39,0,0,1,105.55,54.25Z"/></g></g></g></svg>