<svg xmlns="http://www.w3.org/2000/svg" viewBox="0 0 220.6 220.6"><defs><style>.cls-1{fill:#8e8e8e;}</style></defs><title>woat-medal-silhouette</title><g id="Layer_2" data-name="Layer 2"><g id="Layer_1-2" data-name="Layer 1"><path class="cls-1" d="M220.4,103.2a111.59,111.59,0,0,0-1.6-13.65,104.07,104.07,0,0,0-12.25-33.7q-.35-.65-.65-1.15a115.22,115.22,0,0,0-17.65-22.5Q156,0,110.25,0t-78,32.2Q4,60.55.55,99.1A111,111,0,0,0,0,110.25q0,45.75,32.25,78a110,110,0,0,0,33.25,23.2,108.09,108.09,0,0,0,44.75,9.15q45.8,0,78-32.35,32.35-32.25,32.35-78Q220.6,106.65,220.4,103.2Z"/></g></g></svg>