<svg xmlns="http://www.w3.org/2000/svg" viewBox="0 0 1569.39 554.68"><defs><style>.cls-1{fill:#9aa5a5;}.cls-2{fill:#737c7c;}.cls-3{fill:#d7dbdb;}</style></defs><title>summitscene-ground</title><g id="Layer_2" data-name="Layer 2"><g id="Layer_2-2" data-name="Layer 2"><path class="cls-1" d="M1569.39,554.68,998.33,277.34s70-125.48-77.76-159.93S402.85-17.93,156,117.41,396.36,391.77,502.17,412.68s313.73,142,313.73,142h753.49"/><path class="cls-2" d="M1401.53,554.68S1057,429.91,925.39,326.56c0,0-8.58-47.07-2.85-62.76s93.9,6.16,93.9,6.16l552.95,284.71Z"/><path class="cls-2" d="M942,281s16.64-64-91.62-92.27S546.46,80.5,286.86,170.31,231.5,363.47,231.5,363.47s-93.5,35.68-99.66-35.68-2.46-172.68,43.06-198.91S513.24,25.13,567.37,44.82,894.83,94,920.57,111.25s88.48,61.52,76.18,103.35S942,281,942,281"/><path class="cls-3" d="M1502.58,535.7S1153.31,411,928.27,272.73c0,0-12.89-3.52,0-24.61s57.43-65.51-90.25-113S471.17,59.41,307.08,114.5,167.6,261,180.5,277.41s104.31,91.42,312.94,103.14a131.7,131.7,0,0,1,50.4,9.38c25.79,10.55,343.41,164.75,343.41,164.75H0v-446S192.22-10.91,574.31.81,1564.7,256.32,1564.7,256.32l4.69,298.36h-16.88Z"/></g></g></svg>