<svg xmlns="http://www.w3.org/2000/svg" viewBox="0 0 853.13 641"><defs><style>.cls-1{fill:#737c7c;}.cls-2{fill:#9aa5a5;}.cls-3{fill:#c2c9c9;}.cls-4{fill:#2b2d2d;}</style></defs><title>caveexteriorscene-cave</title><g id="Layer_2" data-name="Layer 2"><g id="Layer_5" data-name="Layer 5"><path class="cls-1" d="M814.24,437.48c-2.4,21.27-12.36,30.27-28.11,35.52-27,9-313-34-336-42s-262-29-282-32-53-161-62-177-3-69,69-129c55.32-46.1,103-59.14,133.41-84L8.13,19l27,622,730-17c23-13,88-51,88-51S833.38,506.32,814.24,437.48Z"/><path class="cls-1" d="M741.19,194.58c-13.94-20.4-36.29-46.37-67.06-54.58-25.08-6.69-39.28-21.45-49.19-38.23,7.37,20.61,16.48,42.51,24.19,50.23C661.18,164,705.5,171,741.19,194.58Z"/><path class="cls-2" d="M106.13,222c9,16,42,174,62,177s259,24,282,32,309,51,336,42c15.75-5.25,25.71-14.25,28.11-35.52-5.22-18.77-10.39-37.7-15.11-55.48-22-83-35-150-44-165-2.85-4.74-7.5-13-13.94-22.42C705.5,171,661.18,164,649.13,152c-7.72-7.72-16.83-29.62-24.19-50.23C617.06,88.44,611.89,73.84,606.13,61c-13-29-29-61-29-61L308.54,9C278.1,33.86,230.45,46.9,175.13,93,103.13,153,97.13,206,106.13,222Z"/><path class="cls-3" d="M600.87,496c2.2,21.29-24.18,21.29-25.28,30.75s91.22,6.12,91.22,6.12c-9.66-41.16-24.34-93.46-28.58-103.09A25.77,25.77,0,0,0,627,417.63C609.49,442.64,598.88,476.74,600.87,496Z"/><path class="cls-2" d="M575.59,526.74c1.1-9.46,27.48-9.46,25.28-30.75-2-19.26,8.62-53.36,26.12-78.37-7.55-4.2-16.1-4.51-19.53-2-5.5,3.94-15.39,55.19-20.88,67.8s-18.68,11.83-24.18,17.34-4.4,48.88-13.19,74.89,48.62,48.88,64.84,48.88c29.67,0,60.45-23.65,61.55-42.57.39-6.76-3.42-26.19-8.79-49.06C666.82,532.86,574.49,536.2,575.59,526.74Z"/><path class="cls-4" d="M331.94,236.1c-15.42-19.11-38-25.87-61.25-26.39-2.83.8-5.7,1.67-8.65,2.65-115.58,38.44-69.61,243.73-52.16,313.27,10.7,42.65,85.1,36.92,141,26.11,10.17-21.7,26.5-65.83,26.4-125.37C377.17,339.89,378.28,293.52,331.94,236.1Z"/><path class="cls-1" d="M415.81,343.83c-9.26-68.6-36.75-164.84-145.12-134.12,23.26.52,45.83,7.28,61.25,26.39,46.33,57.42,45.23,103.8,45.38,190.27.1,59.55-16.22,103.67-26.4,125.37a630.14,630.14,0,0,0,63.21-15.65S425.3,414.22,415.81,343.83Z"/><path class="cls-3" d="M498.13,414c2,27-22,27-23,39s83,7.77,83,7.77c-8.79-52.21-22.15-118.55-26-130.77a30.84,30.84,0,0,0-10.23-15.4C506,346.32,496.32,389.57,498.13,414Z"/><path class="cls-2" d="M475.13,453c1-12,25-12,23-39-1.81-24.43,7.84-67.68,23.77-99.4-6.87-5.33-14.65-5.71-17.77-2.6-5,5-14,70-19,86s-17,15-22,22-4,62-12,95,44.24,62,59,62c27,0,55-30,56-54,.36-8.57-3.11-33.22-8-62.23C558.14,460.77,474.13,465,475.13,453Z"/><path class="cls-3" d="M550.13,448c7.78,15.55,19.3,17.67,41,19.24-21.93-30.42-9.89-37-20.49-46.74-.43-.4-.86-.76-1.28-1.1C556.44,427,543.76,435.26,550.13,448Z"/><path class="cls-2" d="M601.63,480.5c-4.17-4.87-7.63-9.27-10.51-13.26-21.7-1.58-33.22-3.69-41-19.24-6.37-12.74,6.3-21,19.22-28.6-11.25-9.08-18.28,1.49-18.28,1.49-24.44,19.61-42.44,75.61-42.44,98.61s18,118,58,87S637.63,522.5,601.63,480.5Z"/><path class="cls-3" d="M69.42,388.41C72.32,427.6,37.49,427.6,36,445s120.48,11.27,120.48,11.27c-12.75-75.78-32.15-172.08-37.74-189.8-3.28-10.39-8.82-17.68-14.85-22.36C80.8,290.17,66.79,353,69.42,388.41Z"/><path class="cls-2" d="M36,445c1.45-17.42,36.29-17.42,33.38-56.61C66.79,353,80.8,290.17,103.92,244.13c-10-7.74-21.27-8.29-25.79-3.77C70.87,247.62,57.81,342,50.55,365.19S25.88,387,18.62,397.12,12.81,487.11,1.2,535s64.21,90,85.64,90c39.19,0,79.83-43.54,81.28-78.38.52-12.44-4.52-48.22-11.61-90.33C156.51,456.29,34.59,462.43,36,445Z"/><path class="cls-3" d="M155.13,443c7.78,15.55,19.3,17.67,41,19.24-21.93-30.42-9.89-37-20.49-46.74-.43-.4-.86-.76-1.28-1.1C161.44,422,148.76,430.26,155.13,443Z"/><path class="cls-2" d="M206.63,475.5c-4.17-4.87-7.63-9.27-10.51-13.26-21.7-1.58-33.22-3.69-41-19.24-6.37-12.74,6.3-21,19.22-28.6-11.25-9.08-18.28,1.49-18.28,1.49-24.44,19.61-42.44,75.61-42.44,98.61s18,118,58,87S242.63,517.5,206.63,475.5Z"/></g></g></svg>