<svg xmlns="http://www.w3.org/2000/svg" xmlns:xlink="http://www.w3.org/1999/xlink" viewBox="0 0 1352 316.76"><defs><style>.cls-1{fill:url(#linear-gradient);}.cls-2{fill:#757572;}</style><linearGradient id="linear-gradient" x1="795.07" y1="370.76" x2="479.78" y2="-174.08" gradientUnits="userSpaceOnUse"><stop offset="0" stop-color="#9cb779"/><stop offset="1" stop-color="#9aa5a5"/></linearGradient></defs><title>caveexteriorscene-ground</title><g id="Layer_2" data-name="Layer 2"><g id="Layer_4" data-name="Layer 4"><path class="cls-1" d="M1352,316.76H0V13.23s343.25-29.78,676,0,676,0,676,0Z"/><path class="cls-2" d="M1154.95,315.38h-61.23c-7.86,0-18.42-3.31-23.48-7.36l-9.55-7.65c-5.05-4-2.76-7.36,5.1-7.36H1127c7.86,0,18.42,3.31,23.48,7.36L1160,308C1165.1,312.06,1162.81,315.38,1154.95,315.38Z"/><path class="cls-2" d="M1048.95,315.38H987.71c-7.86,0-18.42-3.31-23.48-7.36l-9.55-7.65c-5.05-4-2.76-7.36,5.1-7.36H1021c7.86,0,18.42,3.31,23.48,7.36L1054,308C1059.1,312.06,1056.81,315.38,1048.95,315.38Z"/><path class="cls-2" d="M947.95,315.38H886.71c-7.86,0-18.42-3.31-23.48-7.36l-9.55-7.65c-5.05-4-2.76-7.36,5.1-7.36H920c7.86,0,18.42,3.31,23.48,7.36L953,308C958.1,312.06,955.81,315.38,947.95,315.38Z"/><path class="cls-2" d="M845.95,315.38H784.71c-7.86,0-18.42-3.31-23.48-7.36l-9.55-7.65c-5.05-4-2.76-7.36,5.1-7.36H818c7.86,0,18.42,3.31,23.48,7.36L851,308C856.1,312.06,853.81,315.38,845.95,315.38Z"/><path class="cls-2" d="M1062.26,288h-60.89c-7.82,0-18.32-3.11-23.35-6.91l-9.5-7.18c-5-3.8-2.74-6.91,5.07-6.91h60.89c7.82,0,18.32,3.11,23.35,6.91l9.5,7.18C1072.36,284.89,1070.07,288,1062.26,288Z"/><path class="cls-2" d="M961.83,288H900.94c-7.82,0-18.32-3.11-23.35-6.91l-9.5-7.18c-5-3.8-2.74-6.91,5.07-6.91h60.89c7.82,0,18.32,3.11,23.35,6.91l9.5,7.18C971.93,284.89,969.64,288,961.83,288Z"/><path class="cls-2" d="M860.4,288H799.51c-7.82,0-18.32-3.11-23.35-6.91l-9.5-7.18c-5-3.8-2.74-6.91,5.07-6.91h60.89c7.82,0,18.32,3.11,23.35,6.91l9.5,7.18C870.5,284.89,868.22,288,860.4,288Z"/><path class="cls-2" d="M976.26,261H915.37c-7.82,0-18.32-3.11-23.35-6.91l-9.5-7.18c-5-3.8-2.74-6.91,5.07-6.91h60.89c7.82,0,18.32,3.11,23.35,6.91l9.5,7.18C986.36,257.89,984.07,261,976.26,261Z"/><path class="cls-2" d="M875.83,261H814.94c-7.82,0-18.32-3.11-23.35-6.91l-9.5-7.18c-5-3.8-2.74-6.91,5.07-6.91h60.89c7.82,0,18.32,3.11,23.35,6.91l9.5,7.18C885.93,257.89,883.64,261,875.83,261Z"/><path class="cls-2" d="M774.4,261H713.51c-7.82,0-18.32-3.11-23.35-6.91l-9.5-7.18c-5-3.8-2.74-6.91,5.07-6.91h60.89c7.82,0,18.32,3.11,23.35,6.91l9.5,7.18C784.5,257.89,782.22,261,774.4,261Z"/><path class="cls-2" d="M670.4,261H609.51c-7.82,0-18.32-3.11-23.35-6.91l-9.5-7.18c-5-3.8-2.74-6.91,5.07-6.91h60.89c7.82,0,18.32,3.11,23.35,6.91l9.5,7.18C680.5,257.89,678.22,261,670.4,261Z"/><path class="cls-2" d="M751.72,229.76H694.49c-7.35,0-17.22-2.63-21.95-5.84l-8.93-6.07c-4.72-3.21-2.58-5.84,4.77-5.84h57.24c7.35,0,17.22,2.63,21.95,5.84l8.93,6.07C761.22,227.13,759.07,229.76,751.72,229.76Z"/><path class="cls-2" d="M656.38,229.76H599.14c-7.35,0-17.22-2.63-21.95-5.84l-8.93-6.07c-4.72-3.21-2.58-5.84,4.77-5.84h57.24c7.35,0,17.22,2.63,21.95,5.84l8.93,6.07C665.87,227.13,663.73,229.76,656.38,229.76Z"/><path class="cls-2" d="M558.62,229.76H501.38c-7.35,0-17.22-2.63-21.95-5.84l-8.93-6.07c-4.72-3.21-2.58-5.84,4.77-5.84h57.24c7.35,0,17.22,2.63,21.95,5.84l8.93,6.07C568.11,227.13,566,229.76,558.62,229.76Z"/><path class="cls-2" d="M851.38,229.76H794.14c-7.35,0-17.22-2.63-21.95-5.84l-8.93-6.07c-4.72-3.21-2.58-5.84,4.77-5.84h57.24c7.35,0,17.22,2.63,21.95,5.84l8.93,6.07C860.87,227.13,858.73,229.76,851.38,229.76Z"/><path class="cls-2" d="M759.72,204.76H702.49c-7.35,0-17.22-2.63-21.95-5.84l-8.93-6.07c-4.72-3.21-2.58-5.84,4.77-5.84h57.24c7.35,0,17.22,2.63,21.95,5.84l8.93,6.07C769.22,202.13,767.07,204.76,759.72,204.76Z"/><path class="cls-2" d="M664.38,204.76H607.14c-7.35,0-17.22-2.63-21.95-5.84l-8.93-6.07c-4.72-3.21-2.58-5.84,4.77-5.84h57.24c7.35,0,17.22,2.63,21.95,5.84l8.93,6.07C673.87,202.13,671.73,204.76,664.38,204.76Z"/><path class="cls-2" d="M566.62,204.76H509.38c-7.35,0-17.22-2.63-21.95-5.84l-8.93-6.07c-4.72-3.21-2.58-5.84,4.77-5.84h57.24c7.35,0,17.22,2.63,21.95,5.84l8.93,6.07C576.11,202.13,574,204.76,566.62,204.76Z"/><path class="cls-2" d="M471.62,204.76H414.38c-7.35,0-17.22-2.63-21.95-5.84l-8.93-6.07c-4.72-3.21-2.58-5.84,4.77-5.84h57.24c7.35,0,17.22,2.63,21.95,5.84l8.93,6.07C481.11,202.13,479,204.76,471.62,204.76Z"/><path class="cls-2" d="M679.38,180.76H622.14c-7.35,0-17.22-2.63-21.95-5.84l-8.93-6.07c-4.72-3.21-2.58-5.84,4.77-5.84h57.24c7.35,0,17.22,2.63,21.95,5.84l8.93,6.07C688.87,178.13,686.73,180.76,679.38,180.76Z"/><path class="cls-2" d="M581.62,180.76H524.38c-7.35,0-17.22-2.63-21.95-5.84l-8.93-6.07c-4.72-3.21-2.58-5.84,4.77-5.84h57.24c7.35,0,17.22,2.63,21.95,5.84l8.93,6.07C591.11,178.13,589,180.76,581.62,180.76Z"/><path class="cls-2" d="M486.62,180.76H429.38c-7.35,0-17.22-2.63-21.95-5.84l-8.93-6.07c-4.72-3.21-2.58-5.84,4.77-5.84h57.24c7.35,0,17.22,2.63,21.95,5.84l8.93,6.07C496.11,178.13,494,180.76,486.62,180.76Z"/><path class="cls-2" d="M587.38,154.76H530.14c-7.35,0-17.22-2.63-21.95-5.84l-8.93-6.07c-4.72-3.21-2.58-5.84,4.77-5.84h57.24c7.35,0,17.22,2.63,21.95,5.84l8.93,6.07C596.87,152.13,594.73,154.76,587.38,154.76Z"/><path class="cls-2" d="M489.62,154.76H432.38c-7.35,0-17.22-2.63-21.95-5.84l-8.93-6.07c-4.72-3.21-2.58-5.84,4.77-5.84h57.24c7.35,0,17.22,2.63,21.95,5.84l8.93,6.07C499.11,152.13,497,154.76,489.62,154.76Z"/><path class="cls-2" d="M394.62,154.76H337.38c-7.35,0-17.22-2.63-21.95-5.84l-8.93-6.07c-4.72-3.21-2.58-5.84,4.77-5.84h57.24c7.35,0,17.22,2.63,21.95,5.84l8.93,6.07C404.11,152.13,402,154.76,394.62,154.76Z"/><path class="cls-2" d="M321.62,132.76H264.38c-7.35,0-17.22-2.63-21.95-5.84l-8.93-6.07c-4.72-3.21-2.58-5.84,4.77-5.84h57.24c7.35,0,17.22,2.63,21.95,5.84l8.93,6.07C331.11,130.13,329,132.76,321.62,132.76Z"/><path class="cls-2" d="M416.62,132.76H359.38c-7.35,0-17.22-2.63-21.95-5.84l-8.93-6.07c-4.72-3.21-2.58-5.84,4.77-5.84h57.24c7.35,0,17.22,2.63,21.95,5.84l8.93,6.07C426.11,130.13,424,132.76,416.62,132.76Z"/><path class="cls-2" d="M505.62,129.76H448.38c-7.35,0-17.22-2.63-21.95-5.84l-8.93-6.07c-4.72-3.21-2.58-5.84,4.77-5.84h57.24c7.35,0,17.22,2.63,21.95,5.84l8.93,6.07C515.11,127.13,513,129.76,505.62,129.76Z"/><path class="cls-2" d="M502.84,108.76H447.36c-7.12,0-16.69-2.63-21.27-5.84l-8.65-6.07c-4.58-3.21-2.5-5.84,4.62-5.84h55.48c7.12,0,16.69,2.63,21.27,5.84l8.65,6.07C512,106.13,510,108.76,502.84,108.76Z"/><path class="cls-2" d="M328.33,104.76H277.59c-6.51,0-15.27-2.63-19.45-5.84l-7.91-6.07C246,89.63,247.94,87,254.45,87h50.74c6.51,0,15.27,2.63,19.45,5.84l7.91,6.07C336.75,102.13,334.85,104.76,328.33,104.76Z"/><path class="cls-2" d="M412.55,104.76H361.81c-6.51,0-15.27-2.63-19.45-5.84l-7.91-6.07c-4.19-3.21-2.29-5.84,4.23-5.84h50.74c6.51,0,15.27,2.63,19.45,5.84l7.91,6.07C421,102.13,419.06,104.76,412.55,104.76Z"/><path class="cls-2" d="M347.33,83.76H296.59c-6.51,0-15.27-2.63-19.45-5.84l-7.91-6.07C265,68.63,266.94,66,273.45,66h50.74c6.51,0,15.27,2.63,19.45,5.84l7.91,6.07C355.75,81.13,353.85,83.76,347.33,83.76Z"/><path class="cls-2" d="M431.55,83.76H380.81c-6.51,0-15.27-2.63-19.45-5.84l-7.91-6.07c-4.19-3.21-2.29-5.84,4.23-5.84h50.74c6.51,0,15.27,2.63,19.45,5.84l7.91,6.07C440,81.13,438.06,83.76,431.55,83.76Z"/><path class="cls-2" d="M290.33,58.76H239.59c-6.51,0-15.27-2.63-19.45-5.84l-7.91-6.07C208,43.63,209.94,41,216.45,41h50.74c6.51,0,15.27,2.63,19.45,5.84l7.91,6.07C298.75,56.13,296.85,58.76,290.33,58.76Z"/><path class="cls-2" d="M374.55,58.76H323.81c-6.51,0-15.27-2.63-19.45-5.84l-7.91-6.07c-4.19-3.21-2.29-5.84,4.23-5.84h50.74c6.51,0,15.27,2.63,19.45,5.84l7.91,6.07C383,56.13,381.06,58.76,374.55,58.76Z"/><path class="cls-2" d="M268.33,30.76H217.59c-6.51,0-15.27-2.63-19.45-5.84l-7.91-6.07C186,15.63,187.94,13,194.45,13h50.74c6.51,0,15.27,2.63,19.45,5.84l7.91,6.07C276.75,28.13,274.85,30.76,268.33,30.76Z"/><path class="cls-2" d="M352.55,30.76H301.81c-6.51,0-15.27-2.63-19.45-5.84l-7.91-6.07c-4.19-3.21-2.29-5.84,4.23-5.84h50.74c6.51,0,15.27,2.63,19.45,5.84l7.91,6.07C361,28.13,359.06,30.76,352.55,30.76Z"/></g></g></svg>