<svg xmlns="http://www.w3.org/2000/svg" viewBox="0 0 152.67 128.58"><defs><style>.cls-1{fill:#fff;opacity:0.75;isolation:isolate;}.cls-2{fill:#af5e5a;}.cls-3{fill:#d46d64;}</style></defs><title>forward-button-left</title><g id="Layer_2" data-name="Layer 2"><g id="Layer_1-2" data-name="Layer 1"><g id="Layer_2-2" data-name="Layer 2"><g id="Layer_4" data-name="Layer 4"><path class="cls-1" d="M152.67,64.3c0,5.76-1.9,17-2.12,18.31l-.09.54-.16.53c-3.28,10.93-15.18,15.8-29,11.93l-7.85-2.22,1.34,9.77v.62c0,9.57-4.37,17.81-11.7,22-6.8,3.92-14.95,3.72-22.36-.56L12.43,85.76a24.81,24.81,0,0,1,0-43L80.77,3.36c7.41-4.28,15.56-4.48,22.36-.56,7.33,4.23,11.7,12.47,11.7,22v.62l-1.34,9.77L121.34,33a28,28,0,0,1,17.2.17A19,19,0,0,1,150.16,44.5l.26.73.13.76C150.77,47.26,152.67,58.55,152.67,64.3Z"/><path class="cls-2" d="M138.87,64.18c0-4.85-1.85-15.48-1.85-15.48-1.73-4.88-8.09-7.81-16.6-5.41L100.8,48.83l2.87-21.22c0-11.29-9.29-18.35-19.07-12.7L21.15,51.61a14.53,14.53,0,0,0-7.33,12.58Z"/><path class="cls-3" d="M21.15,77l63.52,36.66c9.76,5.64,19-1.42,19-12.71l-2.92-21.19,19.67,5.53c8.51,2.4,15,0,16.6-5.41,0,0,1.85-10.81,1.85-15.6v-.12H13.82A14.53,14.53,0,0,0,21.15,77Z"/></g></g></g></g></svg>