<svg xmlns="http://www.w3.org/2000/svg" viewBox="0 0 128.58 152.67"><defs><style>.cls-1{fill:#fff;opacity:0.75;isolation:isolate;}.cls-2{fill:#af5e5a;}.cls-3{fill:#d46d64;}</style></defs><title>forward-button-up</title><g id="Layer_2" data-name="Layer 2"><g id="Layer_1-2" data-name="Layer 1"><g id="Layer_2-2" data-name="Layer 2"><g id="Layer_4" data-name="Layer 4"><path class="cls-1" d="M64.28,152.67c-5.76,0-17-1.9-18.31-2.12l-.54-.09-.53-.16C34,147,29.1,135.12,33,121.34l2.22-7.85-9.77,1.34H24.8c-9.57,0-17.81-4.37-22-11.7-3.92-6.8-3.72-14.95.56-22.36L42.82,12.43a24.81,24.81,0,0,1,43,0l39.4,68.34c4.28,7.41,4.48,15.56.56,22.36-4.23,7.33-12.47,11.7-22,11.7h-.62l-9.77-1.34,2.18,7.85a28,28,0,0,1-.17,17.2,19,19,0,0,1-11.32,11.62l-.73.26-.76.13C81.32,150.77,70,152.67,64.28,152.67Z"/><path class="cls-2" d="M64.4,138.87c4.85,0,15.48-1.85,15.48-1.85,4.88-1.73,7.81-8.09,5.41-16.6L79.75,100.8,101,103.67c11.29,0,18.35-9.29,12.7-19.07L77,21.15a14.53,14.53,0,0,0-12.58-7.33Z"/><path class="cls-3" d="M51.57,21.15,14.91,84.67c-5.64,9.76,1.42,19,12.71,19l21.19-2.92-5.53,19.67c-2.4,8.51,0,15,5.41,16.6,0,0,10.81,1.85,15.6,1.85h.12V13.82A14.53,14.53,0,0,0,51.57,21.15Z"/></g></g></g></g></svg>