<svg xmlns="http://www.w3.org/2000/svg" viewBox="0 0 152.67 128.58"><defs><style>.cls-1{fill:#fff;opacity:0.75;isolation:isolate;}.cls-2{fill:#af5e5a;}.cls-3{fill:#d46d64;}</style></defs><title>forward-button-right</title><g id="Layer_2" data-name="Layer 2"><g id="Layer_1-2" data-name="Layer 1"><g id="Layer_2-2" data-name="Layer 2"><g id="Layer_4" data-name="Layer 4"><path class="cls-1" d="M0,64.28c0-5.76,1.9-17,2.12-18.31l.09-.54.16-.53C5.65,34,17.55,29.1,31.33,33l7.85,2.22-1.34-9.77V24.8c0-9.57,4.37-17.81,11.7-22,6.8-3.92,15-3.72,22.36.56l68.34,39.46a24.81,24.81,0,0,1,0,43L71.9,125.22c-7.41,4.28-15.56,4.48-22.36.56-7.33-4.23-11.7-12.47-11.7-22v-.62l1.34-9.77-7.85,2.18a28,28,0,0,1-17.2-.17A19,19,0,0,1,2.51,84.08l-.26-.73-.13-.76C1.9,81.32,0,70,0,64.28Z"/><path class="cls-2" d="M13.8,64.4c0,4.85,1.85,15.48,1.85,15.48,1.73,4.88,8.09,7.81,16.6,5.41l19.62-5.54L49,101c0,11.29,9.29,18.35,19.07,12.7L131.52,77a14.53,14.53,0,0,0,7.33-12.58Z"/><path class="cls-3" d="M131.52,51.57,68,14.91c-9.76-5.64-19,1.42-19,12.71l2.92,21.19L32.25,43.28c-8.51-2.4-15,0-16.6,5.41,0,0-1.85,10.81-1.85,15.6v.12H138.85A14.53,14.53,0,0,0,131.52,51.57Z"/></g></g></g></g></svg>