<?xml version="1.0" encoding="utf-8"?>
<!-- Generator: Adobe Illustrator 21.1.0, SVG Export Plug-In . SVG Version: 6.00 Build 0)  -->
<svg version="1.1" id="Layer_1" xmlns="http://www.w3.org/2000/svg" xmlns:xlink="http://www.w3.org/1999/xlink" x="0px" y="0px"
	 viewBox="0 0 152.6 128.6" style="enable-background:new 0 0 152.6 128.6;" xml:space="preserve">
<style type="text/css">
	.st0{opacity:0.75;fill:#FFFFFF;enable-background:new    ;}
	.st1{fill:#AF5E5A;}
	.st2{fill:#D46D64;}
</style>
<title>sn8ke</title>
<g id="Layer_2">
	<g id="Layer_4">
		<path class="st0" d="M-72.1-150.7c0-5.8,1.9-17,2.1-18.3l0.1-0.5l0.2-0.5c3.3-10.9,15.2-15.8,29-11.9l7.9,2.2l-1.3-9.8v-0.6
			c0-9.6,4.4-17.8,11.7-22c6.8-3.9,15-3.7,22.4,0.6l68.3,39.5c11.9,6.8,16,22,9.1,33.9c-2.2,3.8-5.3,6.9-9.1,9.1L-0.2-89.8
			c-7.4,4.3-15.6,4.5-22.4,0.6c-7.3-4.2-11.7-12.5-11.7-22v-0.6l1.3-9.8l-7.9,2.2c-5.6,1.7-11.6,1.7-17.2-0.2
			c-5.4-1.8-9.6-6-11.6-11.3l-0.3-0.7l-0.1-0.8C-70.2-133.7-72.1-144.9-72.1-150.7z"/>
		<path class="st1" d="M-58.3-150.6c0,4.8,1.8,15.5,1.8,15.5c1.7,4.9,8.1,7.8,16.6,5.4l19.6-5.5l-2.9,21.2
			c0,11.3,9.3,18.4,19.1,12.7L59.4-138c4.5-2.6,7.3-7.4,7.3-12.6L-58.3-150.6z"/>
		<path class="st2" d="M59.4-163.4l-63.5-36.7c-9.8-5.6-19,1.4-19,12.7l2.9,21.2l-19.7-5.5c-8.5-2.4-15,0-16.6,5.4
			c0,0-1.9,10.8-1.9,15.6c0,0,0,0.1,0,0.1l125.1,0C66.8-155.9,64-160.8,59.4-163.4z"/>
	</g>
</g>
<g id="Layer_2_2_">
	<g id="Layer_4_2_">
		<path class="st0" d="M178.7-227c5.8,0,17,1.9,18.3,2.1l0.5,0.1l0.5,0.2c10.9,3.3,15.8,15.2,11.9,29l-2.2,7.9l9.8-1.3h0.6
			c9.6,0,17.8,4.4,22,11.7c3.9,6.8,3.7,15-0.6,22.4l-39.5,68.3c-6.8,11.9-22,16-33.9,9.1c-3.8-2.2-6.9-5.3-9.1-9.1l-39.4-68.3
			c-4.3-7.4-4.5-15.6-0.6-22.4c4.2-7.3,12.5-11.7,22-11.7h0.6l9.8,1.3l-2.2-7.9c-1.7-5.6-1.7-11.6,0.2-17.2c1.8-5.4,6-9.6,11.3-11.6
			l0.7-0.3l0.8-0.1C161.6-225.1,172.9-227,178.7-227z"/>
		<path class="st1" d="M178.6-213.2c-4.8,0-15.5,1.8-15.5,1.8c-4.9,1.7-7.8,8.1-5.4,16.6l5.5,19.6L142-178
			c-11.3,0-18.4,9.3-12.7,19.1L166-95.5c2.6,4.5,7.4,7.3,12.6,7.3L178.6-213.2z"/>
		<path class="st2" d="M191.4-95.5l36.7-63.5c5.6-9.8-1.4-19-12.7-19l-21.2,2.9l5.5-19.7c2.4-8.5,0-15-5.4-16.6
			c0,0-10.8-1.9-15.6-1.9c0,0-0.1,0-0.1,0l0,125.1C183.9-88.1,188.8-90.9,191.4-95.5z"/>
	</g>
</g>
<g id="Layer_2_3_">
	<g id="Layer_4_3_">
		<path class="st0" d="M423.9-150.7c0,5.8-1.9,17-2.1,18.3l-0.1,0.5l-0.2,0.5c-3.3,10.9-15.2,15.8-29,11.9l-7.9-2.2l1.3,9.8v0.6
			c0,9.6-4.4,17.8-11.7,22c-6.8,3.9-15,3.7-22.4-0.6l-68.3-39.5c-11.9-6.8-16-22-9.1-33.9c2.2-3.8,5.3-6.9,9.1-9.1l68.3-39.4
			c7.4-4.3,15.6-4.5,22.4-0.6c7.3,4.2,11.7,12.5,11.7,22v0.6l-1.3,9.8l7.8-2.2c5.6-1.7,11.6-1.7,17.2,0.2c5.4,1.8,9.6,6,11.6,11.3
			l0.3,0.7l0.1,0.8C422-167.7,423.9-156.4,423.9-150.7z"/>
		<path class="st1" d="M410.1-150.8c0-4.8-1.8-15.5-1.8-15.5c-1.7-4.9-8.1-7.8-16.6-5.4l-19.6,5.5l2.9-21.2
			c0-11.3-9.3-18.4-19.1-12.7l-63.5,36.7c-4.5,2.6-7.3,7.4-7.3,12.6L410.1-150.8z"/>
		<path class="st2" d="M292.4-138l63.5,36.7c9.8,5.6,19-1.4,19-12.7l-2.9-21.2l19.7,5.5c8.5,2.4,15,0,16.6-5.4
			c0,0,1.8-10.8,1.8-15.6c0,0,0-0.1,0-0.1l-125.1,0C285-145.5,287.8-140.6,292.4-138z"/>
	</g>
</g>
<title>sn8ke</title>
<g id="Layer_2_1_">
	<g id="Layer_4_1_">
		<path class="st0" d="M-165.8-74.3c-5.8,0-17-1.9-18.3-2.1l-0.5-0.1l-0.5-0.2c-10.9-3.3-15.8-15.2-11.9-29l2.2-7.8l-9.8,1.3l-0.6,0
			c-9.6,0-17.8-4.4-22-11.7c-3.9-6.8-3.7-15,0.6-22.4l39.5-68.3c6.8-11.9,22-16,33.9-9.1c3.8,2.2,6.9,5.3,9.1,9.1l39.4,68.3
			c4.3,7.4,4.5,15.6,0.6,22.4c-4.2,7.3-12.5,11.7-22,11.7h-0.6l-9.8-1.3l2.2,7.8c1.7,5.6,1.7,11.6-0.2,17.2
			c-1.8,5.4-6,9.6-11.3,11.6l-0.7,0.3l-0.8,0.1C-148.7-76.2-160-74.3-165.8-74.3z"/>
		<path class="st1" d="M-165.7-88.1c4.9,0,15.5-1.8,15.5-1.8c4.9-1.7,7.8-8.1,5.4-16.6l-5.5-19.6l21.2,2.9
			c11.3,0,18.3-9.3,12.7-19.1l-36.7-63.5c-2.6-4.5-7.4-7.3-12.6-7.3L-165.7-88.1z"/>
		<path class="st2" d="M-178.5-205.9l-36.7,63.5c-5.6,9.8,1.4,19,12.7,19l21.2-2.9l-5.5,19.7c-2.4,8.5,0,15,5.4,16.6
			c0,0,10.8,1.8,15.6,1.8c0,0,0.1,0,0.1,0l0-125.1C-170.9-213.3-175.9-210.5-178.5-205.9z"/>
	</g>
</g>
</svg>
