<svg xmlns="http://www.w3.org/2000/svg" viewBox="0 0 128.58 152.67"><defs><style>.cls-1{fill:#fff;opacity:0.75;isolation:isolate;}.cls-2{fill:#af5e5a;}.cls-3{fill:#d46d64;}</style></defs><title>forward-button-down</title><g id="Layer_2" data-name="Layer 2"><g id="Layer_1-2" data-name="Layer 1"><g id="Layer_2-2" data-name="Layer 2"><g id="Layer_4" data-name="Layer 4"><path class="cls-1" d="M64.3,0c5.76,0,17,1.9,18.31,2.12l.54.09.53.16c10.93,3.28,15.8,15.18,11.93,29l-2.22,7.85,9.77-1.34h.62c9.57,0,17.81,4.37,22,11.7,3.92,6.8,3.72,15-.56,22.36L85.76,140.24a24.81,24.81,0,0,1-43,0L3.36,71.9C-.92,64.49-1.12,56.34,2.8,49.54c4.23-7.33,12.47-11.7,22-11.7h.62l9.77,1.34L33,31.33a28,28,0,0,1,.17-17.2A19,19,0,0,1,44.5,2.51l.73-.26L46,2.12C47.26,1.9,58.55,0,64.3,0Z"/><path class="cls-2" d="M64.18,13.8c-4.85,0-15.48,1.85-15.48,1.85-4.88,1.73-7.81,8.09-5.41,16.6l5.54,19.62L27.61,49c-11.29,0-18.35,9.29-12.7,19.07l36.7,63.45a14.53,14.53,0,0,0,12.58,7.33Z"/><path class="cls-3" d="M77,131.52,113.67,68c5.64-9.76-1.42-19-12.71-19L79.77,51.92,85.3,32.25c2.4-8.51,0-15-5.41-16.6,0,0-10.81-1.85-15.6-1.85h-.12V138.85A14.53,14.53,0,0,0,77,131.52Z"/></g></g></g></g></svg>