<svg xmlns="http://www.w3.org/2000/svg" viewBox="0 0 306.1 260.01"><defs><style>.cls-1,.cls-5{fill:#f0f0f0;}.cls-1{stroke:#d46d64;stroke-miterlimit:10;stroke-width:10px;}.cls-2{fill:#515151;}.cls-3{fill:#d46d64;}.cls-4{fill:#649081;}.cls-5{font-size:33.78px;font-family:Quicksand-Regular, Quicksand;letter-spacing:-0.08em;}</style></defs><title>payment-food</title><g id="Layer_2" data-name="Layer 2"><g id="Layer_4" data-name="Layer 4"><path class="cls-1" d="M179.64,255h-.22q-3.27.08-6.53,0H25A20,20,0,0,1,6.27,228l16.53-44.42h0L58,89q1-2.75,2-5.46l.08-.23h0A125,125,0,1,1,179.64,255Z"/><path class="cls-2" d="M256.62,81.91h-.68A4.13,4.13,0,0,0,251.82,86V98.1H247a4,4,0,0,0,0-.4V81.23a4.13,4.13,0,0,0-4.11-4.11h-.68a4.13,4.13,0,0,0-4.11,4.11V97.69a4,4,0,0,0,0,.4H233.3V86a4.13,4.13,0,0,0-4.11-4.11h-.68A4.13,4.13,0,0,0,224.39,86v16.72a3.87,3.87,0,0,0,3.86,3.86h8.42s0,.09,0,.14v71.53a4.64,4.64,0,0,0,4.62,4.62h2.56a4.64,4.64,0,0,0,4.62-4.62V106.74s0-.09,0-.14h8.42a3.87,3.87,0,0,0,3.86-3.86V86A4.13,4.13,0,0,0,256.62,81.91Z"/><path class="cls-2" d="M107.95,76.87h-1.13A17.38,17.38,0,0,0,89.44,94.25v40.08A5.54,5.54,0,0,0,95,139.86h2.28V178a5.19,5.19,0,0,0,5.18,5.18h3.46a5.19,5.19,0,0,0,5.18-5.18V80A3.11,3.11,0,0,0,107.95,76.87Z"/><path class="cls-2" d="M172.06,78.41a51.6,51.6,0,1,0,51.6,51.6A51.6,51.6,0,0,0,172.06,78.41Zm0,95.91A44.31,44.31,0,1,1,216.36,130,44.36,44.36,0,0,1,172.06,174.31Zm0-9.42c-19,0-34.38-15.65-34.38-34.89s15.42-34.89,34.38-34.89,34.38,15.65,34.38,34.89S191,164.9,172.06,164.9Z"/><path class="cls-3" d="M258.62,171.64a11.39,11.39,0,0,0-8.57-11,11.39,11.39,0,0,0-19.77-11.16,11.39,11.39,0,0,0-11.68,0,11.39,11.39,0,0,0-19.91,10.86,11.39,11.39,0,0,0,.11,22.07,11.39,11.39,0,0,0,14.59,15.31,11.39,11.39,0,0,0,22,.19,11.39,11.39,0,0,0,14.27-15.09A11.39,11.39,0,0,0,258.62,171.64Z"/><path class="cls-4" d="M235.44,128.8s-10,2-13.46,9.87c-2.88,6.48.13,13.53,1.28,15.83-5.2-9.83-8-20.08-7.19-30.24l-8.47.45a55.1,55.1,0,0,0,16.07,30.56s8.92-2.45,12.42-10.33S235.44,128.8,235.44,128.8Z"/><text class="cls-5" transform="translate(210.98 186.05)">10</text></g></g></svg>