<svg xmlns="http://www.w3.org/2000/svg" viewBox="0 0 306.1 260.01"><defs><style>.cls-1,.cls-5{fill:#f0f0f0;}.cls-1{stroke:#d46d64;stroke-miterlimit:10;stroke-width:10px;}.cls-2{fill:#515151;}.cls-3{fill:#d46d64;}.cls-4{fill:#649081;}.cls-5{font-size:33.78px;font-family:Quicksand-Regular, Quicksand;letter-spacing:-0.08em;}</style></defs><title>payment-cooking</title><g id="Layer_2" data-name="Layer 2"><g id="Layer_4" data-name="Layer 4"><path class="cls-1" d="M179.64,255h-.22q-3.27.08-6.53,0H25A20,20,0,0,1,6.27,228l16.53-44.42h0L58,89q1-2.75,2-5.46l.08-.23h0A125,125,0,1,1,179.64,255Z"/><path class="cls-2" d="M203.4,77.68A35.22,35.22,0,0,0,190.69,80a35.32,35.32,0,0,0-56.78,0,35.32,35.32,0,1,0-15.52,68.16v41.06a6.78,6.78,0,0,0,6.76,6.76h74.32a6.78,6.78,0,0,0,6.76-6.76V148.2a35.32,35.32,0,0,0-2.81-70.52ZM129.65,184.76V165.27H195v19.49ZM205.33,137,195,137.8v16.38H129.65V137.8L119.28,137a24.06,24.06,0,1,1,10.59-46.43l8,3.08,5.1-6.88a24.06,24.06,0,0,1,38.69,0l5.1,6.88,8-3.08A24.06,24.06,0,1,1,205.33,137Z"/><path class="cls-3" d="M261.69,171.64a11.39,11.39,0,0,0-8.57-11,11.39,11.39,0,0,0-19.77-11.16,11.39,11.39,0,0,0-11.68,0,11.39,11.39,0,0,0-19.91,10.86,11.39,11.39,0,0,0,.11,22.07,11.39,11.39,0,0,0,14.59,15.31,11.39,11.39,0,0,0,22,.19,11.39,11.39,0,0,0,14.27-15.09A11.39,11.39,0,0,0,261.69,171.64Z"/><path class="cls-4" d="M238.51,128.8s-10,2-13.46,9.87c-2.88,6.48.13,13.53,1.28,15.83-5.2-9.83-8-20.08-7.19-30.24l-8.47.45a55.1,55.1,0,0,0,16.07,30.56s8.92-2.45,12.42-10.33S238.51,128.8,238.51,128.8Z"/><text class="cls-5" transform="translate(214.06 186.05)">10</text></g></g></svg>