<svg xmlns="http://www.w3.org/2000/svg" viewBox="0 0 1903.61 1191.8"><defs><style>.cls-1{fill:#69655c;}.cls-2{fill:#c2bbac;}.cls-3{fill:#8a857a;}.cls-4{fill:#e3dbc9;}.cls-5{fill:#a39d90;}</style></defs><title>scroll</title><g id="Layer_2" data-name="Layer 2"><g id="Layer_1-2" data-name="Layer 1"><g id="Layer1_0_FILL" data-name="Layer1 0 FILL"><path class="cls-1" d="M18.24,994.52q-1.35,5-3,11.05-.35,1.3-.7,2.55a79.8,79.8,0,0,1,6.75,12.6q1.7,4.3-.35,6.1a6.53,6.53,0,0,1-3.55,1q-3.4.1-7.65-.15h-.2q-.3,1.3-.5,2.45A158.92,158.92,0,0,0,5.49,1055q-.9,17.3-4.2,39.55a91.91,91.91,0,0,0,3.4,42.7q6.7,20.35,17.15,31.7t16.65,13.85a126,126,0,0,1,12,5.6,28.66,28.66,0,0,0,12.1,3.35,23.88,23.88,0,0,0,11.3-2.35,34.19,34.19,0,0,0,3-1.7,33.75,33.75,0,0,0,10.8-10.9,46.51,46.51,0,0,0,4.3-8.65,18.46,18.46,0,0,0,2-.2,37.13,37.13,0,0,0,4.8-1.15q1.6-.55,4.75-1.5a32.58,32.58,0,0,1,16.4-.3,57.62,57.62,0,0,0-13.2-12,58.64,58.64,0,0,0-10-5.35,365.3,365.3,0,0,0,3.9-41.25,104.75,104.75,0,0,0-50.45,16.05q-2.8-10.45-4.6-21.1a123.36,123.36,0,0,0,13.15-5.7q1.4-.75,1.45-1.5.3-1-1.15-2a24.35,24.35,0,0,0-5.75-2.85l-9.8-3.6q-.4-4.2-.7-8.4a224.9,224.9,0,0,1,1.75-45.7q.65-5.45,1.6-9.85a106.25,106.25,0,0,1-27.9-27.15M42.59,105.87q-.35,6-.4,12.05l12.95,1.8q7.45,1.1,10.85,1.9a47.75,47.75,0,0,1,10.4,3.3,16.67,16.67,0,0,1-8.25,2.4q-6,0-9,.2-1.55.1-4.25.35-3,.35-4.25.45a46.7,46.7,0,0,1-8.2-.25h-.05a176.67,176.67,0,0,0,2,20.05,84.71,84.71,0,0,0,2.3,11.65,45.67,45.67,0,0,0,4.6,11,32.63,32.63,0,0,0,8.2,9.1q5.3,4,13.4,4a43.41,43.41,0,0,0,12.35-10.15,54,54,0,0,0,9.15-15.65,73.84,73.84,0,0,0,3.75-13.9A103.76,103.76,0,0,1,126,142a5,5,0,0,0,2.15-.25,1.58,1.58,0,0,0,1.2-1.3q0-1-1.5-2-5.75-4.15-21.45-12.8-3.35-1.85-6.25-3.55.65-13.45.6-26.05,0-8.8-.35-17.15a112.16,112.16,0,0,1-21-3A107.6,107.6,0,0,1,50,64.12a196.87,196.87,0,0,0-7.4,41.75M1865.27,1022a184.31,184.31,0,0,1,3.75,21.15,4.32,4.32,0,0,0,.05.6q-2,0-3.6.1a41.6,41.6,0,0,0-11.55,2.2l3.9,2.35q4.3,2.5,12.35,7.4.5,7.75.85,17.45l-4,.55q-8.25,1.35-13.45,1.7-2.35.15-3,1.05a4.48,4.48,0,0,0-.2,3.1,102.83,102.83,0,0,0,3,10.25,209,209,0,0,0-31.4-3.45q-9.45-.35-18.8.15,1.85,11.15,5.9,27,1,4.05,2.1,7.9-10.85,2.8-21.6,6.65a11.48,11.48,0,0,0,2.35,1.55q.25.15,2.65,1.2l12.75,4.95q6.15,2.45,9.5,3.65,1.9,5.2,3.8,9.55,8.3,18.6,20.45,30,9.3,8.7,18.85,10.8l4.5.6a24.34,24.34,0,0,0,2.7,0,31.54,31.54,0,0,0,15.75-5.45,40.91,40.91,0,0,0,14.35-16.45,61.64,61.64,0,0,0,5.75-20.9,147.38,147.38,0,0,0,.45-22q-1.9-39.15-14.35-88.5-3-12.1-7.25-27-5,6-16.55,11.8M1854,113.62q-.5-.15-.45-.5,1.35-.4,4.2-1.1a78.9,78.9,0,0,0,12-3.6q.55-.2,1.15-.45.3-8.15.35-17.75a222.5,222.5,0,0,1-49.4,7.1q-9.5.35-18.85-.15a5.32,5.32,0,0,0-.2,1,136,136,0,0,0-1.9,15.6q-.35,5.55-.2,10.7a102.07,102.07,0,0,0,1.2,12.25,132.07,132.07,0,0,0,2.85,14.2q.45,1.8.95,3.7,2.7,9.8,9.65,29.45a52,52,0,0,0,3.4,7.8,16.5,16.5,0,0,0,5.75,6.2,12.76,12.76,0,0,0,3.35,1.4,15.63,15.63,0,0,0,3.35.55q.5,0,1.05,0a17.67,17.67,0,0,0,1.85-.1,20.3,20.3,0,0,0,9.45-3.25,30.08,30.08,0,0,0,7.55-7.35,89.41,89.41,0,0,1-20.15-6.9,82.07,82.07,0,0,0,26.55-4.2l.35-.6a152.55,152.55,0,0,1-35.35-29.35q22.5-1.7,44.85-1.4.85-4.7,1.5-9.6,1.2-9.3,1.8-23.55l-10.05-.35q-1.85,0-2.75,0a21.28,21.28,0,0,0-2.8.25A1.46,1.46,0,0,1,1854,113.62Z"/><path class="cls-2" d="M1800.87,1057.07a156.73,156.73,0,0,1,5-32.6q2.45-9.65,8.45-28.1-96.1,21.15-193.9,33.45a2142,2142,0,0,1-229.55,16.45c-27.73.47-752.08.42-786.58-.15q-32-.5-93.4-2.15-141.4-3.65-214.15-7.8-113.05-6.6-203.9-19.75.9,2.05,1.7,4.3a93.42,93.42,0,0,1,4.25,18.55q.2,1.6.4,3.45l34.15,5.15q-6,3.4-22.25,9.25-6,2.1-10.65,4.2.6,14.2.55,27.45,195.05-.4,293.95-.5c160.1-.27,973.44-.6,1053.58-1q196.3-.9,354.25-3.1a145.34,145.34,0,0,1-1.9-27.1m-63.2-844.9q-26.4-9.25-60.2-15-22.7-3.9-61.75-8.05c-197.3-20.6-1088.29-26.9-1286.53-18.9q-60.8,2.45-97.4,7.9-53.2,7.8-93.25,25.55-38.05,16.9-62.25,44.45a118.05,118.05,0,0,0-18.65,28q7.15,19.15,16.65,55.9a92.26,92.26,0,0,1,13.6,2.9l-10.45,9.6a9.06,9.06,0,0,0,.25.9l15.5,3.35a5.22,5.22,0,0,1,2.8,1.2,2.7,2.7,0,0,1,.75,2,4,4,0,0,1-.65,2.2,11.47,11.47,0,0,1-3.3,3q-3.55,2.35-10.5,7.1a7.44,7.44,0,0,0,.15.75q15,62.9,14,198.1.45,36,.05,67.7a162.62,162.62,0,0,0,14.75,10.15,10.36,10.36,0,0,1,3.4,3,3.36,3.36,0,0,1,.65,3.7,6.32,6.32,0,0,1-3.35,2.2,88,88,0,0,1-12.1,3.7q3.6,2.85,10.75,8.6A25.54,25.54,0,0,1,99.19,664a27.88,27.88,0,0,1-3.4-.4q-2.7,85.75-13.15,133.3-17.15,77.8-27.9,104.65l-.65,1.6a48.37,48.37,0,0,1,6.3,8.25A5.22,5.22,0,0,1,61,913a1.75,1.75,0,0,1-.45,1.5,2.72,2.72,0,0,1-2.75.2l-7.8-2.1q-1.6,3.75-3.7,8.3,1.4,1.5,1.8,1.9,4.5,4.8,8.15,8.3,2.35,2.1,2.25,3.8a2.94,2.94,0,0,1-1.75,2.4,8.3,8.3,0,0,1-3.3.9,56.16,56.16,0,0,1-10.5.25q-1.65-.1-4.45-.35-6.6,14.75-10,24-3.65,9.55-7.2,21.6-1.3,4.45-3.1,10.85a106.25,106.25,0,0,0,27.9,27.15q.35-1.45.7-2.8a53.1,53.1,0,0,1,4.6-11.95,34.74,34.74,0,0,1,8.2-9.8q5.3-4.35,13.4-4.3c357.77,50.9,1404.91,45.28,1755-16.85a11.23,11.23,0,0,1,3.35-.6q.5,0,1,0a16.29,16.29,0,0,1,1.8.1,19.6,19.6,0,0,1,9.5,3.55q6.75,4.65,12.1,15.85a132.33,132.33,0,0,1,9.45,27.2q11.55-5.75,16.55-11.8-2.25-7.85-4.8-16.5l-48.65-190.1q-1.65-.65-3-1.1a65,65,0,0,0-11.5-2.95q-.9-.2-1-.45t.25-1.1a161.23,161.23,0,0,1,10.45-12.85l-.9-3.45q-30-116.8-29.6-213.65,0-7.4.3-14.9h-1.7a127.32,127.32,0,0,0-13.85.55q-.8.1-5.9.9a43.19,43.19,0,0,1-6,.65q-7.2.2-11.1-3.5a19,19,0,0,1,9.85-4.6q2.7-.5,11.4-1a97.45,97.45,0,0,0,17.7-3.2q3.85-74.3,28.7-164l13.15-47.4q-5.4-1.25-12.85-3.65-13.8-4.45-21.75-3.75a29.62,29.62,0,0,0,7.85-3q2.55-1.3,7.5-4.05a73.18,73.18,0,0,1,22.9-6.95l2.4-.35,7.3-26.4a289.66,289.66,0,0,0-111.35-71.2m48.4-181.6q2.9-.9,6.1-1.65-22,2-46.8,4.95-79.8,10.7-119.85,14.6-75.25,7.3-170.1,6.8C1418,55.11,668,53.56,591.84,50.62q-171-6.8-255.5-11.65Q200,31.12,90.49,19.12a50.15,50.15,0,0,1,3,7.55q.95,3.25,1.95,7.8a135.62,135.62,0,0,0,19.7,7.7,138.57,138.57,0,0,0,29.4,5.5q-18.9,6.15-38.35,11.7-4,1.2-6.95,1.8.85,8.65,1.25,17.75.35,8.35.35,17.15a401.45,401.45,0,0,0,80.65,22.7q41.15,7.2,91.35,8.35,38.55.85,93.2-1.95,31.1-1.6,93-5.3c87.73-4.5,868.43-3.9,955.63,1.8q33.35,2.25,100.65,7.7,60.15,4.5,100.9,5.15,54.8.85,99.75-4.2a523.85,523.85,0,0,0,85-16.55,136,136,0,0,1,1.9-15.6,5.32,5.32,0,0,1,.2-1q1.85-10.3,5.9-24.95,1.7-6.1,3.4-11.5l-23.55-5.95q16.75-.7,26-1.25,2.8-7.9,5.7-14.05.9-1.85,1.85-3.65A181.35,181.35,0,0,1,1786.07,30.57Z"/><path class="cls-3" d="M1815.52,992.62q-.65,1.9-1.2,3.75-6,18.45-8.45,28.1a156.73,156.73,0,0,0-5,32.6,145.34,145.34,0,0,0,1.9,27.1q-157.95,2.2-354.25,3.1c-80.13.4-893.48.73-1053.58,1q-98.9.1-293.95.5.05-13.25-.55-27.45,4.7-2.1,10.65-4.2,16.25-5.85,22.25-9.25l-34.15-5.15q-.2-1.85-.4-3.45a93.42,93.42,0,0,0-4.25-18.55q-.8-2.25-1.7-4.3a58.52,58.52,0,0,0-7.45-12.65A43.35,43.35,0,0,0,73,992.82q-8.1,0-13.4,4.3a34.74,34.74,0,0,0-8.2,9.8,53.1,53.1,0,0,0-4.6,11.95q-.35,1.35-.7,2.8-.95,4.4-1.6,9.85a224.9,224.9,0,0,0-1.75,45.7q.3,4.2.7,8.4l9.8,3.6a24.35,24.35,0,0,1,5.75,2.85q1.45,1,1.15,2-.05.75-1.45,1.5a123.36,123.36,0,0,1-13.15,5.7q1.8,10.65,4.6,21.1a104.75,104.75,0,0,1,50.45-16.05,365.3,365.3,0,0,1-3.9,41.25,58.64,58.64,0,0,1,10,5.35,57.62,57.62,0,0,1,13.2,12,32.58,32.58,0,0,0-16.4.3q-3.15.95-4.75,1.5a37.13,37.13,0,0,1-4.8,1.15,18.46,18.46,0,0,1-2,.2,46.51,46.51,0,0,1-4.3,8.65,33.75,33.75,0,0,1-10.8,10.9,34.19,34.19,0,0,1-3,1.7c389-46.43,1446.51-46.28,1786.08.45q-9.55-2.1-18.85-10.8-12.15-11.4-20.45-30-1.9-4.35-3.8-9.55-3.35-1.2-9.5-3.65l-12.75-4.95q-2.4-1.05-2.65-1.2a11.48,11.48,0,0,1-2.35-1.55q10.75-3.85,21.6-6.65-1.1-3.85-2.1-7.9-4.05-15.85-5.9-27,9.35-.5,18.8-.15a209,209,0,0,1,31.4,3.45,102.83,102.83,0,0,1-3-10.25,4.48,4.48,0,0,1,.2-3.1q.65-.9,3-1.05,5.2-.35,13.45-1.7l4-.55q-.35-9.7-.85-17.45-8-4.9-12.35-7.4l-3.9-2.35a41.6,41.6,0,0,1,11.55-2.2q1.6-.1,3.6-.1a4.32,4.32,0,0,1-.05-.6,184.31,184.31,0,0,0-3.75-21.15,132.33,132.33,0,0,0-9.45-27.2q-5.35-11.2-12.1-15.85a19.6,19.6,0,0,0-9.5-3.55,16.29,16.29,0,0,0-1.8-.1q-.55,0-1,0a11.23,11.23,0,0,0-3.35.6,12.13,12.13,0,0,0-3.35,1.5,17.71,17.71,0,0,0-5.75,6.7,57.29,57.29,0,0,0-3.4,8.45M1782,143.27a3.11,3.11,0,0,0-1.35,1.45q8.75,2.3,24.1,6.2a132.07,132.07,0,0,1-2.85-14.2q-8.65,2.6-18.05,5.75a11.93,11.93,0,0,0-1.85.8m10.2-114.35q-3.2.75-6.1,1.65a181.35,181.35,0,0,0,36.2,5.25q-.95,1.8-1.85,3.65-2.9,6.15-5.7,14.05-9.25.55-26,1.25l23.55,5.95q-1.7,5.4-3.4,11.5-4.05,14.65-5.9,24.95,9.35.5,18.85.15a222.5,222.5,0,0,0,49.4-7.1q0,9.6-.35,17.75-.1,3-.25,5.8-.6,14.25-1.8,23.55-.65,4.9-1.5,9.6-22.35-.3-44.85,1.4a152.55,152.55,0,0,0,35.35,29.35l.55.3-.9.3a82.07,82.07,0,0,1-26.55,4.2,89.41,89.41,0,0,0,20.15,6.9,30.08,30.08,0,0,1-7.55,7.35,20.3,20.3,0,0,1-9.45,3.25,17.67,17.67,0,0,1-1.85.1q-.55,0-1.05,0a15.63,15.63,0,0,1-3.35-.55C1477.75,142,430.61,136.82,72.84,183.92q-8.1,0-13.4-4a32.63,32.63,0,0,1-8.2-9.1,45.67,45.67,0,0,1-4.6-11,84.71,84.71,0,0,1-2.3-11.65,176.67,176.67,0,0,1-2-20.05h.05a46.7,46.7,0,0,0,8.2.25q1.2-.1,4.25-.45,2.7-.25,4.25-.35,3-.2,9-.2a16.67,16.67,0,0,0,8.25-2.4,47.75,47.75,0,0,0-10.4-3.3q-3.4-.8-10.85-1.9l-12.95-1.8q0-6,.4-12.05A196.87,196.87,0,0,1,50,64.12a107.6,107.6,0,0,0,29.5,11.8,112.16,112.16,0,0,0,21,3q-.4-9.1-1.25-17.75,2.95-.6,6.95-1.8,19.45-5.55,38.35-11.7a138.57,138.57,0,0,1-29.4-5.5,135.62,135.62,0,0,1-19.7-7.7q-1-4.55-1.95-7.8a50.15,50.15,0,0,0-3-7.55,40.15,40.15,0,0,0-3-5.3,33.26,33.26,0,0,0-10.8-10.1q-1.5-.85-3-1.55A25.38,25.38,0,0,0,62.34,0a29.85,29.85,0,0,0-12.1,3.1Q44.44,6,38.29,8.27T21.64,21.07Q11.19,31.57,4.49,50.37a78.84,78.84,0,0,0-3.4,39.45,363.52,363.52,0,0,1,4.2,36.6,136.12,136.12,0,0,0,3.55,23q1.85,8,6.2,22.7,3.75,12.95,6.1,20.25,3.55,11.15,7.2,20,4.1,10.3,12.85,28,9.8,19.7,13.35,28,1.5,3.4,3.1,7.8a118.05,118.05,0,0,1,18.65-28q24.2-27.55,62.25-44.45,40-17.75,93.25-25.55,36.6-5.45,97.4-7.9c198.23-8,1089.23-1.7,1286.53,18.9q39,4.15,61.75,8.05,33.8,5.8,60.2,15A289.66,289.66,0,0,1,1849,283.37l27.8-100.3q7.4-23.1,12.1-40.2,12.25-45.1,14.25-81a6.86,6.86,0,0,1,.05-.85q.25-4.8.25-9a94.57,94.57,0,0,0-.7-11.35,54.61,54.61,0,0,0-5.7-19.35,39.06,39.06,0,0,0-14.4-15.15,32.92,32.92,0,0,0-15.75-5.05,24.33,24.33,0,0,0-2.7.05q-2.3.25-4.5.6-9.5,1.9-18.85,10a74.15,74.15,0,0,0-11.3,12.3q-9.9.55-15.9,1.15A154.57,154.57,0,0,0,1792.17,28.92Z"/><path class="cls-4" d="M1814.32,996.37q.55-1.85,1.2-3.75a57.29,57.29,0,0,1,3.4-8.45,17.71,17.71,0,0,1,5.75-6.7A12.13,12.13,0,0,1,1828,976c-350.07,62.13-1397.21,67.75-1755,16.85a43.35,43.35,0,0,1,12.35,10.95,58.52,58.52,0,0,1,7.45,12.65q90.85,13.15,203.9,19.75,72.75,4.15,214.15,7.8,61.45,1.65,93.4,2.15c34.5.57,758.84.62,786.58.15a2142,2142,0,0,0,229.55-16.45q97.8-12.3,193.9-33.45m-.65-971.15q6-.6,15.9-1.15a74.15,74.15,0,0,1,11.3-12.3q9.35-8.05,18.85-10C1520.15,45,462.64,45.07,73.64,2.17q1.5.7,3,1.55a33.26,33.26,0,0,1,10.8,10.1,40.15,40.15,0,0,1,3,5.3Q200,31.12,336.34,39q84.5,4.85,255.5,11.65C668,53.56,1418,55.11,1455.42,55.27q94.85.5,170.1-6.8,40.05-3.9,119.85-14.6,24.8-3,46.8-4.95A154.57,154.57,0,0,1,1813.67,25.22Z"/><path class="cls-5" d="M1715.92,130.32q-45,5.05-99.75,4.2-40.75-.65-100.9-5.15-67.3-5.45-100.65-7.7c-87.2-5.7-867.89-6.3-955.63-1.8q-61.9,3.7-93,5.3-54.65,2.8-93.2,1.95-50.2-1.15-91.35-8.35a401.45,401.45,0,0,1-80.65-22.7q0,12.6-.6,26.05,2.9,1.7,6.25,3.55,15.7,8.65,21.45,12.8,1.5.95,1.5,2a1.58,1.58,0,0,1-1.2,1.3A5,5,0,0,1,126,142a103.76,103.76,0,0,0-28,2.25,73.84,73.84,0,0,1-3.75,13.9,54,54,0,0,1-9.15,15.65,43.41,43.41,0,0,1-12.35,10.15c357.77-47.1,1404.91-41.92,1755,15.55a12.76,12.76,0,0,1-3.35-1.4,16.5,16.5,0,0,1-5.75-6.2,52,52,0,0,1-3.4-7.8q-6.95-19.65-9.65-29.45-.5-1.9-.95-3.7-15.35-3.9-24.1-6.2a3.11,3.11,0,0,1,1.35-1.45,11.93,11.93,0,0,1,1.85-.8q9.4-3.15,18.05-5.75a102.07,102.07,0,0,1-1.2-12.25q-.15-5.15.2-10.7A523.85,523.85,0,0,1,1715.92,130.32Z"/></g></g></g></svg>