<svg xmlns="http://www.w3.org/2000/svg" viewBox="0 0 1639.24 525.19"><defs><style>.cls-1{fill:#737c7c;}.cls-2{fill:#aeb7b7;}.cls-3{fill:#d7dbdb;}.cls-4{fill:#9aa5a5;}</style></defs><title>highwayscene-ground</title><g id="Layer_2" data-name="Layer 2"><g id="Layer_7" data-name="Layer 7"><path class="cls-1" d="M426.29,299.53s23.19-26.66-383.2-15.45L24,95.87S207.52,40.54,321.14,57.36,517.65,73.15,501.61,117,426.29,299.53,426.29,299.53Z"/><path class="cls-2" d="M403.6,159.74,442.48,399.3s731.69,203.18,1175.05,93.3l-12.72-210.14S876.09,86.05,403.6,159.74Z"/><path class="cls-3" d="M1639.24,22.16c-19-23.12-227.51,55.88-318.51,78S1126.09,141.62,910,123.31c0,0-80.89-1.93-139-36.61S709,30.83,24,0V95.87l362.79-3.43s95.39-3.43,59.4,27.44c-20.7,10.73-66.6,34.3-27,59.68s258.27,195.5,1185.67,102.89Z"/><path class="cls-1" d="M637.35,86.27c23,7.53,24,19.2,24,19.2,19.47-24.59-53.28-37.91-119.88-51.29S0,34.76,0,34.76v7.89c527.28,3.87,539.82,18.64,543.38,19S614.36,78.73,637.35,86.27Z"/><path class="cls-1" d="M1010.57,181.85c107.23,7.81,461.77-34.56,461.77-34.56,9.67-5.36,88.55-18,134.33-25-.35-15.84-1.13-27-2.63-27-5.16,0-113.71,20.49-142.48,30.74s-351.39,42.4-452.5,42.4c-94.94,0-335.28-33.77-348.17-58.25l-2,13.55C696.54,155.89,903.34,174,1010.57,181.85Z"/><path class="cls-4" d="M1606.67,122.24c-45.78,7-124.66,19.69-134.33,25,0,0-354.54,42.37-461.77,34.56s-314-26-351.71-58.18l2-13.55a4,4,0,0,1,.47-4.65s-1-11.67-24-19.2-90.4-24.19-94-24.58S527.28,46.52,0,42.65V68.58c415.61-4.1,607,13.32,545.78,45.09s.19,68.18.19,68.18c272,143,1059.89,45.56,1059.89,45.56S1607.53,160.91,1606.67,122.24Z"/></g></g></svg>