<svg xmlns="http://www.w3.org/2000/svg" xmlns:xlink="http://www.w3.org/1999/xlink" viewBox="0 0 1421.83 414"><defs><style>.cls-1{fill:url(#linear-gradient);}.cls-2{fill:#757572;}.cls-3{fill:#605a4c;}.cls-4{fill:#706954;}.cls-5{fill:#d691e2;}</style><linearGradient id="linear-gradient" x1="841.15" y1="468" x2="525.86" y2="-76.84" gradientUnits="userSpaceOnUse"><stop offset="0" stop-color="#9cb779"/><stop offset="1" stop-color="#9cb779"/></linearGradient></defs><title>crossroadsscene-ground</title><g id="Layer_2" data-name="Layer 2"><g id="Layer_1-2" data-name="Layer 1"><path class="cls-1" d="M1398.08,414H46.08V110.47s343.25-29.78,676,0,676,0,676,0Z"/><path class="cls-2" d="M1413.56,276.72l-56.34-1.33c-7.23-.17-16-4-19.44-8.46l-6.54-8.47c-3.46-4.48-.38-8,6.85-7.84l56.34,1.33c7.23.17,16,4,19.44,8.46l6.54,8.47C1423.88,273.36,1420.79,276.89,1413.56,276.72Z"/><path class="cls-2" d="M1363,332.41l-56.34-1.33c-7.23-.17-16-4-19.44-8.46l-6.54-8.47c-3.46-4.48-.38-8,6.85-7.84l56.34,1.33c7.23.17,16,4,19.44,8.46l6.54,8.47C1373.35,329.05,1370.27,332.58,1363,332.41Z"/><path class="cls-2" d="M1270.11,330.21l-56.34-1.33c-7.23-.17-16-4-19.44-8.46l-6.54-8.47c-3.46-4.48-.38-8,6.85-7.84l56.34,1.33c7.23.17,16,4,19.44,8.46l6.54,8.47C1280.42,326.85,1277.34,330.38,1270.11,330.21Z"/><path class="cls-2" d="M1176.26,328l-56.34-1.33c-7.23-.17-16-4-19.44-8.46l-6.54-8.47c-3.46-4.48-.38-8,6.85-7.84l56.34,1.33c7.23.17,16,4,19.44,8.46l6.54,8.47C1186.58,324.63,1183.49,328.16,1176.26,328Z"/><path class="cls-2" d="M1383.31,303.14l-56-1.33c-7.19-.17-15.94-3.76-19.45-8l-6.63-8c-3.51-4.21-.5-7.52,6.69-7.35l56,1.33c7.19.17,15.94,3.76,19.45,8l6.63,8C1393.52,300,1390.5,303.31,1383.31,303.14Z"/><path class="cls-2" d="M1290.91,301l-56-1.33c-7.19-.17-15.94-3.76-19.45-8l-6.63-8c-3.51-4.21-.5-7.52,6.69-7.35l56,1.33c7.19.17,15.94,3.76,19.45,8l6.63,8C1301.12,297.81,1298.1,301.12,1290.91,301Z"/><path class="cls-2" d="M1197.6,298.74l-56-1.33c-7.19-.17-15.94-3.76-19.45-8l-6.63-8c-3.51-4.21-.5-7.52,6.69-7.35l56,1.33c7.19.17,15.94,3.76,19.45,8l6.63,8C1207.8,295.6,1204.79,298.91,1197.6,298.74Z"/><path class="cls-2" d="M1312.11,272.11l-56-1.33c-7.19-.17-15.94-3.76-19.45-8l-6.63-8c-3.51-4.21-.5-7.52,6.69-7.35l56,1.33c7.19.17,15.94,3.76,19.45,8l6.63,8C1322.32,269,1319.3,272.28,1312.11,272.11Z"/><path class="cls-2" d="M1030.39,326.71l-56-1.33c-7.19-.17-15.94-3.76-19.45-8l-6.63-8c-3.51-4.21-.5-7.52,6.69-7.35l56,1.33c7.19.17,15.94,3.76,19.45,8l6.63,8C1040.6,323.57,1037.58,326.88,1030.39,326.71Z"/><path class="cls-2" d="M1121.71,264.45l-56-1.33c-7.19-.17-15.94-3.76-19.45-8l-6.63-8c-3.51-4.21-.5-7.52,6.69-7.35l56,1.33c7.19.17,15.94,3.76,19.45,8l6.63,8C1131.91,261.31,1128.9,264.62,1121.71,264.45Z"/><path class="cls-2" d="M1018.7,292.48,966,291.23c-6.76-.16-15.07-3.22-18.48-6.79l-6.43-6.75c-3.4-3.57-.66-6.37,6.1-6.21l52.66,1.25c6.76.16,15.07,3.22,18.48,6.79l6.43,6.75C1028.2,289.85,1025.46,292.64,1018.7,292.48Z"/><path class="cls-2" d="M931,290.4l-52.66-1.25c-6.76-.16-15.07-3.22-18.48-6.79l-6.43-6.75c-3.4-3.57-.66-6.37,6.1-6.21l52.66,1.25c6.76.16,15.07,3.22,18.48,6.79l6.43,6.75C940.48,287.77,937.74,290.56,931,290.4Z"/><path class="cls-2" d="M841,288.27,788.37,287c-6.76-.16-15.07-3.22-18.48-6.79l-6.43-6.75c-3.4-3.57-.66-6.37,6.1-6.21l52.66,1.25c6.76.16,15.07,3.22,18.48,6.79l6.43,6.75C850.54,285.64,847.79,288.43,841,288.27Z"/><path class="cls-2" d="M1110.39,294.65l-52.66-1.25c-6.76-.16-15.07-3.22-18.48-6.79l-6.43-6.75c-3.4-3.57-.66-6.37,6.1-6.21l52.66,1.25c6.76.16,15.07,3.22,18.48,6.79l6.43,6.75C1119.89,292,1117.15,294.81,1110.39,294.65Z"/><path class="cls-2" d="M1033.39,265.66l-52.66-1.25c-6.76-.16-15.07-3.22-18.48-6.79l-6.43-6.75c-3.4-3.57-.66-6.37,6.1-6.21l52.66,1.25c6.76.16,15.07,3.22,18.48,6.79l6.43,6.75C1042.9,263,1040.15,265.82,1033.39,265.66Z"/><path class="cls-2" d="M945.67,263.58,893,262.33c-6.76-.16-15.07-3.22-18.48-6.79l-6.43-6.75c-3.4-3.57-.66-6.37,6.1-6.21l52.66,1.25c6.76.16,15.07,3.22,18.48,6.79l6.43,6.75C955.18,260.95,952.43,263.74,945.67,263.58Z"/><path class="cls-2" d="M855.73,261.45l-52.66-1.25c-6.76-.16-15.07-3.22-18.48-6.79l-6.43-6.75c-3.4-3.57-.66-6.37,6.1-6.21l52.66,1.25c6.76.16,15.07,3.22,18.48,6.79l6.43,6.75C865.23,258.82,862.49,261.61,855.73,261.45Z"/><path class="cls-2" d="M768.32,259.38l-52.66-1.25c-6.76-.16-15.07-3.22-18.48-6.79l-6.43-6.75c-3.4-3.57-.66-6.37,6.1-6.21l52.66,1.25c6.76.16,15.07,3.22,18.48,6.79l6.43,6.75C777.83,256.75,775.08,259.54,768.32,259.38Z"/><path class="cls-2" d="M966.52,238l-52.66-1.25c-6.76-.16-15.07-3.22-18.48-6.79l-6.43-6.75c-3.4-3.57-.66-6.37,6.1-6.21l52.66,1.25c6.76.16,15.07,3.22,18.48,6.79l6.43,6.75C976,235.35,973.28,238.15,966.52,238Z"/><path class="cls-2" d="M876.57,235.86l-52.66-1.25c-6.76-.16-15.07-3.22-18.48-6.79L799,221.07c-3.4-3.57-.66-6.37,6.1-6.21l52.66,1.25c6.76.16,15.07,3.22,18.48,6.79l6.43,6.75C886.08,233.22,883.33,236,876.57,235.86Z"/><path class="cls-2" d="M789.17,233.79l-52.66-1.25c-6.76-.16-15.07-3.22-18.48-6.79L711.6,219c-3.4-3.57-.66-6.37,6.1-6.21L770.36,214c6.76.16,15.07,3.22,18.48,6.79l6.43,6.75C798.67,231.16,795.92,233.95,789.17,233.79Z"/><path class="cls-2" d="M889.5,207.9l-52.66-1.25c-6.76-.16-15.07-3.22-18.48-6.79l-6.43-6.75c-3.4-3.57-.66-6.37,6.1-6.21l52.66,1.25c6.76.16,15.07,3.22,18.48,6.79l6.43,6.75C899,205.27,896.26,208.06,889.5,207.9Z"/><path class="cls-2" d="M799.56,205.78l-52.66-1.25c-6.76-.16-15.07-3.22-18.48-6.79L722,191c-3.4-3.57-.66-6.37,6.1-6.21L780.75,186c6.76.16,15.07,3.22,18.48,6.79l6.43,6.75C809.06,203.14,806.31,205.94,799.56,205.78Z"/><path class="cls-2" d="M712.15,203.71l-52.66-1.25c-6.76-.16-15.07-3.22-18.48-6.79l-6.43-6.75c-3.4-3.57-.66-6.37,6.1-6.21L693.35,184c6.76.16,15.07,3.22,18.48,6.79l6.43,6.75C721.66,201.07,718.91,203.87,712.15,203.71Z"/><path class="cls-2" d="M666.11,180.14,619,179c-6-.14-13.48-2.88-16.53-6.07l-5.75-6c-3-3.2-.59-5.7,5.46-5.55l47.11,1.12c6,.14,13.48,2.88,16.53,6.07l5.75,6C674.61,177.79,672.16,180.29,666.11,180.14Z"/><path class="cls-2" d="M744.3,182l-47.11-1.12c-6-.14-13.48-2.88-16.53-6.07l-5.75-6c-3-3.2-.59-5.7,5.46-5.55l47.11,1.12c6,.14,13.48,2.88,16.53,6.07l5.75,6C752.8,179.64,750.35,182.14,744.3,182Z"/><path class="cls-2" d="M819.34,182.83l-47.11-1.12c-6-.14-13.48-2.88-16.53-6.07l-5.75-6c-3-3.2-.59-5.7,5.46-5.55l47.11,1.12c6,.14,13.48,2.88,16.53,6.07l5.75,6C827.84,180.47,825.39,183,819.34,182.83Z"/><path class="cls-2" d="M650.91,159l-34.31-.81c-4.4-.1-9.82-2.09-12-4.42l-4.19-4.4c-2.22-2.33-.43-4.15,4-4l34.31.81c4.4.1,9.82,2.09,12,4.42l4.19,4.4C657.1,157.32,655.31,159.14,650.91,159Z"/><path class="cls-2" d="M707.85,160.39l-34.31-.81c-4.4-.1-9.82-2.09-12-4.42l-4.19-4.4c-2.22-2.33-.43-4.15,4-4l34.31.81c4.4.1,9.82,2.09,12,4.42l4.19,4.4C714,158.67,712.26,160.49,707.85,160.39Z"/><path class="cls-2" d="M762.51,161l-34.31-.81c-4.4-.1-9.82-2.09-12-4.42l-4.19-4.4c-2.22-2.33-.43-4.15,4-4l34.31.81c4.4.1,9.82,2.09,12,4.42l4.19,4.4C768.7,159.28,766.91,161.1,762.51,161Z"/><path class="cls-2" d="M602.43,143.89l-36.69-.58a36.3,36.3,0,0,1-15.23-4.11l-6.93-4.13c-3.67-2.19-2.81-3.91,1.9-3.84l36.69.58a36.3,36.3,0,0,1,15.23,4.11l6.93,4.13C608,142.24,607.14,144,602.43,143.89Z"/><path class="cls-2" d="M663.32,144.85l-36.69-.58a36.3,36.3,0,0,1-15.23-4.11L604.48,136c-3.67-2.19-2.81-3.91,1.9-3.84l36.69.58a36.3,36.3,0,0,1,15.23,4.11l6.93,4.13C668.88,143.2,668,144.93,663.32,144.85Z"/><path class="cls-2" d="M721.37,145.13l-36.69-.58a36.3,36.3,0,0,1-15.23-4.11l-6.93-4.13c-3.67-2.19-2.81-3.91,1.9-3.84l36.69.58a36.3,36.3,0,0,1,15.23,4.11l6.93,4.13C726.93,143.47,726.08,145.2,721.37,145.13Z"/><path class="cls-2" d="M551.37,129.73l-24.65-.39a24.38,24.38,0,0,1-10.23-2.76l-4.65-2.78c-2.46-1.47-1.89-2.63,1.27-2.58l24.65.39A24.38,24.38,0,0,1,548,124.38l4.65,2.78C555.1,128.62,554.53,129.78,551.37,129.73Z"/><path class="cls-2" d="M592.27,130.38,567.63,130a24.38,24.38,0,0,1-10.23-2.76l-4.65-2.78c-2.46-1.47-1.89-2.63,1.27-2.58l24.65.39A24.38,24.38,0,0,1,588.89,125l4.65,2.78C596,129.27,595.44,130.43,592.27,130.38Z"/><path class="cls-2" d="M631.27,130.56l-24.65-.39a24.38,24.38,0,0,1-10.23-2.76l-4.65-2.78c-2.46-1.47-1.89-2.63,1.27-2.58l24.65.39a24.38,24.38,0,0,1,10.23,2.76l4.65,2.78C635,129.45,634.44,130.61,631.27,130.56Z"/><path class="cls-2" d="M514.37,118.73l-24.65-.39a24.38,24.38,0,0,1-10.23-2.76l-4.65-2.78c-2.46-1.47-1.89-2.63,1.27-2.58l24.65.39A24.38,24.38,0,0,1,511,113.38l4.65,2.78C518.1,117.62,517.53,118.78,514.37,118.73Z"/><path class="cls-2" d="M555.27,119.38,530.63,119a24.38,24.38,0,0,1-10.23-2.76l-4.65-2.78c-2.46-1.47-1.89-2.63,1.27-2.58l24.65.39A24.38,24.38,0,0,1,551.89,114l4.65,2.78C559,118.27,558.44,119.43,555.27,119.38Z"/><path class="cls-2" d="M594.27,119.56l-24.65-.39a24.38,24.38,0,0,1-10.23-2.76l-4.65-2.78c-2.46-1.47-1.89-2.63,1.27-2.58l24.65.39a24.38,24.38,0,0,1,10.23,2.76l4.65,2.78C598,118.45,597.44,119.61,594.27,119.56Z"/><path class="cls-2" d="M670.37,130.73l-24.65-.39a24.38,24.38,0,0,1-10.23-2.76l-4.65-2.78c-2.46-1.47-1.89-2.63,1.27-2.58l24.65.39A24.38,24.38,0,0,1,667,125.38l4.65,2.78C674.1,129.62,673.53,130.78,670.37,130.73Z"/><path class="cls-2" d="M711.27,131.38,686.63,131a24.38,24.38,0,0,1-10.23-2.76l-4.65-2.78c-2.46-1.47-1.89-2.63,1.27-2.58l24.65.39A24.38,24.38,0,0,1,707.89,126l4.65,2.78C715,130.27,714.44,131.43,711.27,131.38Z"/><path class="cls-2" d="M636.27,119.56l-24.65-.39a24.38,24.38,0,0,1-10.23-2.76l-4.65-2.78c-2.46-1.47-1.89-2.63,1.27-2.58l24.65.39a24.38,24.38,0,0,1,10.23,2.76l4.65,2.78C640,118.45,639.44,119.61,636.27,119.56Z"/><path class="cls-2" d="M517.27,109.38,492.63,109a24.38,24.38,0,0,1-10.23-2.76l-4.65-2.78c-2.46-1.47-1.89-2.63,1.27-2.58l24.65.39A24.38,24.38,0,0,1,513.89,104l4.65,2.78C521,108.27,520.44,109.43,517.27,109.38Z"/><path class="cls-2" d="M556.27,109.56l-24.65-.39a24.38,24.38,0,0,1-10.23-2.76l-4.65-2.78c-2.46-1.47-1.89-2.63,1.27-2.58l24.65.39a24.38,24.38,0,0,1,10.23,2.76l4.65,2.78C560,108.45,559.44,109.61,556.27,109.56Z"/><path class="cls-2" d="M757.7,287.48,705,286.23c-6.76-.16-15.07-3.22-18.48-6.79l-6.43-6.75c-3.4-3.57-.66-6.37,6.1-6.21l52.66,1.25c6.76.16,15.07,3.22,18.48,6.79l6.43,6.75C767.2,284.85,764.46,287.64,757.7,287.48Z"/><path class="cls-2" d="M670,285.4l-52.66-1.25c-6.76-.16-15.07-3.22-18.48-6.79l-6.43-6.75c-3.4-3.57-.66-6.37,6.1-6.21l52.66,1.25c6.76.16,15.07,3.22,18.48,6.79l6.43,6.75C679.48,282.77,676.74,285.56,670,285.4Z"/><path class="cls-2" d="M580,283.27,527.37,282c-6.76-.16-15.07-3.22-18.48-6.79l-6.43-6.75c-3.4-3.57-.66-6.37,6.1-6.21l52.66,1.25c6.76.16,15.07,3.22,18.48,6.79l6.43,6.75C589.54,280.64,586.79,283.43,580,283.27Z"/><path class="cls-2" d="M684.67,258.58,632,257.33c-6.76-.16-15.07-3.22-18.48-6.79l-6.43-6.75c-3.4-3.57-.66-6.37,6.1-6.21l52.66,1.25c6.76.16,15.07,3.22,18.48,6.79l6.43,6.75C694.18,255.95,691.43,258.74,684.67,258.58Z"/><path class="cls-2" d="M594.73,256.45l-52.66-1.25c-6.76-.16-15.07-3.22-18.48-6.79l-6.43-6.75c-3.4-3.57-.66-6.37,6.1-6.21l52.66,1.25c6.76.16,15.07,3.22,18.48,6.79l6.43,6.75C604.23,253.82,601.49,256.61,594.73,256.45Z"/><path class="cls-2" d="M507.32,254.38l-52.66-1.25c-6.76-.16-15.07-3.22-18.48-6.79l-6.43-6.75c-3.4-3.57-.66-6.37,6.1-6.21l52.66,1.25c6.76.16,15.07,3.22,18.48,6.79l6.43,6.75C516.83,251.75,514.08,254.54,507.32,254.38Z"/><path class="cls-2" d="M705.52,233l-52.66-1.25c-6.76-.16-15.07-3.22-18.48-6.79l-6.43-6.75c-3.4-3.57-.66-6.37,6.1-6.21l52.66,1.25c6.76.16,15.07,3.22,18.48,6.79l6.43,6.75C715,230.35,712.28,233.15,705.52,233Z"/><path class="cls-2" d="M591.69,152.89,554.21,152c-4.81-.11-10.73-2.29-13.15-4.83l-4.58-4.81c-2.42-2.54-.47-4.53,4.34-4.42l37.48.89c4.81.11,10.73,2.29,13.15,4.83l4.58,4.81C598.46,151,596.5,153,591.69,152.89Z"/><path class="cls-2" d="M842.71,320.45l-56-1.33c-7.19-.17-15.94-3.76-19.45-8l-6.63-8c-3.51-4.21-.5-7.52,6.69-7.35l56,1.33c7.19.17,15.94,3.76,19.45,8l6.63,8C852.91,317.31,849.9,320.62,842.71,320.45Z"/><path class="cls-2" d="M747.71,316.45l-56-1.33c-7.19-.17-15.94-3.76-19.45-8l-6.63-8c-3.51-4.21-.5-7.52,6.69-7.35l56,1.33c7.19.17,15.94,3.76,19.45,8l6.63,8C757.91,313.31,754.9,316.62,747.71,316.45Z"/><path class="cls-2" d="M497,279.4l-52.66-1.25c-6.76-.16-15.07-3.22-18.48-6.79l-6.43-6.75c-3.4-3.57-.66-6.37,6.1-6.21l52.66,1.25c6.76.16,15.07,3.22,18.48,6.79l6.43,6.75C506.48,276.77,503.74,279.56,497,279.4Z"/><path class="cls-2" d="M407,277.27,354.37,276c-6.76-.16-15.07-3.22-18.48-6.79l-6.43-6.75c-3.4-3.57-.66-6.37,6.1-6.21l52.66,1.25c6.76.16,15.07,3.22,18.48,6.79l6.43,6.75C416.54,274.64,413.79,277.43,407,277.27Z"/><path class="cls-2" d="M421.73,250.45l-52.66-1.25c-6.76-.16-15.07-3.22-18.48-6.79l-6.43-6.75c-3.4-3.57-.66-6.37,6.1-6.21l52.66,1.25c6.76.16,15.07,3.22,18.48,6.79l6.43,6.75C431.23,247.82,428.49,250.61,421.73,250.45Z"/><path class="cls-2" d="M334.32,248.38l-52.66-1.25c-6.76-.16-15.07-3.22-18.48-6.79l-6.43-6.75c-3.4-3.57-.66-6.37,6.1-6.21l52.66,1.25c6.76.16,15.07,3.22,18.48,6.79l6.43,6.75C343.83,245.75,341.08,248.54,334.32,248.38Z"/><path class="cls-2" d="M442.57,224.86l-52.66-1.25c-6.76-.16-15.07-3.22-18.48-6.79L365,210.07c-3.4-3.57-.66-6.37,6.1-6.21l52.66,1.25c6.76.16,15.07,3.22,18.48,6.79l6.43,6.75C452.08,222.22,449.33,225,442.57,224.86Z"/><path class="cls-2" d="M355.17,222.79l-52.66-1.25c-6.76-.16-15.07-3.22-18.48-6.79L277.6,208c-3.4-3.57-.66-6.37,6.1-6.21L336.36,203c6.76.16,15.07,3.22,18.48,6.79l6.43,6.75C364.67,220.16,361.92,222.95,355.17,222.79Z"/><path class="cls-2" d="M247,244.27,194.37,243c-6.76-.16-15.07-3.22-18.48-6.79l-6.43-6.75c-3.4-3.57-.66-6.37,6.1-6.21l52.66,1.25c6.76.16,15.07,3.22,18.48,6.79l6.43,6.75C256.54,241.64,253.79,244.43,247,244.27Z"/><path class="cls-2" d="M261.73,217.45l-52.66-1.25c-6.76-.16-15.07-3.22-18.48-6.79l-6.43-6.75c-3.4-3.57-.66-6.37,6.1-6.21l52.66,1.25c6.76.16,15.07,3.22,18.48,6.79l6.43,6.75C271.23,214.82,268.49,217.61,261.73,217.45Z"/><path class="cls-2" d="M161,238.27,108.37,237c-6.76-.16-15.07-3.22-18.48-6.79l-6.43-6.75c-3.4-3.57-.66-6.37,6.1-6.21l52.66,1.25c6.76.16,15.07,3.22,18.48,6.79l6.43,6.75C170.54,235.64,167.79,238.43,161,238.27Z"/><path class="cls-2" d="M175.73,211.45l-52.66-1.25c-6.76-.16-15.07-3.22-18.48-6.79l-6.43-6.75c-3.4-3.57-.66-6.37,6.1-6.21l52.66,1.25c6.76.16,15.07,3.22,18.48,6.79l6.43,6.75C185.23,208.82,182.49,211.61,175.73,211.45Z"/><path class="cls-2" d="M161,265.27,108.37,264c-6.76-.16-15.07-3.22-18.48-6.79l-6.43-6.75c-3.4-3.57-.66-6.37,6.1-6.21l52.66,1.25c6.76.16,15.07,3.22,18.48,6.79l6.43,6.75C170.54,262.64,167.79,265.43,161,265.27Z"/><path class="cls-2" d="M247,267.27,194.37,266c-6.76-.16-15.07-3.22-18.48-6.79l-6.43-6.75c-3.4-3.57-.66-6.37,6.1-6.21l52.66,1.25c6.76.16,15.07,3.22,18.48,6.79l6.43,6.75C256.54,264.64,253.79,267.43,247,267.27Z"/><path class="cls-2" d="M94,212.27,41.37,211c-6.76-.16-15.07-3.22-18.48-6.79l-6.43-6.75c-3.4-3.57-.66-6.37,6.1-6.21l52.66,1.25c6.76.16,15.07,3.22,18.48,6.79l6.43,6.75C103.54,209.64,100.79,212.43,94,212.27Z"/><path class="cls-2" d="M79,263.27,26.37,262c-6.76-.16-15.07-3.22-18.48-6.79l-6.43-6.75c-3.4-3.57-.66-6.37,6.1-6.21l52.66,1.25c6.76.16,15.07,3.22,18.48,6.79l6.43,6.75C88.54,260.64,85.79,263.43,79,263.27Z"/><path class="cls-3" d="M737.22,38.15V141.22s4.17,4.55,8.34,0V41.68Z"/><polygon class="cls-3" points="772.34 59.62 783.45 54.57 780.42 37.89 796.59 29.81 734.95 0 699.08 6.57 772.34 59.62"/><polygon class="cls-4" points="786.49 32.34 726.36 2.53 699.08 6.57 711.71 29.3 772.34 59.62 769.31 41.43 786.49 32.34"/><path class="cls-5" d="M724.69,25.68a.72.72,0,0,0,.22-.27,1.33,1.33,0,0,0,.16-1.27.79.79,0,0,0-.73-.56c-1.41-.12-2.27,1.34-3.42,2.25a3.57,3.57,0,0,0,0-.54.77.77,0,0,0-1.29-.54c-1.18,1.21-2.74,2.79-4.54,1.8a6.68,6.68,0,0,1-1-2q-.31-1.16-.59-2.33c-.4-2.42-.54-4.88-.72-7.32-.22-3.33,1-6,4.43-7,2.58-.71,6.41-.31,8.4,1.64a4.56,4.56,0,0,1,.37,1.32c0-.21-.12.15-.17.3s-.21.51-.32.76a4.42,4.42,0,0,0-.37,1.63.76.76,0,0,0,1.14.65l.2-.14-.29,1a.67.67,0,0,0,.12.64.69.69,0,0,0,.41.3.76.76,0,0,0,.49,0,.75.75,0,0,0,.44-.49,5.27,5.27,0,0,0,.33-1.11.78.78,0,0,0-.53-.93.83.83,0,0,0-.32,0l.1-.16a.69.69,0,0,0,.77-.53,4.48,4.48,0,0,0-.72-3.57v0a3.49,3.49,0,0,0-.39-.7l0-.1h0l0,0a.62.62,0,0,0-.29-.28c-1.05-1.26-3.27-1.73-4.66-2.09-2.43-.63-5-.75-7.15.78a10.36,10.36,0,0,0-4.09,6.23c-.52,3.09.74,6.7,1.44,9.67a19.2,19.2,0,0,0,.59,2.33,5.11,5.11,0,0,0,1.36,2.72l0,0C717,30.77,722.3,28.34,724.69,25.68Z"/><path class="cls-5" d="M724.25,9h-.33l-.09,0,0,0-.06,0h0a.73.73,0,0,0-.14.11l-.06.07,0,0a.76.76,0,0,0-.11.24h0a.77.77,0,0,0,.07.56h0l.35.7a.76.76,0,0,0,1.41-.38,1.93,1.93,0,0,0-.5-1.16A.71.71,0,0,0,724.25,9Z"/><path class="cls-5" d="M734.93,13.23c-1.21.27-2.3,1.78-3.11,2.62a26.56,26.56,0,0,0-3.16,3.87c-2.24,3.46-3.05,7.83-6.46,10.46a.78.78,0,0,0-.35.86l.45,1.24a.77.77,0,0,0,1.39.18c.6-.81.84-1.78,1.43-2.6s1.42-1.55,2.06-2.38a37,37,0,0,0,2.28-3.39c2.32.7,4.92,2.15,7.37,1.61,0,1.16-.06,2.32-.06,3.49s-1,10.6,1.93,9.34c1.26-.54,1.28-3,1.41-4.1.35-2.76-.32-4.76-1-7.38C738.91,24.39,740.1,12.08,734.93,13.23Zm-4.05,8.47.85-1.44a13.54,13.54,0,0,1,2.38-3.48c1.56-1.3,2.21-.57,2.71,1.13a5.72,5.72,0,0,1,.23,2.17c-.05,1.26-.11,2.52-.16,3.78A63.72,63.72,0,0,0,730.88,21.7Zm7.28,15.11c.26,0,.2-4.61.15-7.1a10.67,10.67,0,0,1,.43,2.37C738.76,32.58,738.5,36.8,738.15,36.81Z"/><path class="cls-5" d="M734.59,26.67q-1-.62-2.07-1.13c-.87-.42-1.63.84-.77,1.31L733.83,28a.7.7,0,0,0,1-.29A.69.69,0,0,0,734.59,26.67Z"/><path class="cls-5" d="M751,35.85c1.77-2,3.47-4.06,5.38-6a11.34,11.34,0,0,0,3.15-4.69.76.76,0,0,0-1.27-.74c-4.61,4.59-8.65,9.71-13.17,14.37-.06-.18-.12-.35-.16-.51a33.67,33.67,0,0,1-1.07-5.82c-.31-3.63-.1-7.48-.77-11a.65.65,0,0,0-.21-.38l-.42-4.84c-.08-1-1.54-1-1.52,0,.19,7.5-.15,15.28,1,22.7.2,1.23.52,3.59,2.25,3.14,1-.27,2.08-1.65,2.79-2.3C748.4,38.53,749.73,37.23,751,35.85Z"/><path class="cls-5" d="M771.91,32c-1.19-.67-2.29-1.31-3.44-1.84a.7.7,0,0,0-.18-.25l-2.91-2.66a.76.76,0,0,0-.24-.2,3.49,3.49,0,0,0-2.75-.3c-2.43-.68-4.06,3.28-5.21,4.86a92.49,92.49,0,0,1-10,11.9.76.76,0,0,0,0,1.07c2,1.73,4.49,1.79,6.81,2.83,2.53,1.13,4.58,3,7.32,3.7a.76.76,0,0,0,.74-1.27c-1.18-1.45-2.9-1.88-4.57-2.56l-1.09-.56a.72.72,0,0,0-.05-1.24A50.2,50.2,0,0,0,751,42.89a43.47,43.47,0,0,1,3-3.32c.49-.62,1-1.27,1.4-1.93a3.89,3.89,0,0,0,1.25,1c.76.35,1.58.57,2.32,1a.74.74,0,0,0,1-.3,18.07,18.07,0,0,0,5.7,2.26c.78.14,1.41-1,.58-1.39q-4.71-2.38-9.21-5.11c.58-.91,1.16-1.82,1.78-2.71.46-.65,1.1-1.65,1.82-2.51l.11,0,.45.15c.41.2.79.43,1.19.65a3.37,3.37,0,0,0,1.93.38l6.94,2.3A.76.76,0,0,0,771.91,32Z"/><path class="cls-5" d="M750.79,27.91a.7.7,0,0,0,.45.21.8.8,0,0,0,.62-.21,16.32,16.32,0,0,0,1.46-1.35.76.76,0,0,0-1.07-1.07l-1.46,1.35a.67.67,0,0,0-.21.61A.76.76,0,0,0,750.79,27.91Z"/></g></g></svg>