<svg xmlns="http://www.w3.org/2000/svg" viewBox="0 0 560.85 565.65"><defs><style>.cls-1{fill:#737c7c;}.cls-2{fill:none;}.cls-3{fill:#9aa5a5;}.cls-4{fill:#2b2d2d;}</style></defs><title>crossroadsscene-cave</title><g id="Layer_2" data-name="Layer 2"><g id="Layer_5" data-name="Layer 5"><path class="cls-1" d="M513.38,376.34c-5.91-8.65-15.39-19.66-28.44-23.14-10.63-2.84-16.66-9.1-20.86-16.21,3.12,8.74,7,18,10.26,21.3C479.45,363.39,498.24,366.34,513.38,376.34Z"/><path class="cls-2" d="M243.59,386.92c-.12-.32-.24-.67-.34-1A10.63,10.63,0,0,0,243.59,386.92Z"/><path class="cls-2" d="M244.07,388a7.72,7.72,0,0,1-.42-.9A8.06,8.06,0,0,0,244.07,388Z"/><path class="cls-1" d="M544.35,479.35c-1,9-5.24,12.83-11.92,15.06C521,498.23,399.7,480,390,476.6S278.85,464.3,270.36,463,247.89,394.76,244.07,388a8.06,8.06,0,0,1-.42-.9l-.06-.15a10.63,10.63,0,0,1-.34-1h0c-8.27-16.28-16.24-33.2-17.14-51.37-.55-11.16,1.61-22.32,1.46-33.47,0-1.21-.05-2.42-.13-3.63-1.4-21.72-13.43-41.19-19.16-62.19-3.78-13.86-4.8-28.31-7.61-42.39-5.26-26.36-16.8-51.46-18.85-78.26-2.71-35.48,13.16-72,41.12-93.8A82.52,82.52,0,0,1,235.67,23a71.18,71.18,0,0,1,7.24,2.37,143.58,143.58,0,0,0-38.27-22.1c-5.07-2-10.42-3.64-15.84-3.25-6.63.49-12.6,4-18.38,7.31A410.2,410.2,0,0,1,72.24,47.61c-8,2.12-16.3,4.11-23,9-5.74,4.22-9.81,10.26-13.75,16.2C24.11,90,12.71,107.57,6.43,127.23c-11,34.51-5.28,71.77-1.76,107.82A842.17,842.17,0,0,1,8.19,345.3c-.79,23.52-2.57,47.09-.67,70.54,2,25.16,8.27,49.77,14.48,74.24,1.21,4.77,2.48,9.68,5.38,13.66,3,4.17,7.59,7,12.09,9.48a245.69,245.69,0,0,0,111.75,31.09C171.8,545,192.4,543,213,542.73l1,22.93,309.57-7.21c9.75-5.51,37.32-21.63,37.32-21.63S552.47,508.54,544.35,479.35Z"/><path class="cls-3" d="M242.86,378.63c0,.34-.06.66-.08,1C242.8,379.29,242.83,379,242.86,378.63Z"/><path class="cls-3" d="M252.57,355.41l-.36.51Z"/><path class="cls-3" d="M261.4,344.49l-.86.93Z"/><path class="cls-3" d="M244.21,372.17c-.08.28-.17.55-.24.82C244,372.72,244.13,372.44,244.21,372.17Z"/><path class="cls-3" d="M265.76,340.06l-.94.93Z"/><path class="cls-3" d="M249.71,359.87l-.39.67Z"/><path class="cls-3" d="M243.47,375a33.5,33.5,0,0,0-.58,3.45A33.49,33.49,0,0,1,243.47,375Z"/><path class="cls-3" d="M247.65,363.63l-.39.8Z"/><path class="cls-3" d="M246,367.22l-.34.81Z"/><path class="cls-3" d="M246.78,365.45l-.37.81Z"/><path class="cls-3" d="M257.56,348.85l-.72.87Z"/><path class="cls-3" d="M255.82,351l-.64.82Z"/><path class="cls-3" d="M244.72,370.58c-.09.27-.19.55-.27.82C244.53,371.13,244.62,370.85,244.72,370.58Z"/><path class="cls-3" d="M259.42,346.68l-.79.91Z"/><path class="cls-3" d="M245.31,368.93l-.3.82Z"/><path class="cls-3" d="M248.63,361.77l-.41.77Z"/><path class="cls-3" d="M243.79,373.68c-.07.29-.15.57-.22.85C243.64,374.25,243.71,374,243.79,373.68Z"/><path class="cls-3" d="M242.72,382c0-.28,0-.57,0-.86C242.71,381.39,242.72,381.67,242.72,382Z"/><path class="cls-3" d="M250.9,357.92l-.18.29Z"/><path class="cls-3" d="M243.07,385.11c.06.27.12.53.18.77C243.18,385.64,243.12,385.38,243.07,385.11Z"/><path class="cls-3" d="M262.6,343.22l.91-.94Z"/><path class="cls-3" d="M270.66,335.55l-.84.75Z"/><path class="cls-3" d="M242.8,383.27q0,.41.09.8C242.85,383.81,242.82,383.54,242.8,383.27Z"/><path class="cls-3" d="M242.73,382.22c0,.28,0,.56,0,.83Q242.75,382.64,242.73,382.22Z"/><path class="cls-3" d="M254.18,353.16l-.54.73Z"/><path class="cls-3" d="M268.14,337.81l-.94.88Z"/><path class="cls-3" d="M242.91,384.23c0,.27.08.53.13.78C243,384.76,243,384.5,242.91,384.23Z"/><path class="cls-3" d="M242.76,379.9c0,.31,0,.61,0,.91C242.73,380.51,242.74,380.21,242.76,379.9Z"/><path class="cls-3" d="M537.95,455.82c-9.33-35.2-14.84-63.61-18.66-70-1.21-2-3.18-5.51-5.91-9.51-15.13-10-33.93-12.95-39-18.05-3.27-3.27-7.14-12.56-10.26-21.3-3.34-5.65-5.53-11.85-8-17.29-5.51-12.3-12.3-25.87-12.3-25.87h-.13a147.73,147.73,0,0,0-18-47.69c-10.93-18.42-25.71-34.2-39.77-50.37A896.44,896.44,0,0,1,310.9,96c-18.1-27.86-37.62-58.88-68-70.56A71.18,71.18,0,0,0,235.67,23a82.52,82.52,0,0,0-12.73-2.26c-28,21.79-43.82,58.33-41.12,93.8,2,26.8,13.59,51.91,18.85,78.26,2.81,14.09,3.83,28.54,7.61,42.39,5.74,21,17.76,40.47,19.16,62.19.08,1.21.11,2.42.13,3.63.15,11.15-2,22.31-1.46,33.47.89,18.17,8.87,35.08,17.14,51.37h0c.1.37.22.71.34,1l.06.15a7.72,7.72,0,0,0,.42.9c3.82,6.79,17.81,73.79,26.29,75.06S380.2,473.21,390,476.6s131,21.63,142.49,17.81c6.68-2.23,10.9-6,11.92-15.06C542.14,471.39,539.95,463.36,537.95,455.82Z"/><path class="cls-3" d="M255.17,351.82c-.34.45-.67.89-1,1.33C254.5,352.71,254.83,352.27,255.17,351.82Z"/><path class="cls-3" d="M253.63,353.89c-.37.51-.72,1-1.06,1.52C252.92,354.9,253.27,354.4,253.63,353.89Z"/><path class="cls-3" d="M267.2,338.7l-1.44,1.36Z"/><path class="cls-3" d="M273.33,333.27q-1.37,1.15-2.67,2.28Q272,334.41,273.33,333.27Z"/><path class="cls-3" d="M269.82,336.3c-.57.51-1.14,1-1.69,1.52C268.69,337.31,269.25,336.8,269.82,336.3Z"/><path class="cls-3" d="M243.65,387.07l-.06-.15Z"/><path class="cls-3" d="M262.6,343.22l-1.2,1.27Z"/><path class="cls-3" d="M258.62,347.59l-1.07,1.26Z"/><path class="cls-3" d="M260.54,345.42l-1.13,1.26Z"/><path class="cls-3" d="M256.84,349.72l-1,1.28Z"/><path class="cls-3" d="M242.89,384.07l0,.17Z"/><path class="cls-3" d="M242.72,382c0,.09,0,.18,0,.26C242.73,382.13,242.72,382,242.72,382Z"/><path class="cls-3" d="M252.21,355.92q-.68,1-1.31,2Q251.53,356.93,252.21,355.92Z"/><path class="cls-3" d="M242.78,383l0,.22Z"/><path class="cls-3" d="M242.89,378.45l0,.18Z"/><path class="cls-3" d="M242.78,379.62c0,.09,0,.19,0,.28C242.76,379.81,242.77,379.71,242.78,379.62Z"/><path class="cls-3" d="M263.51,342.29l1.3-1.3Z"/><polygon class="cls-3" points="243.25 385.89 243.25 385.89 243.25 385.89 243.25 385.89"/><polygon class="cls-3" points="243.25 385.89 243.25 385.89 243.25 385.89 243.25 385.89"/><path class="cls-3" d="M242.72,381.1c0-.09,0-.19,0-.29C242.72,380.9,242.72,381,242.72,381.1Z"/><path class="cls-3" d="M243.57,374.53c0,.16-.07.32-.1.48C243.5,374.85,243.53,374.69,243.57,374.53Z"/><path class="cls-3" d="M243,385l0,.1Z"/><path class="cls-3" d="M248.22,362.54c-.19.37-.39.73-.57,1.09C247.84,363.27,248,362.91,248.22,362.54Z"/><path class="cls-3" d="M249.33,360.54c-.24.41-.47.83-.7,1.23C248.85,361.37,249.09,361,249.33,360.54Z"/><path class="cls-3" d="M250.72,358.21c-.35.56-.69,1.11-1,1.66C250,359.32,250.38,358.76,250.72,358.21Z"/><path class="cls-3" d="M247.26,364.43c-.17.34-.33.68-.48,1C246.93,365.12,247.09,364.78,247.26,364.43Z"/><path class="cls-3" d="M244,373c-.06.23-.12.46-.18.68C243.85,373.45,243.9,373.22,244,373Z"/><path class="cls-3" d="M246.41,366.26l-.41,1Z"/><path class="cls-3" d="M245,369.74c-.1.28-.2.56-.29.84C244.81,370.3,244.9,370,245,369.74Z"/><path class="cls-3" d="M244.44,371.4c-.08.26-.16.52-.23.77C244.29,371.91,244.36,371.66,244.44,371.4Z"/><path class="cls-3" d="M245.66,368l-.35.9Z"/><path class="cls-4" d="M339.83,393.95c-6.54-8.1-16.11-11-26-11.19-1.2.34-2.42.71-3.67,1.12-49,16.3-29.52,103.36-22.12,132.85,4.54,18.09,36.09,15.66,59.81,11.07,4.31-9.2,11.24-27.91,11.19-53.17C359,438,359.48,418.3,339.83,393.95Z"/><path class="cls-1" d="M375.39,439.64c-3.93-29.09-15.58-69.9-61.54-56.88,9.86.22,19.44,3.09,26,11.19,19.65,24.35,19.18,44,19.24,80.69,0,25.25-6.88,44-11.19,53.17a267.22,267.22,0,0,0,26.8-6.64S379.42,469.49,375.39,439.64Z"/></g></g></svg>