<svg xmlns="http://www.w3.org/2000/svg" viewBox="0 0 2054.89 937.92"><defs><style>.cls-1{fill:#9aa5a5;}.cls-2{fill:#c2c9c9;}.cls-3{fill:#737c7c;}.cls-4{fill:#565d5d;}</style></defs><title>splashmountains</title><g id="Layer_2" data-name="Layer 2"><g id="Layer_3" data-name="Layer 3"><path class="cls-1" d="M0,823.72c5.09-3.4,247.89-320.9,295.43-397.31s90-88.29,108.67-69.61S874.41,652.23,945.73,806.74,0,823.72,0,823.72Z"/><path class="cls-1" d="M872.72,412.83S1214,85.13,1419.44,30.8c0,0,73-34,107-30.56s331.24,379.12,383.17,484.07c58.42,118.06,217.86,226.38,107.11,395.56-20.25,30.94-1250.93,44-1284.89,3.27S732.92,537.14,872.72,412.83Z"/><path class="cls-2" d="M310.71,552.05s482.2-303.92,538.23-353.16,79.8-73,139.23,0,322.6,439.75,358.26,619.73S139.23,939.17,139.23,871.26,242.6,595.17,310.71,552.05Z"/><path class="cls-3" d="M947.5,289.48a19.2,19.2,0,0,1-37.85,0,19.22,19.22,0,1,0,37.85,0Z"/><path class="cls-1" d="M928.57,305.43a19.21,19.21,0,0,0,18.92-15.95,19.2,19.2,0,0,0-37.85,0A19.21,19.21,0,0,0,928.57,305.43Z"/><path class="cls-3" d="M836.75,289.48a19.27,19.27,0,0,0-.3-3.27,19.2,19.2,0,0,1-37.85,0,19.22,19.22,0,1,0,38.15,3.27Z"/><path class="cls-1" d="M817.52,302.15a19.21,19.21,0,0,0,18.92-15.95,19.2,19.2,0,0,0-37.85,0A19.21,19.21,0,0,0,817.52,302.15Z"/><path class="cls-3" d="M871.82,353.93a42,42,0,0,1-40.74-31.81v-.54a6.09,6.09,0,0,1,.6-2.63,6.17,6.17,0,0,0-3.92,5.72v.54a41.93,41.93,0,0,0,70.9,19,41.68,41.68,0,0,1-26.84,9.72Z"/><path class="cls-1" d="M903.2,318.53H833.9a2.27,2.27,0,0,0-2.83,3.06v.54a39.84,39.84,0,0,0,78.28,2.55A6.17,6.17,0,0,0,903.2,318.53Z"/><path class="cls-4" d="M1441.26,113.67c1.47,9.05,8.89,15.95,17.84,15.95s16.37-6.9,17.84-15.95a20.41,20.41,0,0,1,.28,3.27c0,10.62-8.11,19.22-18.12,19.22S1441,127.57,1441,116.95A20.41,20.41,0,0,1,1441.26,113.67Z"/><path class="cls-3" d="M1459.1,129.62c-9,0-16.37-6.9-17.84-15.95,1.47-9.05,8.89-15.95,17.84-15.95s16.37,6.9,17.84,15.95C1475.47,122.73,1468.05,129.62,1459.1,129.62Z"/><path class="cls-4" d="M1545.66,113.67a20.41,20.41,0,0,1,.28-3.27c1.47,9.05,8.89,15.95,17.84,15.95s16.37-6.9,17.84-15.95a20.41,20.41,0,0,1,.28,3.27c0,10.62-8.11,19.22-18.12,19.22S1545.66,124.29,1545.66,113.67Z"/><path class="cls-3" d="M1563.78,126.35c-9,0-16.37-6.9-17.84-15.95,1.47-9.05,8.89-15.95,17.84-15.95s16.37,6.9,17.84,15.95C1580.15,119.45,1572.74,126.35,1563.78,126.35Z"/><path class="cls-4" d="M1512.6,178.13a37.62,37.62,0,0,0,18.66-5A41.78,41.78,0,0,0,1551,146.32v-.54a6.4,6.4,0,0,0-.56-2.63,6.17,6.17,0,0,1,3.69,5.72v.54a41.78,41.78,0,0,1-19.75,26.86,37.64,37.64,0,0,1-37.32,0,39.8,39.8,0,0,1-9.77-7.86,39.27,39.27,0,0,0,6.64,4.77A37.62,37.62,0,0,0,1512.6,178.13Z"/><path class="cls-3" d="M1483,142.72h65.33a5.45,5.45,0,0,1,2.1.42,6.4,6.4,0,0,1,.56,2.63v.54a41.78,41.78,0,0,1-19.75,26.86,37.64,37.64,0,0,1-37.32,0,39.27,39.27,0,0,1-6.64-4.77,43,43,0,0,1-10.08-19.54A6,6,0,0,1,1483,142.72Z"/><path class="cls-4" d="M402.7,396.91a8.32,8.32,0,0,1-16.41,0,8.33,8.33,0,1,0,16.41,0Z"/><path class="cls-3" d="M394.5,403.84a7,7,0,1,0-8.2-6.92A8.33,8.33,0,0,0,394.5,403.84Z"/><path class="cls-4" d="M354.7,396.91a8.38,8.38,0,0,0-.13-1.42,8.32,8.32,0,0,1-16.41,0,8.33,8.33,0,1,0,16.53,1.42Z"/><path class="cls-3" d="M346.37,402.41a7,7,0,1,0-8.2-6.92A8.33,8.33,0,0,0,346.37,402.41Z"/><path class="cls-4" d="M369.9,424.89a18.2,18.2,0,0,1-17.66-13.81v-.23a2.65,2.65,0,0,1,.26-1.14,2.68,2.68,0,0,0-1.7,2.49v.23a18.16,18.16,0,0,0,30.73,8.25,18.05,18.05,0,0,1-11.63,4.22Z"/><path class="cls-3" d="M383.5,409.52h-30a1,1,0,0,0-1.23,1.33v.23a18.2,18.2,0,0,0,26.24,11.66,18.07,18.07,0,0,0,3.05-2.07,18.34,18.34,0,0,0,4.63-8.48A2.67,2.67,0,0,0,383.5,409.52Z"/></g></g></svg>