<svg xmlns="http://www.w3.org/2000/svg" viewBox="0 0 628 293.67"><defs><style>.cls-1{fill:#fff;opacity:0.75;}</style></defs><title>splashcloud</title><g id="Layer_2" data-name="Layer 2"><g id="Layer_7" data-name="Layer 7"><path class="cls-1" d="M561.22,116H519.39a57.16,57.16,0,0,0-56.8-52.71H404a57,57,0,0,0-45.34-22.59h-3.53c0-.25,0-.5,0-.75h0A40,40,0,0,0,315.25,0H191.9A40,40,0,0,0,152,39.91h0c0,.25,0,.5,0,.75h-3.16a57.15,57.15,0,0,0-57,57v13.25c0,1.71.09,3.4.24,5.08H66.78A67,67,0,0,0,0,182.75v15.52a67,67,0,0,0,66.78,66.78H85.88a66.82,66.82,0,0,0,54.7,28.61H386.52a66.82,66.82,0,0,0,54.7-28.61h120A67,67,0,0,0,628,198.27V182.75A67,67,0,0,0,561.22,116Z"/></g></g></svg>