<svg xmlns="http://www.w3.org/2000/svg" viewBox="0 0 327.14 434.21"><defs><style>.cls-1{fill:#706954;}.cls-2{fill:#adb494;}.cls-3{fill:#99a179;}.cls-4{fill:#808958;}.cls-5{fill:#605a4c;}</style></defs><title>splashtree1</title><g id="Layer_2" data-name="Layer 2"><g id="Layer_5" data-name="Layer 5"><rect class="cls-1" x="125.11" y="124.88" width="92.25" height="293.92" rx="21.05" ry="21.05"/><path class="cls-1" d="M272.89,402.16h-4a27.7,27.7,0,0,1-14-5.94,13.36,13.36,0,0,0-11.87-7.31h-.73a8.69,8.69,0,0,1-6.75-6.63V381a19.4,19.4,0,0,0-19.35-19.35H191.64A19.4,19.4,0,0,0,172.29,381v23.74a19.4,19.4,0,0,0,19.35,19.35h81.25a9.91,9.91,0,0,0,9.88-9.88V412A9.91,9.91,0,0,0,272.89,402.16Z"/><path class="cls-1" d="M165.85,361.49H130.69a21.54,21.54,0,0,0-21.43,20.39c-.68,2.3-2.64,5.76-8.38,6.83H98.35a14.81,14.81,0,0,0-12.55,7h0A37.87,37.87,0,0,1,68.12,402H62a11,11,0,0,0,0,22H165.85a21.55,21.55,0,0,0,21.49-21.49V383A21.55,21.55,0,0,0,165.85,361.49Z"/><path class="cls-1" d="M276.38,210.5H252a7,7,0,0,0-7,7,7,7,0,0,0,.07,1c0,1.91-.85,6.06-8.12,6.06H220.05a10.9,10.9,0,0,0-8.91,4.65,14.73,14.73,0,0,0-4.07,10.14v24.2a4.62,4.62,0,0,0,4.61,4.61h10.19a14.84,14.84,0,0,0,14.8-14.8c.21-5.12,4.56-6.62,8.06-7h9.07l.52,0,.52,0a9.89,9.89,0,0,0,9.86-9.86V232.9c-.12-5.87,2.93-7.82,5.71-8.39h6a7,7,0,1,0,0-14Z"/><path class="cls-1" d="M130.93,322.3a8.48,8.48,0,0,0-7.26-4.13h-15c-6.4,0-6.92-3.48-6.87-4.88a5.29,5.29,0,0,0,.06-.57,5.46,5.46,0,0,0-5.45-5.45H74.78a5.45,5.45,0,0,0,0,10.89h5.53c2.35.44,4.94,2,4.83,6.52v2.43a8,8,0,0,0,8,8H102c3,.3,6.64,1.47,6.82,5.44,0,.22,0,.42.06.6a12,12,0,0,0,11.94,10.89h9.3a3.75,3.75,0,0,0,3.74-3.74V330.17A11.93,11.93,0,0,0,130.93,322.3Z"/><path class="cls-2" d="M268.93,45.51h-3.31a21.57,21.57,0,0,0-21-17.1H230.23V21.49A21.55,21.55,0,0,0,208.75,0H132.37a21.55,21.55,0,0,0-21.49,21.49v5.32H87.56A21.55,21.55,0,0,0,66.08,48.29v.07A21.55,21.55,0,0,0,87.56,69.85h23.32V99.59a21.55,21.55,0,0,0,21.49,21.49H244.59a21.55,21.55,0,0,0,21.49-21.49V90.86h2.85a21.55,21.55,0,0,0,21.49-21.49V67A21.55,21.55,0,0,0,268.93,45.51Z"/><path class="cls-3" d="M287.81,66.69H229a21.72,21.72,0,0,0-5.1-6.11,13.2,13.2,0,0,0,1-4.92h0a13.39,13.39,0,0,0-13.35-13.35H191.84a13.38,13.38,0,0,0-13.35,13.35H162a14.71,14.71,0,0,0,.52-3.83A14.9,14.9,0,0,0,147.69,37H134.85A14.9,14.9,0,0,0,120,51.83a14.71,14.71,0,0,0,.52,3.83H66.93A21.55,21.55,0,0,0,45.44,77.15v48.57a21.55,21.55,0,0,0,21.49,21.49h143.3c.29,0,.58,0,.87,0a21.37,21.37,0,0,0,14.44,5.64h62.28a21.55,21.55,0,0,0,21.49-21.49V88.17A21.55,21.55,0,0,0,287.81,66.69Z"/><path class="cls-4" d="M295.51,108.29H264.35a31.74,31.74,0,0,0-31.47,28.46H222.64a21.54,21.54,0,0,0-21.44-20.64H157.67a21.28,21.28,0,0,0-11.19,3.19,18,18,0,0,0-4.6-.62H91.82A28,28,0,0,0,63.91,90.86h-36A28,28,0,0,0,0,118.77v5.12A28,28,0,0,0,27.91,151.8H58.44a18.2,18.2,0,0,0,15.08,8.05H108a21.37,21.37,0,0,0,13.78,5h9.4a21.26,21.26,0,0,0,8.86-1.94,21.49,21.49,0,0,0,17.62,9.25h43.52a21.49,21.49,0,0,0,17.64-9.27h17.46A31.71,31.71,0,0,0,264.35,180h31.16a31.72,31.72,0,0,0,31.63-31.63v-8.48A31.72,31.72,0,0,0,295.51,108.29Z"/><path class="cls-4" d="M174.51,109.25H189.6a7.31,7.31,0,0,0,0-14.62H174.51a7.31,7.31,0,1,0,0,14.62Z"/><path class="cls-4" d="M102.79,105.35h22.64a11,11,0,0,0,0-21.93H102.79a11,11,0,1,0,0,21.93Z"/><rect class="cls-3" x="244.21" y="188.16" width="34.25" height="21.14" rx="10.57" ry="10.57"/><path class="cls-4" d="M281.5,195.17H268.7a15.48,15.48,0,0,0-14.33,9.73H243.63a12.21,12.21,0,0,0,0,24.42h16.23a12.15,12.15,0,0,0,8.31-3.3l.54,0h12.8a15.44,15.44,0,0,0,0-30.87Z"/><path class="cls-5" d="M214.88,395.39V385a21.55,21.55,0,0,0-21.49-21.49H161.29A21.55,21.55,0,0,0,139.81,385V396.4a16.75,16.75,0,0,0,7.95,31.49h17a9.75,9.75,0,0,0,9.09,6.32h15.1a9.75,9.75,0,0,0,9.09-6.32h11.22a16.74,16.74,0,0,0,5.65-32.51Z"/><path class="cls-1" d="M133.12,225.45a10.15,10.15,0,0,0-9.48-6.63H100.89c-8,0-9.43-3.58-9.59-5.6a6.46,6.46,0,0,0,.07-.9v-.91a6.52,6.52,0,0,0-6.51-6.51H52.42a6.52,6.52,0,0,0-6.51,6.51v.91a6.52,6.52,0,0,0,6.51,6.51h8.85c3.29.56,6.9,2.5,6.76,8.33v3.2a10.15,10.15,0,0,0,10.12,10.12H91.66c4.13.38,9.29,1.88,9.54,7a5.88,5.88,0,0,0,.28,1.6,16.09,16.09,0,0,0,15.76,13.1h14a5,5,0,0,0,5-5V234.86A15.91,15.91,0,0,0,133.12,225.45Z"/><path class="cls-4" d="M73.9,180.32H60.8a17.52,17.52,0,0,0-17.47,17.43H41A14.1,14.1,0,0,0,41,226H51.58a14.14,14.14,0,0,0,13.66-10.69H73.9A17.52,17.52,0,0,0,91.37,197.8h0A17.52,17.52,0,0,0,73.9,180.32Z"/><rect class="cls-3" x="61.43" y="281.92" width="34.25" height="21.14" rx="10.57" ry="10.57"/><path class="cls-4" d="M98.72,288.93H85.92a15.48,15.48,0,0,0-14.33,9.73H60.85a12.21,12.21,0,1,0,0,24.42H77.08a12.15,12.15,0,0,0,8.31-3.3l.54,0h12.8a15.44,15.44,0,0,0,0-30.87Z"/><rect class="cls-3" x="162.09" y="244.68" width="34.25" height="21.14" rx="10.57" ry="10.57"/><path class="cls-4" d="M199.38,251.68h-12.8a15.48,15.48,0,0,0-14.33,9.73H161.51a12.21,12.21,0,0,0,0,24.42h16.23a12.15,12.15,0,0,0,8.31-3.3l.54,0h12.8a15.44,15.44,0,1,0,0-30.87Z"/></g></g></svg>