<svg xmlns="http://www.w3.org/2000/svg" xmlns:xlink="http://www.w3.org/1999/xlink" viewBox="0 0 2142.13 727.91"><defs><style>.cls-1{fill:#706954;}.cls-2{fill:#3d3a32;}.cls-3{fill:#605a4c;}.cls-4{fill:url(#linear-gradient);}.cls-5{fill:#c2c9c9;}.cls-6{fill:#9aa5a5;}.cls-7{fill:#adb494;}.cls-8{fill:#99a179;}.cls-9{fill:#808958;}</style><linearGradient id="linear-gradient" x1="2168.36" y1="-32.51" x2="-19.26" y2="903.87" gradientUnits="userSpaceOnUse"><stop offset="0" stop-color="#9cb779"/><stop offset="0.39" stop-color="#d4d9d5"/><stop offset="1" stop-color="#d7dbdb"/></linearGradient></defs><title>splashstone</title><g id="Layer_2" data-name="Layer 2"><g id="Layer_2-2" data-name="Layer 2"><path class="cls-1" d="M501.23,101h-7.61a1.64,1.64,0,0,0-1.63,1.63,1.59,1.59,0,0,0,0,.19c0,.43-.19,1.44-2.3,1.44h-5.32a2.5,2.5,0,0,0-1.13.28V72.28h1.39a3.46,3.46,0,0,0,3.45-3.45c0-1.2,1.08-1.55,1.89-1.63h2.34a2.3,2.3,0,0,0,2.3-2.3v-.83c0-1.37.69-1.82,1.34-2h1.38a1.63,1.63,0,0,0,0-3.26h-5.68A1.64,1.64,0,0,0,490,60.49c0,.05,0,.1,0,.16,0,.41-.11,1.48-1.89,1.48h-3.93a2.52,2.52,0,0,0-1.44.46V53.64a1.59,1.59,0,0,1,1.11-.91H484a2.55,2.55,0,0,0,.47,0c.41,0,.65-.09.74-.27a2.57,2.57,0,0,0,1.36-2.25V44.37c0-3.13,2.34-3,2.34-3l0,0a2.18,2.18,0,0,0,1.93-2.15V38.18A2.18,2.18,0,0,0,488.59,36h-5a2.18,2.18,0,0,0-2.18,2.18v1.51c0,4.19-2.94,4.09-2.94,4.09v0a3.62,3.62,0,0,0-3.13,3.57v7.91s-1,3.47-3.68,4.47h-4.7c-3.61,0-4.83-4.56-4.83-4.56V52.95c0-.1,0-.18,0-.28s0-.18,0-.28a2.91,2.91,0,0,0-2.9-2.9h0a2.57,2.57,0,0,1-2.69-2.65,2.57,2.57,0,0,0,0-.39,1.72,1.72,0,0,0,0-.24,1.76,1.76,0,0,0-1.75-1.75h-5.19a1.75,1.75,0,1,0,0,3.5h.11a1.91,1.91,0,0,1,2.06,1.92v3a2.37,2.37,0,0,0,.87,1.83c0,.29.19.47.77.44h0a2.34,2.34,0,0,0,.7.12h0a2,2,0,0,1,1.07,1.83v9.94a3.4,3.4,0,0,0,.41,1.59V79a3.62,3.62,0,0,0-.38-.52,2.54,2.54,0,0,0-2.16-1.22h-4.5c-1.92,0-2.07-1-2.06-1.46a1.58,1.58,0,0,0,0-.17A1.64,1.64,0,0,0,444.89,74h-6.48a1.63,1.63,0,1,0,0,3.26h1.65a1.7,1.7,0,0,1,1.45,2v.73a2.4,2.4,0,0,0,2.4,2.4h2.65c.89.09,2,.43,2.06,1.63,0,0,0,.06,0,.09a3.61,3.61,0,0,0,3.58,3.36H455a1.11,1.11,0,0,0,.59-.17v6.83a6.82,6.82,0,0,1-.53,2.4c-.8,1.6-.53,8.34,0,10.35a23.18,23.18,0,0,1,.53,4.18v30.55a6.33,6.33,0,0,0,6.31,6.31h15a6.33,6.33,0,0,0,6.31-6.31V114.44h2.58a3.81,3.81,0,0,0,3.73-3.07,1.32,1.32,0,0,0,.07-.38c.06-1.2,1.31-1.55,2.3-1.63H495a2.54,2.54,0,0,0,2.53-2.53v-.59a1.76,1.76,0,0,1,1.62-2h2a1.63,1.63,0,1,0,0-3.26Z"/><path class="cls-1" d="M499.66,142.61h-1.18a8.3,8.3,0,0,1-4.17-1.81,4,4,0,0,0-3.54-2.22h-.22a2.6,2.6,0,0,1-2-2v-.37a5.82,5.82,0,0,0-5.76-5.84l-7.39-.05a5.82,5.82,0,0,0-5.84,5.76l0,7.11a5.82,5.82,0,0,0,5.76,5.84l5.08,0,2.3,0,7.45.05h.59l8.93.06a3,3,0,0,0,3-2.94v-.66A3,3,0,0,0,499.66,142.61Z"/><path class="cls-1" d="M467.42,130.38l-10.54-.06a6.46,6.46,0,0,0-6.46,6.08,2.93,2.93,0,0,1-2.52,2h-.76a4.44,4.44,0,0,0-3.77,2.08h0a11.35,11.35,0,0,1-5.3,1.84h-1.83a3.3,3.3,0,0,0-3.31,3.27h0a3.3,3.3,0,0,0,3.27,3.31l12.47.07h0l12.16.07h0l6.49,0a6.46,6.46,0,0,0,6.48-6.4l0-5.83A6.46,6.46,0,0,0,467.42,130.38Z"/><ellipse class="cls-2" cx="463.86" cy="102.32" rx="6.71" ry="10.71"/><path class="cls-3" d="M481.41,142.45v-3.1a6.46,6.46,0,0,0-6.44-6.44h-9.62a6.46,6.46,0,0,0-6.44,6.44v3.41a5,5,0,0,0,2.38,9.44h5.09a2.92,2.92,0,0,0,2.72,1.89h4.53a2.92,2.92,0,0,0,2.72-1.89h3.37a5,5,0,0,0,1.69-9.74Z"/><path class="cls-1" d="M436.81,98.72H429.2a1.64,1.64,0,0,0-1.63,1.63,1.59,1.59,0,0,0,0,.19c0,.43-.19,1.44-2.3,1.44H420a2.5,2.5,0,0,0-1.13.28V70h1.39a3.46,3.46,0,0,0,3.45-3.45c0-1.2,1.08-1.55,1.89-1.63h2.34a2.3,2.3,0,0,0,2.3-2.3v-.83c0-1.37.69-1.82,1.34-2h1.38a1.63,1.63,0,0,0,0-3.26h-5.68a1.64,1.64,0,0,0-1.63,1.63c0,.05,0,.1,0,.16,0,.41-.11,1.48-1.89,1.48H419.8a2.52,2.52,0,0,0-1.44.46V51.34a1.59,1.59,0,0,1,1.11-.91h.07a2.55,2.55,0,0,0,.47,0c.41,0,.65-.09.74-.27a2.57,2.57,0,0,0,1.36-2.25V42.07c0-3.13,2.34-3,2.34-3l0,0a2.18,2.18,0,0,0,1.93-2.15V35.88a2.18,2.18,0,0,0-2.18-2.18h-5A2.18,2.18,0,0,0,417,35.88v1.51c0,4.19-2.94,4.09-2.94,4.09v0a3.62,3.62,0,0,0-3.13,3.57V53s-1,3.47-3.68,4.47h-4.7c-3.61,0-4.83-4.56-4.83-4.56V50.65c0-.1,0-.18,0-.28s0-.18,0-.28a2.91,2.91,0,0,0-2.9-2.9h0a2.57,2.57,0,0,1-2.69-2.65,2.57,2.57,0,0,0,0-.39,1.72,1.72,0,0,0,0-.24,1.76,1.76,0,0,0-1.75-1.75h-5.19a1.75,1.75,0,1,0,0,3.5h.11a1.91,1.91,0,0,1,2.06,1.92v3a2.37,2.37,0,0,0,.87,1.83c0,.29.19.47.77.44h0a2.34,2.34,0,0,0,.7.12h0a2,2,0,0,1,1.07,1.83v9.94a3.4,3.4,0,0,0,.41,1.59V76.69a3.62,3.62,0,0,0-.38-.52A2.54,2.54,0,0,0,388.64,75h-4.5c-1.92,0-2.07-1-2.06-1.46a1.58,1.58,0,0,0,0-.17,1.64,1.64,0,0,0-1.63-1.63H374A1.63,1.63,0,1,0,374,75h1.65a1.7,1.7,0,0,1,1.45,2v.73a2.4,2.4,0,0,0,2.4,2.4h2.65c.89.09,2,.43,2.06,1.63,0,0,0,.06,0,.09a3.61,3.61,0,0,0,3.58,3.36h2.79a1.11,1.11,0,0,0,.59-.17v6.83a6.82,6.82,0,0,1-.53,2.4c-.8,1.6-.53,8.34,0,10.35a23.18,23.18,0,0,1,.53,4.18v30.55a6.33,6.33,0,0,0,6.31,6.31h15a6.33,6.33,0,0,0,6.31-6.31V112.14h2.58a3.81,3.81,0,0,0,3.73-3.07,1.32,1.32,0,0,0,.07-.38c.06-1.2,1.31-1.55,2.3-1.63h3.1a2.54,2.54,0,0,0,2.53-2.53v-.59a1.76,1.76,0,0,1,1.62-2h2a1.63,1.63,0,1,0,0-3.26Z"/><path class="cls-1" d="M435.24,140.31h-1.18a8.3,8.3,0,0,1-4.17-1.81,4,4,0,0,0-3.54-2.22h-.22a2.6,2.6,0,0,1-2-2v-.37a5.82,5.82,0,0,0-5.76-5.84L411,128a5.82,5.82,0,0,0-5.84,5.76l0,7.11a5.82,5.82,0,0,0,5.76,5.84l5.08,0,2.3,0,7.45.05h.59l8.93.06a3,3,0,0,0,3-2.94v-.66A3,3,0,0,0,435.24,140.31Z"/><path class="cls-1" d="M403,128.08,392.47,128A6.46,6.46,0,0,0,386,134.1a2.93,2.93,0,0,1-2.52,2h-.76a4.44,4.44,0,0,0-3.77,2.08h0a11.35,11.35,0,0,1-5.3,1.84h-1.83a3.3,3.3,0,0,0-3.31,3.27h0a3.3,3.3,0,0,0,3.27,3.31l12.47.07h0l12.16.07h0l6.49,0a6.46,6.46,0,0,0,6.48-6.4l0-5.83A6.46,6.46,0,0,0,403,128.08Z"/><ellipse class="cls-2" cx="399.44" cy="100.02" rx="6.71" ry="10.71"/><path class="cls-3" d="M417,140.15V137a6.46,6.46,0,0,0-6.44-6.44h-9.62a6.46,6.46,0,0,0-6.44,6.44v3.41a5,5,0,0,0,2.38,9.44H402a2.92,2.92,0,0,0,2.72,1.89h4.53a2.92,2.92,0,0,0,2.72-1.89h3.37a5,5,0,0,0,1.69-9.74Z"/><path class="cls-4" d="M140.46,150.94s912.62-30.42,1279.69,10.14,679.39,65.55,722,59.14v443H140.46Z"/><path class="cls-5" d="M1355,267.94c2,1.11,10.89,3.84,13.18,2.91s7.5-4.71,8-5.57a5,5,0,0,0,.46-1l-.18-.39a5.78,5.78,0,0,0-2.49-2.23c-1.46-.51-9.68-2.66-9.68-2.66s-.92-.63-2.63.67c0,0-5.72,4-7.41,7.53A1.71,1.71,0,0,0,1355,267.94Z"/><path class="cls-6" d="M1380.94,272.78c-.81-1.33-3.54-7-4.27-8.53a5,5,0,0,1-.46,1c-.54.86-5.75,4.64-8,5.57s-11.2-1.79-13.18-2.91a1.71,1.71,0,0,1-.71-.76,3.76,3.76,0,0,0-.43,2.21c.65,3.83-.09,5.35,4.53,7.31s10.94,3.63,13.28,2.64l8-3.74S1381.88,274.32,1380.94,272.78Z"/><path class="cls-5" d="M1371.95,267.39c3.44,1.93,18.9,6.66,22.87,5s13-8.17,14-9.66a8.66,8.66,0,0,0,.81-1.77l-.32-.67s-1.78-3-4.31-3.87-16.81-4.61-16.81-4.61-1.6-1.09-4.57,1.16c0,0-9.92,6.91-12.85,13.06A3,3,0,0,0,1371.95,267.39Z"/><path class="cls-6" d="M1417,275.79c-1.41-2.31-6.14-12.14-7.41-14.8a8.66,8.66,0,0,1-.81,1.77c-.94,1.5-10,8.05-14,9.66s-19.43-3.11-22.87-5a3,3,0,0,1-1.23-1.32,6.53,6.53,0,0,0-.75,3.84c1.13,6.65-.15,9.28,7.86,12.69s19,6.29,23,4.58l13.89-6.48S1418.63,278.47,1417,275.79Z"/><path class="cls-5" d="M1412.5,285.19c2,1.11,10.89,3.84,13.18,2.91s7.5-4.71,8-5.57a5,5,0,0,0,.46-1l-.18-.39a5.78,5.78,0,0,0-2.49-2.23c-1.46-.51-9.68-2.66-9.68-2.66s-.92-.63-2.63.67c0,0-5.72,4-7.41,7.53A1.71,1.71,0,0,0,1412.5,285.19Z"/><path class="cls-6" d="M1438.46,290c-.81-1.33-3.54-7-4.27-8.53a5,5,0,0,1-.46,1c-.54.86-5.75,4.64-8,5.57s-11.2-1.79-13.18-2.91a1.71,1.71,0,0,1-.71-.76,3.76,3.76,0,0,0-.43,2.21c.65,3.83-.09,5.35,4.53,7.31s10.94,3.63,13.28,2.64l8-3.74S1439.4,291.58,1438.46,290Z"/><path class="cls-5" d="M1372.24,287.49c2,1.11,10.89,3.84,13.18,2.91s7.5-4.71,8-5.57a5,5,0,0,0,.46-1l-.18-.39a5.78,5.78,0,0,0-2.49-2.23c-1.46-.51-9.68-2.66-9.68-2.66s-.92-.63-2.63.67c0,0-5.72,4-7.41,7.53A1.71,1.71,0,0,0,1372.24,287.49Z"/><path class="cls-6" d="M1398.2,292.34c-.81-1.33-3.54-7-4.27-8.53a5,5,0,0,1-.46,1c-.54.86-5.75,4.64-8,5.57s-11.2-1.79-13.18-2.91a1.71,1.71,0,0,1-.71-.76,3.76,3.76,0,0,0-.43,2.21c.65,3.83-.09,5.35,4.53,7.31s10.94,3.63,13.28,2.64l8-3.74S1399.14,293.88,1398.2,292.34Z"/><path class="cls-5" d="M1439.85,229.84c1.55.87,8.5,3,10.29,2.27a26.29,26.29,0,0,0,6.28-4.35,3.9,3.9,0,0,0,.36-.8l-.14-.3a4.51,4.51,0,0,0-1.94-1.74c-1.14-.4-7.56-2.07-7.56-2.07s-.72-.49-2.05.52c0,0-4.46,3.11-5.78,5.88A1.33,1.33,0,0,0,1439.85,229.84Z"/><path class="cls-6" d="M1460.11,233.62c-.63-1-2.76-5.46-3.33-6.65a3.9,3.9,0,0,1-.36.8,26.29,26.29,0,0,1-6.28,4.35c-1.79.72-8.74-1.4-10.29-2.27a1.33,1.33,0,0,1-.55-.59A2.93,2.93,0,0,0,1439,231c.51,3-.07,4.18,3.53,5.71s8.54,2.83,10.36,2.06l6.25-2.92S1460.85,234.82,1460.11,233.62Z"/><path class="cls-5" d="M1453.09,229.41c2.68,1.51,14.75,5.2,17.85,3.94s10.16-6.38,10.89-7.54a6.76,6.76,0,0,0,.63-1.39l-.25-.52a7.83,7.83,0,0,0-3.37-3c-2-.7-13.12-3.6-13.12-3.6s-1.25-.85-3.57.91c0,0-7.75,5.39-10,10.2A2.31,2.31,0,0,0,1453.09,229.41Z"/><path class="cls-6" d="M1488.25,236c-1.1-1.8-4.79-9.47-5.79-11.55a6.76,6.76,0,0,1-.63,1.39c-.73,1.17-7.79,6.29-10.89,7.54s-15.17-2.43-17.85-3.94a2.31,2.31,0,0,1-1-1,5.09,5.09,0,0,0-.58,3c.88,5.19-.12,7.25,6.13,9.9s14.82,4.91,18,3.58l10.84-5.06S1489.53,238.06,1488.25,236Z"/><path class="cls-5" d="M1484.74,243.3c1.55.87,8.5,3,10.29,2.27a26.29,26.29,0,0,0,6.28-4.35,3.9,3.9,0,0,0,.36-.8l-.14-.3a4.51,4.51,0,0,0-1.94-1.74c-1.14-.4-7.56-2.07-7.56-2.07s-.72-.49-2.05.52c0,0-4.46,3.11-5.78,5.88A1.33,1.33,0,0,0,1484.74,243.3Z"/><path class="cls-6" d="M1505,247.08c-.63-1-2.76-5.46-3.33-6.65a3.9,3.9,0,0,1-.36.8,26.29,26.29,0,0,1-6.28,4.35c-1.79.72-8.74-1.4-10.29-2.27a1.33,1.33,0,0,1-.55-.59,2.93,2.93,0,0,0-.34,1.73c.51,3-.07,4.18,3.53,5.71s8.54,2.83,10.36,2.06l6.25-2.92S1505.74,248.29,1505,247.08Z"/><path class="cls-5" d="M1453.32,245.1c1.55.87,8.5,3,10.29,2.27a26.29,26.29,0,0,0,6.28-4.35,3.9,3.9,0,0,0,.36-.8l-.14-.3a4.51,4.51,0,0,0-1.94-1.74c-1.14-.4-7.56-2.07-7.56-2.07s-.72-.49-2.05.52c0,0-4.46,3.11-5.78,5.88A1.33,1.33,0,0,0,1453.32,245.1Z"/><path class="cls-6" d="M1473.58,248.88c-.63-1-2.76-5.46-3.33-6.65a3.9,3.9,0,0,1-.36.8,26.29,26.29,0,0,1-6.28,4.35c-1.79.72-8.74-1.4-10.29-2.27a1.33,1.33,0,0,1-.55-.59,2.93,2.93,0,0,0-.34,1.73c.51,3-.07,4.18,3.53,5.71s8.54,2.83,10.36,2.06l6.25-2.92S1474.31,250.08,1473.58,248.88Z"/><path class="cls-5" d="M196,192.05c3,1.66,16.28,5.73,19.7,4.35s11.21-7,12-8.32a7.46,7.46,0,0,0,.69-1.53l-.28-.58a8.65,8.65,0,0,0-3.71-3.33c-2.18-.77-14.47-4-14.47-4s-1.38-.94-3.93,1c0,0-8.55,6-11.07,11.25A2.55,2.55,0,0,0,196,192.05Z"/><path class="cls-6" d="M234.79,199.29c-1.22-2-5.29-10.45-6.38-12.74a7.46,7.46,0,0,1-.69,1.53c-.81,1.29-8.6,6.94-12,8.32S199,193.72,196,192.05a2.55,2.55,0,0,1-1.06-1.13,5.62,5.62,0,0,0-.64,3.31c1,5.73-.13,8,6.77,10.93s16.36,5.42,19.84,3.95l12-5.58S236.2,201.59,234.79,199.29Z"/><path class="cls-5" d="M221.35,191.23c5.14,2.89,28.24,9.95,34.18,7.54S275,186.56,276.4,184.33a13,13,0,0,0,1.21-2.65l-.48-1s-2.67-4.45-6.45-5.78S245.56,168,245.56,168s-2.39-1.63-6.83,1.73c0,0-14.83,10.33-19.21,19.53A4.43,4.43,0,0,0,221.35,191.23Z"/><path class="cls-6" d="M288.68,203.79c-2.11-3.45-9.18-18.14-11.08-22.11a13,13,0,0,1-1.21,2.65c-1.41,2.23-14.92,12-20.86,14.44s-29-4.65-34.18-7.54a4.43,4.43,0,0,1-1.83-2A9.75,9.75,0,0,0,218.4,195c1.69,9.94-.22,13.88,11.75,19s28.38,9.41,34.44,6.85l20.76-9.69S291.13,207.79,288.68,203.79Z"/><path class="cls-5" d="M282,217.84c3,1.66,16.28,5.73,19.7,4.35s11.21-7,12-8.32a7.46,7.46,0,0,0,.69-1.53l-.28-.58a8.65,8.65,0,0,0-3.71-3.33c-2.18-.77-14.47-4-14.47-4s-1.38-.94-3.93,1c0,0-8.55,6-11.07,11.25A2.55,2.55,0,0,0,282,217.84Z"/><path class="cls-6" d="M320.76,225.08c-1.22-2-5.29-10.45-6.38-12.74a7.46,7.46,0,0,1-.69,1.53c-.81,1.29-8.6,6.94-12,8.32s-16.74-2.68-19.7-4.35a2.55,2.55,0,0,1-1.06-1.13,5.62,5.62,0,0,0-.64,3.31c1,5.73-.13,8,6.77,10.93s16.36,5.42,19.84,3.95l12-5.58S322.16,227.38,320.76,225.08Z"/><path class="cls-5" d="M221.78,221.28c3,1.66,16.28,5.73,19.7,4.35s11.21-7,12-8.32a7.46,7.46,0,0,0,.69-1.53l-.28-.58a8.65,8.65,0,0,0-3.71-3.33c-2.18-.77-14.47-4-14.47-4s-1.38-.94-3.93,1c0,0-8.55,6-11.07,11.25A2.55,2.55,0,0,0,221.78,221.28Z"/><path class="cls-6" d="M260.58,228.52c-1.22-2-5.29-10.45-6.38-12.74a7.46,7.46,0,0,1-.69,1.53c-.81,1.29-8.6,6.94-12,8.32s-16.74-2.68-19.7-4.35a2.55,2.55,0,0,1-1.06-1.13,5.62,5.62,0,0,0-.64,3.31c1,5.73-.13,8,6.77,10.93s16.36,5.42,19.84,3.95l12-5.58S262,230.82,260.58,228.52Z"/><path class="cls-5" d="M278.27,239.54c2,1.14,11.13,3.92,13.47,3s7.67-4.81,8.22-5.69a5.1,5.1,0,0,0,.47-1l-.19-.4a5.91,5.91,0,0,0-2.54-2.28c-1.49-.53-9.9-2.72-9.9-2.72s-.94-.64-2.69.68c0,0-5.84,4.07-7.57,7.69A1.75,1.75,0,0,0,278.27,239.54Z"/><path class="cls-6" d="M304.8,244.49c-.83-1.36-3.62-7.15-4.37-8.71a5.1,5.1,0,0,1-.47,1c-.55.88-5.88,4.74-8.22,5.69s-11.45-1.83-13.47-3a1.75,1.75,0,0,1-.72-.78,3.84,3.84,0,0,0-.44,2.26c.67,3.92-.09,5.47,4.63,7.47s11.18,3.71,13.57,2.7l8.18-3.82S305.76,246.07,304.8,244.49Z"/><path class="cls-5" d="M295.61,239c3.51,2,19.32,6.8,23.38,5.16s13.31-8.35,14.27-9.88a8.85,8.85,0,0,0,.82-1.81l-.33-.69s-1.82-3-4.41-4-17.18-4.71-17.18-4.71-1.64-1.11-4.67,1.19c0,0-10.14,7.06-13.14,13.35A3,3,0,0,0,295.61,239Z"/><path class="cls-6" d="M341.65,247.57c-1.44-2.36-6.28-12.41-7.58-15.12a8.85,8.85,0,0,1-.82,1.81c-1,1.53-10.21,8.23-14.27,9.88S299.12,241,295.61,239a3,3,0,0,1-1.25-1.35,6.67,6.67,0,0,0-.76,3.92c1.16,6.8-.15,9.49,8,13S321,261,325.18,259.21l14.2-6.63S343.32,250.3,341.65,247.57Z"/><path class="cls-5" d="M337.05,257.18c2,1.14,11.13,3.92,13.47,3s7.67-4.81,8.22-5.69a5.1,5.1,0,0,0,.47-1L359,253a5.91,5.91,0,0,0-2.54-2.28c-1.49-.53-9.9-2.72-9.9-2.72s-.94-.64-2.69.68c0,0-5.84,4.07-7.57,7.69A1.75,1.75,0,0,0,337.05,257.18Z"/><path class="cls-6" d="M363.59,262.13c-.83-1.36-3.62-7.15-4.37-8.71a5.1,5.1,0,0,1-.47,1c-.55.88-5.88,4.74-8.22,5.69s-11.45-1.83-13.47-3a1.75,1.75,0,0,1-.72-.78,3.84,3.84,0,0,0-.44,2.26c.67,3.92-.09,5.47,4.63,7.47s11.18,3.71,13.57,2.7l8.18-3.82S364.55,263.7,363.59,262.13Z"/><path class="cls-5" d="M295.9,259.53c2,1.14,11.13,3.92,13.47,3s7.67-4.81,8.22-5.69a5.1,5.1,0,0,0,.47-1l-.19-.4a5.91,5.91,0,0,0-2.54-2.28c-1.49-.53-9.9-2.72-9.9-2.72s-.94-.64-2.69.68c0,0-5.84,4.07-7.57,7.69A1.75,1.75,0,0,0,295.9,259.53Z"/><path class="cls-6" d="M322.43,264.48c-.83-1.36-3.62-7.15-4.37-8.71a5.1,5.1,0,0,1-.47,1c-.55.88-5.88,4.74-8.22,5.69s-11.45-1.83-13.47-3a1.75,1.75,0,0,1-.72-.78,3.84,3.84,0,0,0-.44,2.26c.67,3.92-.09,5.47,4.63,7.47s11.18,3.71,13.57,2.7l8.18-3.82S323.4,266.05,322.43,264.48Z"/><path class="cls-5" d="M278.53,247.59c-2,1.14-10.75,3.92-13,3s-7.41-4.81-7.94-5.69a5.19,5.19,0,0,1-.46-1l.18-.4a5.8,5.8,0,0,1,2.45-2.28c1.44-.53,9.56-2.72,9.56-2.72s.91-.64,2.6.68c0,0,5.65,4.07,7.31,7.69A1.72,1.72,0,0,1,278.53,247.59Z"/><path class="cls-6" d="M252.9,252.54c.8-1.36,3.49-7.15,4.22-8.71a5.19,5.19,0,0,0,.46,1c.54.88,5.68,4.74,7.94,5.69s11.06-1.83,13-3a1.72,1.72,0,0,0,.7-.78,4,4,0,0,1,.43,2.26c-.64,3.92.08,5.47-4.47,7.47s-10.81,3.71-13.11,2.7l-7.9-3.82S252,254.12,252.9,252.54Z"/><path class="cls-5" d="M261.78,247c-3.39,2-18.66,6.8-22.58,5.16s-12.86-8.35-13.78-9.88a9,9,0,0,1-.8-1.81l.32-.69s1.76-3,4.26-4,16.6-4.71,16.6-4.71,1.58-1.11,4.51,1.19c0,0,9.8,7.06,12.69,13.35A3,3,0,0,1,261.78,247Z"/><path class="cls-6" d="M217.29,255.62c1.39-2.36,6.06-12.41,7.32-15.12a9,9,0,0,0,.8,1.81c.93,1.53,9.86,8.23,13.78,9.88S258.38,249,261.78,247a3,3,0,0,0,1.21-1.35,6.87,6.87,0,0,1,.74,3.92c-1.12,6.8.15,9.49-7.76,13s-18.75,6.43-22.75,4.68l-13.72-6.63S215.68,258.36,217.29,255.62Z"/><path class="cls-5" d="M221.73,265.23c-2,1.14-10.75,3.92-13,3s-7.41-4.81-7.94-5.69a5.19,5.19,0,0,1-.46-1l.18-.4a5.8,5.8,0,0,1,2.45-2.28c1.44-.53,9.56-2.72,9.56-2.72s.91-.64,2.6.68c0,0,5.65,4.07,7.31,7.69A1.72,1.72,0,0,1,221.73,265.23Z"/><path class="cls-6" d="M196.1,270.18c.8-1.36,3.49-7.15,4.22-8.71a5.19,5.19,0,0,0,.46,1c.54.88,5.68,4.74,7.94,5.69s11.06-1.83,13-3a1.72,1.72,0,0,0,.7-.78,4,4,0,0,1,.43,2.26c-.64,3.92.08,5.47-4.47,7.47s-10.81,3.71-13.11,2.7l-7.9-3.82S195.17,271.76,196.1,270.18Z"/><path class="cls-5" d="M261.49,267.58c-2,1.14-10.75,3.92-13,3s-7.41-4.81-7.94-5.69a5.19,5.19,0,0,1-.46-1l.18-.4a5.8,5.8,0,0,1,2.45-2.28c1.44-.53,9.56-2.72,9.56-2.72s.91-.64,2.6.68c0,0,5.65,4.07,7.31,7.69A1.72,1.72,0,0,1,261.49,267.58Z"/><path class="cls-6" d="M235.86,272.53c.8-1.36,3.49-7.15,4.22-8.71a5.19,5.19,0,0,0,.46,1c.54.88,5.68,4.74,7.94,5.69s11.06-1.83,13-3a1.72,1.72,0,0,0,.7-.78,4,4,0,0,1,.43,2.26c-.64,3.92.08,5.47-4.47,7.47s-10.81,3.71-13.11,2.7l-7.9-3.82S234.93,274.11,235.86,272.53Z"/><path class="cls-5" d="M591.17,522.53c2,1.14,11.13,3.92,13.47,3s7.67-4.81,8.22-5.69a5.1,5.1,0,0,0,.47-1l-.19-.4a5.91,5.91,0,0,0-2.54-2.28c-1.49-.53-9.9-2.72-9.9-2.72s-.94-.64-2.69.68c0,0-5.84,4.07-7.57,7.69A1.75,1.75,0,0,0,591.17,522.53Z"/><path class="cls-6" d="M617.7,527.48c-.83-1.36-3.62-7.15-4.37-8.71a5.1,5.1,0,0,1-.47,1c-.55.88-5.88,4.74-8.22,5.69s-11.45-1.83-13.47-3a1.75,1.75,0,0,1-.72-.78A3.84,3.84,0,0,0,590,524c.67,3.92-.09,5.47,4.63,7.47s11.18,3.71,13.57,2.7l8.18-3.82S618.66,529.06,617.7,527.48Z"/><path class="cls-5" d="M608.51,522c3.51,2,19.32,6.8,23.38,5.16s13.31-8.35,14.27-9.88a8.85,8.85,0,0,0,.82-1.81l-.33-.69s-1.82-3-4.41-4-17.18-4.71-17.18-4.71-1.64-1.11-4.67,1.19c0,0-10.14,7.06-13.14,13.35A3,3,0,0,0,608.51,522Z"/><path class="cls-6" d="M654.55,530.56c-1.44-2.36-6.28-12.41-7.58-15.12a8.85,8.85,0,0,1-.82,1.81c-1,1.53-10.21,8.23-14.27,9.88S612,523.94,608.51,522a3,3,0,0,1-1.25-1.35,6.67,6.67,0,0,0-.76,3.92c1.16,6.8-.15,9.49,8,13s19.41,6.43,23.55,4.68l14.2-6.63S656.22,533.29,654.55,530.56Z"/><path class="cls-5" d="M650,540.17c2,1.14,11.13,3.92,13.47,3s7.67-4.81,8.22-5.69a5.1,5.1,0,0,0,.47-1l-.19-.4a5.91,5.91,0,0,0-2.54-2.28c-1.49-.53-9.9-2.72-9.9-2.72s-.94-.64-2.69.68c0,0-5.84,4.07-7.57,7.69A1.75,1.75,0,0,0,650,540.17Z"/><path class="cls-6" d="M676.49,545.12c-.83-1.36-3.62-7.15-4.37-8.71a5.1,5.1,0,0,1-.47,1c-.55.88-5.88,4.74-8.22,5.69s-11.45-1.83-13.47-3a1.75,1.75,0,0,1-.72-.78,3.84,3.84,0,0,0-.44,2.26c.67,3.92-.09,5.47,4.63,7.47s11.18,3.71,13.57,2.7l8.18-3.82S677.45,546.69,676.49,545.12Z"/><path class="cls-5" d="M608.8,542.52c2,1.14,11.13,3.92,13.47,3s7.67-4.81,8.22-5.69a5.1,5.1,0,0,0,.47-1l-.19-.4a5.91,5.91,0,0,0-2.54-2.28c-1.49-.53-9.9-2.72-9.9-2.72s-.94-.64-2.69.68c0,0-5.84,4.07-7.57,7.69A1.75,1.75,0,0,0,608.8,542.52Z"/><path class="cls-6" d="M635.33,547.47c-.83-1.36-3.62-7.15-4.37-8.71a5.1,5.1,0,0,1-.47,1c-.55.88-5.88,4.74-8.22,5.69s-11.45-1.83-13.47-3a1.75,1.75,0,0,1-.72-.78,3.84,3.84,0,0,0-.44,2.26c.67,3.92-.09,5.47,4.63,7.47s11.18,3.71,13.57,2.7l8.18-3.82S636.3,549,635.33,547.47Z"/><path class="cls-7" d="M290.39,545.94v-9.35a18.27,18.27,0,0,0-15.19-17.95v-1.83A18.26,18.26,0,0,0,257,498.6H192.28a18.26,18.26,0,0,0-18.21,18.21v1.83a18.3,18.3,0,0,0-12.92,9.18,18.26,18.26,0,0,0-10.51,16.49v.06a18.23,18.23,0,0,0,8.24,15.21v19.12a18.26,18.26,0,0,0,18.21,18.21h95.09a18.27,18.27,0,0,0,17.3-12.56,18.26,18.26,0,0,0,18.08-18.2v-2A18.26,18.26,0,0,0,290.39,545.94Z"/><path class="cls-8" d="M293.37,570.6h-.95v-4.3a18.27,18.27,0,0,0-15.21-18,11.19,11.19,0,0,0,1-4.65h0a11.34,11.34,0,0,0-11.31-11.31H250.28A11.34,11.34,0,0,0,239,543.69h0a11.2,11.2,0,0,0,.9,4.4H217.19a12.46,12.46,0,0,0,1.78-6.4h0a12.63,12.63,0,0,0-12.59-12.59H195.5a12.63,12.63,0,0,0-12.59,12.59h0a12.46,12.46,0,0,0,1.78,6.4H152.8a18.26,18.26,0,0,0-18.21,18.21v41.15a18.26,18.26,0,0,0,18.21,18.21H222.4a18.26,18.26,0,0,0,18.2,17.91h52.77a18.26,18.26,0,0,0,18.21-18.21V588.8A18.26,18.26,0,0,0,293.37,570.6Z"/><rect class="cls-9" x="219.9" y="590.17" width="25.18" height="12.39" rx="6.19" ry="6.19"/><path class="cls-9" d="M181.86,583.29H201a9.29,9.29,0,0,0,0-18.58H181.86a9.29,9.29,0,0,0,0,18.58Z"/><path class="cls-9" d="M307,590.17h-26.4a26.88,26.88,0,0,0-26.8,26.8v3.59H219.14a18,18,0,0,0-7.56,1.66H188.2a23.44,23.44,0,0,0,1.19-7.37v-4.33a23.72,23.72,0,0,0-23.65-23.65H135.23a23.72,23.72,0,0,0-23.65,23.65v4.33a23.72,23.72,0,0,0,23.65,23.65h15.69v3.19a15.45,15.45,0,0,0,15.41,15.41h36.11a18.27,18.27,0,0,0,16.7,11H256a18.24,18.24,0,0,0,15.65-8.94h7.24a11.13,11.13,0,0,0,10.7-8.2H307a26.88,26.88,0,0,0,26.8-26.8V617A26.88,26.88,0,0,0,307,590.17Z"/><path class="cls-7" d="M410,605.76V596.4a18.27,18.27,0,0,0-15.19-17.95v-1.83a18.26,18.26,0,0,0-18.21-18.21H311.92a18.26,18.26,0,0,0-18.21,18.21v1.83a18.3,18.3,0,0,0-12.92,9.18,18.26,18.26,0,0,0-10.51,16.49v.06a18.23,18.23,0,0,0,8.24,15.21V638.5a18.26,18.26,0,0,0,18.21,18.21h95.09a18.27,18.27,0,0,0,17.3-12.56,18.26,18.26,0,0,0,18.08-18.2v-2A18.26,18.26,0,0,0,410,605.76Z"/><path class="cls-8" d="M413,630.41h-.95v-4.3a18.27,18.27,0,0,0-15.21-18,11.19,11.19,0,0,0,1-4.65h0a11.34,11.34,0,0,0-11.31-11.31H369.92a11.34,11.34,0,0,0-11.31,11.31h0a11.2,11.2,0,0,0,.9,4.4H336.83a12.46,12.46,0,0,0,1.78-6.4h0A12.63,12.63,0,0,0,326,588.92H315.13a12.63,12.63,0,0,0-12.59,12.59h0a12.46,12.46,0,0,0,1.78,6.4H272.43a18.26,18.26,0,0,0-18.21,18.21v41.15a18.26,18.26,0,0,0,18.21,18.21H342a18.26,18.26,0,0,0,18.2,17.91H413a18.26,18.26,0,0,0,18.21-18.21V648.62A18.26,18.26,0,0,0,413,630.41Z"/><rect class="cls-9" x="339.54" y="649.99" width="25.18" height="12.39" rx="6.19" ry="6.19"/><path class="cls-9" d="M301.49,643.11h19.18a9.29,9.29,0,0,0,0-18.58H301.49a9.29,9.29,0,0,0,0,18.58Z"/><path class="cls-9" d="M426.59,650h-26.4a26.88,26.88,0,0,0-26.8,26.8v3.59H338.78a18,18,0,0,0-7.56,1.66H307.84a23.44,23.44,0,0,0,1.19-7.37v-4.33a23.72,23.72,0,0,0-23.65-23.65H254.87a23.72,23.72,0,0,0-23.65,23.65v4.33a23.72,23.72,0,0,0,23.65,23.65h15.69v3.19A15.45,15.45,0,0,0,286,716.92h36.11a18.27,18.27,0,0,0,16.7,11h36.88A18.24,18.24,0,0,0,391.31,719h7.24a11.13,11.13,0,0,0,10.7-8.2h17.36A26.88,26.88,0,0,0,453.4,684v-7.18A26.88,26.88,0,0,0,426.59,650Z"/><path class="cls-7" d="M178.81,578.15v-9.35a18.27,18.27,0,0,0-15.19-17.95V549a18.26,18.26,0,0,0-18.21-18.21H80.7A18.26,18.26,0,0,0,62.49,549v1.83A18.3,18.3,0,0,0,49.58,560a18.26,18.26,0,0,0-10.51,16.49v.06a18.23,18.23,0,0,0,8.24,15.21V610.9A18.26,18.26,0,0,0,65.51,629.1H160.6a18.27,18.27,0,0,0,17.3-12.56A18.26,18.26,0,0,0,196,598.33v-2A18.26,18.26,0,0,0,178.81,578.15Z"/><path class="cls-8" d="M181.79,602.81h-.95v-4.3a18.27,18.27,0,0,0-15.21-18,11.19,11.19,0,0,0,1-4.65h0a11.34,11.34,0,0,0-11.31-11.31H138.7a11.34,11.34,0,0,0-11.31,11.31h0a11.2,11.2,0,0,0,.9,4.4H105.6a12.46,12.46,0,0,0,1.78-6.4h0a12.63,12.63,0,0,0-12.59-12.59H83.91A12.63,12.63,0,0,0,71.32,573.9h0a12.46,12.46,0,0,0,1.78,6.4H41.21A18.26,18.26,0,0,0,23,598.51v41.15a18.26,18.26,0,0,0,18.21,18.21h69.61A18.26,18.26,0,0,0,129,675.77h52.77A18.26,18.26,0,0,0,200,657.57V621A18.26,18.26,0,0,0,181.79,602.81Z"/><rect class="cls-9" x="108.32" y="622.38" width="25.18" height="12.39" rx="6.19" ry="6.19"/><path class="cls-9" d="M70.27,615.5H89.45a9.29,9.29,0,0,0,0-18.58H70.27a9.29,9.29,0,0,0,0,18.58Z"/><path class="cls-9" d="M195.37,622.38H169a26.88,26.88,0,0,0-26.8,26.8v3.59H107.56a18,18,0,0,0-7.56,1.66H76.62a23.44,23.44,0,0,0,1.19-7.37v-4.33a23.72,23.72,0,0,0-23.65-23.65H23.65A23.72,23.72,0,0,0,0,642.73v4.33a23.72,23.72,0,0,0,23.65,23.65H39.34v3.19a15.45,15.45,0,0,0,15.41,15.41H90.85a18.27,18.27,0,0,0,16.7,11h36.88a18.24,18.24,0,0,0,15.65-8.94h7.24a11.13,11.13,0,0,0,10.7-8.2h17.36a26.88,26.88,0,0,0,26.8-26.8v-7.18A26.88,26.88,0,0,0,195.37,622.38Z"/><path class="cls-7" d="M1384.26,134.34v-4.17a8.15,8.15,0,0,0-6.77-8v-.81a8.14,8.14,0,0,0-8.12-8.12H1340.5a8.14,8.14,0,0,0-8.12,8.12v.81a8.16,8.16,0,0,0-5.76,4.09,8.14,8.14,0,0,0-4.69,7.35v0a8.13,8.13,0,0,0,3.68,6.78v8.53a8.14,8.14,0,0,0,8.12,8.12h42.41a8.15,8.15,0,0,0,7.72-5.6,8.14,8.14,0,0,0,8.07-8.12v-.9A8.15,8.15,0,0,0,1384.26,134.34Z"/><path class="cls-8" d="M1385.59,145.34h-.42v-1.92a8.15,8.15,0,0,0-6.78-8,5,5,0,0,0,.45-2.07h0a5.06,5.06,0,0,0-5-5h-7.42a5.06,5.06,0,0,0-5,5h0a5,5,0,0,0,.4,2h-10.12a5.56,5.56,0,0,0,.79-2.85h0a5.63,5.63,0,0,0-5.61-5.61h-4.85a5.63,5.63,0,0,0-5.61,5.61h0a5.56,5.56,0,0,0,.79,2.85h-14.22a8.14,8.14,0,0,0-8.12,8.12v18.35a8.14,8.14,0,0,0,8.12,8.12h31a8.14,8.14,0,0,0,8.12,8h23.53a8.14,8.14,0,0,0,8.12-8.12v-16.3A8.14,8.14,0,0,0,1385.59,145.34Z"/><rect class="cls-9" x="1352.82" y="154.07" width="11.23" height="5.52" rx="2.76" ry="2.76"/><path class="cls-9" d="M1335.85,151h8.55a4.14,4.14,0,0,0,0-8.29h-8.55a4.14,4.14,0,0,0,0,8.29Z"/><path class="cls-9" d="M1391.64,154.07h-11.78a12,12,0,0,0-12,12v1.6h-15.43a8,8,0,0,0-3.37.74h-10.43a10.45,10.45,0,0,0,.53-3.28v-1.93a10.58,10.58,0,0,0-10.55-10.55h-13.6a10.58,10.58,0,0,0-10.55,10.55v1.93a10.58,10.58,0,0,0,10.55,10.55h7V177a6.89,6.89,0,0,0,6.87,6.87H1345a8.15,8.15,0,0,0,7.45,4.9h16.45a8.13,8.13,0,0,0,7-4h3.23a5,5,0,0,0,4.77-3.66h7.74a12,12,0,0,0,12-12V166A12,12,0,0,0,1391.64,154.07Z"/><path class="cls-7" d="M1276.68,471.52v-5a9.85,9.85,0,0,0-8.19-9.68v-1a9.85,9.85,0,0,0-9.82-9.82h-34.89a9.85,9.85,0,0,0-9.82,9.82v1a24.92,24.92,0,0,0-12.63,13.84v0a9.83,9.83,0,0,0,4.44,8.2v10.31a9.85,9.85,0,0,0,9.82,9.82h51.27a9.85,9.85,0,0,0,9.33-6.77,9.84,9.84,0,0,0,9.75-9.81v-1.09A9.85,9.85,0,0,0,1276.68,471.52Z"/><path class="cls-8" d="M1278.29,484.81h-.51v-2.32a9.85,9.85,0,0,0-8.2-9.68,6,6,0,0,0,.55-2.51h0a6.11,6.11,0,0,0-6.1-6.1h-9a6.11,6.11,0,0,0-6.1,6.1h0a6,6,0,0,0,.48,2.37h-12.23a6.72,6.72,0,0,0,1-3.45h0a6.81,6.81,0,0,0-6.79-6.79h-5.87a6.81,6.81,0,0,0-6.79,6.79h0a6.72,6.72,0,0,0,1,3.45h-17.19a9.85,9.85,0,0,0-9.82,9.82v22.19a9.85,9.85,0,0,0,9.82,9.82H1240a9.84,9.84,0,0,0,9.81,9.65h28.45a9.85,9.85,0,0,0,9.82-9.82V494.63A9.85,9.85,0,0,0,1278.29,484.81Z"/><rect class="cls-9" x="1238.68" y="495.36" width="13.57" height="6.68" rx="3.34" ry="3.34"/><path class="cls-9" d="M1218.16,491.66h10.34a5,5,0,0,0,0-10h-10.34a5,5,0,0,0,0,10Z"/><path class="cls-9" d="M1285.61,495.36h-14.24a14.49,14.49,0,0,0-14.45,14.45v1.94h-18.66a9.72,9.72,0,0,0-4.08.9h-12.6a12.64,12.64,0,0,0,.64-4v-2.34a12.79,12.79,0,0,0-12.75-12.75H1193a12.79,12.79,0,0,0-12.75,12.75v2.34A12.79,12.79,0,0,0,1193,521.43h8.46v1.72a8.33,8.33,0,0,0,8.31,8.31h19.47a9.85,9.85,0,0,0,9,5.93h19.88a9.83,9.83,0,0,0,8.44-4.82h3.9a6,6,0,0,0,5.77-4.42h9.36a14.49,14.49,0,0,0,14.45-14.45v-3.87A14.49,14.49,0,0,0,1285.61,495.36Z"/><path class="cls-7" d="M1329.6,517.53v-5a9.85,9.85,0,0,0-8.19-9.68v-1a9.85,9.85,0,0,0-9.82-9.82H1276.7a9.85,9.85,0,0,0-9.82,9.82v1a24.92,24.92,0,0,0-12.63,13.84v0a9.83,9.83,0,0,0,4.44,8.2v10.31a9.85,9.85,0,0,0,9.82,9.82h51.27a9.85,9.85,0,0,0,9.33-6.77,9.84,9.84,0,0,0,9.75-9.81v-1.09A9.85,9.85,0,0,0,1329.6,517.53Z"/><path class="cls-8" d="M1331.21,530.83h-.51v-2.32a9.85,9.85,0,0,0-8.2-9.68,6,6,0,0,0,.55-2.51h0a6.11,6.11,0,0,0-6.1-6.1h-9a6.11,6.11,0,0,0-6.1,6.1h0a6,6,0,0,0,.48,2.37h-12.23a6.72,6.72,0,0,0,1-3.45h0a6.81,6.81,0,0,0-6.79-6.79h-5.87a6.81,6.81,0,0,0-6.79,6.79h0a6.72,6.72,0,0,0,1,3.45h-17.19a9.85,9.85,0,0,0-9.82,9.82V550.7a9.85,9.85,0,0,0,9.82,9.82h37.53a9.84,9.84,0,0,0,9.81,9.65h28.45a9.85,9.85,0,0,0,9.82-9.82V540.64A9.85,9.85,0,0,0,1331.21,530.83Z"/><rect class="cls-9" x="1291.59" y="541.38" width="13.57" height="6.68" rx="3.34" ry="3.34"/><path class="cls-9" d="M1271.08,537.67h10.34a5,5,0,0,0,0-10h-10.34a5,5,0,0,0,0,10Z"/><path class="cls-9" d="M1338.53,541.38h-14.24a14.49,14.49,0,0,0-14.45,14.45v1.94h-18.66a9.72,9.72,0,0,0-4.08.9h-12.6a12.64,12.64,0,0,0,.64-4v-2.34a12.79,12.79,0,0,0-12.75-12.75h-16.45a12.79,12.79,0,0,0-12.75,12.75v2.34a12.79,12.79,0,0,0,12.75,12.75h8.46v1.72a8.33,8.33,0,0,0,8.31,8.31h19.47a9.85,9.85,0,0,0,9,5.93h19.88a9.83,9.83,0,0,0,8.44-4.82h3.9a6,6,0,0,0,5.77-4.42h9.36A14.49,14.49,0,0,0,1353,559.7v-3.87A14.49,14.49,0,0,0,1338.53,541.38Z"/><path class="cls-7" d="M1216.86,493.37v-5a9.85,9.85,0,0,0-8.19-9.68v-1a9.85,9.85,0,0,0-9.82-9.82H1164a9.85,9.85,0,0,0-9.82,9.82v1a24.92,24.92,0,0,0-12.63,13.84v0a9.83,9.83,0,0,0,4.44,8.2V511a9.85,9.85,0,0,0,9.82,9.82H1207a9.85,9.85,0,0,0,9.33-6.77,9.84,9.84,0,0,0,9.75-9.81v-1.09A9.85,9.85,0,0,0,1216.86,493.37Z"/><path class="cls-8" d="M1218.47,506.67H1218v-2.32a9.85,9.85,0,0,0-8.2-9.68,6,6,0,0,0,.55-2.51h0a6.11,6.11,0,0,0-6.1-6.1h-9a6.11,6.11,0,0,0-6.1,6.1h0a6,6,0,0,0,.48,2.37h-12.23a6.72,6.72,0,0,0,1-3.45h0a6.81,6.81,0,0,0-6.79-6.79h-5.87a6.81,6.81,0,0,0-6.79,6.79h0a6.72,6.72,0,0,0,1,3.45h-17.19a9.85,9.85,0,0,0-9.82,9.82v22.19a9.85,9.85,0,0,0,9.82,9.82h37.53A9.84,9.84,0,0,0,1190,546h28.45a9.85,9.85,0,0,0,9.82-9.82V516.48A9.85,9.85,0,0,0,1218.47,506.67Z"/><rect class="cls-9" x="1178.86" y="517.22" width="13.57" height="6.68" rx="3.34" ry="3.34"/><path class="cls-9" d="M1158.34,513.51h10.34a5,5,0,0,0,0-10h-10.34a5,5,0,0,0,0,10Z"/><path class="cls-9" d="M1225.8,517.22h-14.24a14.49,14.49,0,0,0-14.45,14.45v1.94h-18.66a9.72,9.72,0,0,0-4.08.9h-12.6a12.64,12.64,0,0,0,.64-4V528.2a12.79,12.79,0,0,0-12.75-12.75h-16.45a12.79,12.79,0,0,0-12.75,12.75v2.34a12.79,12.79,0,0,0,12.75,12.75h8.46V545a8.33,8.33,0,0,0,8.31,8.31h19.47a9.85,9.85,0,0,0,9,5.93h19.88a9.83,9.83,0,0,0,8.44-4.82h3.9a6,6,0,0,0,5.77-4.42h9.36a14.49,14.49,0,0,0,14.45-14.45v-3.87A14.49,14.49,0,0,0,1225.8,517.22Z"/><path class="cls-5" d="M1308.68,573.38c3.44,1.93,18.9,6.66,22.87,5s13-8.17,14-9.66a8.66,8.66,0,0,0,.81-1.77l-.32-.67s-1.78-3-4.31-3.87-16.81-4.61-16.81-4.61-1.6-1.09-4.57,1.16c0,0-9.92,6.91-12.85,13.06A3,3,0,0,0,1308.68,573.38Z"/><path class="cls-6" d="M1353.73,581.79c-1.41-2.31-6.14-12.14-7.41-14.8a8.66,8.66,0,0,1-.81,1.77c-.94,1.5-10,8.05-14,9.66s-19.43-3.11-22.87-5a3,3,0,0,1-1.23-1.32,6.53,6.53,0,0,0-.75,3.84c1.13,6.65-.15,9.28,7.86,12.69s19,6.29,23,4.58l13.89-6.48S1355.36,584.47,1353.73,581.79Z"/><path class="cls-5" d="M1269.57,591.79c3.44,1.93,18.9,6.66,22.87,5s13-8.17,14-9.66a8.66,8.66,0,0,0,.81-1.77l-.32-.67s-1.78-3-4.31-3.87-16.81-4.61-16.81-4.61-1.6-1.09-4.57,1.16c0,0-9.92,6.91-12.85,13.06A3,3,0,0,0,1269.57,591.79Z"/><path class="cls-6" d="M1314.62,600.19c-1.41-2.31-6.14-12.14-7.41-14.8a8.66,8.66,0,0,1-.81,1.77c-.94,1.5-10,8.05-14,9.66s-19.43-3.11-22.87-5a3,3,0,0,1-1.23-1.32,6.53,6.53,0,0,0-.75,3.84c1.13,6.65-.15,9.28,7.86,12.69s19,6.29,23,4.58l13.89-6.48S1316.25,602.87,1314.62,600.19Z"/><path class="cls-5" d="M1228.71,574.2c2.44,1.19,13.4,4.09,16.22,3.1s9.23-5,9.9-5.94a5,5,0,0,0,.57-1.09l-.23-.41a6.79,6.79,0,0,0-3.06-2.38c-1.79-.55-11.92-2.84-11.92-2.84s-1.13-.67-3.24.71c0,0-7,4.25-9.12,8A2,2,0,0,0,1228.71,574.2Z"/><path class="cls-6" d="M1260.67,579.37c-1-1.42-4.35-7.46-5.26-9.1a5,5,0,0,1-.57,1.09c-.67.92-7.08,5-9.9,5.94s-13.78-1.91-16.22-3.1a2,2,0,0,1-.87-.81,3.56,3.56,0,0,0-.53,2.36c.8,4.09-.11,5.71,5.57,7.8s13.47,3.87,16.34,2.82l9.85-4S1261.83,581,1260.67,579.37Z"/><path class="cls-1" d="M246.68,94.3h-9.11a2,2,0,0,0-2,2,1.9,1.9,0,0,0,0,.23c0,.52-.23,1.72-2.75,1.72h-6.37a3,3,0,0,0-1.35.33V59.88h1.66a4.14,4.14,0,0,0,4.13-4.13c.06-1.44,1.29-1.85,2.27-2H236a2.76,2.76,0,0,0,2.75-2.75v-1c0-1.64.82-2.18,1.6-2.34H242a2,2,0,0,0,0-3.91h-6.81a2,2,0,0,0-2,2c0,.06,0,.12,0,.19,0,.49-.13,1.77-2.26,1.77h-4.71a3,3,0,0,0-1.73.55V37.56a1.9,1.9,0,0,1,1.33-1.09H226a3,3,0,0,0,.56-.06c.5,0,.77-.1.89-.32a3.08,3.08,0,0,0,1.63-2.7V26.46c0-3.74,2.81-3.54,2.81-3.54l-.05,0a2.61,2.61,0,0,0,2.31-2.58V19.06a2.61,2.61,0,0,0-2.61-2.61h-6a2.61,2.61,0,0,0-2.61,2.61v1.8c0,5-3.52,4.9-3.52,4.9v0a4.33,4.33,0,0,0-3.75,4.27v9.47s-1.15,4.15-4.4,5.36h-5.63c-4.33,0-5.78-5.46-5.78-5.46V36.74c0-.11,0-.22,0-.33s0-.22,0-.33a3.49,3.49,0,0,0-3.47-3.47h0a3.08,3.08,0,0,1-3.22-3.17,3.07,3.07,0,0,0,0-.47,2.06,2.06,0,0,0,0-.29,2.1,2.1,0,0,0-2.1-2.1h-6.22a2.1,2.1,0,1,0,0,4.2h.14a2.29,2.29,0,0,1,2.47,2.29v3.63a2.84,2.84,0,0,0,1,2.19c0,.34.23.56.93.53h0a2.8,2.8,0,0,0,.84.14h0a2.45,2.45,0,0,1,1.28,2.19v11.9a4.08,4.08,0,0,0,.49,1.91V67.92a4.34,4.34,0,0,0-.46-.62A3,3,0,0,0,189,65.85h-5.39c-2.3,0-2.48-1.25-2.46-1.75a1.89,1.89,0,0,0,0-.2,2,2,0,0,0-2-2h-7.76a2,2,0,1,0,0,3.91h2a2,2,0,0,1,1.74,2.34v.87A2.88,2.88,0,0,0,178,71.93h3.17c1.06.1,2.41.52,2.47,2,0,0,0,.07,0,.1A4.32,4.32,0,0,0,188,78h3.34a1.33,1.33,0,0,0,.71-.21V86a8.16,8.16,0,0,1-.64,2.87c-1,1.92-.64,10,0,12.4a27.76,27.76,0,0,1,.64,5v36.58a7.58,7.58,0,0,0,7.56,7.56h18a7.58,7.58,0,0,0,7.56-7.56V110.37h3.09a4.57,4.57,0,0,0,4.46-3.68,1.58,1.58,0,0,0,.09-.45c.07-1.44,1.57-1.85,2.76-2h3.71a3,3,0,0,0,3-3v-.71a2.11,2.11,0,0,1,1.94-2.34h2.44a2,2,0,1,0,0-3.91Z"/><path class="cls-1" d="M244.8,144.1h-1.42a9.94,9.94,0,0,1-5-2.17,4.79,4.79,0,0,0-4.24-2.65h-.26a3.12,3.12,0,0,1-2.4-2.4v-.45a7,7,0,0,0-6.89-7l-8.85-.06a7,7,0,0,0-7,6.89l-.06,8.52a7,7,0,0,0,6.89,7l6.09,0,2.76,0,8.92.06h.71l10.69.07a3.56,3.56,0,0,0,3.57-3.52v-.78A3.56,3.56,0,0,0,244.8,144.1Z"/><path class="cls-1" d="M206.2,129.46l-12.62-.07a7.73,7.73,0,0,0-7.73,7.28,3.5,3.5,0,0,1-3,2.43h-.91a5.32,5.32,0,0,0-4.52,2.49h0a13.59,13.59,0,0,1-6.35,2.2h-2.19a4,4,0,0,0-4,3.92h0a4,4,0,0,0,3.92,4l14.93.08h0l14.56.08h0l7.77,0a7.73,7.73,0,0,0,7.76-7.67l0-7A7.73,7.73,0,0,0,206.2,129.46Z"/><ellipse class="cls-2" cx="201.93" cy="95.86" rx="8.03" ry="12.83"/><path class="cls-3" d="M222.94,143.91v-3.71a7.73,7.73,0,0,0-7.71-7.71H203.71a7.73,7.73,0,0,0-7.71,7.71v4.08a6,6,0,0,0,2.85,11.3H205a3.49,3.49,0,0,0,3.26,2.27h5.42a3.49,3.49,0,0,0,3.26-2.27h4a6,6,0,0,0,2-11.67Z"/><path class="cls-1" d="M370.92,90.85H361.8a2,2,0,0,0-2,2,1.9,1.9,0,0,0,0,.23c0,.52-.23,1.72-2.75,1.72h-6.37a3,3,0,0,0-1.35.33V56.43h1.66a4.14,4.14,0,0,0,4.13-4.13c.06-1.44,1.29-1.85,2.27-2h2.8A2.76,2.76,0,0,0,363,47.6v-1c0-1.64.82-2.18,1.6-2.34h1.66a2,2,0,0,0,0-3.91h-6.81a2,2,0,0,0-2,2c0,.06,0,.12,0,.19,0,.49-.13,1.77-2.26,1.77h-4.71a3,3,0,0,0-1.73.55V34.11A1.9,1.9,0,0,1,350.15,33h.09a3,3,0,0,0,.56-.06c.5,0,.77-.1.89-.32a3.08,3.08,0,0,0,1.63-2.7V23c0-3.74,2.81-3.54,2.81-3.54l-.05,0a2.61,2.61,0,0,0,2.31-2.58V15.6A2.61,2.61,0,0,0,355.78,13h-6a2.61,2.61,0,0,0-2.61,2.61v1.8c0,5-3.52,4.9-3.52,4.9v0a4.33,4.33,0,0,0-3.75,4.27v9.47s-1.15,4.15-4.4,5.36h-5.63c-4.33,0-5.78-5.46-5.78-5.46V33.29c0-.11,0-.22,0-.33s0-.22,0-.33a3.49,3.49,0,0,0-3.47-3.47h0A3.08,3.08,0,0,1,317.34,26a3.07,3.07,0,0,0,0-.47,2.06,2.06,0,0,0,0-.29,2.1,2.1,0,0,0-2.1-2.1H309a2.1,2.1,0,1,0,0,4.2h.14a2.29,2.29,0,0,1,2.47,2.29v3.63a2.84,2.84,0,0,0,1,2.19c0,.34.23.56.93.53h0a2.8,2.8,0,0,0,.84.14h0a2.45,2.45,0,0,1,1.28,2.19v11.9a4.08,4.08,0,0,0,.49,1.91V64.47a4.34,4.34,0,0,0-.46-.62,3,3,0,0,0-2.58-1.46h-5.39c-2.3,0-2.48-1.25-2.46-1.75a1.89,1.89,0,0,0,0-.2,2,2,0,0,0-2-2H295.7a2,2,0,1,0,0,3.91h2a2,2,0,0,1,1.74,2.34v.87a2.88,2.88,0,0,0,2.87,2.87h3.17c1.06.1,2.41.52,2.47,2,0,0,0,.07,0,.1a4.32,4.32,0,0,0,4.29,4h3.34a1.33,1.33,0,0,0,.71-.21v8.18a8.16,8.16,0,0,1-.64,2.87c-1,1.92-.64,10,0,12.4a27.76,27.76,0,0,1,.64,5v36.58a7.58,7.58,0,0,0,7.56,7.56h18a7.58,7.58,0,0,0,7.56-7.56V106.92h3.09a4.57,4.57,0,0,0,4.46-3.68,1.58,1.58,0,0,0,.09-.45c.07-1.44,1.57-1.85,2.76-2h3.71a3,3,0,0,0,3-3V97.1a2.11,2.11,0,0,1,1.94-2.34h2.44a2,2,0,1,0,0-3.91Z"/><path class="cls-1" d="M369,140.65h-1.42a9.94,9.94,0,0,1-5-2.17,4.79,4.79,0,0,0-4.24-2.65h-.26a3.12,3.12,0,0,1-2.4-2.4V133a7,7,0,0,0-6.89-7l-8.85-.06a7,7,0,0,0-7,6.89l-.06,8.52a7,7,0,0,0,6.89,7l6.09,0,2.76,0,8.92.06h.71l10.69.07a3.56,3.56,0,0,0,3.57-3.52v-.78A3.56,3.56,0,0,0,369,140.65Z"/><path class="cls-1" d="M330.44,126l-12.62-.07a7.73,7.73,0,0,0-7.73,7.28,3.5,3.5,0,0,1-3,2.43h-.91a5.32,5.32,0,0,0-4.52,2.49h0a13.59,13.59,0,0,1-6.35,2.2H293.1a4,4,0,0,0-4,3.92h0a4,4,0,0,0,3.92,4l14.93.08h0l14.56.08h0l7.77,0a7.73,7.73,0,0,0,7.76-7.67l0-7A7.73,7.73,0,0,0,330.44,126Z"/><ellipse class="cls-2" cx="326.17" cy="92.41" rx="8.03" ry="12.83"/><path class="cls-3" d="M347.18,140.45v-3.71a7.73,7.73,0,0,0-7.71-7.71H328a7.73,7.73,0,0,0-7.71,7.71v4.08a6,6,0,0,0,2.85,11.3h6.1a3.49,3.49,0,0,0,3.26,2.27h5.42a3.49,3.49,0,0,0,3.26-2.27h4a6,6,0,0,0,2-11.67Z"/><path class="cls-1" d="M304.19,103.5h-9.11a2,2,0,0,0-2,2,1.9,1.9,0,0,0,0,.23c0,.52-.23,1.72-2.75,1.72H284a3,3,0,0,0-1.35.33V69.09h1.66A4.14,4.14,0,0,0,288.46,65c.06-1.44,1.29-1.85,2.27-2h2.8a2.76,2.76,0,0,0,2.75-2.75v-1c0-1.64.82-2.18,1.6-2.34h1.66a2,2,0,0,0,0-3.91h-6.81a2,2,0,0,0-2,2c0,.06,0,.12,0,.19,0,.49-.13,1.77-2.26,1.77h-4.71a3,3,0,0,0-1.73.55V46.76a1.9,1.9,0,0,1,1.33-1.09h.09a3,3,0,0,0,.56-.06c.5,0,.77-.1.89-.32a3.08,3.08,0,0,0,1.63-2.7V35.67c0-3.74,2.81-3.54,2.81-3.54l-.05,0a2.61,2.61,0,0,0,2.31-2.58V28.26a2.61,2.61,0,0,0-2.61-2.61h-6a2.61,2.61,0,0,0-2.61,2.61v1.8c0,5-3.52,4.9-3.52,4.9v0a4.33,4.33,0,0,0-3.75,4.27v9.47s-1.15,4.15-4.4,5.36h-5.63c-4.33,0-5.78-5.46-5.78-5.46V45.94c0-.11,0-.22,0-.33s0-.22,0-.33a3.49,3.49,0,0,0-3.47-3.47h0a3.08,3.08,0,0,1-3.22-3.17,3.07,3.07,0,0,0,0-.47,2.06,2.06,0,0,0,0-.29,2.1,2.1,0,0,0-2.1-2.1H242.3a2.1,2.1,0,1,0,0,4.2h.14a2.29,2.29,0,0,1,2.47,2.29v3.63a2.84,2.84,0,0,0,1,2.19c0,.34.23.56.93.53h0a2.8,2.8,0,0,0,.84.14h0a2.45,2.45,0,0,1,1.28,2.19v11.9a4.08,4.08,0,0,0,.49,1.91V77.13a4.34,4.34,0,0,0-.46-.62A3,3,0,0,0,246.52,75h-5.39c-2.3,0-2.48-1.25-2.46-1.75a1.89,1.89,0,0,0,0-.2,2,2,0,0,0-2-2H229A2,2,0,1,0,229,75h2a2,2,0,0,1,1.74,2.34v.87a2.88,2.88,0,0,0,2.87,2.87h3.17c1.06.1,2.41.52,2.47,2,0,0,0,.07,0,.1a4.32,4.32,0,0,0,4.29,4h3.34a1.33,1.33,0,0,0,.71-.21v8.18a8.16,8.16,0,0,1-.64,2.87c-1,1.92-.64,10,0,12.4a27.76,27.76,0,0,1,.64,5V152a7.58,7.58,0,0,0,7.56,7.56h18a7.58,7.58,0,0,0,7.56-7.56V119.57h3.09a4.57,4.57,0,0,0,4.46-3.68,1.58,1.58,0,0,0,.09-.45c.07-1.44,1.57-1.85,2.76-2h3.71a3,3,0,0,0,3-3v-.71a2.11,2.11,0,0,1,1.94-2.34h2.44a2,2,0,1,0,0-3.91Z"/><path class="cls-1" d="M302.32,153.3H300.9a9.94,9.94,0,0,1-5-2.17,4.79,4.79,0,0,0-4.24-2.65h-.26a3.12,3.12,0,0,1-2.4-2.4v-.45a7,7,0,0,0-6.89-7l-8.85-.06a7,7,0,0,0-7,6.89l-.06,8.52a7,7,0,0,0,6.89,7l6.09,0,2.76,0,8.92.06h.71l10.69.07a3.56,3.56,0,0,0,3.57-3.52v-.78A3.56,3.56,0,0,0,302.32,153.3Z"/><path class="cls-1" d="M263.72,138.66l-12.62-.07a7.73,7.73,0,0,0-7.73,7.28,3.5,3.5,0,0,1-3,2.43h-.91a5.32,5.32,0,0,0-4.52,2.49h0a13.59,13.59,0,0,1-6.35,2.2h-2.19a4,4,0,0,0-4,3.92h0a4,4,0,0,0,3.92,4l14.93.08h0l14.56.08h0l7.77,0a7.73,7.73,0,0,0,7.76-7.67l0-7A7.73,7.73,0,0,0,263.72,138.66Z"/><ellipse class="cls-2" cx="259.44" cy="105.06" rx="8.03" ry="12.83"/><path class="cls-3" d="M280.46,153.11v-3.71a7.73,7.73,0,0,0-7.71-7.71H261.23a7.73,7.73,0,0,0-7.71,7.71v4.08a6,6,0,0,0,2.85,11.3h6.1a3.49,3.49,0,0,0,3.26,2.27h5.42a3.49,3.49,0,0,0,3.26-2.27h4a6,6,0,0,0,2-11.67Z"/><path class="cls-1" d="M573.61,548.22H554.86a4,4,0,0,0-4,4,3.91,3.91,0,0,0,0,.48c0,1.06-.47,3.55-5.66,3.55H532.11a6.16,6.16,0,0,0-2.79.69V477.4h3.42a8.52,8.52,0,0,0,8.49-8.49c.12-3,2.65-3.81,4.67-4h5.16c.1,0,.2,0,.3,0s.2,0,.3,0a5.68,5.68,0,0,0,5.66-5.66v-2c-.07-3.38,1.69-4.49,3.29-4.82H564a4,4,0,0,0,0-8H550a4,4,0,0,0-4,4c0,.13,0,.25,0,.38,0,1-.26,3.64-4.66,3.64H531.7a6.2,6.2,0,0,0-3.56,1.13v-22a3.91,3.91,0,0,1,2.73-2.24l.18,0h0a6.27,6.27,0,0,0,1.16-.12c1,0,1.59-.21,1.83-.67a6.33,6.33,0,0,0,3.35-5.55V408.63c0-7.7,5.77-7.29,5.77-7.29l-.11-.06a5.36,5.36,0,0,0,4.76-5.3v-2.6a5.38,5.38,0,0,0-5.36-5.36H530.08a5.38,5.38,0,0,0-5.36,5.36v3.71c0,10.32-7.24,10.08-7.24,10.08v.09a8.91,8.91,0,0,0-7.71,8.8v19.49s-2.37,8.55-9.06,11H489.12c-8.9,0-11.89-11.23-11.89-11.23v-5.58c0-.23-.05-.46-.07-.68s.07-.45.07-.68a7.17,7.17,0,0,0-7.15-7.15H470c-.75,0-6.63-.27-6.63-6.53a6.33,6.33,0,0,0-.06-1,4.24,4.24,0,0,0,.06-.6,4.33,4.33,0,0,0-4.32-4.32h-12.8a4.32,4.32,0,1,0,0,8.63h.28c1.09,0,5.07.41,5.07,4.72v7.48a5.85,5.85,0,0,0,2.15,4.5c0,.7.47,1.16,1.91,1.08h.09a5.77,5.77,0,0,0,1.73.29h.07c1.88.75,2.47,2.85,2.63,4.51v24.48a8.39,8.39,0,0,0,1,3.92v25.49a8.92,8.92,0,0,0-.94-1.28,6.25,6.25,0,0,0-5.31-3h-11.1c-4.73,0-5.11-2.57-5.07-3.6a3.89,3.89,0,0,0,0-.42,4,4,0,0,0-4-4h-16a4,4,0,1,0,0,8h4.07c1.74.32,3.66,1.43,3.58,4.82v1.79a5.92,5.92,0,0,0,5.91,5.91h6.53c2.19.21,4.95,1.06,5.08,4,0,.08,0,.14,0,.21a8.88,8.88,0,0,0,8.83,8.28h6.87a2.73,2.73,0,0,0,1.46-.43V531.1a16.8,16.8,0,0,1-1.31,5.91c-2,3.94-1.31,20.56,0,25.51a57.12,57.12,0,0,1,1.31,10.31V648.1a15.59,15.59,0,0,0,15.55,15.55h37a15.59,15.59,0,0,0,15.55-15.55V581.29h6.36a9.4,9.4,0,0,0,9.18-7.57,3.24,3.24,0,0,0,.18-.93c.15-3,3.23-3.81,5.67-4h7.64a6.26,6.26,0,0,0,6.24-6.24v-1.46a4.33,4.33,0,0,1,4-4.82h5a4,4,0,1,0,0-8Z"/><path class="cls-1" d="M569.75,650.69l-2.92,0a20.46,20.46,0,0,1-10.28-4.46,9.86,9.86,0,0,0-8.73-5.46h-.54a6.42,6.42,0,0,1-4.95-4.93v-.92a14.33,14.33,0,0,0-14.19-14.39l-18.2-.13a14.33,14.33,0,0,0-14.39,14.19l-.12,17.53a14.33,14.33,0,0,0,14.19,14.39l12.52.09,5.68,0,18.35.13h1.46l22,.15a7.32,7.32,0,0,0,7.35-7.25V658A7.32,7.32,0,0,0,569.75,650.69Z"/><path class="cls-1" d="M490.32,620.56l-26-.15a15.91,15.91,0,0,0-15.91,15c-.51,1.7-2,4.25-6.22,5h-1.87a10.94,10.94,0,0,0-9.3,5.12h0A28,28,0,0,1,418,650h0l-4.5,0a8.13,8.13,0,0,0-8.15,8.06h0a8.13,8.13,0,0,0,8.06,8.15l30.73.17h0l30,.17h0l16,.09a15.92,15.92,0,0,0,16-15.78l.08-14.37A15.92,15.92,0,0,0,490.32,620.56Z"/><ellipse class="cls-2" cx="481.53" cy="551.43" rx="16.52" ry="26.4"/><path class="cls-3" d="M524.77,650.3v-7.64a15.92,15.92,0,0,0-15.87-15.87H485.2a15.92,15.92,0,0,0-15.87,15.87V651a12.37,12.37,0,0,0,5.87,23.26h12.55a7.19,7.19,0,0,0,6.7,4.67H505.6a7.19,7.19,0,0,0,6.7-4.67h8.3a12.36,12.36,0,0,0,4.17-24Z"/><path class="cls-1" d="M246.91,352.66H228.16a4,4,0,0,0-4,4,3.91,3.91,0,0,0,0,.48c0,1.06-.47,3.55-5.66,3.55H205.41a6.16,6.16,0,0,0-2.79.69V281.84H206a8.52,8.52,0,0,0,8.49-8.49c.12-3,2.65-3.81,4.67-4h5.16c.1,0,.2,0,.3,0s.2,0,.3,0a5.68,5.68,0,0,0,5.66-5.66v-2c-.07-3.38,1.69-4.49,3.29-4.82h3.41a4,4,0,0,0,0-8h-14a4,4,0,0,0-4,4c0,.13,0,.25,0,.38,0,1-.26,3.64-4.66,3.64H205a6.2,6.2,0,0,0-3.56,1.13v-22a3.91,3.91,0,0,1,2.73-2.24l.18,0h0a6.27,6.27,0,0,0,1.16-.12c1,0,1.59-.21,1.83-.67a6.33,6.33,0,0,0,3.35-5.55V213.06c0-7.7,5.77-7.29,5.77-7.29l-.11-.06a5.36,5.36,0,0,0,4.76-5.3v-2.6a5.38,5.38,0,0,0-5.36-5.36H203.37a5.38,5.38,0,0,0-5.36,5.36v3.71c0,10.32-7.24,10.08-7.24,10.08v.09a8.91,8.91,0,0,0-7.71,8.8V240s-2.37,8.55-9.06,11H162.42c-8.9,0-11.89-11.23-11.89-11.23V234.2c0-.23-.05-.46-.07-.68s.07-.45.07-.68a7.17,7.17,0,0,0-7.15-7.15h-.08c-.75,0-6.63-.27-6.63-6.53a6.33,6.33,0,0,0-.06-1,4.24,4.24,0,0,0,.06-.6,4.33,4.33,0,0,0-4.32-4.32h-12.8a4.32,4.32,0,1,0,0,8.63h.28c1.09,0,5.07.41,5.07,4.72v7.48a5.85,5.85,0,0,0,2.15,4.5c0,.7.47,1.16,1.91,1.08h.09a5.77,5.77,0,0,0,1.73.29h.07c1.88.75,2.47,2.85,2.63,4.51V269a8.39,8.39,0,0,0,1,3.92v25.49a8.92,8.92,0,0,0-.94-1.28,6.25,6.25,0,0,0-5.31-3h-11.1c-4.73,0-5.11-2.57-5.07-3.6a3.89,3.89,0,0,0,0-.42,4,4,0,0,0-4-4h-16a4,4,0,1,0,0,8h4.07c1.74.32,3.66,1.43,3.58,4.82v1.79a5.92,5.92,0,0,0,5.91,5.91h6.53c2.19.21,4.95,1.06,5.08,4,0,.08,0,.14,0,.21a8.88,8.88,0,0,0,8.83,8.28H133a2.73,2.73,0,0,0,1.46-.43v16.84a16.8,16.8,0,0,1-1.31,5.91c-2,3.94-1.31,20.56,0,25.51a57.12,57.12,0,0,1,1.31,10.31v75.27A15.59,15.59,0,0,0,150,468.08h37a15.59,15.59,0,0,0,15.55-15.55V385.73H209a9.4,9.4,0,0,0,9.18-7.57,3.24,3.24,0,0,0,.18-.93c.15-3,3.23-3.81,5.67-4h7.64A6.26,6.26,0,0,0,237.9,367v-1.46a4.33,4.33,0,0,1,4-4.82h5a4,4,0,1,0,0-8Z"/><path class="cls-1" d="M243,455.13l-2.92,0a20.46,20.46,0,0,1-10.28-4.46,9.86,9.86,0,0,0-8.73-5.46h-.54a6.42,6.42,0,0,1-4.95-4.93v-.92a14.33,14.33,0,0,0-14.19-14.39l-18.2-.13A14.33,14.33,0,0,0,168.86,439l-.12,17.53a14.33,14.33,0,0,0,14.19,14.39l12.52.09,5.68,0,18.35.13h1.46l22,.15a7.32,7.32,0,0,0,7.35-7.25v-1.62A7.32,7.32,0,0,0,243,455.13Z"/><path class="cls-1" d="M163.61,425l-26-.15a15.91,15.91,0,0,0-15.91,15c-.51,1.7-2,4.25-6.22,5h-1.87a10.94,10.94,0,0,0-9.3,5.12h0a28,28,0,0,1-13.07,4.54h0l-4.5,0a8.13,8.13,0,0,0-8.15,8.06h0a8.13,8.13,0,0,0,8.06,8.15l30.73.17h0l30,.17h0l16,.09a15.92,15.92,0,0,0,16-15.78l.08-14.37A15.92,15.92,0,0,0,163.61,425Z"/><ellipse class="cls-2" cx="154.82" cy="355.86" rx="16.52" ry="26.4"/><path class="cls-3" d="M198.07,454.74v-7.64a15.92,15.92,0,0,0-15.87-15.87H158.5a15.92,15.92,0,0,0-15.87,15.87v8.39a12.37,12.37,0,0,0,5.87,23.26H161a7.19,7.19,0,0,0,6.7,4.67H178.9a7.19,7.19,0,0,0,6.7-4.67h8.3a12.36,12.36,0,0,0,4.17-24Z"/><rect class="cls-1" x="1956.79" y="75.75" width="45.76" height="145.8" rx="10.44" ry="10.44"/><path class="cls-1" d="M2030.09,213.3h-2a13.74,13.74,0,0,1-6.93-2.95,6.63,6.63,0,0,0-5.89-3.63H2015a4.31,4.31,0,0,1-3.35-3.29v-.62a9.63,9.63,0,0,0-9.6-9.6h-12.23a9.63,9.63,0,0,0-9.6,9.6v11.77a9.63,9.63,0,0,0,9.6,9.6h40.3a4.92,4.92,0,0,0,4.9-4.9V218.2A4.92,4.92,0,0,0,2030.09,213.3Z"/><path class="cls-1" d="M1977,193.12h-17.44a10.68,10.68,0,0,0-10.63,10.12,4.84,4.84,0,0,1-4.16,3.39h-1.26a7.35,7.35,0,0,0-6.23,3.48h0a18.78,18.78,0,0,1-8.76,3.1h-3a5.45,5.45,0,1,0,0,10.89H1977a10.69,10.69,0,0,0,10.66-10.66v-9.65A10.69,10.69,0,0,0,1977,193.12Z"/><path class="cls-1" d="M2031.82,118.22h-12.1a3.49,3.49,0,0,0-3.48,3.48,3.45,3.45,0,0,0,0,.47c0,.95-.42,3-4,3h-8.37a5.41,5.41,0,0,0-4.42,2.31,7.31,7.31,0,0,0-2,5v12a2.29,2.29,0,0,0,2.29,2.29h5.05a7.36,7.36,0,0,0,7.34-7.34c.1-2.54,2.26-3.29,4-3.48h5a4.91,4.91,0,0,0,4.89-4.89v-1.76c-.06-2.91,1.45-3.88,2.83-4.16h3a3.48,3.48,0,1,0,0-7Z"/><path class="cls-1" d="M1959.67,173.68a4.21,4.21,0,0,0-3.6-2h-7.45c-3.18,0-3.43-1.73-3.41-2.42a2.62,2.62,0,0,0,0-.28,2.71,2.71,0,0,0-2.7-2.7h-10.72a2.7,2.7,0,0,0,0,5.4h2.75c1.17.22,2.45,1,2.4,3.23v1.2a4,4,0,0,0,4,4h4.41c1.47.15,3.29.73,3.38,2.7,0,.11,0,.21,0,.3a6,6,0,0,0,5.92,5.4h4.62a1.86,1.86,0,0,0,1.85-1.85v-9A5.92,5.92,0,0,0,1959.67,173.68Z"/><path class="cls-7" d="M2028.13,36.38h-1.64a10.7,10.7,0,0,0-10.43-8.48h-7.12V24.46a10.69,10.69,0,0,0-10.66-10.66h-37.89a10.69,10.69,0,0,0-10.66,10.66V27.1h-11.57a10.69,10.69,0,0,0-10.66,10.66v0a10.69,10.69,0,0,0,10.66,10.66h11.57V63.21a10.69,10.69,0,0,0,10.66,10.66h55.67a10.69,10.69,0,0,0,10.66-10.66V58.88h1.41a10.69,10.69,0,0,0,10.66-10.66V47A10.69,10.69,0,0,0,2028.13,36.38Z"/><path class="cls-8" d="M2037.5,46.88H2008.3a10.78,10.78,0,0,0-2.53-3,6.55,6.55,0,0,0,.47-2.44h0a6.64,6.64,0,0,0-6.62-6.62h-9.74a6.64,6.64,0,0,0-6.62,6.62h-8.17a7.3,7.3,0,0,0,.26-1.9,7.39,7.39,0,0,0-7.37-7.37h-6.37a7.39,7.39,0,0,0-7.37,7.37,7.3,7.3,0,0,0,.26,1.9h-26.58a10.69,10.69,0,0,0-10.66,10.66V76.17a10.69,10.69,0,0,0,10.66,10.66H1999l.43,0a10.6,10.6,0,0,0,7.16,2.8h30.89a10.69,10.69,0,0,0,10.66-10.66V57.54A10.69,10.69,0,0,0,2037.5,46.88Z"/><path class="cls-9" d="M2041.31,67.52h-15.46a15.74,15.74,0,0,0-15.61,14.12h-5.08a10.68,10.68,0,0,0-10.64-10.24h-21.59a10.56,10.56,0,0,0-5.55,1.58,8.93,8.93,0,0,0-2.28-.31h-24.83a13.89,13.89,0,0,0-13.84-13.8h-17.86a13.89,13.89,0,0,0-13.85,13.85v2.54a13.89,13.89,0,0,0,13.85,13.85h15.14a9,9,0,0,0,7.48,4h17.11a10.6,10.6,0,0,0,6.84,2.5h4.66a10.54,10.54,0,0,0,4.39-1,10.66,10.66,0,0,0,8.74,4.59h21.59a10.66,10.66,0,0,0,8.75-4.6h8.66a15.73,15.73,0,0,0,13.92,8.48h15.46A15.74,15.74,0,0,0,2057,87.42V83.21A15.74,15.74,0,0,0,2041.31,67.52Z"/><path class="cls-9" d="M1981.29,68h7.49a3.63,3.63,0,0,0,0-7.25h-7.49a3.63,3.63,0,1,0,0,7.25Z"/><path class="cls-9" d="M1945.72,66.06h11.23a5.44,5.44,0,0,0,0-10.88h-11.23a5.44,5.44,0,0,0,0,10.88Z"/><rect class="cls-8" x="2015.86" y="107.14" width="16.99" height="10.49" rx="5.24" ry="5.24"/><path class="cls-9" d="M2034.36,110.62H2028a7.68,7.68,0,0,0-7.11,4.83h-5.33a6.06,6.06,0,0,0,0,12.11h8a6,6,0,0,0,4.12-1.64h6.61a7.66,7.66,0,0,0,0-15.32Z"/><path class="cls-3" d="M2001.31,209.94V204.8a10.69,10.69,0,0,0-10.66-10.66h-15.92a10.69,10.69,0,0,0-10.66,10.66v5.64a8.31,8.31,0,0,0,3.94,15.62h8.42a4.84,4.84,0,0,0,4.51,3.13h7.49a4.84,4.84,0,0,0,4.51-3.13h5.57a8.3,8.3,0,0,0,2.8-16.12Z"/><path class="cls-1" d="M1960.76,125.64a5,5,0,0,0-4.7-3.29h-11.28c-4,0-4.68-1.77-4.76-2.78a3.21,3.21,0,0,0,0-.45v-.45a3.24,3.24,0,0,0-3.23-3.23h-16.1a3.24,3.24,0,0,0-3.23,3.23v.45a3.24,3.24,0,0,0,3.23,3.23h4.39a3.7,3.7,0,0,1,3.35,4.13v1.59a5,5,0,0,0,5,5h6.7c2.05.19,4.61.93,4.73,3.45a2.92,2.92,0,0,0,.14.79,8,8,0,0,0,7.82,6.5h6.94a2.49,2.49,0,0,0,2.48-2.48v-11A7.89,7.89,0,0,0,1960.76,125.64Z"/><path class="cls-9" d="M1931.38,103.25h-6.5a8.69,8.69,0,0,0-8.67,8.65h-1.15a7,7,0,0,0,0,14h5.25a7,7,0,0,0,6.78-5.3h4.29a8.69,8.69,0,0,0,8.67-8.67h0A8.69,8.69,0,0,0,1931.38,103.25Z"/><rect class="cls-8" x="1925.2" y="153.65" width="16.99" height="10.49" rx="5.24" ry="5.24"/><path class="cls-9" d="M1943.7,157.13h-6.35a7.68,7.68,0,0,0-7.11,4.83h-5.33a6.06,6.06,0,1,0,0,12.11h8a6,6,0,0,0,4.12-1.64h6.61a7.66,7.66,0,0,0,0-15.32Z"/><rect class="cls-8" x="1975.13" y="135.18" width="16.99" height="10.49" rx="5.24" ry="5.24"/><path class="cls-9" d="M1993.63,138.65h-6.35a7.68,7.68,0,0,0-7.11,4.83h-5.33a6.06,6.06,0,0,0,0,12.11h8A6,6,0,0,0,1987,154h6.61a7.66,7.66,0,1,0,0-15.32Z"/><rect class="cls-1" x="1800.34" y="61.94" width="45.76" height="145.8" rx="10.44" ry="10.44"/><path class="cls-1" d="M1873.64,199.49h-2a13.74,13.74,0,0,1-6.93-2.95,6.63,6.63,0,0,0-5.89-3.63h-.36a4.31,4.31,0,0,1-3.35-3.29V189a9.63,9.63,0,0,0-9.6-9.6h-12.23a9.63,9.63,0,0,0-9.6,9.6v11.77a9.63,9.63,0,0,0,9.6,9.6h40.3a4.92,4.92,0,0,0,4.9-4.9V204.4A4.92,4.92,0,0,0,1873.64,199.49Z"/><path class="cls-1" d="M1820.55,179.32h-17.44a10.68,10.68,0,0,0-10.63,10.12,4.84,4.84,0,0,1-4.16,3.39h-1.26a7.35,7.35,0,0,0-6.23,3.48h0a18.78,18.78,0,0,1-8.76,3.1h-3a5.45,5.45,0,1,0,0,10.89h51.5a10.69,10.69,0,0,0,10.66-10.66V190A10.69,10.69,0,0,0,1820.55,179.32Z"/><path class="cls-1" d="M1875.37,104.42h-12.1a3.49,3.49,0,0,0-3.48,3.48,3.45,3.45,0,0,0,0,.47c0,.95-.42,3-4,3h-8.37a5.41,5.41,0,0,0-4.42,2.31,7.31,7.31,0,0,0-2,5v12a2.29,2.29,0,0,0,2.29,2.29h5.05a7.36,7.36,0,0,0,7.34-7.34c.1-2.54,2.26-3.29,4-3.48h5a4.91,4.91,0,0,0,4.89-4.89v-1.76c-.06-2.91,1.45-3.88,2.83-4.16h3a3.48,3.48,0,1,0,0-7Z"/><path class="cls-1" d="M1803.22,159.88a4.21,4.21,0,0,0-3.6-2h-7.45c-3.18,0-3.43-1.73-3.41-2.42a2.62,2.62,0,0,0,0-.28,2.71,2.71,0,0,0-2.7-2.7h-10.72a2.7,2.7,0,0,0,0,5.4h2.75c1.17.22,2.45,1,2.4,3.23v1.2a4,4,0,0,0,4,4h4.41c1.47.15,3.29.73,3.38,2.7,0,.11,0,.21,0,.3a6,6,0,0,0,5.92,5.4h4.62a1.86,1.86,0,0,0,1.85-1.85v-9A5.92,5.92,0,0,0,1803.22,159.88Z"/><path class="cls-7" d="M1871.68,22.58H1870a10.7,10.7,0,0,0-10.43-8.48h-7.12V10.66A10.69,10.69,0,0,0,1841.83,0h-37.89a10.69,10.69,0,0,0-10.66,10.66V13.3h-11.57A10.69,10.69,0,0,0,1771.05,24v0a10.69,10.69,0,0,0,10.66,10.66h11.57V49.4a10.69,10.69,0,0,0,10.66,10.66h55.67a10.69,10.69,0,0,0,10.66-10.66V45.07h1.41a10.69,10.69,0,0,0,10.66-10.66V33.23A10.69,10.69,0,0,0,1871.68,22.58Z"/><path class="cls-8" d="M1881,33.08h-29.19a10.78,10.78,0,0,0-2.53-3,6.55,6.55,0,0,0,.47-2.44h0a6.64,6.64,0,0,0-6.62-6.62h-9.74a6.64,6.64,0,0,0-6.62,6.62h-8.17a7.3,7.3,0,0,0,.26-1.9,7.39,7.39,0,0,0-7.37-7.37h-6.37a7.39,7.39,0,0,0-7.37,7.37,7.3,7.3,0,0,0,.26,1.9h-26.58a10.69,10.69,0,0,0-10.66,10.66V62.36A10.69,10.69,0,0,0,1771.48,73h71.08l.43,0a10.6,10.6,0,0,0,7.16,2.8H1881a10.69,10.69,0,0,0,10.66-10.66V43.74A10.69,10.69,0,0,0,1881,33.08Z"/><path class="cls-9" d="M1884.86,53.72h-15.46a15.74,15.74,0,0,0-15.61,14.12h-5.08a10.68,10.68,0,0,0-10.64-10.24h-21.59a10.56,10.56,0,0,0-5.55,1.58,8.93,8.93,0,0,0-2.28-.31h-24.83A13.89,13.89,0,0,0,1770,45.07h-17.86a13.89,13.89,0,0,0-13.85,13.85v2.54a13.89,13.89,0,0,0,13.85,13.85h15.14a9,9,0,0,0,7.48,4h17.11a10.6,10.6,0,0,0,6.84,2.5h4.66a10.54,10.54,0,0,0,4.39-1,10.66,10.66,0,0,0,8.74,4.59h21.59a10.66,10.66,0,0,0,8.75-4.6h8.66a15.73,15.73,0,0,0,13.92,8.48h15.46a15.74,15.74,0,0,0,15.69-15.69V69.41A15.74,15.74,0,0,0,1884.86,53.72Z"/><path class="cls-9" d="M1824.84,54.19h7.49a3.63,3.63,0,1,0,0-7.25h-7.49a3.63,3.63,0,1,0,0,7.25Z"/><path class="cls-9" d="M1789.27,52.26h11.23a5.44,5.44,0,0,0,0-10.88h-11.23a5.44,5.44,0,0,0,0,10.88Z"/><rect class="cls-8" x="1859.42" y="93.34" width="16.99" height="10.49" rx="5.24" ry="5.24"/><path class="cls-9" d="M1877.91,96.81h-6.35a7.68,7.68,0,0,0-7.11,4.83h-5.33a6.06,6.06,0,0,0,0,12.11h8a6,6,0,0,0,4.12-1.64h6.61a7.66,7.66,0,0,0,0-15.32Z"/><path class="cls-3" d="M1844.87,196.13V191a10.69,10.69,0,0,0-10.66-10.66h-15.92A10.69,10.69,0,0,0,1807.63,191v5.64a8.31,8.31,0,0,0,3.94,15.62H1820a4.84,4.84,0,0,0,4.51,3.13H1832a4.84,4.84,0,0,0,4.51-3.13h5.57a8.3,8.3,0,0,0,2.8-16.12Z"/><path class="cls-1" d="M1804.31,111.83a5,5,0,0,0-4.7-3.29h-11.28c-4,0-4.68-1.77-4.76-2.78a3.21,3.21,0,0,0,0-.45v-.45a3.24,3.24,0,0,0-3.23-3.23h-16.1a3.24,3.24,0,0,0-3.23,3.23v.45a3.24,3.24,0,0,0,3.23,3.23h4.39a3.7,3.7,0,0,1,3.35,4.13v1.59a5,5,0,0,0,5,5h6.7c2.05.19,4.61.93,4.73,3.45a2.92,2.92,0,0,0,.14.79,8,8,0,0,0,7.82,6.5h6.94a2.49,2.49,0,0,0,2.48-2.48v-11A7.89,7.89,0,0,0,1804.31,111.83Z"/><path class="cls-9" d="M1774.93,89.45h-6.5a8.69,8.69,0,0,0-8.67,8.65h-1.15a7,7,0,0,0,0,14h5.25a7,7,0,0,0,6.78-5.3h4.29a8.69,8.69,0,0,0,8.67-8.67h0A8.69,8.69,0,0,0,1774.93,89.45Z"/><rect class="cls-8" x="1768.75" y="139.85" width="16.99" height="10.49" rx="5.24" ry="5.24"/><path class="cls-9" d="M1787.25,143.32h-6.35a7.68,7.68,0,0,0-7.11,4.83h-5.33a6.06,6.06,0,1,0,0,12.11h8a6,6,0,0,0,4.12-1.64h6.61a7.66,7.66,0,0,0,0-15.32Z"/><rect class="cls-8" x="1818.68" y="121.37" width="16.99" height="10.49" rx="5.24" ry="5.24"/><path class="cls-9" d="M1837.18,124.85h-6.35a7.68,7.68,0,0,0-7.11,4.83h-5.33a6.06,6.06,0,0,0,0,12.11h8a6,6,0,0,0,4.12-1.64h6.61a7.66,7.66,0,1,0,0-15.32Z"/><rect class="cls-1" x="1902.59" y="150.37" width="51.6" height="164.4" rx="11.78" ry="11.78"/><path class="cls-1" d="M1985.25,305.47H1983a15.49,15.49,0,0,1-7.81-3.32,7.47,7.47,0,0,0-6.64-4.09h-.41a4.86,4.86,0,0,1-3.77-3.71v-.69a10.85,10.85,0,0,0-10.82-10.82H1939.8A10.85,10.85,0,0,0,1929,293.66v13.28a10.85,10.85,0,0,0,10.82,10.82h45.45a5.55,5.55,0,0,0,5.53-5.53V311A5.55,5.55,0,0,0,1985.25,305.47Z"/><path class="cls-1" d="M1925.37,282.72h-19.67a12,12,0,0,0-12,11.41c-.38,1.29-1.48,3.22-4.69,3.82h-1.42a8.29,8.29,0,0,0-7,3.92h0a21.18,21.18,0,0,1-9.88,3.49h-3.41a6.14,6.14,0,0,0,0,12.28h58.07a12.05,12.05,0,0,0,12-12V294.74A12.05,12.05,0,0,0,1925.37,282.72Z"/><path class="cls-1" d="M1987.2,198.27h-13.65a3.93,3.93,0,0,0-3.92,3.92,3.89,3.89,0,0,0,0,.53c0,1.07-.48,3.39-4.54,3.39h-9.44a6.1,6.1,0,0,0-5,2.6,8.24,8.24,0,0,0-2.28,5.67v13.54a2.59,2.59,0,0,0,2.58,2.58h5.7a8.3,8.3,0,0,0,8.28-8.28c.12-2.86,2.55-3.7,4.51-3.92h5.65a5.53,5.53,0,0,0,5.52-5.52v-2c-.07-3.28,1.64-4.38,3.19-4.69h3.34a3.92,3.92,0,1,0,0-7.84Z"/><path class="cls-1" d="M1905.84,260.8a4.74,4.74,0,0,0-4.06-2.31h-8.4c-3.58,0-3.87-1.95-3.84-2.73a3,3,0,0,0,0-.32,3.06,3.06,0,0,0-3-3h-12.09a3,3,0,0,0,0,6.09h3.1c1.32.25,2.76,1.09,2.7,3.65v1.36a4.49,4.49,0,0,0,4.47,4.47h5c1.65.17,3.71.82,3.81,3,0,.12,0,.23,0,.34a6.73,6.73,0,0,0,6.68,6.09h5.2a2.1,2.1,0,0,0,2.09-2.09V265.2A6.67,6.67,0,0,0,1905.84,260.8Z"/><path class="cls-7" d="M1983,106h-1.85a12.06,12.06,0,0,0-11.76-9.56h-8V92.54a12.05,12.05,0,0,0-12-12h-42.72a12.05,12.05,0,0,0-12,12v3h-13a12.05,12.05,0,0,0-12,12v0a12.05,12.05,0,0,0,12,12h13v16.64a12.05,12.05,0,0,0,12,12h62.77a12.05,12.05,0,0,0,12-12v-4.88H1983a12.05,12.05,0,0,0,12-12V118A12.05,12.05,0,0,0,1983,106Z"/><path class="cls-8" d="M1993.59,117.83h-32.92a12.15,12.15,0,0,0-2.85-3.42,7.39,7.39,0,0,0,.53-2.75h0a7.49,7.49,0,0,0-7.46-7.46h-11a7.49,7.49,0,0,0-7.46,7.46h-9.21a8.23,8.23,0,0,0,.29-2.14,8.33,8.33,0,0,0-8.31-8.31H1908a8.33,8.33,0,0,0-8.31,8.31,8.23,8.23,0,0,0,.29,2.14h-30a12.05,12.05,0,0,0-12,12v27.17a12.05,12.05,0,0,0,12,12h80.16l.49,0a12,12,0,0,0,8.07,3.15h34.84a12.05,12.05,0,0,0,12-12V129.85A12.05,12.05,0,0,0,1993.59,117.83Z"/><path class="cls-9" d="M1997.9,141.09h-17.43a17.75,17.75,0,0,0-17.6,15.92h-5.73a12,12,0,0,0-12-11.54H1920.8a11.9,11.9,0,0,0-6.26,1.79,10.07,10.07,0,0,0-2.57-.34h-28a15.66,15.66,0,0,0-15.61-15.56h-20.14A15.66,15.66,0,0,0,1832.61,147v2.86a15.66,15.66,0,0,0,15.61,15.61h17.07a10.18,10.18,0,0,0,8.43,4.5H1893a12,12,0,0,0,7.71,2.82H1906a11.89,11.89,0,0,0,5-1.09,12,12,0,0,0,9.86,5.18h24.34a12,12,0,0,0,9.86-5.19h9.77a17.74,17.74,0,0,0,15.69,9.56h17.43a17.74,17.74,0,0,0,17.69-17.69v-4.74A17.74,17.74,0,0,0,1997.9,141.09Z"/><path class="cls-9" d="M1930.22,141.63h8.44a4.09,4.09,0,0,0,0-8.18h-8.44a4.09,4.09,0,1,0,0,8.18Z"/><path class="cls-9" d="M1890.1,139.45h12.66a6.13,6.13,0,0,0,0-12.27H1890.1a6.13,6.13,0,1,0,0,12.27Z"/><rect class="cls-8" x="1969.2" y="185.77" width="19.16" height="11.83" rx="5.91" ry="5.91"/><path class="cls-9" d="M1990.06,189.69h-7.16a8.66,8.66,0,0,0-8,5.44h-6a6.83,6.83,0,0,0,0,13.66H1978a6.79,6.79,0,0,0,4.65-1.85l.3,0h7.16a8.63,8.63,0,0,0,0-17.27Z"/><path class="cls-3" d="M1952.8,301.68v-5.79a12.05,12.05,0,0,0-12-12h-18a12.05,12.05,0,0,0-12,12v6.36a9.37,9.37,0,0,0,4.45,17.62h9.49a5.45,5.45,0,0,0,5.09,3.53h8.44a5.45,5.45,0,0,0,5.09-3.53h6.28a9.36,9.36,0,0,0,3.16-18.18Z"/><path class="cls-1" d="M1907.07,206.63a5.68,5.68,0,0,0-5.3-3.71H1889c-4.49,0-5.28-2-5.37-3.13a3.61,3.61,0,0,0,0-.5v-.51a3.65,3.65,0,0,0-3.64-3.64h-18.15a3.65,3.65,0,0,0-3.64,3.64v.51a3.65,3.65,0,0,0,3.64,3.64h5a4.17,4.17,0,0,1,3.78,4.66v1.79a5.68,5.68,0,0,0,5.66,5.66h7.56c2.31.21,5.2,1,5.33,3.89a3.29,3.29,0,0,0,.16.9,9,9,0,0,0,8.81,7.33H1906a2.8,2.8,0,0,0,2.79-2.79V211.89A8.9,8.9,0,0,0,1907.07,206.63Z"/><path class="cls-9" d="M1873.94,181.39h-7.33a9.8,9.8,0,0,0-9.77,9.75h-1.3a7.89,7.89,0,0,0,0,15.77h5.92a7.91,7.91,0,0,0,7.64-6h4.84a9.8,9.8,0,0,0,9.77-9.77h0A9.8,9.8,0,0,0,1873.94,181.39Z"/><rect class="cls-8" x="1866.97" y="238.22" width="19.16" height="11.83" rx="5.91" ry="5.91"/><path class="cls-9" d="M1887.82,242.13h-7.16a8.66,8.66,0,0,0-8,5.44h-6a6.83,6.83,0,1,0,0,13.66h9.08a6.79,6.79,0,0,0,4.65-1.85l.3,0h7.16a8.63,8.63,0,0,0,0-17.27Z"/><rect class="cls-8" x="1923.27" y="217.38" width="19.16" height="11.83" rx="5.91" ry="5.91"/><path class="cls-9" d="M1944.13,221.3H1937a8.66,8.66,0,0,0-8,5.44h-6a6.83,6.83,0,0,0,0,13.66H1932a6.79,6.79,0,0,0,4.65-1.85l.3,0h7.16a8.63,8.63,0,1,0,0-17.27Z"/><rect class="cls-1" x="1973.91" y="263.11" width="51.6" height="164.4" rx="11.78" ry="11.78"/><path class="cls-1" d="M2056.57,418.21h-2.21a15.49,15.49,0,0,1-7.81-3.32,7.47,7.47,0,0,0-6.64-4.09h-.41a4.86,4.86,0,0,1-3.77-3.71v-.69a10.85,10.85,0,0,0-10.82-10.82h-13.79a10.85,10.85,0,0,0-10.82,10.82v13.28a10.85,10.85,0,0,0,10.82,10.82h45.45a5.55,5.55,0,0,0,5.53-5.53v-1.22A5.55,5.55,0,0,0,2056.57,418.21Z"/><path class="cls-1" d="M1996.7,395.46H1977a12,12,0,0,0-12,11.41c-.38,1.29-1.48,3.22-4.69,3.82h-1.42a8.29,8.29,0,0,0-7,3.92h0a21.18,21.18,0,0,1-9.88,3.49h-3.41a6.14,6.14,0,1,0,0,12.28h58.07a12.05,12.05,0,0,0,12-12V407.48A12.05,12.05,0,0,0,1996.7,395.46Z"/><path class="cls-1" d="M2058.52,311h-13.65a3.93,3.93,0,0,0-3.92,3.92,3.89,3.89,0,0,0,0,.53c0,1.07-.48,3.39-4.54,3.39H2027a6.1,6.1,0,0,0-5,2.6,8.24,8.24,0,0,0-2.28,5.67v13.54a2.59,2.59,0,0,0,2.58,2.58h5.7a8.3,8.3,0,0,0,8.28-8.28c.12-2.86,2.55-3.7,4.51-3.92h5.65a5.53,5.53,0,0,0,5.52-5.52v-2c-.07-3.28,1.64-4.38,3.19-4.69h3.34a3.92,3.92,0,1,0,0-7.84Z"/><path class="cls-1" d="M1977.16,373.54a4.74,4.74,0,0,0-4.06-2.31h-8.4c-3.58,0-3.87-1.95-3.84-2.73a3,3,0,0,0,0-.32,3.06,3.06,0,0,0-3-3h-12.09a3,3,0,0,0,0,6.09h3.1c1.32.25,2.76,1.09,2.7,3.65v1.36a4.49,4.49,0,0,0,4.47,4.47h5c1.65.17,3.71.82,3.81,3,0,.12,0,.23,0,.34a6.73,6.73,0,0,0,6.68,6.09h5.2a2.1,2.1,0,0,0,2.09-2.09V377.94A6.67,6.67,0,0,0,1977.16,373.54Z"/><path class="cls-7" d="M2054.35,218.72h-1.85a12.06,12.06,0,0,0-11.76-9.56h-8v-3.87a12.05,12.05,0,0,0-12-12H1978a12.05,12.05,0,0,0-12,12v3h-13a12.05,12.05,0,0,0-12,12v0a12.05,12.05,0,0,0,12,12h13V249a12.05,12.05,0,0,0,12,12h62.77a12.05,12.05,0,0,0,12-12v-4.88h1.59a12.05,12.05,0,0,0,12-12v-1.33A12.05,12.05,0,0,0,2054.35,218.72Z"/><path class="cls-8" d="M2064.92,230.56H2032a12.15,12.15,0,0,0-2.85-3.42,7.39,7.39,0,0,0,.53-2.75h0a7.49,7.49,0,0,0-7.46-7.46h-11a7.49,7.49,0,0,0-7.46,7.46h-9.21a8.23,8.23,0,0,0,.29-2.14,8.33,8.33,0,0,0-8.31-8.31h-7.18a8.33,8.33,0,0,0-8.31,8.31,8.23,8.23,0,0,0,.29,2.14h-30a12.05,12.05,0,0,0-12,12v27.17a12.05,12.05,0,0,0,12,12h80.16l.49,0a12,12,0,0,0,8.07,3.15h34.84a12.05,12.05,0,0,0,12-12V242.58A12.05,12.05,0,0,0,2064.92,230.56Z"/><path class="cls-9" d="M2069.22,253.83h-17.43a17.75,17.75,0,0,0-17.6,15.92h-5.73a12,12,0,0,0-12-11.54h-24.34a11.9,11.9,0,0,0-6.26,1.79,10.07,10.07,0,0,0-2.57-.34h-28a15.66,15.66,0,0,0-15.61-15.56h-20.14a15.66,15.66,0,0,0-15.61,15.61v2.86a15.66,15.66,0,0,0,15.61,15.61h17.07a10.18,10.18,0,0,0,8.43,4.5h19.3a12,12,0,0,0,7.71,2.82h5.26a11.89,11.89,0,0,0,5-1.09,12,12,0,0,0,9.86,5.18h24.34a12,12,0,0,0,9.86-5.19h9.77a17.74,17.74,0,0,0,15.69,9.56h17.43a17.74,17.74,0,0,0,17.69-17.69v-4.74A17.74,17.74,0,0,0,2069.22,253.83Z"/><path class="cls-9" d="M2001.54,254.37H2010a4.09,4.09,0,1,0,0-8.18h-8.44a4.09,4.09,0,0,0,0,8.18Z"/><path class="cls-9" d="M1961.42,252.19h12.66a6.13,6.13,0,0,0,0-12.27h-12.66a6.13,6.13,0,1,0,0,12.27Z"/><rect class="cls-8" x="2040.52" y="298.51" width="19.16" height="11.83" rx="5.91" ry="5.91"/><path class="cls-9" d="M2061.38,302.43h-7.16a8.66,8.66,0,0,0-8,5.44h-6a6.83,6.83,0,0,0,0,13.66h9.08a6.79,6.79,0,0,0,4.65-1.85l.3,0h7.16a8.63,8.63,0,0,0,0-17.27Z"/><path class="cls-3" d="M2024.12,414.42v-5.79a12.05,12.05,0,0,0-12-12h-18a12.05,12.05,0,0,0-12,12V415a9.37,9.37,0,0,0,4.45,17.62h9.49a5.45,5.45,0,0,0,5.09,3.53h8.44a5.45,5.45,0,0,0,5.09-3.53H2021a9.36,9.36,0,0,0,3.16-18.18Z"/><path class="cls-1" d="M1978.39,319.36a5.68,5.68,0,0,0-5.3-3.71h-12.72c-4.49,0-5.28-2-5.37-3.13a3.61,3.61,0,0,0,0-.5v-.51a3.65,3.65,0,0,0-3.64-3.64h-18.15a3.65,3.65,0,0,0-3.64,3.64V312a3.65,3.65,0,0,0,3.64,3.64h5a4.17,4.17,0,0,1,3.78,4.66v1.79a5.68,5.68,0,0,0,5.66,5.66h7.56c2.31.21,5.2,1,5.33,3.89a3.29,3.29,0,0,0,.16.9,9,9,0,0,0,8.81,7.33h7.82a2.8,2.8,0,0,0,2.79-2.79V324.63A8.9,8.9,0,0,0,1978.39,319.36Z"/><path class="cls-9" d="M1945.26,294.12h-7.33a9.8,9.8,0,0,0-9.77,9.75h-1.3a7.89,7.89,0,0,0,0,15.77h5.92a7.91,7.91,0,0,0,7.64-6h4.84a9.8,9.8,0,0,0,9.77-9.77h0A9.8,9.8,0,0,0,1945.26,294.12Z"/><rect class="cls-8" x="1938.29" y="350.95" width="19.16" height="11.83" rx="5.91" ry="5.91"/><path class="cls-9" d="M1959.15,354.87H1952a8.66,8.66,0,0,0-8,5.44h-6a6.83,6.83,0,1,0,0,13.66H1947a6.79,6.79,0,0,0,4.65-1.85l.3,0h7.16a8.63,8.63,0,0,0,0-17.27Z"/><rect class="cls-8" x="1994.59" y="330.12" width="19.16" height="11.83" rx="5.91" ry="5.91"/><path class="cls-9" d="M2015.45,334h-7.16a8.66,8.66,0,0,0-8,5.44h-6a6.83,6.83,0,0,0,0,13.66h9.08a6.79,6.79,0,0,0,4.65-1.85l.3,0h7.16a8.63,8.63,0,1,0,0-17.27Z"/><rect class="cls-1" x="1936.16" y="463.43" width="70.41" height="224.35" rx="16.07" ry="16.07"/><path class="cls-1" d="M2049,675.09h-3a21.14,21.14,0,0,1-10.66-4.54,10.19,10.19,0,0,0-9.06-5.58h-.56a6.63,6.63,0,0,1-5.15-5.06V659a14.81,14.81,0,0,0-14.77-14.77h-18.81A14.81,14.81,0,0,0,1972.17,659v18.12a14.81,14.81,0,0,0,14.77,14.77h62a7.57,7.57,0,0,0,7.54-7.54v-1.67A7.57,7.57,0,0,0,2049,675.09Z"/><path class="cls-1" d="M1967.25,644h-26.84a16.44,16.44,0,0,0-16.36,15.57c-.52,1.76-2,4.4-6.4,5.21h-1.93a11.31,11.31,0,0,0-9.58,5.35h0a28.9,28.9,0,0,1-13.48,4.77H1888a8.38,8.38,0,1,0,0,16.76h79.24a16.45,16.45,0,0,0,16.4-16.4V660.44A16.45,16.45,0,0,0,1967.25,644Z"/><path class="cls-1" d="M2051.62,528.79H2033a5.36,5.36,0,0,0-5.35,5.35,5.3,5.3,0,0,0,.06.73c0,1.46-.65,4.62-6.2,4.62h-12.88a8.32,8.32,0,0,0-6.8,3.55,11.24,11.24,0,0,0-3.1,7.74v18.47a3.53,3.53,0,0,0,3.52,3.52H2010a11.33,11.33,0,0,0,11.29-11.29c.16-3.91,3.48-5.06,6.15-5.35h6.92l.4,0,.4,0a7.55,7.55,0,0,0,7.53-7.53v-2.71c-.09-4.48,2.24-6,4.36-6.4h4.56a5.35,5.35,0,1,0,0-10.7Z"/><path class="cls-1" d="M1940.59,614.13a6.47,6.47,0,0,0-5.54-3.15h-11.47c-4.89,0-5.28-2.66-5.24-3.72a4,4,0,0,0,0-.44,4.17,4.17,0,0,0-4.16-4.16h-16.49a4.16,4.16,0,0,0,0,8.31H1902c1.8.34,3.77,1.49,3.69,5v1.85a6.12,6.12,0,0,0,6.1,6.1h6.79c2.26.23,5.07,1.12,5.2,4.16,0,.16,0,.32,0,.46a9.19,9.19,0,0,0,9.12,8.32h7.1a2.86,2.86,0,0,0,2.85-2.85V620.13A9.11,9.11,0,0,0,1940.59,614.13Z"/><path class="cls-7" d="M2045.93,402.86h-2.52a16.46,16.46,0,0,0-16.05-13.05h-11v-5.29a16.45,16.45,0,0,0-16.4-16.4h-58.3a16.45,16.45,0,0,0-16.4,16.4v4.06h-17.8a16.45,16.45,0,0,0-16.4,16.4v0a16.45,16.45,0,0,0,16.4,16.4h17.8v22.7a16.45,16.45,0,0,0,16.4,16.4h85.66a16.45,16.45,0,0,0,16.4-16.4v-6.66h2.18a16.45,16.45,0,0,0,16.4-16.4v-1.81A16.45,16.45,0,0,0,2045.93,402.86Z"/><path class="cls-8" d="M2060.35,419h-44.92a16.58,16.58,0,0,0-3.89-4.66,10.08,10.08,0,0,0,.73-3.75h0a10.22,10.22,0,0,0-10.19-10.19h-15a10.22,10.22,0,0,0-10.19,10.19h-12.57a11.23,11.23,0,0,0,.4-2.93,11.37,11.37,0,0,0-11.34-11.34h-9.8a11.37,11.37,0,0,0-11.34,11.34,11.23,11.23,0,0,0,.4,2.93h-40.9a16.45,16.45,0,0,0-16.4,16.4v37.07a16.45,16.45,0,0,0,16.4,16.4h109.38c.22,0,.44,0,.66,0a16.31,16.31,0,0,0,11,4.3h47.54a16.45,16.45,0,0,0,16.4-16.4V435.42A16.45,16.45,0,0,0,2060.35,419Z"/><path class="cls-9" d="M2066.22,450.77h-23.79a24.23,24.23,0,0,0-24,21.72h-7.82a16.44,16.44,0,0,0-16.37-15.75H1961a16.24,16.24,0,0,0-8.54,2.44,13.74,13.74,0,0,0-3.51-.47h-38.21a21.37,21.37,0,0,0-21.3-21.24H1862a21.37,21.37,0,0,0-21.3,21.3v3.9A21.37,21.37,0,0,0,1862,484h23.3a13.89,13.89,0,0,0,11.51,6.14h26.33a16.31,16.31,0,0,0,10.52,3.85h7.18a16.23,16.23,0,0,0,6.76-1.48,16.41,16.41,0,0,0,13.45,7.06h33.22a16.41,16.41,0,0,0,13.46-7.08H2021a24.21,24.21,0,0,0,21.42,13h23.79a24.21,24.21,0,0,0,24.14-24.14v-6.47A24.21,24.21,0,0,0,2066.22,450.77Z"/><path class="cls-9" d="M1973.86,451.51h11.52a5.58,5.58,0,1,0,0-11.16h-11.52a5.58,5.58,0,1,0,0,11.16Z"/><path class="cls-9" d="M1919.12,448.53h17.28a8.37,8.37,0,0,0,0-16.74h-17.28a8.37,8.37,0,1,0,0,16.74Z"/><rect class="cls-8" x="2027.06" y="511.74" width="26.14" height="16.14" rx="8.07" ry="8.07"/><path class="cls-9" d="M2055.52,517.09h-9.77a11.82,11.82,0,0,0-10.93,7.43h-8.2a9.32,9.32,0,0,0,0,18.64H2039a9.27,9.27,0,0,0,6.34-2.52l.41,0h9.77a11.78,11.78,0,0,0,0-23.57Z"/><path class="cls-3" d="M2004.67,669.92V662a16.45,16.45,0,0,0-16.4-16.4h-24.5a16.45,16.45,0,0,0-16.4,16.4v8.67a12.78,12.78,0,0,0,6.07,24h13a7.44,7.44,0,0,0,6.94,4.82h11.52a7.44,7.44,0,0,0,6.94-4.82h8.56a12.78,12.78,0,0,0,4.31-24.81Z"/><path class="cls-1" d="M1942.27,540.2a7.75,7.75,0,0,0-7.24-5.06h-17.36c-6.12,0-7.2-2.73-7.32-4.28a4.93,4.93,0,0,0,.05-.69v-.69a5,5,0,0,0-5-5h-24.77a5,5,0,0,0-5,5v.69a5,5,0,0,0,5,5h6.76c2.51.43,5.27,1.91,5.16,6.36v2.44a7.75,7.75,0,0,0,7.72,7.72h10.31c3.15.29,7.09,1.43,7.28,5.31a4.49,4.49,0,0,0,.22,1.22,12.29,12.29,0,0,0,12,10h10.67a3.82,3.82,0,0,0,3.81-3.81v-17A12.15,12.15,0,0,0,1942.27,540.2Z"/><path class="cls-9" d="M1897.07,505.76h-10a13.37,13.37,0,0,0-13.33,13.31H1872a10.76,10.76,0,0,0,0,21.53H1880a10.8,10.8,0,0,0,10.43-8.16h6.61a13.38,13.38,0,0,0,13.34-13.34h0A13.38,13.38,0,0,0,1897.07,505.76Z"/><rect class="cls-8" x="1887.55" y="583.31" width="26.14" height="16.14" rx="8.07" ry="8.07"/><path class="cls-9" d="M1916,588.65h-9.77a11.82,11.82,0,0,0-10.93,7.43h-8.2a9.32,9.32,0,1,0,0,18.64h12.39a9.27,9.27,0,0,0,6.34-2.52l.41,0H1916a11.78,11.78,0,0,0,0-23.57Z"/><rect class="cls-8" x="1964.38" y="554.88" width="26.14" height="16.14" rx="8.07" ry="8.07"/><path class="cls-9" d="M1992.84,560.22h-9.77a11.82,11.82,0,0,0-10.93,7.43h-8.2a9.32,9.32,0,0,0,0,18.64h12.39a9.27,9.27,0,0,0,6.34-2.52l.41,0h9.77a11.78,11.78,0,1,0,0-23.57Z"/></g></g></svg>