<svg xmlns="http://www.w3.org/2000/svg" viewBox="0 0 472.3 576.61"><defs><style>.cls-1{fill:#3d3a32;}.cls-2{fill:#706954;}.cls-3{fill:#a8a8a8;}.cls-4{fill:#e1e1e1;}.cls-5{fill:#9e9e9e;}.cls-6{fill:#838383;}.cls-7{fill:#515151;}.cls-8{fill:#7a7a7a;}.cls-9{fill:#545454;}.cls-10{fill:#1e1e1e;}.cls-11{fill:#3d3d3d;}.cls-12{fill:#434343;}</style></defs><title>houseinteriorscene-oven</title><g id="Layer_2" data-name="Layer 2"><g id="Layer_1-2" data-name="Layer 1"><rect class="cls-1" y="145.59" width="457.35" height="431.01" rx="12" ry="12"/><rect class="cls-2" x="14.94" y="145.41" width="457.35" height="431.01" rx="12" ry="12"/><rect class="cls-1" x="36.96" y="168.17" width="413.04" height="393.96" rx="12" ry="12"/><path class="cls-3" d="M179.06,159.44a18.65,18.65,0,0,1-5.9-3.56,18.1,18.1,0,0,1-3.67-5c-4.25-8.3-3.63-18.49-.06-27.12s9.78-15.88,16.51-22.35A150.17,150.17,0,0,1,217.64,78c2.86-1.57,5.78-3.06,8.48-4.88a78.39,78.39,0,0,0,10.33-8.91c4.64-4.5,9.47-9.29,11.26-15.5,1.4-4.86.78-10,.15-15.07l-3.4-26.91A43.89,43.89,0,0,1,244,0H218.22s27.24,34.53,12.66,55.63S191,60.23,159.52,99c-30.09,37.06-22.25,83.25-22.25,83.25h72.89a66.3,66.3,0,0,1-1.67-28.42,27.8,27.8,0,0,1-7.34,5A28.33,28.33,0,0,1,179.06,159.44Z"/><path class="cls-4" d="M282.29,0H244a43.89,43.89,0,0,0,.43,6.77l3.4,26.91c.63,5,1.26,10.2-.15,15.07-1.79,6.21-6.62,11-11.26,15.5a78.39,78.39,0,0,1-10.33,8.91c-2.7,1.83-5.62,3.31-8.48,4.88a150.17,150.17,0,0,0-31.71,23.33c-6.72,6.47-12.94,13.73-16.51,22.35s-4.19,18.81.06,27.12a18.1,18.1,0,0,0,3.67,5,18.65,18.65,0,0,0,5.9,3.56,28.33,28.33,0,0,0,22.08-.62,27.8,27.8,0,0,0,7.34-5c2.63-17.21,12-34.17,31.6-39.11,31.27-7.86,56-25.51,55.63-60.23S282.29,0,282.29,0Z"/><path class="cls-4" d="M129.16,177.46a6,6,0,0,0,2.29,5.76,15.44,15.44,0,0,0,5.9,2.67c14.5,4,29.8,3.83,44.85,3.61,23.58-.34,47.23-.69,70.62-3.58v-.79a12,12,0,0,0-12-12h-108l-.15.09A7.52,7.52,0,0,0,129.16,177.46Z"/><path class="cls-3" d="M182.2,189.51c-15,.22-30.34.41-44.85-3.61a15.44,15.44,0,0,1-5.9-2.67,6,6,0,0,1-2.29-5.76,7.52,7.52,0,0,1,3.55-4.23l.15-.09H104.8a12,12,0,0,0-12,12v78a12,12,0,0,0,12,12h136a12,12,0,0,0,12-12V185.93C229.42,188.81,205.78,189.17,182.2,189.51Z"/><path class="cls-5" d="M417.15,204.77h-308C96.09,215.33,96.37,214,96.31,224.42c0,7.83,0,58.86,0,83.93H417.15a12,12,0,0,0,12-12V216.77A12,12,0,0,0,417.15,204.77Z"/><path class="cls-6" d="M96.31,224.42c.06-10.44-.22-9.09,12.84-19.66H89.24a12,12,0,0,0-12,12v79.58a12,12,0,0,0,12,12H96.3C96.29,283.29,96.27,232.25,96.31,224.42Z"/><rect class="cls-7" x="89.24" y="512.19" width="360.76" height="29.61" rx="10.72" ry="10.72"/><rect class="cls-8" x="73.21" y="298.09" width="321.79" height="230.91" rx="10.84" ry="10.84"/><rect class="cls-7" x="125.11" y="286.02" width="83.47" height="11.34" rx="5.67" ry="5.67"/><rect class="cls-9" x="234.11" y="286.02" width="83.47" height="11.34" rx="5.67" ry="5.67"/><rect class="cls-7" x="346" y="286.02" width="83.47" height="11.34" rx="5.67" ry="5.67"/><rect class="cls-10" x="129.02" y="292.6" width="332.98" height="236.49" rx="11.16" ry="11.16"/><rect class="cls-11" x="142.27" y="292.6" width="319.73" height="236.49" rx="10.94" ry="10.94"/><rect class="cls-7" x="166.9" y="317" width="267.63" height="183" rx="10.97" ry="10.97"/><rect class="cls-8" x="174.56" y="317" width="259.97" height="183" rx="10.82" ry="10.82"/><circle class="cls-10" cx="158.23" cy="259.52" r="12.47"/><circle class="cls-10" cx="225.22" cy="259.52" r="12.47"/><circle class="cls-10" cx="346" cy="259.52" r="12.47"/><circle class="cls-10" cx="403.33" cy="259.52" r="12.47"/><path class="cls-12" d="M278,343.26c-3.72,0-8.18-1.11-8.4-6.63a5,5,0,0,1,1.26-3.68H207.8a11,11,0,0,0-11,11v6.2a11,11,0,0,0,11,11h197a11,11,0,0,0,11-11v-6.2c0-.22,0-.44,0-.66Z"/><path class="cls-9" d="M278,343.26H415.76a11,11,0,0,0-10.94-10.31H270.88a5,5,0,0,0-1.26,3.68C269.84,342.15,274.3,343.26,278,343.26Z"/></g></g></svg>