<svg xmlns="http://www.w3.org/2000/svg" viewBox="0 0 1162.72 149.41"><defs><style>.cls-1{fill:#5b6042;}.cls-2{fill:#808958;}</style></defs><title>houseinteriorscene-ground</title><g id="Layer_2" data-name="Layer 2"><g id="Layer_8" data-name="Layer 8"><path class="cls-1" d="M260.83,94.39C249,87.14,238.17,75.57,238,61.69c-.2-15.74,13.09-28.31,26.74-36.15,31.13-17.89,68-22,103.77-25.54H11.13A11.16,11.16,0,0,0,0,11.13V138.27a11.16,11.16,0,0,0,11.13,11.13h653.8c-114-8.59-228.05-17.33-340.84-35.72C302.19,110.11,279.76,106,260.83,94.39Z"/><path class="cls-2" d="M1151.59,0H368.5c-35.79,3.49-72.63,7.65-103.77,25.54C251.09,33.38,237.79,46,238,61.69c.18,13.89,11,25.45,22.84,32.7,18.93,11.58,41.36,15.73,63.26,19.3,112.79,18.39,226.8,27.13,340.84,35.72h486.66a11.16,11.16,0,0,0,11.13-11.13V11.13A11.16,11.16,0,0,0,1151.59,0Z"/></g></g></svg>