<svg xmlns="http://www.w3.org/2000/svg" xmlns:xlink="http://www.w3.org/1999/xlink" viewBox="0 0 733.84 528.26"><defs><style>.cls-1{fill:#3d3a32;}.cls-2{fill:#706954;}.cls-3{fill:url(#linear-gradient);}.cls-4{fill:#5c5c5c;}.cls-5{fill:#a6a6a6;}.cls-6{fill:#42442c;}.cls-7{fill:#5a5b3c;}.cls-8{fill:#b0b0b0;}.cls-9{fill:#2d2b25;}.cls-10{fill:#838383;}</style><linearGradient id="linear-gradient" x1="430.39" y1="226.9" x2="557.44" y2="-13.34" gradientTransform="translate(594.97 -405.72) rotate(90)" gradientUnits="userSpaceOnUse"><stop offset="0" stop-color="#fff"/><stop offset="1" stop-color="#7ab1f1"/></linearGradient></defs><title>houseinteriorscene-counter-window</title><g id="Layer_2" data-name="Layer 2"><g id="Layer_3" data-name="Layer 3"><rect class="cls-1" x="334.4" y="0.12" width="305.11" height="189.25" rx="12" ry="12"/><rect class="cls-2" x="347.79" width="305.11" height="189.25" rx="12" ry="12"/><rect class="cls-3" x="425.72" y="-37.93" width="149.25" height="265.11" rx="8.97" ry="8.97" transform="translate(405.72 594.97) rotate(-90)"/><rect class="cls-4" x="328.5" y="7.48" width="338.85" height="19.27" rx="9.64" ry="9.64"/><rect class="cls-5" x="658.92" y="1.46" width="16.86" height="31.32" rx="8.43" ry="8.43"/><rect class="cls-5" x="320.07" y="1.46" width="16.86" height="31.32" rx="8.43" ry="8.43"/><path class="cls-6" d="M418,89.08a39.5,39.5,0,0,1-8.06,3.46,15.43,15.43,0,0,1-5.59,1.17c-5.21-.23-8.81-5.67-9.42-10.86s.82-10.37,1-15.59c.11-2.57-.28-5.54-2.43-7a27.17,27.17,0,0,0-9.72,26.8c.61,2.77,1.68,5.46,1.78,8.3.15,4.38-2,8.57-5.07,11.74s-6.81,5.48-10.56,7.75c-2.16,1.31-4.74,2.66-7.09,1.74-2.66-1-3.47-4.36-3.79-7.2-1.41-12.36-.6-24.85.22-37.26L361.16,44c.28-4.22.57-8.51,2.09-12.45,2.32-6,7.25-10.59,12.53-14.26a72.49,72.49,0,0,1,20.36-9.84H336.94V155.05s4.15,17.91,13.54,11.16,8-21.93,13.81-24.42,19.33.83,23.75-16,14.36-16.84,22.09-21c6.46-3.46,12.91-12.72,15.5-23.08A28.57,28.57,0,0,1,418,89.08Z"/><path class="cls-7" d="M443.25,44.61c3-15.46,0-37.13,0-37.13H396.14a72.49,72.49,0,0,0-20.36,9.84c-5.27,3.67-10.21,8.27-12.53,14.26-1.52,3.94-1.82,8.24-2.09,12.45l-1.85,28.16c-.82,12.41-1.63,24.9-.22,37.26.32,2.84,1.13,6.15,3.79,7.2,2.35.93,4.93-.43,7.09-1.74,3.75-2.27,7.54-4.58,10.56-7.75s5.22-7.37,5.07-11.74c-.1-2.83-1.16-5.53-1.78-8.3a27.17,27.17,0,0,1,9.72-26.8c2.15,1.42,2.54,4.38,2.43,7-.23,5.21-1.66,10.4-1,15.59s4.21,10.63,9.42,10.86a15.43,15.43,0,0,0,5.59-1.17A39.5,39.5,0,0,0,418,89.08a28.57,28.57,0,0,0,7.61-7.36,39.76,39.76,0,0,0,1.07-6.19C427.79,62.83,440.22,60.07,443.25,44.61Z"/><path class="cls-6" d="M648.72,152.66c-4-2.52-4.56-8.17-7.82-11.56a21.64,21.64,0,0,0-5.3-3.56c-8.69-4.83-16.6-11.78-20.4-21-1.87-4.51-2.67-9.38-3.46-14.21C610,92,608.3,81.44,608.86,70.9c.34-6.6,1.36-14-2.73-19.15-5.13,7.82-1.5,18.54-4.55,27.38a7.82,7.82,0,0,1-2.62,4c-2.16,1.52-5.29,1-7.39-.6a14.1,14.1,0,0,1-4.23-6.58c-4.61-12.76-2-27.39-7.25-39.9-1.58-3.75-3.86-7.34-4.2-11.39-.39-4.65,1.93-9.2,5.18-12.55a33.32,33.32,0,0,1,5.73-4.6H552.6s-3,21.66,0,37.13,15.46,18.22,16.57,30.93,8.84,25.13,16.57,29.27,17.67,4.14,22.09,21,17.95,13.53,23.75,16,4.42,17.67,13.81,24.42,13.54-11.16,13.54-11.16v-3.41C656,153.84,651.79,154.62,648.72,152.66Z"/><path class="cls-7" d="M658.92,7.48H586.8a33.32,33.32,0,0,0-5.73,4.6c-3.25,3.35-5.57,7.9-5.18,12.55.34,4.05,2.63,7.64,4.2,11.39,5.26,12.51,2.64,27.14,7.25,39.9a14.1,14.1,0,0,0,4.23,6.58c2.09,1.62,5.22,2.13,7.39.6a7.82,7.82,0,0,0,2.62-4c3.05-8.84-.58-19.56,4.55-27.38,4.09,5.19,3.07,12.55,2.73,19.15C608.3,81.44,610,92,611.73,102.38c.79,4.82,1.6,9.69,3.46,14.21,3.8,9.18,11.71,16.13,20.4,21a21.64,21.64,0,0,1,5.3,3.56c3.26,3.39,3.85,9,7.82,11.56,3.08,2,7.24,1.17,10.21-1V7.48Z"/><rect class="cls-1" x="10.38" y="248.83" width="127.75" height="279.43" rx="5.09" ry="5.09"/><path class="cls-4" d="M657,232.23H23.67s-12.79,1.49-14,10.71S-2.51,249.63.53,257.6s16.52,5.53,16.52,5.53H657Z"/><path class="cls-4" d="M501.13,219.52s-24.53-4.73-24.82-20.56,8.34-37.08,20-23.74c0,0-5.46.81-3.68,4.65,2.37,5.14,18.77,4.07,18.94.15s-4.89-5.22-4.89-5.22-13-18.6-25.44-9.47-16.88,28.56-17.35,33.54c-.36,3.88-4.67,20.15-7.44,20.64S501.13,219.52,501.13,219.52Z"/><path class="cls-4" d="M450,219.74s-5-4.76-3.75-8.51,1.75,1.25,5.25,0-1.3-9.23-3.75-9.75-9.29-.84-10.65-.42c-1.73.54-8,9-3.34,9,4,0,4.06-2.6,4.44.57s-5.44,5.8-5.44,5.8Z"/><path class="cls-4" d="M501.19,220.18s5-4.76,3.75-8.51-1.75,1.25-5.25,0,1.3-9.23,3.75-9.75,9.29-.84,10.65-.42c1.73.54,8,9,3.34,9-4,0-4.06-2.6-4.44.57s5.44,5.8,5.44,5.8Z"/><path class="cls-8" d="M569.62,236.5c10.44-9,9.95-21.54,0-24.81s-32.12,5.71-91.32,5.55-69.3-11.91-79.9-4.9,5.54,24.15,5.54,24.15Z"/><rect class="cls-2" x="93.88" y="242.94" width="636.24" height="279.43" rx="11.37" ry="11.37"/><rect class="cls-9" x="117.26" y="277.24" width="308.97" height="93.8" rx="11.35" ry="11.35"/><rect class="cls-1" x="125.82" y="277.24" width="300.41" height="93.8" rx="11.19" ry="11.19"/><rect class="cls-9" x="446.56" y="277.24" width="238.85" height="206.51" rx="11.35" ry="11.35"/><rect class="cls-9" x="117.26" y="388.55" width="308.97" height="90.66" rx="11.35" ry="11.35"/><rect class="cls-1" x="125.82" y="388.55" width="300.41" height="90.66" rx="11.19" ry="11.19"/><rect class="cls-1" x="453.85" y="277.24" width="238.85" height="206.51" rx="11.35" ry="11.35"/><circle class="cls-5" cx="492.6" cy="341.22" r="14.65"/><circle class="cls-5" cx="492.6" cy="407.82" r="14.65"/><rect class="cls-4" x="485.99" y="341.22" width="13.62" height="66.6" rx="6.81" ry="6.81"/><circle class="cls-5" cx="302.64" cy="434.53" r="14.65"/><circle class="cls-5" cx="236.03" cy="434.53" r="14.65"/><rect class="cls-4" x="262.53" y="401.42" width="13.62" height="66.6" rx="6.81" ry="6.81" transform="translate(704.06 165.38) rotate(90)"/><circle class="cls-5" cx="302.64" cy="322.62" r="14.65"/><circle class="cls-5" cx="236.03" cy="322.62" r="14.65"/><rect class="cls-4" x="262.53" y="289.52" width="13.62" height="66.6" rx="6.81" ry="6.81" transform="translate(592.15 53.48) rotate(90)"/><path class="cls-10" d="M733.84,232.23H100.5s-12.79,1.49-14,10.71-12.18,6.69-9.13,14.65,16.52,5.53,16.52,5.53h640Z"/></g></g></svg>