<svg xmlns="http://www.w3.org/2000/svg" xmlns:xlink="http://www.w3.org/1999/xlink" viewBox="0 0 1415 682.91"><defs><style>.cls-1{fill:url(#linear-gradient);}.cls-2{fill:url(#radial-gradient);}.cls-3{fill:#fffcc5;}.cls-4{fill:url(#linear-gradient-2);}</style><linearGradient id="linear-gradient" x1="547.08" y1="787.61" x2="1167.25" y2="241.74" gradientUnits="userSpaceOnUse"><stop offset="0" stop-color="#8e8c80"/><stop offset="1" stop-color="#9aa5a5"/></linearGradient><radialGradient id="radial-gradient" cx="1235.11" cy="182.72" r="100.11" gradientTransform="matrix(0.93, -0.03, 0.05, 1.93, 82.32, -124.45)" gradientUnits="userSpaceOnUse"><stop offset="0" stop-color="#ffffc9"/><stop offset="1" stop-color="#9aa5a5"/></radialGradient><linearGradient id="linear-gradient-2" x1="1103.43" y1="424.7" x2="1166.7" y2="141.98" gradientUnits="userSpaceOnUse"><stop offset="0" stop-color="#737c7c" stop-opacity="0"/><stop offset="1" stop-color="#ffffb3"/></linearGradient></defs><title>caveinteriorscene-ground</title><g id="Layer_2" data-name="Layer 2"><g id="Layer_2-2" data-name="Layer 2"><path class="cls-1" d="M1415,184.91s-260,62-329,90-104,57-360,43-427.58,64.59-468,93c-101,71-130,122-163,143s-95,56-95,56v73H1415Z"/></g><g id="Layer_4" data-name="Layer 4"><path class="cls-2" d="M1183.38,244.07v-.2c-5.25-93.08-9.24-142.92,33.62-207.56,14.27-21.51,36.47-30.17,59.75-32.15C1166.2-22.27,1144.64,83,1139.64,157.39c-2.18,32.48-1.59,63.17,1.6,101Z"/><path class="cls-3" d="M1285.57,6.48c-3-.87-5.95-1.63-8.83-2.32-23.28,2-45.49,10.64-59.75,32.15-42.86,64.64-38.86,114.48-33.62,207.56V244l186,5.63C1377.32,154.39,1370.82,31.21,1285.57,6.48Z"/><polygon class="cls-4" points="1183.5 243.41 884.5 380.41 1318.5 478.41 1371.5 249.41 1183.5 243.41"/></g></g></svg>