<svg xmlns="http://www.w3.org/2000/svg" xmlns:xlink="http://www.w3.org/1999/xlink" viewBox="0 0 1381.1 400"><defs><style>.cls-1{fill:url(#linear-gradient);}.cls-2{fill:#757572;}</style><linearGradient id="linear-gradient" x1="-110.01" y1="614.89" x2="1295.64" y2="-112.13" gradientUnits="userSpaceOnUse"><stop offset="0" stop-color="#99884e"/><stop offset="1" stop-color="#9cb779"/></linearGradient></defs><title>forestscene-ground</title><g id="Layer_2" data-name="Layer 2"><g id="Layer_4" data-name="Layer 4"><path class="cls-1" d="M1352,400H0V16.71s343.25-37.6,676,0,676,0,676,0Z"/><path class="cls-2" d="M1373.93,119.77l-48.78-1.15c-6.26-.15-13.84-3.45-16.83-7.33l-5.66-7.34c-3-3.88-.33-6.94,5.93-6.79l48.78,1.15c6.26.15,13.84,3.45,16.83,7.33l5.66,7.34C1382.86,116.87,1380.19,119.92,1373.93,119.77Z"/><path class="cls-2" d="M1330.18,168l-48.78-1.15c-6.26-.15-13.84-3.45-16.83-7.33l-5.66-7.34c-3-3.88-.33-6.94,5.93-6.79l48.78,1.15c6.26.15,13.84,3.45,16.83,7.33l5.66,7.34C1339.11,165.09,1336.44,168.14,1330.18,168Z"/><path class="cls-2" d="M1249.72,166.09l-48.78-1.15c-6.26-.15-13.84-3.45-16.83-7.33l-5.66-7.34c-3-3.88-.33-6.94,5.93-6.79l48.78,1.15c6.26.15,13.84,3.45,16.83,7.33l5.66,7.34C1258.65,163.18,1256,166.24,1249.72,166.09Z"/><path class="cls-2" d="M1168.46,164.17,1119.67,163c-6.26-.15-13.84-3.45-16.83-7.33l-5.66-7.34c-3-3.88-.33-6.94,5.93-6.79l48.78,1.15c6.26.15,13.84,3.45,16.83,7.33l5.66,7.34C1177.39,161.26,1174.72,164.31,1168.46,164.17Z"/><path class="cls-2" d="M1347.74,142.65l-48.51-1.15c-6.23-.15-13.81-3.25-16.84-6.9l-5.74-6.9c-3-3.65-.43-6.51,5.8-6.37l48.51,1.15c6.23.15,13.81,3.25,16.84,6.9l5.74,6.9C1356.58,139.93,1354,142.8,1347.74,142.65Z"/><path class="cls-2" d="M1267.73,140.76l-48.51-1.15c-6.23-.15-13.81-3.25-16.84-6.9l-5.74-6.9c-3-3.65-.43-6.51,5.8-6.37l48.51,1.15c6.23.15,13.81,3.25,16.84,6.9l5.74,6.9C1276.57,138,1274,140.9,1267.73,140.76Z"/><path class="cls-2" d="M1186.93,138.84l-48.51-1.15c-6.23-.15-13.81-3.25-16.84-6.9l-5.74-6.9c-3-3.65-.43-6.51,5.8-6.37l48.51,1.15c6.23.15,13.81,3.25,16.84,6.9l5.74,6.9C1195.76,136.12,1193.16,139,1186.93,138.84Z"/><path class="cls-2" d="M1286.09,115.78l-48.51-1.15c-6.23-.15-13.81-3.25-16.84-6.9l-5.74-6.9c-3-3.65-.43-6.51,5.8-6.37l48.51,1.15c6.23.15,13.81,3.25,16.84,6.9l5.74,6.9C1294.92,113.06,1292.32,115.93,1286.09,115.78Z"/><path class="cls-2" d="M1042.15,163.06l-48.51-1.15c-6.23-.15-13.81-3.25-16.84-6.9l-5.74-6.9c-3-3.65-.43-6.51,5.8-6.37l48.51,1.15c6.23.15,13.81,3.25,16.84,6.9l5.74,6.9C1051,160.34,1048.38,163.21,1042.15,163.06Z"/><path class="cls-2" d="M1121.22,109.15,1072.71,108c-6.23-.15-13.81-3.25-16.84-6.9l-5.74-6.9c-3-3.65-.43-6.51,5.8-6.37L1104.43,89c6.23.15,13.81,3.25,16.84,6.9l5.74,6.9C1130.05,106.43,1127.45,109.29,1121.22,109.15Z"/><path class="cls-2" d="M1032,133.42l-45.6-1.08c-5.85-.14-13.05-2.78-16-5.88l-5.57-5.85c-2.95-3.09-.57-5.51,5.28-5.37l45.6,1.08c5.85.14,13.05,2.78,16,5.88l5.57,5.85C1040.25,131.14,1037.87,133.56,1032,133.42Z"/><path class="cls-2" d="M1111.42,135.3l-45.6-1.08c-5.85-.14-13.05-2.78-16-5.88l-5.57-5.85c-2.95-3.09-.57-5.51,5.28-5.37l45.6,1.08c5.85.14,13.05,2.78,16,5.88l5.57,5.85C1119.65,133,1117.27,135.44,1111.42,135.3Z"/><path class="cls-2" d="M1044.75,110.19l-45.6-1.08c-5.85-.14-13.05-2.78-16-5.88l-5.57-5.85c-2.95-3.09-.57-5.51,5.28-5.37l45.6,1.08c5.85.14,13.05,2.78,16,5.88l5.57,5.85C1053,107.91,1050.6,110.33,1044.75,110.19Z"/><path class="cls-2" d="M967.93,109.84l-48.51-1.15c-6.23-.15-13.81-3.25-16.84-6.9l-5.74-6.9c-3-3.65-.43-6.51,5.8-6.37l48.51,1.15c6.23.15,13.81,3.25,16.84,6.9l5.74,6.9C976.76,107.12,974.16,110,967.93,109.84Z"/><path class="cls-2" d="M892.42,106.3l-45.6-1.08c-5.85-.14-13.05-2.78-16-5.88l-5.57-5.85c-2.95-3.09-.57-5.51,5.28-5.37l45.6,1.08c5.85.14,13.05,2.78,16,5.88l5.57,5.85C900.65,104,898.27,106.44,892.42,106.3Z"/><path class="cls-2" d="M956.93,135.84l-48.51-1.15c-6.23-.15-13.81-3.25-16.84-6.9l-5.74-6.9c-3-3.65-.43-6.51,5.8-6.37l48.51,1.15c6.23.15,13.81,3.25,16.84,6.9l5.74,6.9C965.76,133.12,963.16,136,956.93,135.84Z"/><path class="cls-2" d="M881.42,132.3l-45.6-1.08c-5.85-.14-13.05-2.78-16-5.88l-5.57-5.85c-2.95-3.09-.57-5.51,5.28-5.37l45.6,1.08c5.85.14,13.05,2.78,16,5.88l5.57,5.85C889.65,130,887.27,132.44,881.42,132.3Z"/><path class="cls-2" d="M957.93,163.84l-48.51-1.15c-6.23-.15-13.81-3.25-16.84-6.9l-5.74-6.9c-3-3.65-.43-6.51,5.8-6.37l48.51,1.15c6.23.15,13.81,3.25,16.84,6.9l5.74,6.9C966.76,161.12,964.16,164,957.93,163.84Z"/><path class="cls-2" d="M882.42,160.3l-45.6-1.08c-5.85-.14-13.05-2.78-16-5.88l-5.57-5.85c-2.95-3.09-.57-5.51,5.28-5.37l45.6,1.08c5.85.14,13.05,2.78,16,5.88l5.57,5.85C890.65,158,888.27,160.44,882.42,160.3Z"/><path class="cls-2" d="M812.93,102.84l-48.51-1.15c-6.23-.15-13.81-3.25-16.84-6.9l-5.74-6.9c-3-3.65-.43-6.51,5.8-6.37l48.51,1.15c6.23.15,13.81,3.25,16.84,6.9l5.74,6.9C821.76,100.12,819.16,103,812.93,102.84Z"/><path class="cls-2" d="M737.42,99.3l-45.6-1.08c-5.85-.14-13.05-2.78-16-5.88l-5.57-5.85c-2.95-3.09-.57-5.51,5.28-5.37l45.6,1.08c5.85.14,13.05,2.78,16,5.88l5.57,5.85C745.65,97,743.27,99.44,737.42,99.3Z"/><path class="cls-2" d="M730.42,126.3l-45.6-1.08c-5.85-.14-13.05-2.78-16-5.88l-5.57-5.85c-2.95-3.09-.57-5.51,5.28-5.37l45.6,1.08c5.85.14,13.05,2.78,16,5.88l5.57,5.85C738.65,124,736.27,126.44,730.42,126.3Z"/><path class="cls-2" d="M805.93,160.84l-48.51-1.15c-6.23-.15-13.81-3.25-16.84-6.9l-5.74-6.9c-3-3.65-.43-6.51,5.8-6.37l48.51,1.15c6.23.15,13.81,3.25,16.84,6.9l5.74,6.9C814.76,158.12,812.16,161,805.93,160.84Z"/><path class="cls-2" d="M730.42,157.3l-45.6-1.08c-5.85-.14-13.05-2.78-16-5.88l-5.57-5.85c-2.95-3.09-.57-5.51,5.28-5.37l45.6,1.08c5.85.14,13.05,2.78,16,5.88l5.57,5.85C738.65,155,736.27,157.44,730.42,157.3Z"/><path class="cls-2" d="M655.42,124.3l-45.6-1.08c-5.85-.14-13.05-2.78-16-5.88l-5.57-5.85c-2.95-3.09-.57-5.51,5.28-5.37l45.6,1.08c5.85.14,13.05,2.78,16,5.88l5.57,5.85C663.65,122,661.27,124.44,655.42,124.3Z"/></g></g></svg>