<svg xmlns="http://www.w3.org/2000/svg" xmlns:xlink="http://www.w3.org/1999/xlink" viewBox="0 0 459.22 353.69"><defs><style>.cls-1{fill:#fbe3ce;}.cls-2{fill:#736558;}.cls-3{fill:#706954;}.cls-4{fill:url(#linear-gradient);}.cls-5{fill:#998675;}.cls-6{fill:#999;}.cls-7{fill:url(#linear-gradient-2);}.cls-8{fill:#e1e1e1;}.cls-9{fill:#a8a8a8;}</style><linearGradient id="linear-gradient" x1="33.17" y1="212.49" x2="189.61" y2="303.33" gradientTransform="translate(384.39 142.52) rotate(90)" gradientUnits="userSpaceOnUse"><stop offset="0" stop-color="#fff"/><stop offset="1"/></linearGradient><linearGradient id="linear-gradient-2" x1="244.66" y1="221.12" x2="438.96" y2="310.28" gradientTransform="translate(605.64 -75.41) rotate(90)" xlink:href="#linear-gradient"/></defs><title>house-exterior</title><g id="Layer_2" data-name="Layer 2"><g id="Layer_6" data-name="Layer 6"><path class="cls-1" d="M60.39,221V352.67H403V221.27C327.77,221.76,146.77,222.7,60.39,221Z"/><path class="cls-2" d="M457.11,201.22a51.77,51.77,0,0,0-3.17-5.5c-4.07,11.35-20.51,11.35-20.51,11.35l-30.42,0c-73.63.06-261.35.21-342.62.11-20.68,0-34.47-.07-37.74-.13-10.61-.21-16.39-4.51-19.45-8.37-4.44,6.9-7,16.85,11.49,20.2,5.2.94,21.85,1.61,45.7,2.09,86.38,1.71,267.37.77,342.62.28C424.15,221.13,437,221,437,221S467.37,222.44,457.11,201.22Z"/><rect class="cls-3" x="72.05" y="233.13" width="97.77" height="60.64" rx="3.85" ry="3.85"/><rect class="cls-4" x="97.02" y="220.98" width="47.83" height="84.95" rx="2.87" ry="2.87" transform="translate(-142.52 384.39) rotate(-90)"/><rect class="cls-3" x="170.57" y="254.63" width="122.27" height="75.84" rx="4.81" ry="4.81" transform="translate(524.26 60.85) rotate(90)"/><rect class="cls-5" x="201.8" y="239.43" width="59.81" height="106.24" rx="3.59" ry="3.59"/><circle class="cls-6" cx="211.89" cy="301.1" r="7.95"/><rect class="cls-3" x="291.64" y="234.79" width="97.77" height="60.64" rx="3.85" ry="3.85"/><rect class="cls-7" x="316.62" y="222.64" width="47.83" height="84.95" rx="2.87" ry="2.87" transform="translate(75.41 605.64) rotate(-90)"/><path class="cls-8" d="M345.28,41.59H301.09V79.15c15.9-.19,31.9-.46,44.19-.84Z"/><path class="cls-5" d="M403,90.18c4.58-16-16.29-16.61-37.15-13.09-2.95.5-10.52.9-20.59,1.22-12.29.39-28.29.66-44.19.84-31.85.37-63.24.41-63.24.41s-152.78,0-164.45-4.24S45.81,79.21,46.52,96.9s-17,75-37.49,94.78a40.88,40.88,0,0,0-5.83,7c3.06,3.86,8.84,8.16,19.45,8.37,3.26.06,17.06.11,37.74.13,81.27.1,269,0,342.62-.11l30.42,0s16.44,0,20.51-11.35C439.13,172.87,396.51,131.52,403,90.18Z"/><rect class="cls-9" x="295.78" width="54.78" height="41.59" rx="4.48" ry="4.48"/><rect class="cls-9" x="57.27" y="327.44" width="37.47" height="26.25" rx="4.89" ry="4.89"/><rect class="cls-8" x="57.27" y="327.44" width="29.69" height="18.24" rx="4.89" ry="4.89"/><rect class="cls-9" x="94.74" y="327.44" width="37.47" height="26.25" rx="4.89" ry="4.89"/><rect class="cls-8" x="94.74" y="327.44" width="29.69" height="18.24" rx="4.89" ry="4.89"/><rect class="cls-9" x="132.22" y="330.65" width="32.48" height="22.76" rx="4.24" ry="4.24"/><rect class="cls-8" x="132.22" y="330.65" width="25.73" height="15.81" rx="4.24" ry="4.24"/><rect class="cls-9" x="59.77" y="302.17" width="32.48" height="22.76" rx="4.24" ry="4.24"/><rect class="cls-8" x="59.77" y="302.17" width="25.73" height="15.81" rx="4.24" ry="4.24"/><rect class="cls-9" x="369.01" y="327.44" width="37.47" height="26.25" rx="4.89" ry="4.89"/><rect class="cls-8" x="369.01" y="327.44" width="29.69" height="18.24" rx="4.89" ry="4.89"/><rect class="cls-9" x="384.81" y="305.46" width="19.85" height="18.45" rx="2.98" ry="2.98"/><rect class="cls-8" x="384.81" y="305.46" width="15.73" height="12.82" rx="2.98" ry="2.98"/><rect class="cls-9" x="335.44" y="335.24" width="33.57" height="18.45" rx="3.88" ry="3.88"/><rect class="cls-8" x="335.44" y="335.24" width="26.6" height="12.82" rx="3.88" ry="3.88"/></g></g></svg>