<svg xmlns="http://www.w3.org/2000/svg" xmlns:xlink="http://www.w3.org/1999/xlink" viewBox="0 0 1613.27 421.74"><defs><style>.cls-1{fill:url(#linear-gradient);}.cls-2{fill:#737c7c;}.cls-3{fill:url(#linear-gradient-2);}.cls-4,.cls-5,.cls-6,.cls-7{fill:#757572;}.cls-5{opacity:0.82;}.cls-6{opacity:0.69;}.cls-7{opacity:0.45;}</style><linearGradient id="linear-gradient" x1="1634.41" y1="-139.03" x2="-128.73" y2="615.65" gradientUnits="userSpaceOnUse"><stop offset="0" stop-color="#9cb779"/><stop offset="0.39" stop-color="#d4d9d5"/><stop offset="1" stop-color="#d7dbdb"/></linearGradient><linearGradient id="linear-gradient-2" y1="141.54" x2="645.94" y2="141.54" gradientUnits="userSpaceOnUse"><stop offset="0" stop-color="#9aa5a5"/><stop offset="0.82" stop-color="#d7dbdb"/></linearGradient></defs><title>houseexteriorscene-ground</title><g id="Layer_2" data-name="Layer 2"><g id="Layer_11" data-name="Layer 11"><path class="cls-1" d="M0,8.83S735.53-15.69,1031.38,17s547.56,52.83,581.89,47.66V421.74H0Z"/><path class="cls-2" d="M518.07,59.52C314.39,27.76.4,50.37.4,50.37L.33,81.7C68.58,73.8,319.23,47.34,518.07,59.52Z"/><path class="cls-3" d="M518.07,59.52C319.23,47.34,68.58,73.8.33,81.7L0,226.72c22.85-7.43,540.56-44.12,645.94-39.11Z"/><path class="cls-4" d="M992.23,29.4,967.59,27c-3.16-.31-6.52-2.76-7.46-5.44l-1.78-5.06c-.94-2.68.88-4.61,4-4.3L987,14.6c3.16.31,6.52,2.76,7.46,5.44l1.78,5.06C997.21,27.78,995.4,29.71,992.23,29.4Z"/><path class="cls-4" d="M954,26.29l-24.67-2.13c-3.17-.27-6.55-2.68-7.53-5.34l-1.84-5c-1-2.67.82-4.62,4-4.35l24.67,2.13c3.17.27,6.55,2.68,7.53,5.34l1.84,5C958.91,24.6,957.12,26.56,954,26.29Z"/><path class="cls-5" d="M988.67,47.65l-29-2.5c-3.72-.32-7.7-3.15-8.85-6.28l-2.17-5.92c-1.15-3.13,1-5.43,4.68-5.11l29,2.5c3.72.32,7.7,3.15,8.85,6.28l2.17,5.92C994.49,45.67,992.39,48,988.67,47.65Z"/><path class="cls-5" d="M1034,51.53,1005,49c-3.72-.32-7.7-3.15-8.85-6.28L994,36.83c-1.15-3.13,1-5.43,4.68-5.11l29,2.5c3.72.32,7.7,3.15,8.85,6.28l2.17,5.92C1039.82,49.56,1037.71,51.86,1034,51.53Z"/><path class="cls-5" d="M940.1,44.19l-21.49-2c-2.76-.26-5.56-3.16-6.23-6.45l-1.26-6.21c-.67-3.29,1-5.76,3.8-5.5l21.49,2c2.76.26,5.56,3.16,6.23,6.45l1.26,6.21C944.57,42,942.86,44.45,940.1,44.19Z"/><path class="cls-6" d="M966,69l-29-2.5c-3.72-.32-7.7-3.15-8.85-6.28L926,54.32c-1.15-3.13,1-5.43,4.68-5.11l29,2.5c3.72.32,7.7,3.15,8.85,6.28l2.17,5.92C971.83,67,969.73,69.34,966,69Z"/><path class="cls-6" d="M1029.34,71.67l-29-2.5c-3.72-.32-7.7-3.15-8.85-6.28L989.32,57c-1.15-3.13,1-5.43,4.68-5.11l29,2.5c3.72.32,7.7,3.15,8.85,6.28l2.17,5.92C1035.17,69.69,1033.06,72,1029.34,71.67Z"/><path class="cls-7" d="M1012.18,97.31,976.3,95.87c-4.6-.18-9.55-3.37-11-7.07l-2.71-7c-1.44-3.7,1.16-6.58,5.76-6.4l35.88,1.44c4.6.18,9.55,3.37,11,7.07l2.71,7C1019.37,94.61,1016.78,97.49,1012.18,97.31Z"/></g></g></svg>