<svg xmlns="http://www.w3.org/2000/svg" viewBox="0 0 592.55 742.57"><defs><style>.cls-1{fill:#649081;}.cls-2{fill:#d46d64;}.cls-3{font-size:128.83px;fill:#424242;font-family:Quicksand-Regular, Quicksand;letter-spacing:0em;}.cls-4{letter-spacing:0em;}.cls-5{letter-spacing:0em;}.cls-6{letter-spacing:0em;}</style></defs><title>berriton_logo</title><g id="Layer_2" data-name="Layer 2"><g id="Layer_1-2" data-name="Layer 1"><path class="cls-1" d="M357.65,28.8s-63.18,12.7-85.34,62.57c-18.26,41.08.81,85.83,8.14,100.4-33-62.35-51-127.34-45.63-191.77L181.11,2.85c13.07,76.62,50,144,101.95,193.79,0,0,56.59-15.57,78.78-65.49S357.65,28.8,357.65,28.8Z"/><path class="cls-2" d="M592.55,366.53a98.79,98.79,0,0,0-72.76-95.29A98.76,98.76,0,0,0,364.59,159.11c-28.77,39.67-74.92,52.79-77.17,53.41l-9,2.48-6.75-6.47A357.17,357.17,0,0,1,230.18,161,98.78,98.78,0,0,0,72.76,271.23a98.78,98.78,0,0,0,0,190.58,99.25,99.25,0,0,0-6.92,36.53c0,42,26.22,77.3,63.19,92.3H262.51l4.7-6.84c-5.64-9.39-10.38-19.87-10.38-27.66-33.78-5.23-60.9-42.86-60.9-77.59,0-21.35.45-65.11,2.94-101.77-7,.37-14.93-1.38-16.89-5.3s-2.87-16.34-1.89-25.37a5.66,5.66,0,0,1-1.94-1.27l-1.35-1.35a5.73,5.73,0,0,1,0-8.07l3.81-3.81a5.72,5.72,0,0,1,8.07,0l1.33,1.35a4.57,4.57,0,0,1,.59,1c4.17-.84,8.42-.94,12.42.69h0a104.44,104.44,0,0,1,3.06-11.26c10.13-29,33.08-54.11,76.74-58l-1.51-10.51a10.83,10.83,0,0,1,9.11-12.25l7.9-1.17a10.82,10.82,0,0,1,12.25,9.09l1.93,15.75C354.46,273.25,383,305.68,383,367.19v78.89c4-5.59,9.34-9.39,16.13-9.39a18,18,0,0,1,18,17.84A17.72,17.72,0,0,1,387.83,468c9.38,27.8-6.78,60.17-48.36,79-12.37,17.6-18,25.36-18,25.36.28,6.36.41,12.26.26,18.26H463.52c37-15,63.19-50.29,63.19-92.3a98.87,98.87,0,0,0-6.92-36.46A98.88,98.88,0,0,0,592.55,366.53Z"/><text class="cls-3" transform="translate(58.13 714.74)">B<tspan class="cls-4" x="83.74" y="0">erri</tspan><tspan class="cls-5" x="282.13" y="0">t</tspan><tspan class="cls-6" x="325.16" y="0">on</tspan></text></g></g></svg>