<?xml version="1.0" encoding="utf-8"?>
<!-- Generator: Adobe Illustrator 21.1.0, SVG Export Plug-In . SVG Version: 6.00 Build 0)  -->
<svg version="1.1" id="Layer_1" xmlns="http://www.w3.org/2000/svg" xmlns:xlink="http://www.w3.org/1999/xlink" x="0px" y="0px"
	 viewBox="0 0 592.5 742.6" style="enable-background:new 0 0 592.5 742.6;" xml:space="preserve">
<style type="text/css">
	.st0{fill:#649081;}
	.st1{fill:#D46D64;}
	.st2{fill:#424242;}
</style>
<title>berriton_logo</title>
<path class="st0" d="M357.6,28.8c0,0-63.2,12.7-85.3,62.6c-18.3,41.1,0.8,85.8,8.1,100.4c-33-62.4-51-127.3-45.6-191.8l-53.7,2.9
	c13.1,76.6,50,144,101.9,193.8c0,0,56.6-15.6,78.8-65.5S357.6,28.8,357.6,28.8z"/>
<path class="st1" d="M592.5,366.5c0-44.5-29.8-83.6-72.8-95.3c20.1-50.7-4.7-108.1-55.4-128.2c-33.7-13.4-72-7.2-99.8,16.1
	c-28.8,39.7-74.9,52.8-77.2,53.4l-9,2.5l-6.8-6.5c-15.2-14.6-29.1-30.5-41.5-47.5c-40.8-36.2-103.2-32.5-139.4,8.3
	C66,197.2,59,236.6,72.8,271.2c-52.6,14.4-83.6,68.7-69.3,121.3c9.2,33.7,35.5,60.1,69.3,69.3c-4.6,11.6-6.9,24-6.9,36.5
	c0,42,26.2,77.3,63.2,92.3h133.5l4.7-6.8c-5.6-9.4-10.4-19.9-10.4-27.7c-33.8-5.2-60.9-42.9-60.9-77.6c0-21.4,0.4-65.1,2.9-101.8
	c-7,0.4-14.9-1.4-16.9-5.3s-2.9-16.3-1.9-25.4c-0.7-0.3-1.4-0.7-1.9-1.3l-1.4-1.4c-2.2-2.2-2.2-5.8,0-8.1l3.8-3.8
	c2.2-2.2,5.8-2.2,8.1,0l1.3,1.4c0.2,0.3,0.4,0.6,0.6,1c4.2-0.8,8.4-0.9,12.4,0.7l0,0c0.8-3.8,1.8-7.6,3.1-11.3
	c10.1-29,33.1-54.1,76.7-58l-1.5-10.5c-0.8-5.9,3.2-11.4,9.1-12.2l7.9-1.2c5.9-0.9,11.4,3.2,12.2,9.1l1.9,15.8
	c42,6.9,70.5,39.4,70.5,100.9v78.9c4-5.6,9.3-9.4,16.1-9.4c9.9,0,17.9,8,18,17.8c0,9.8-7.9,17.7-17.7,17.8c-4.3,0-8.4-1.5-11.6-4.3
	c9.4,27.8-6.8,60.2-48.4,79c-12.4,17.6-18,25.4-18,25.4c0.3,6.4,0.4,12.3,0.3,18.3h141.8c37-15,63.2-50.3,63.2-92.3
	c0-12.5-2.3-24.9-6.9-36.5C562.7,450.1,592.5,411.1,592.5,366.5z"/>
<path class="st2" d="M131,674.5c3.3,3.9,4.9,8.9,4.9,15.1c0,8.4-2.6,14.7-7.8,18.9c-5.2,4.2-11.7,6.2-19.4,6.2H74.1
	c-1.1,0-2-0.4-2.8-1.1c-0.7-0.7-1.1-1.7-1.1-2.8v-82.5c0-1.1,0.4-2,1.1-2.8c0.7-0.7,1.7-1.1,2.8-1.1h34.1c7.2,0,12.9,2,16.9,5.9
	c4.1,4,6.1,9.4,6.1,16.2c0,4.6-1.1,8.6-3.3,12.2c-2.2,3.6-5.4,6.2-9.5,7.9C123.6,668.1,127.8,670.7,131,674.5z M118.9,636.2
	c-2.8-2.7-6.7-4.1-11.7-4.1H78.5v32.2h28.7c4.6-0.1,8.4-1.6,11.4-4.5c3-2.9,4.4-7.1,4.4-12.5C123.1,642.6,121.7,638.9,118.9,636.2z
	 M122.4,702.8c3.6-2.9,5.3-7.3,5.3-13.1c0-6-1.8-10.4-5.5-13.3c-3.7-2.8-8.4-4.3-14.1-4.3H78.5v35h29.9
	C114.1,707.1,118.8,705.7,122.4,702.8z"/>
<path class="st2" d="M206.5,680.7c-0.8,0.7-1.7,1.1-2.7,1.1h-48.7c0,5.2,1.1,9.8,3.2,13.8c2.1,4.1,5.1,7.3,9,9.7
	c3.9,2.4,8.5,3.5,13.8,3.5c4.1,0,7.8-0.9,11.1-2.6c3.3-1.7,5.9-3.9,7.9-6.6c0.9-0.8,1.8-1.2,2.7-1.2c0.9,0,1.6,0.3,2.3,1
	c0.7,0.7,1,1.5,1,2.3c0,0.9-0.4,1.8-1.3,2.7c-2.8,3.3-6.2,6.1-10.4,8.2c-4.2,2.1-8.6,3.2-13.2,3.2c-6.6,0-12.5-1.4-17.5-4.3
	c-5.1-2.8-9-6.8-11.9-11.9c-2.8-5.1-4.3-11-4.3-17.7c0-7,1.4-13.2,4.2-18.5c2.8-5.3,6.5-9.3,11.1-12.1c4.6-2.8,9.6-4.2,14.8-4.2
	c5.2,0,10,1.2,14.5,3.6c4.5,2.4,8.2,5.9,11,10.6c2.8,4.6,4.3,10.1,4.4,16.5C207.7,679.1,207.3,679.9,206.5,680.7z M164,660
	c-4.3,3.4-7,8.4-8.2,14.8h43.9v-1c-0.4-3.9-1.7-7.2-3.9-10.1c-2.1-2.9-4.8-5.1-8.1-6.6c-3.2-1.5-6.5-2.3-10-2.3
	C172.8,654.8,168.2,656.6,164,660z"/>
<path class="st2" d="M259.1,648.4c1.4,0.7,2.1,1.7,2.1,3.1c0,1.2-0.3,2.2-1,2.9c-0.7,0.7-1.5,1.1-2.4,1.1c-0.4,0-1.3-0.2-2.5-0.6
	c-1.2-0.4-2.4-0.6-3.5-0.6c-3.2,0-6.3,1.2-9.5,3.7c-3.1,2.4-5.7,5.6-7.7,9.5c-2,3.9-3,7.8-3,11.7v31.8c0,1.1-0.4,2-1.1,2.8
	c-0.7,0.7-1.7,1.1-2.8,1.1c-1.1,0-2-0.4-2.8-1.1c-0.7-0.7-1.1-1.7-1.1-2.8v-57.7c0-1.1,0.4-2,1.1-2.8c0.7-0.7,1.7-1.1,2.8-1.1
	c1.1,0,2,0.4,2.8,1.1c0.7,0.7,1.1,1.7,1.1,2.8v11.3c2-4.9,5-9,9-12.2c4-3.2,8.7-4.9,14.1-5C256.2,647.4,257.7,647.7,259.1,648.4z"/>
<path class="st2" d="M308.7,648.4c1.4,0.7,2.1,1.7,2.1,3.1c0,1.2-0.3,2.2-1,2.9c-0.7,0.7-1.5,1.1-2.4,1.1c-0.4,0-1.3-0.2-2.5-0.6
	c-1.2-0.4-2.4-0.6-3.5-0.6c-3.2,0-6.3,1.2-9.5,3.7c-3.1,2.4-5.7,5.6-7.7,9.5c-2,3.9-3,7.8-3,11.7v31.8c0,1.1-0.4,2-1.1,2.8
	c-0.7,0.7-1.7,1.1-2.8,1.1c-1.1,0-2-0.4-2.8-1.1c-0.7-0.7-1.1-1.7-1.1-2.8v-57.7c0-1.1,0.4-2,1.1-2.8c0.7-0.7,1.7-1.1,2.8-1.1
	c1.1,0,2,0.4,2.8,1.1c0.7,0.7,1.1,1.7,1.1,2.8v11.3c2-4.9,5-9,9-12.2c4-3.2,8.7-4.9,14.1-5C305.8,647.4,307.3,647.7,308.7,648.4z"/>
<path class="st2" d="M322.5,637.9c-0.9-0.8-1.4-2-1.4-3.5v-1.3c0-1.5,0.5-2.7,1.5-3.5c1-0.8,2.3-1.2,4.1-1.2c3.4,0,5.2,1.6,5.2,4.8
	v1.3c0,1.5-0.5,2.7-1.4,3.5c-0.9,0.8-2.2,1.2-3.9,1.2C324.8,639.1,323.4,638.7,322.5,637.9z M329.3,713.6c-0.7,0.7-1.7,1.1-2.8,1.1
	c-1.1,0-2-0.4-2.8-1.1c-0.7-0.7-1.1-1.7-1.1-2.8v-59.3c0-1.1,0.4-2,1.1-2.8c0.7-0.7,1.7-1.1,2.8-1.1c1.1,0,2,0.4,2.8,1.1
	c0.7,0.7,1.1,1.7,1.1,2.8v59.3C330.3,712,330,712.9,329.3,713.6z"/>
<path class="st2" d="M363.3,656.4v43.2c0,3.3,0.6,5.5,1.8,6.6c1.2,1.2,2.8,1.7,4.8,1.7c0.5,0,1.2-0.1,1.9-0.3
	c0.8-0.2,1.4-0.3,1.8-0.3c0.8,0,1.4,0.3,2,1c0.6,0.6,0.8,1.4,0.8,2.3c0,1.2-0.7,2.2-2.1,3c-1.4,0.8-3,1.2-4.9,1.2
	c-2.3,0-4.4-0.2-6.2-0.6c-1.8-0.4-3.5-1.7-5.2-3.9c-1.7-2.1-2.5-5.6-2.5-10.3v-43.5h-9.4c-1,0-1.9-0.3-2.6-1
	c-0.7-0.7-1.1-1.5-1.1-2.6c0-1,0.4-1.9,1.1-2.6c0.7-0.7,1.6-1,2.6-1h9.4v-14.3c0-1.1,0.4-2,1.1-2.8c0.7-0.7,1.7-1.1,2.8-1.1
	c1.1,0,2,0.4,2.8,1.1c0.7,0.7,1.1,1.7,1.1,2.8v14.3h12.9c0.9,0,1.8,0.4,2.5,1.2c0.7,0.8,1.1,1.6,1.1,2.6c0,1-0.3,1.9-1,2.5
	c-0.7,0.6-1.5,1-2.6,1H363.3z"/>
<path class="st2" d="M450,699.3c-2.8,5.2-6.7,9.3-11.7,12.3c-5,3-10.5,4.4-16.6,4.4c-6.1,0-11.6-1.5-16.6-4.4
	c-5-3-8.9-7.1-11.7-12.3c-2.8-5.2-4.3-11.1-4.3-17.5s1.4-12.3,4.3-17.5c2.8-5.2,6.7-9.4,11.7-12.4c5-3,10.5-4.5,16.6-4.5
	c6.1,0,11.6,1.5,16.6,4.5c5,3,8.9,7.1,11.7,12.4c2.8,5.2,4.3,11.1,4.3,17.5S452.9,694,450,699.3z M443.3,667.8
	c-2.1-4.1-5.1-7.4-9-9.7c-3.8-2.4-8.1-3.5-12.7-3.5c-4.6,0-8.8,1.2-12.6,3.5c-3.8,2.4-6.8,5.6-9,9.7c-2.2,4.1-3.3,8.8-3.3,13.9
	c0,5.1,1.1,9.7,3.3,13.8c2.2,4.1,5.2,7.4,9,9.7c3.8,2.4,8,3.5,12.6,3.5c4.6,0,8.9-1.2,12.7-3.5c3.8-2.3,6.8-5.5,9-9.7
	c2.1-4.1,3.2-8.8,3.2-13.9S445.5,672,443.3,667.8z"/>
<path class="st2" d="M518.8,654.4c3.7,4.7,5.6,10.9,5.6,18.6v37.9c0,1.1-0.4,2-1.2,2.8c-0.8,0.7-1.7,1.1-2.7,1.1
	c-1.1,0-2-0.4-2.8-1.1c-0.7-0.7-1.1-1.7-1.1-2.8v-37.5c0-5.6-1.4-10.1-4.2-13.6c-2.8-3.5-7.1-5.2-12.9-5.2c-3.7,0-7.2,0.9-10.5,2.6
	c-3.3,1.7-6,4-8.1,6.9c-2.1,2.9-3.1,6-3.1,9.3v37.5c0,1.1-0.4,2-1.1,2.8c-0.7,0.7-1.7,1.1-2.8,1.1c-1.1,0-2-0.4-2.8-1.1
	c-0.7-0.7-1.1-1.7-1.1-2.8v-57.7c0-1.1,0.4-2,1.1-2.8c0.7-0.7,1.7-1.1,2.8-1.1c1.1,0,2,0.4,2.8,1.1c0.7,0.7,1.1,1.7,1.1,2.8v7.1
	c2.3-3.7,5.6-6.8,10-9.2c4.3-2.4,8.8-3.7,13.3-3.7C509.2,647.4,515,649.7,518.8,654.4z"/>
</svg>
