<svg xmlns="http://www.w3.org/2000/svg" viewBox="0 0 133.16 159.56"><defs><style>.cls-1{fill:#649081;}.cls-2{fill:#d46d64;}</style></defs><title>hud-berry</title><g id="Layer_2" data-name="Layer 2"><g id="Layer_6" data-name="Layer 6"><path class="cls-1" d="M88.07,8.83S68.7,12.73,61.9,28c-5.6,12.6.25,26.33,2.5,30.79C54.27,39.7,48.76,19.76,50.4,0L33.93.87A107.18,107.18,0,0,0,65.2,60.32s17.36-4.78,24.16-20.09S88.07,8.83,88.07,8.83Z"/><path class="cls-2" d="M133.16,92.16a22.16,22.16,0,0,0-16.68-21.47A22.15,22.15,0,0,0,89.3,40.35c-6.84,15.21-24.1,20-24.1,20A104.71,104.71,0,0,1,52.46,45.56a22.15,22.15,0,0,0-35.9,24.52A22.16,22.16,0,0,0,16.77,113a22.15,22.15,0,0,0,28.38,29.77,22.15,22.15,0,0,0,42.89.36,22.15,22.15,0,0,0,27.75-29.36A22.16,22.16,0,0,0,133.16,92.16Z"/><path class="cls-2" d="M61.39,46.58l0-.09h0Z"/></g></g></svg>