<svg xmlns="http://www.w3.org/2000/svg" viewBox="0 0 638.86 491.8"><defs><style>.cls-1{fill:#9aa5a5;}.cls-2{fill:#565d5d;}.cls-3{fill:#737c7c;}</style></defs><title>background-peak3</title><g id="Layer_2" data-name="Layer 2"><g id="Layer_8" data-name="Layer 8"><path class="cls-1" d="M82.9,223.72s184.95-177.59,296.28-207c0,0,39.57-18.4,58-16.56S600,170.35,618.41,231.08,646,462.42,632.22,477,24.93,500.68,6.53,478.6,7.14,291.09,82.9,223.72Z"/><path class="cls-2" d="M391,61.6a9.73,9.73,0,0,0,19.34,0,11.06,11.06,0,0,1,.15,1.77c0,5.75-4.4,10.42-9.82,10.42s-9.82-4.66-9.82-10.42A11.06,11.06,0,0,1,391,61.6Z"/><path class="cls-3" d="M400.67,70.25A10,10,0,0,1,391,61.6a9.73,9.73,0,0,1,19.34,0A10,10,0,0,1,400.67,70.25Z"/><path class="cls-2" d="M447.58,61.6a11.06,11.06,0,0,1,.15-1.77,9.73,9.73,0,0,0,19.34,0,11.06,11.06,0,0,1,.15,1.77c0,5.75-4.4,10.42-9.82,10.42S447.58,67.36,447.58,61.6Z"/><path class="cls-3" d="M457.4,68.47a10,10,0,0,1-9.67-8.64,9.73,9.73,0,0,1,19.34,0A10,10,0,0,1,457.4,68.47Z"/><path class="cls-2" d="M429.67,96.53a20.39,20.39,0,0,0,10.11-2.68,22.64,22.64,0,0,0,10.7-14.55V79a3.47,3.47,0,0,0-.31-1.43,3.35,3.35,0,0,1,2,3.1V81a22.64,22.64,0,0,1-10.7,14.55,20.4,20.4,0,0,1-20.22,0,21.57,21.57,0,0,1-5.3-4.26,21.28,21.28,0,0,0,3.6,2.58A20.39,20.39,0,0,0,429.67,96.53Z"/><path class="cls-3" d="M413.63,77.35H449a3,3,0,0,1,1.14.23,3.47,3.47,0,0,1,.31,1.43v.29a22.64,22.64,0,0,1-10.7,14.55,20.4,20.4,0,0,1-20.22,0,21.28,21.28,0,0,1-3.6-2.58,23.31,23.31,0,0,1-5.46-10.59A3.25,3.25,0,0,1,413.63,77.35Z"/></g></g></svg>