<svg xmlns="http://www.w3.org/2000/svg" viewBox="0 0 263.81 402.02"><defs><style>.cls-1{fill:#c2c9c9;}.cls-2{fill:#737c7c;}.cls-3{fill:#9aa5a5;}</style></defs><title>background-peak4</title><g id="Layer_2" data-name="Layer 2"><g id="Layer_8" data-name="Layer 8"><path class="cls-1" d="M.84,179.71C1.54,133.85,31.21,28.81,68,4s96.61,73.61,126.06,112.26,95.69,235,58.89,255.07S76.3,420.5,34,386.14.84,179.71.84,179.71Z"/><path class="cls-2" d="M106.75,31.32A5.49,5.49,0,0,1,96,32.57a5.49,5.49,0,1,0,10.74-1.25Z"/><path class="cls-3" d="M101.91,36.47a5.49,5.49,0,0,0,4.84-5.15A5.49,5.49,0,0,0,96,32.57,5.49,5.49,0,0,0,101.91,36.47Z"/><path class="cls-2" d="M75.32,35a5.5,5.5,0,0,0-.19-.92,5.49,5.49,0,0,1-10.74,1.25A5.49,5.49,0,1,0,75.32,35Z"/><path class="cls-3" d="M70.29,39.21a5.49,5.49,0,0,0,4.84-5.15,5.49,5.49,0,0,0-10.74,1.25A5.49,5.49,0,0,0,70.29,39.21Z"/><path class="cls-2" d="M87.4,52.11a12,12,0,0,1-12.61-7.68l0-.15a1.74,1.74,0,0,1,.08-.77,1.76,1.76,0,0,0-.92,1.75l0,.15a12,12,0,0,0,20.75,3,11.91,11.91,0,0,1-7.29,3.64Z"/><path class="cls-3" d="M95.14,41,75.48,43.31a1.74,1.74,0,0,0-.62.19,1.74,1.74,0,0,0-.08.77l0,.15a12,12,0,0,0,19.91,4,12.06,12.06,0,0,0,2.39-5.9A1.76,1.76,0,0,0,95.14,41Z"/></g></g></svg>