<svg xmlns="http://www.w3.org/2000/svg" viewBox="0 0 514.46 287.81"><defs><style>.cls-1{fill:#9aa5a5;}.cls-2{fill:#565d5d;}.cls-3{fill:#737c7c;}</style></defs><title>background-peak1</title><g id="Layer_2" data-name="Layer 2"><g id="Layer_8" data-name="Layer 8"><path class="cls-1" d="M0,257.25C2.76,255.41,134.34,83.35,160.1,41.94S208.87-5.91,219,4.21s254.88,160.1,293.52,243.84S0,257.25,0,257.25Z"/><path class="cls-2" d="M218.24,26a4.51,4.51,0,0,1-8.89,0,4.52,4.52,0,1,0,8.89,0Z"/><path class="cls-3" d="M213.79,29.71A4.52,4.52,0,0,0,218.24,26a4.51,4.51,0,0,0-8.89,0A4.52,4.52,0,0,0,213.79,29.71Z"/><path class="cls-2" d="M192.22,26a4.54,4.54,0,0,0-.07-.77,4.51,4.51,0,0,1-8.89,0,4.51,4.51,0,1,0,9,.77Z"/><path class="cls-3" d="M187.71,28.94a4.52,4.52,0,0,0,4.45-3.75,4.51,4.51,0,0,0-8.89,0A4.52,4.52,0,0,0,187.71,28.94Z"/><path class="cls-2" d="M200.46,41.12a9.86,9.86,0,0,1-9.57-7.48v-.13a1.44,1.44,0,0,1,.14-.62,1.45,1.45,0,0,0-.92,1.35v.13a9.84,9.84,0,0,0,16.65,4.47,9.78,9.78,0,0,1-6.3,2.29Z"/><path class="cls-3" d="M207.83,32.79H191.55a1.43,1.43,0,0,0-.52.1,1.44,1.44,0,0,0-.14.62v.13A9.86,9.86,0,0,0,205.11,40a9.79,9.79,0,0,0,1.66-1.12,9.94,9.94,0,0,0,2.51-4.6A1.45,1.45,0,0,0,207.83,32.79Z"/></g></g></svg>