<svg xmlns="http://www.w3.org/2000/svg" viewBox="0 0 654.62 425.57"><defs><style>.cls-1{fill:#c2c9c9;}.cls-2{fill:#737c7c;}.cls-3{fill:#9aa5a5;}</style></defs><title>background-peak2</title><g id="Layer_2" data-name="Layer 2"><g id="Layer_8" data-name="Layer 8"><path class="cls-1" d="M92.93,216.46S354.25,51.76,384.62,25.07s43.25-39.57,75.45,0S634.89,263.39,654.21,360.92,0,426.25,0,389.45,56,239.83,92.93,216.46Z"/><path class="cls-2" d="M438,74.17a10.41,10.41,0,0,1-20.51,0,10.42,10.42,0,1,0,20.51,0Z"/><path class="cls-3" d="M427.77,82.81A10.41,10.41,0,0,0,438,74.17a10.41,10.41,0,0,0-20.51,0A10.41,10.41,0,0,0,427.77,82.81Z"/><path class="cls-2" d="M378,74.17a10.44,10.44,0,0,0-.16-1.77,10.41,10.41,0,0,1-20.51,0A10.41,10.41,0,1,0,378,74.17Z"/><path class="cls-3" d="M367.59,81a10.41,10.41,0,0,0,10.26-8.64,10.41,10.41,0,0,0-20.51,0A10.41,10.41,0,0,0,367.59,81Z"/><path class="cls-2" d="M397,109.09a22.75,22.75,0,0,1-22.08-17.24v-.29a3.3,3.3,0,0,1,.32-1.43,3.34,3.34,0,0,0-2.12,3.1v.29a22.72,22.72,0,0,0,38.42,10.3A22.59,22.59,0,0,1,397,109.09Z"/><path class="cls-3" d="M414,89.91H376.46a3.3,3.3,0,0,0-1.21.23,3.3,3.3,0,0,0-.32,1.43v.29a22.72,22.72,0,0,0,36.63,12,22.88,22.88,0,0,0,5.79-10.59A3.34,3.34,0,0,0,414,89.91Z"/></g></g></svg>