<svg xmlns="http://www.w3.org/2000/svg" viewBox="0 0 567.73 220.11"><defs><style>.cls-1{fill:#62683e;}</style></defs><title>bg-treeline-light</title><g id="Layer_2" data-name="Layer 2"><g id="Layer_5" data-name="Layer 5"><path class="cls-1" d="M537.65,68.34H511.29a43.23,43.23,0,0,0,1.37-10.83V48c0-20.13-13.66-36.6-30.36-36.6H444.65c-15.62,0-28.57,14.41-30.18,32.74h-8.28c0-15.91-10.8-28.93-24-28.93H363.58c-13.2,0-24,13-24,28.93h0a34,34,0,0,0,1.35,9.53H312.45A20.94,20.94,0,0,0,301.24,57h-2.48a43.23,43.23,0,0,0,1.37-10.83V36.6c0-20.13-13.66-36.6-30.36-36.6H232.13c-15.62,0-28.57,14.41-30.19,32.74h-8.28c0-15.91-10.8-28.93-24-28.93H151.06c-13.2,0-24,13-24,28.93a34,34,0,0,0,1.35,9.53H99.93C87,42.28,76.3,54.61,75.58,70H38.35C17.26,70,0,90.83,0,116.26v13c0,25.43,17.26,46.24,38.35,46.24H61.63C63,194,76,208.73,91.73,208.73h37.91c13,0,24.23-10.1,28.44-24.14h24.19c13.41,0,24.39-13.23,24.39-29.41v-7.84a21.66,21.66,0,0,0,6.71,2.88,50.14,50.14,0,0,0,9.18,21.48c5.39,10.11,14.79,16.84,25.44,16.84h26.33c2,17.76,14.69,31.56,29.94,31.56h37.91c13,0,24.23-10.1,28.44-24.14h24.19c13.41,0,24.39-13.23,24.39-29.41v-7.84a21,21,0,0,0,11.1,3.42v1.33c0,20,13.6,36.44,30.22,36.44h37.91c16.62,0,30.22-16.4,30.22-36.44v-9.86c0-.85,0-1.7-.08-2.54h9.09c16.55,0,30.09-16.32,30.09-36.27V104.62C567.73,84.67,554.2,68.34,537.65,68.34Z"/></g></g></svg>