<svg xmlns="http://www.w3.org/2000/svg" viewBox="0 0 323.8 247.02"><defs><style>.cls-1{fill:#adb494;}.cls-2{fill:#99a179;}.cls-3{fill:#808958;}</style></defs><title>big-bush</title><g id="Layer_2" data-name="Layer 2"><g id="Layer_10" data-name="Layer 10"><path class="cls-1" d="M106.54,72.13a18.17,18.17,0,0,1-2.59-9.33h0a18.4,18.4,0,0,1,18.35-18.35h15.86A18.4,18.4,0,0,1,156.5,62.8h0a18.17,18.17,0,0,1-2.59,9.33H187a16.33,16.33,0,0,1-1.31-6.41h0a16.53,16.53,0,0,1,16.48-16.48H226.4a16.53,16.53,0,0,1,16.48,16.48h0a16.3,16.3,0,0,1-1.48,6.78,26.63,26.63,0,0,1,22.17,26.17v6.27h1.38a26.4,26.4,0,0,1,17.28,6.45,26.29,26.29,0,0,0,3.42-13V95.48A26.62,26.62,0,0,0,260.6,69V55.35A26.63,26.63,0,0,0,238.47,29.2V26.53A26.61,26.61,0,0,0,211.94,0H117.61A26.61,26.61,0,0,0,91.08,26.53V29.2A26.68,26.68,0,0,0,72.25,42.57a26.62,26.62,0,0,0-15.32,24v.08a26.33,26.33,0,0,0,.6,5.57c.83-.08,1.67-.12,2.52-.12Z"/><path class="cls-2" d="M282.22,111.38a26.4,26.4,0,0,0-17.28-6.45h-1.38V98.66a26.63,26.63,0,0,0-22.17-26.17,16.3,16.3,0,0,0,1.48-6.78A16.53,16.53,0,0,0,226.4,49.23H202.14a16.53,16.53,0,0,0-16.48,16.48A16.33,16.33,0,0,0,187,72.13H153.91a18.17,18.17,0,0,0,2.59-9.33,18.4,18.4,0,0,0-18.35-18.35H122.29A18.4,18.4,0,0,0,103.95,62.8a18.17,18.17,0,0,0,2.59,9.33H60.06c-.85,0-1.69,0-2.52.12a26.62,26.62,0,0,0-24,26.41v30l.94,0H78.93a34.58,34.58,0,0,1,34.47,34.47v6.32a34.16,34.16,0,0,1-1.73,10.74h34.07a26.28,26.28,0,0,1,11-2.42H207.2v-5.23a39.2,39.2,0,0,1,39.06-39.06h38.48a38.86,38.86,0,0,1,6.73.6v-2.59A26.49,26.49,0,0,0,282.22,111.38ZM102.41,123.43a13.54,13.54,0,0,1,0-27.08h28a13.54,13.54,0,1,1,0,27.08Zm83.11,28.07H166.89a9.05,9.05,0,0,1-9-8.26c0-.25,0-.51,0-.77h0a9.05,9.05,0,0,1,9-9h18.64a9.05,9.05,0,0,1,9,9h0c0,.26,0,.52,0,.77A9.05,9.05,0,0,1,185.53,151.51Z"/><path class="cls-3" d="M185.53,133.45H166.89a9.05,9.05,0,0,0-9,9h0c0,.26,0,.52,0,.77a9.05,9.05,0,0,0,9,8.26h18.64a9.05,9.05,0,0,0,9-8.26c0-.25,0-.51,0-.77h0A9.05,9.05,0,0,0,185.53,133.45Z"/><path class="cls-3" d="M102.41,123.43h28a13.54,13.54,0,1,0,0-27.08h-28a13.54,13.54,0,0,0,0,27.08Z"/><path class="cls-3" d="M291.48,134.05a38.86,38.86,0,0,0-6.73-.6H246.26a39.2,39.2,0,0,0-39.06,39.06v5.23H156.76a26.28,26.28,0,0,0-11,2.42H111.66a34.16,34.16,0,0,0,1.73-10.74v-6.32a34.58,34.58,0,0,0-34.47-34.47H34.47l-.94,0A34.57,34.57,0,0,0,0,163.12v6.32A34.57,34.57,0,0,0,34.47,203.9H57.34v4.65A22.52,22.52,0,0,0,79.79,231h52.62a26.62,26.62,0,0,0,24.34,16H210.5a26.58,26.58,0,0,0,22.81-13h10.55A16.22,16.22,0,0,0,259.44,222h25.3A39.18,39.18,0,0,0,323.8,183V172.51A39.2,39.2,0,0,0,291.48,134.05Z"/></g></g></svg>