<svg xmlns="http://www.w3.org/2000/svg" viewBox="0 0 443.6 236.63"><defs><style>.cls-1{fill:#fff;}</style></defs><title>cloud</title><g id="Layer_2" data-name="Layer 2"><g id="Layer_6" data-name="Layer 6"><path class="cls-1" d="M390.94,101.39H375.63A63.83,63.83,0,0,0,312,37.74H276.36A37.85,37.85,0,0,0,238.62,0H162.93a37.85,37.85,0,0,0-37.74,37.74h0a37.47,37.47,0,0,0,1.22,9.49h-22.7A49.71,49.71,0,0,0,54.15,96.79h0c0,1.55.08,3.08.22,4.59H52.66A52.81,52.81,0,0,0,0,154H0A52.81,52.81,0,0,0,52.66,206.7h73.23a52.82,52.82,0,0,0,47.46,29.92H279a52.82,52.82,0,0,0,47.46-29.92h64.52A52.81,52.81,0,0,0,443.6,154h0A52.81,52.81,0,0,0,390.94,101.39Z"/></g></g></svg>