<svg xmlns="http://www.w3.org/2000/svg" xmlns:xlink="http://www.w3.org/1999/xlink" viewBox="0 0 1136 281.95"><defs><style>.cls-1{fill:url(#linear-gradient);}.cls-2{fill:#757572;}</style><linearGradient id="linear-gradient" x1="669.71" y1="322.62" x2="400.4" y2="-142.77" gradientUnits="userSpaceOnUse"><stop offset="0" stop-color="#9cb779"/><stop offset="1" stop-color="#73704f"/></linearGradient></defs><title>pathscene-ground</title><g id="Layer_2" data-name="Layer 2"><g id="Layer_7" data-name="Layer 7"><path class="cls-1" d="M1136,282H0V11.78s288.41-26.5,568,0,568,0,568,0Z"/><path class="cls-2" d="M849.23,273.79h-45.7c-5.87,0-13.75-3.93-17.52-8.74L778.88,256c-3.77-4.81-2.06-8.74,3.81-8.74h45.7c5.87,0,13.75,3.93,17.52,8.74L853,265C856.81,269.85,855.09,273.79,849.23,273.79Z"/><path class="cls-2" d="M778.24,272.69h-45.7c-5.87,0-13.75-3.93-17.52-8.74l-7.13-9.08c-3.77-4.81-2.06-8.74,3.81-8.74h45.7c5.87,0,13.75,3.93,17.52,8.74L782,264C785.82,268.76,784.11,272.69,778.24,272.69Z"/><path class="cls-2" d="M707.27,272.69h-45.7c-5.87,0-13.75-3.93-17.52-8.74l-7.13-9.08c-3.77-4.81-2.06-8.74,3.81-8.74h45.7c5.87,0,13.75,3.93,17.52,8.74l7.13,9.08C714.85,268.76,713.13,272.69,707.27,272.69Z"/><path class="cls-2" d="M634.36,271.13h-45.7c-5.87,0-13.75-3.93-17.52-8.74L564,253.31c-3.77-4.81-2.06-8.74,3.81-8.74h45.7c5.87,0,13.75,3.93,17.52,8.74l7.13,9.08C641.93,267.2,640.22,271.13,634.36,271.13Z"/><path class="cls-2" d="M784.24,243.6h-45.7c-5.87,0-13.75-3.93-17.52-8.74l-7.13-9.08c-3.77-4.81-2.06-8.74,3.81-8.74h45.7c5.87,0,13.75,3.93,17.52,8.74l7.13,9.08C791.82,239.67,790.1,243.6,784.24,243.6Z"/><path class="cls-2" d="M713.26,243.6h-45.7c-5.87,0-13.75-3.93-17.52-8.74l-7.13-9.08c-3.77-4.81-2.06-8.74,3.81-8.74h45.7c5.87,0,13.75,3.93,17.52,8.74l7.13,9.08C720.84,239.67,719.13,243.6,713.26,243.6Z"/><path class="cls-2" d="M640.35,242h-45.7c-5.87,0-13.75-3.93-17.52-8.74L570,224.22c-3.77-4.81-2.06-8.74,3.81-8.74h45.7c5.87,0,13.75,3.93,17.52,8.74l7.13,9.08C647.93,238.11,646.22,242,640.35,242Z"/><path class="cls-2" d="M797.18,214.62H753.55c-5.6,0-13.13-3.31-16.73-7.36L730,199.61c-3.6-4-2-7.36,3.64-7.36h43.64c5.6,0,13.13,3.31,16.73,7.36l6.81,7.65C804.42,211.31,802.79,214.62,797.18,214.62Z"/><path class="cls-2" d="M729.4,213.7H685.76c-5.6,0-13.13-3.31-16.73-7.36l-6.81-7.65c-3.6-4-2-7.36,3.64-7.36H709.5c5.6,0,13.13,3.31,16.73,7.36l6.81,7.65C736.64,210.39,735,213.7,729.4,213.7Z"/><path class="cls-2" d="M661.63,213.7H618c-5.6,0-13.13-3.31-16.73-7.36l-6.81-7.65c-3.6-4-2-7.36,3.64-7.36h43.64c5.6,0,13.13,3.31,16.73,7.36l6.81,7.65C668.87,210.39,667.23,213.7,661.63,213.7Z"/><path class="cls-2" d="M592,212.38H548.37c-5.6,0-13.13-3.31-16.73-7.36l-6.81-7.65c-3.6-4-2-7.36,3.64-7.36h43.64c5.6,0,13.13,3.31,16.73,7.36l6.81,7.65C599.25,209.07,597.61,212.38,592,212.38Z"/><path class="cls-2" d="M742.3,189.4H698.87c-5.58,0-13.07-3.48-16.65-7.73l-6.77-8c-3.58-4.25-2-7.73,3.62-7.73h43.44c5.58,0,13.07,3.48,16.65,7.73l6.77,8C749.51,185.92,747.88,189.4,742.3,189.4Z"/><path class="cls-2" d="M674.84,189.4H631.41c-5.58,0-13.07-3.48-16.65-7.73l-6.77-8c-3.58-4.25-2-7.73,3.62-7.73H655c5.58,0,13.07,3.48,16.65,7.73l6.77,8C682,185.92,680.42,189.4,674.84,189.4Z"/><path class="cls-2" d="M605.54,188H562.11c-5.58,0-13.07-3.48-16.65-7.73l-6.77-8c-3.58-4.25-2-7.73,3.62-7.73h43.44c5.58,0,13.07,3.48,16.65,7.73l6.77,8C612.75,184.54,611.12,188,605.54,188Z"/><path class="cls-2" d="M738.76,162.47H695.13c-5.6,0-13.13-3.31-16.73-7.36l-6.81-7.65c-3.6-4-2-7.36,3.64-7.36h43.64c5.6,0,13.13,3.31,16.73,7.36l6.81,7.65C746,159.16,744.36,162.47,738.76,162.47Z"/><path class="cls-2" d="M671,161.55H627.34c-5.6,0-13.13-3.31-16.73-7.36l-6.81-7.65c-3.6-4-2-7.36,3.64-7.36h43.64c5.6,0,13.13,3.31,16.73,7.36l6.81,7.65C678.22,158.24,676.58,161.55,671,161.55Z"/><path class="cls-2" d="M603.21,161.55H559.57c-5.6,0-13.13-3.31-16.73-7.36L536,146.54c-3.6-4-2-7.36,3.64-7.36h43.64c5.6,0,13.13,3.31,16.73,7.36l6.81,7.65C610.45,158.24,608.81,161.55,603.21,161.55Z"/><path class="cls-2" d="M533.59,160.24H490c-5.6,0-13.13-3.31-16.73-7.36l-6.81-7.65c-3.6-4-2-7.36,3.64-7.36h43.64c5.6,0,13.13,3.31,16.73,7.36l6.81,7.65C540.83,156.92,539.19,160.24,533.59,160.24Z"/><path class="cls-2" d="M536.33,187H492.69c-5.6,0-13.13-3.31-16.73-7.36L469.15,172c-3.6-4-2-7.36,3.64-7.36h43.64c5.6,0,13.13,3.31,16.73,7.36l6.81,7.65C543.57,183.65,541.93,187,536.33,187Z"/><path class="cls-2" d="M739,137H697.48c-5.33,0-12.49-2.89-15.92-6.42l-6.48-6.67c-3.43-3.53-1.87-6.42,3.46-6.42h41.52c5.33,0,12.49,2.89,15.92,6.42l6.48,6.67C745.89,134.14,744.34,137,739,137Z"/><path class="cls-2" d="M674.51,136.22H633c-5.33,0-12.49-2.89-15.92-6.42l-6.48-6.67c-3.43-3.53-1.87-6.42,3.46-6.42h41.52c5.33,0,12.49,2.89,15.92,6.42L678,129.8C681.4,133.33,679.84,136.22,674.51,136.22Z"/><path class="cls-2" d="M553.24,136.16H511.72c-5.33,0-12.49-2.89-15.92-6.42l-6.48-6.67c-3.43-3.53-1.87-6.42,3.46-6.42h41.52c5.33,0,12.49,2.89,15.92,6.42l6.48,6.67C560.13,133.27,558.57,136.16,553.24,136.16Z"/><path class="cls-2" d="M488.75,135.35H447.23c-5.33,0-12.49-2.89-15.92-6.42l-6.48-6.67c-3.43-3.53-1.87-6.42,3.46-6.42h41.52c5.33,0,12.49,2.89,15.92,6.42l6.48,6.67C495.63,132.46,494.08,135.35,488.75,135.35Z"/><path class="cls-2" d="M464.69,158.81H423.17c-5.33,0-12.49-2.89-15.92-6.42l-6.48-6.67c-3.43-3.53-1.87-6.42,3.46-6.42h41.52c5.33,0,12.49,2.89,15.92,6.42l6.48,6.67C471.58,155.92,470,158.81,464.69,158.81Z"/><path class="cls-2" d="M420.07,135.89H378.55c-5.33,0-12.49-2.89-15.92-6.42l-6.48-6.67c-3.43-3.53-1.87-6.42,3.46-6.42h41.52c5.33,0,12.49,2.89,15.92,6.42l6.48,6.67C427,133,425.4,135.89,420.07,135.89Z"/><path class="cls-2" d="M396,159.35H354.5c-5.33,0-12.49-2.89-15.92-6.42l-6.48-6.67c-3.43-3.53-1.87-6.42,3.46-6.42h41.52c5.33,0,12.49,2.89,15.92,6.42l6.48,6.67C402.9,156.46,401.35,159.35,396,159.35Z"/><path class="cls-2" d="M464.42,187H420.79c-5.6,0-13.13-3.31-16.73-7.36L397.25,172c-3.6-4-2-7.36,3.64-7.36h43.64c5.6,0,13.13,3.31,16.73,7.36l6.81,7.65C471.66,183.65,470,187,464.42,187Z"/><path class="cls-2" d="M353.38,135.35H311.86c-5.33,0-12.49-2.89-15.92-6.42l-6.48-6.67c-3.43-3.53-1.87-6.42,3.46-6.42h41.52c5.33,0,12.49,2.89,15.92,6.42l6.48,6.67C360.26,132.46,358.71,135.35,353.38,135.35Z"/><path class="cls-2" d="M326.45,112.73H284.93c-5.33,0-12.49-2.78-15.92-6.18l-6.48-6.42c-3.43-3.4-1.87-6.18,3.46-6.18h41.52c5.33,0,12.49,2.78,15.92,6.18l6.48,6.42C333.33,109.95,331.78,112.73,326.45,112.73Z"/><path class="cls-2" d="M328.57,159.35H287.05c-5.33,0-12.49-2.89-15.92-6.42l-6.48-6.67c-3.43-3.53-1.87-6.42,3.46-6.42h41.52c5.33,0,12.49,2.89,15.92,6.42l6.48,6.67C335.46,156.46,333.9,159.35,328.57,159.35Z"/><path class="cls-2" d="M285.93,135.35H244.41c-5.33,0-12.49-2.89-15.92-6.42L222,122.26c-3.43-3.53-1.87-6.42,3.46-6.42H267c5.33,0,12.49,2.89,15.92,6.42l6.48,6.67C292.82,132.46,291.26,135.35,285.93,135.35Z"/><path class="cls-2" d="M260.1,111.69H218.58c-5.33,0-12.49-2.73-15.92-6.07l-6.48-6.31c-3.43-3.34-1.87-6.07,3.46-6.07h41.52c5.33,0,12.49,2.73,15.92,6.07l6.48,6.31C267,109,265.43,111.69,260.1,111.69Z"/><path class="cls-2" d="M396.87,112.54h-42.7c-5.48,0-12.85-2.72-16.37-6.05l-6.66-6.29c-3.52-3.33-1.92-6.05,3.56-6.05h42.7c5.48,0,12.85,2.72,16.37,6.05l6.66,6.29C404,109.81,402.35,112.54,396.87,112.54Z"/><path class="cls-2" d="M219.47,134.22H177.95c-5.33,0-12.49-2.89-15.92-6.42l-6.48-6.67c-3.43-3.53-1.87-6.42,3.46-6.42h41.52c5.33,0,12.49,2.89,15.92,6.42l6.48,6.67C226.36,131.33,224.8,134.22,219.47,134.22Z"/><path class="cls-2" d="M193.64,110.62H152.12c-5.33,0-12.49-2.73-15.92-6.07l-6.48-6.31c-3.43-3.34-1.87-6.07,3.46-6.07H174.7c5.33,0,12.49,2.73,15.92,6.07l6.48,6.31C200.53,107.89,199,110.62,193.64,110.62Z"/><path class="cls-2" d="M282.12,90.64H240.6c-5.33,0-12.49-2.54-15.92-5.64l-6.48-5.86c-3.43-3.1-1.87-5.64,3.46-5.64h41.52c5.33,0,12.49,2.54,15.92,5.64L285.58,85C289,88.1,287.45,90.64,282.12,90.64Z"/><path class="cls-2" d="M214.68,89.17H173.16c-5.33,0-12.49-2.89-15.92-6.42l-6.48-6.67c-3.43-3.53-1.87-6.42,3.46-6.42h41.52c5.33,0,12.49,2.89,15.92,6.42l6.48,6.67C221.57,86.28,220,89.17,214.68,89.17Z"/><path class="cls-2" d="M148.22,88H106.7c-5.33,0-12.49-2.89-15.92-6.42L84.3,74.94c-3.43-3.53-1.87-6.42,3.46-6.42h41.52c5.33,0,12.49,2.89,15.92,6.42l6.48,6.67C155.1,85.14,153.55,88,148.22,88Z"/><path class="cls-2" d="M706.76,115.27H665.24c-5.33,0-12.49-2.65-15.92-5.89l-6.48-6.12c-3.43-3.24-1.87-5.89,3.46-5.89h41.52c5.33,0,12.49,2.65,15.92,5.89l6.48,6.12C713.64,112.62,712.09,115.27,706.76,115.27Z"/><path class="cls-2" d="M642.26,114.54H600.74c-5.33,0-12.49-2.65-15.92-5.89l-6.48-6.12c-3.43-3.24-1.87-5.89,3.46-5.89h41.52c5.33,0,12.49,2.65,15.92,5.89l6.48,6.12C649.15,111.89,647.59,114.54,642.26,114.54Z"/><path class="cls-2" d="M658.29,94H619.05c-5,0-11.8-2.65-15-5.89l-6.12-6.12c-3.24-3.24-1.77-5.89,3.27-5.89h39.23c5,0,11.8,2.65,15,5.89l6.12,6.12C664.79,91.3,663.32,94,658.29,94Z"/><path class="cls-2" d="M598.29,93.22H559.06c-5,0-11.8-2.65-15-5.89L537.9,81.2c-3.24-3.24-1.77-5.89,3.27-5.89H580.4c5,0,11.8,2.65,15,5.89l6.12,6.12C604.8,90.57,603.33,93.22,598.29,93.22Z"/><path class="cls-2" d="M718.55,94.81H679.32c-5,0-11.8-2.65-15-5.89l-6.12-6.12c-3.24-3.24-1.77-5.89,3.27-5.89h39.23c5,0,11.8,2.65,15,5.89l6.12,6.12C725.06,92.16,723.59,94.81,718.55,94.81Z"/><path class="cls-2" d="M672.45,73.49H631.78c-5.22,0-12.24-2.2-15.6-4.89l-6.34-5.09c-3.36-2.69-1.83-4.89,3.39-4.89H653.9c5.22,0,12.24,2.2,15.6,4.89l6.34,5.09C679.2,71.29,677.67,73.49,672.45,73.49Z"/><path class="cls-2" d="M610.25,72.88H569.58c-5.22,0-12.24-2.2-15.6-4.89l-6.34-5.09C544.28,60.21,545.8,58,551,58H591.7c5.22,0,12.24,2.2,15.6,4.89L613.64,68C617,70.68,615.47,72.88,610.25,72.88Z"/><path class="cls-2" d="M641.57,57.19l-39.16-1c-5-.13-11.73-2.3-14.9-4.84l-6-4.79c-3.17-2.54-1.65-4.51,3.37-4.38l39.16,1c5,.13,11.73,2.3,14.9,4.84l6,4.79C648.12,55.34,646.6,57.32,641.57,57.19Z"/><path class="cls-2" d="M582.51,55.87H544.87c-4.83,0-11.32-1.83-14.43-4.07l-5.87-4.23c-3.11-2.24-1.7-4.07,3.14-4.07h37.64c4.83,0,11.32,1.83,14.43,4.07l5.87,4.23C588.75,54,587.34,55.87,582.51,55.87Z"/><path class="cls-2" d="M628.28,42.7l-32.4-1.29c-4.16-.16-9.68-2.14-12.27-4.39l-4.89-4.25c-2.59-2.25-1.3-4,2.85-3.79L614,30.26c4.16.16,9.68,2.14,12.27,4.39l4.89,4.25C633.72,41.16,632.44,42.86,628.28,42.7Z"/><path class="cls-2" d="M576.52,39.81H544.09c-4.16,0-9.76-1.76-12.43-3.9l-5.06-4.05c-2.68-2.15-1.46-3.9,2.7-3.9h32.42c4.16,0,9.76,1.76,12.43,3.9l5.06,4.05C581.89,38.06,580.68,39.81,576.52,39.81Z"/><path class="cls-2" d="M573.17,26.34,540.8,24.6c-4.16-.22-9.65-2.28-12.2-4.56l-4.83-4.32c-2.56-2.29-1.25-4,2.91-3.75L559,13.71c4.16.22,9.65,2.28,12.2,4.56l4.83,4.32C578.64,24.88,577.33,26.57,573.17,26.34Z"/><path class="cls-2" d="M621.13,29.29l-30.45-2.8c-3.91-.36-9-2.39-11.36-4.51l-4.42-4c-2.34-2.12-1.06-3.56,2.85-3.2l30.45,2.8c3.91.36,9,2.39,11.36,4.51l4.42,4C626.32,28.21,625,29.65,621.13,29.29Z"/></g></g></svg>