<?xml version="1.0" encoding="utf-8"?>
<!-- Generator: Adobe Illustrator 21.1.0, SVG Export Plug-In . SVG Version: 6.00 Build 0)  -->
<svg version="1.1" id="Layer_1" xmlns="http://www.w3.org/2000/svg" xmlns:xlink="http://www.w3.org/1999/xlink" x="0px" y="0px"
	 viewBox="0 0 824.2 258.8" style="enable-background:new 0 0 824.2 258.8;" xml:space="preserve">
<style type="text/css">
	.st0{fill:#7FAFC0;}
	.st1{fill:#707A7A;}
</style>
<g transform="matrix( 1, 0, 0, 1, 0,0) ">
	<g>
		<g id="Layer0_0_FILL">
			<path class="st0" d="M821.2,117c-0.3-0.4-0.6-0.8-0.8-1.1c-15.3-20-35.8-36.9-61.5-50.7c-33.7-18-71.8-28.6-114.3-31.8
				c-28.8-2.1-68-1.1-117.7,3c-56.8,4.7-96,7-117.8,6.7c-18-0.2-39.4-1.5-63.9-3.9c-28.3-3.1-49.5-5.3-63.6-6.7
				c-52.3-5.3-94.7-5.9-127.1-1.8c-22.6,2.9-42.9,8.1-60.7,15.6c-20.8,8.6-37.8,20.1-51.1,34.5C28,96.5,19.1,115.1,15.8,136.6
				c-0.2,1.1-0.3,2.2-0.5,3.2c-0.1,0.8-0.1,1.6-0.2,2.4c0.1,0.1,0.1,0.2,0.1,0.2c2.9,3.8,6.3,7.6,10,11.4c1.9,2,4,4,6.2,6
				c41.8,38.8,97.7,65.6,167.8,80.3c46,9.7,110.5,15.3,193.4,17c57.7,1.1,99.5,1.6,125.3,1.6c46.6,0,88.3-1.1,125-3.4
				c23-1.4,41.8-3.4,56.2-5.9c20.4-3.5,38.4-8.8,53.8-15.9c17.9-8.3,33-19.3,45.4-33c12.8-14.3,20.9-29.9,24.3-46.7
				c0.2-0.8,0.3-1.7,0.5-2.5c0.9-5.1,1.2-10.1,1.1-15c0-0.5,0-1.1,0-1.6C823.8,128.6,822.8,122.7,821.2,117z"/>
			<path class="st1" d="M768.5,58.3c-2-1.6-4-3.2-6-4.8c-18.1-13.9-39.4-24.9-63.9-33.1C669.2,10.5,636.3,5,599.8,3.8
				c-23.2-0.7-56.3,0.6-99.3,3.8c-45.5,3.4-78.6,5-99.4,4.8c-21-0.2-52.9-2.3-95.6-6.4c-42-3.9-73.8-5.9-95.4-6
				C133-0.4,72.9,17.3,30,53.1C11.4,68.7,1.4,84.5,0.2,100.5C-1,114.6,4,129,15.1,143.5c0.1-0.4,0.1-0.8,0.1-1.1
				c0-0.1,0-0.2-0.1-0.2c0.1-0.8,0.1-1.6,0.2-2.4c0.2-1,0.3-2.1,0.5-3.2c3.3-21.5,12.2-40.1,26.8-55.8
				c13.3-14.4,30.3-25.9,51.1-34.5c17.8-7.5,38.1-12.7,60.7-15.6c32.5-4.1,74.8-3.5,127.1,1.8c14.1,1.4,35.4,3.6,63.6,6.7
				c24.6,2.4,45.9,3.7,63.9,3.9c21.8,0.2,61-2,117.8-6.7c49.7-4.1,88.9-5.1,117.7-3c42.5,3.2,80.6,13.8,114.3,31.8
				c25.7,13.8,46.2,30.7,61.5,50.7c-2-6-4.7-11.8-8.2-17.5c-4.1-6.8-8.7-12.6-13.9-17.2l-0.2-0.1c-2.2-2-4.4-3.7-6.7-5.2L768.5,58.3
				z"/>
		</g>
	</g>
</g>
</svg>
