<svg xmlns="http://www.w3.org/2000/svg" viewBox="0 0 51.64 32.57"><defs><style>.cls-1{fill:#93a062;}.cls-2{fill:#808958;}</style></defs><title>shrub2</title><g id="Layer_2" data-name="Layer 2"><g id="Layer_15" data-name="Layer 15"><path class="cls-1" d="M29.83,5.85,37,6.06A8.35,8.35,0,0,0,29.31.31L19,0a8.35,8.35,0,0,0-8.56,8.08v0A8.26,8.26,0,0,0,11.91,13l6.41.19A12.19,12.19,0,0,1,29.83,5.85Z"/><path class="cls-2" d="M39.84,6.14,37,6.06l-7.15-.21a12.19,12.19,0,0,0-11.51,7.34L11.91,13l-2-.06A9.64,9.64,0,0,0,0,22.27v0a9.64,9.64,0,0,0,9.33,9.89L22,32.57a9.57,9.57,0,0,0,6.62-2.41l.44,0,10,.29A12.19,12.19,0,0,0,51.63,18.69v0A12.19,12.19,0,0,0,39.84,6.14Z"/></g></g></svg>