<svg xmlns="http://www.w3.org/2000/svg" viewBox="0 0 80.7 57.99"><defs><style>.cls-1{fill:#e9c300;}.cls-2{fill:#808958;}</style></defs><title>shrub1</title><g id="Layer_2" data-name="Layer 2"><g id="Layer_15" data-name="Layer 15"><path class="cls-1" d="M64.27,44.61a7.75,7.75,0,0,0,1.24.11h1.09a7.84,7.84,0,0,0,7.81-7.81V35.82A7.84,7.84,0,0,0,66.59,28H65.51a7.75,7.75,0,0,0-1.24.11,7.83,7.83,0,0,0-6.57,7.7v1.09A7.83,7.83,0,0,0,64.27,44.61Z"/><path class="cls-1" d="M66.59,4.92H65.51A7.73,7.73,0,0,0,62,5.77a7.83,7.83,0,0,0-4.29,7v1.09a7.88,7.88,0,0,0,7.81,7.81h1.09a7.85,7.85,0,0,0,7.81-7.81V12.73A7.84,7.84,0,0,0,66.59,4.92Z"/><path class="cls-1" d="M39.43,7.18a14.57,14.57,0,0,0-7.78-2.26h-2a14.74,14.74,0,0,0-14.7,14.7v2a14.6,14.6,0,0,0,.26,2.68,11.56,11.56,0,0,1,7.49,8.19A11.41,11.41,0,0,1,23,34.76a14.55,14.55,0,0,0,6.63,1.61h2A14.49,14.49,0,0,0,38,34.91a14.87,14.87,0,0,0,2.79-1.74,14.68,14.68,0,0,0,5.59-11.5v-2A14.71,14.71,0,0,0,39.43,7.18Z"/><path class="cls-2" d="M72.19,19.25a7.79,7.79,0,0,1-5.6,2.38H65.51a7.77,7.77,0,0,1-2.15-.32l-.21-.06a7.76,7.76,0,0,1-5.45-7.43V12.73a7.83,7.83,0,0,1,4.29-7A13.11,13.11,0,0,0,39.43,7.18a14.71,14.71,0,0,1,6.92,12.44v2a14.68,14.68,0,0,1-5.59,11.5,14.34,14.34,0,0,1-1.26.89l-.2.12c-.43.26-.87.51-1.33.73a14.49,14.49,0,0,1-6.32,1.46h-2A14.55,14.55,0,0,1,23,34.76c0-.37-.05-.73-.1-1.09l0-.11a11.54,11.54,0,0,0-7.69-9.21,11.38,11.38,0,0,0-3.67-.61h0A11.53,11.53,0,0,0,0,35.23v7.21a11.53,11.53,0,0,0,11.5,11.5h0a11.46,11.46,0,0,0,8.3-3.57A12.71,12.71,0,0,0,31.41,58h0a12.66,12.66,0,0,0,9.75-4.61,13.09,13.09,0,0,0,21.67-2.61,10.53,10.53,0,0,0,5.49,1.55h1.74A10.66,10.66,0,0,0,80.7,41.7v-12A10.67,10.67,0,0,0,72.19,19.25Zm2.22,17.66a7.84,7.84,0,0,1-7.81,7.81H65.51a7.75,7.75,0,0,1-1.24-.11,7.83,7.83,0,0,1-6.57-7.7V35.82a7.83,7.83,0,0,1,6.57-7.7A7.75,7.75,0,0,1,65.51,28h1.09a7.84,7.84,0,0,1,7.81,7.81Z"/></g></g></svg>