<svg xmlns="http://www.w3.org/2000/svg" viewBox="0 0 66.84 50.83"><defs><style>.cls-1{fill:#c2c9c9;}.cls-2{fill:#9aa5a5;}</style></defs><title>small-rock</title><g id="Layer_2" data-name="Layer 2"><g id="Layer_10" data-name="Layer 10"><path class="cls-1" d="M2.86,22.25c4.84,2.72,26.6,9.37,32.19,7.1s18.32-11.5,19.65-13.6a12.19,12.19,0,0,0,1.14-2.5l-.45-.94s-2.51-4.19-6.07-5.44S25.66.37,25.66.37,23.41-1.16,19.23,2c0,0-14,9.73-18.09,18.39A4.17,4.17,0,0,0,2.86,22.25Z"/><path class="cls-2" d="M66.28,34.08c-2-3.25-8.64-17.09-10.43-20.83a12.19,12.19,0,0,1-1.14,2.5c-1.32,2.1-14.06,11.34-19.65,13.6S7.7,25,2.86,22.25a4.17,4.17,0,0,1-1.73-1.85A9.19,9.19,0,0,0,.09,25.8c1.6,9.36-.21,13.07,11.06,17.86s26.73,8.86,32.43,6.45L63.14,41S68.58,37.84,66.28,34.08Z"/></g></g></svg>