<svg xmlns="http://www.w3.org/2000/svg" viewBox="0 0 121.33 93.57"><defs><style>.cls-1{fill:#8e8c80;}.cls-2{fill:#75736b;}</style></defs><title>small-rock-brown</title><g id="Layer_2" data-name="Layer 2"><g id="Layer_6" data-name="Layer 6"><path class="cls-1" d="M116.13,41C107.35,46,67.85,58.21,57.7,54S24.43,32.86,22,29A22.6,22.6,0,0,1,20,24.39l.82-1.74s4.56-7.71,11-10S74.75.68,74.75.68s4.09-2.82,11.67,3c0,0,25.36,17.91,32.84,33.86A7.64,7.64,0,0,1,116.13,41Z"/><path class="cls-2" d="M1,62.73c3.61-6,15.69-31.46,18.94-38.34A22.6,22.6,0,0,0,22,29c2.4,3.87,25.51,20.87,35.66,25S107.35,46,116.13,41a7.64,7.64,0,0,0,3.13-3.41c1.63,3.48,2.43,6.87,1.91,10-2.9,17.23.38,24.06-20.08,32.88S52.57,96.69,42.22,92.26L6.73,75.45S-3.15,69.67,1,62.73Z"/></g></g></svg>