<svg xmlns="http://www.w3.org/2000/svg" viewBox="0 0 97.01 376.57"><defs><style>.cls-1{fill:#606060;}.cls-2{fill:#7f7f79;}</style></defs><title>stone-pillar-2</title><g id="Layer_2" data-name="Layer 2"><g id="Layer_10" data-name="Layer 10"><path class="cls-1" d="M60,325.55c-3.48-7.71-9.14-14.62-10.54-23-2.48-14.72,9-29.46,5.46-44-1.2-4.93-4-9.29-5.71-14.08C40.75,220.19,64,193.37,56.2,168.77c-3.77,5.44-14.22,2.35-14.44-4.26-.41-12.75,24.48-10.89,27.45-23.29C72,129.53,52.7,124.76,49.05,113.3c-2-6.14,1.13-12.66,1.4-19.09C51.09,78.58,35.53,62,44.57,49.26,47.33,45.36,51.94,43,54.48,39c1.78-2.84,2.36-6.24,3.2-9.48A56,56,0,0,1,72.31,4.21C51-6.09,25.91,4,8.73,18.67,5.08,21.79,1.52,25.44.39,30.11-1,36,1.74,42.07,4.12,47.68A158.16,158.16,0,0,1,16.69,110.4c0,4.06-.2,8.17.77,12.11,1.66,6.69,6.5,12.27,8,19,1.42,6.33-.27,12.89-1.33,19.29-8,48.31,19.45,97,13.07,145.51-.58,4.42-1.44,8.85-1.08,13.29.95,11.67,10,21.07,13.17,32.35,2.45,8.73,2.06,19.68,9.67,24.62-1.72-4.85,1.61-9.22,4.7-13.73C65.44,350,65.31,337.19,60,325.55Z"/><path class="cls-2" d="M78.22,7.66a43.14,43.14,0,0,0-5.91-3.45A56,56,0,0,0,57.68,29.47c-.84,3.24-1.43,6.64-3.2,9.48-2.53,4.05-7.14,6.41-9.91,10.31-9,12.76,6.52,29.32,5.88,44.95-.26,6.44-3.35,13-1.4,19.09,3.65,11.46,23,16.22,20.17,27.92-3,12.41-27.86,10.54-27.45,23.29.21,6.61,10.67,9.69,14.44,4.26,7.76,24.6-15.45,51.42-6.95,75.77,1.67,4.79,4.52,9.15,5.71,14.08,3.52,14.51-7.93,29.25-5.46,44,1.4,8.34,7.06,15.25,10.54,23,5.26,11.63,5.39,24.45,3.61,37.28a33.25,33.25,0,0,0,3.29-5.63c2.13-5,1.44-10.77,1-16.23a166.72,166.72,0,0,1,5.21-57.65c2.66-9.8,6.25-20,4-29.87-.83-3.59-2.42-7-3.12-10.59a38.72,38.72,0,0,1-.31-9.83c1.15-17.77,5.45-35.16,9-52.61a611.77,611.77,0,0,0,10-70.57,54.18,54.18,0,0,0,0-12.9C92.12,93.58,91,90.35,90.46,87c-2.09-13.19,5.16-26,6.38-39.29A44.83,44.83,0,0,0,78.22,7.66Z"/></g></g></svg>