<svg xmlns="http://www.w3.org/2000/svg" viewBox="0 0 181.51 437.97"><defs><style>.cls-1{fill:#606060;}.cls-2{fill:#7f7f79;}</style></defs><title>stone-pillar-1</title><g id="Layer_2" data-name="Layer 2"><g id="Layer_10" data-name="Layer 10"><path class="cls-1" d="M142.34,206.19c-1.71-8.7-6.45-16.6-7.86-25.35-1-6.08-.32-12.28-.42-18.44a74.33,74.33,0,0,0-12.73-40.26c-8-11.86-19.84-22-22.84-36-3.64-17,7-33.85,19.65-45.77a127,127,0,0,1,37.58-24.46A56,56,0,0,0,151,12.12c-15.85-11.3-36.6-12.6-56-12A389.05,389.05,0,0,0,18,10.38C4.74,13.48,2.15,14.69.5,29a75.16,75.16,0,0,0,4.85,36.6c3.54,8.77,8.74,16.84,11.79,25.79,3.56,10.46,4,21.68,5,32.69C29,202.4,61.83,277.19,64.61,355.8c.38,10.65.2,21.35,1.47,31.93C68.16,405,74,421.58,79.9,438A26.72,26.72,0,0,0,86,427.69C81,409.1,80.79,389,81.9,369.62c1.57-27.37,5.43-55,.77-82-2.65-15.37-8-30.2-10.29-45.63s-1-32.31,8.28-44.83c4.82-6.48,11.46-11.34,18-16.1a15.11,15.11,0,0,1,5.9-3.07c4.51-.83,8.9,2.73,10.6,7a19.71,19.71,0,0,1,1.27,6.55l.12-.38c11.41,6.76,13.57,22.11,14.19,35.36s1.89,28.44,12.6,36.26c.7-2.4,1.36-4.82,2-7.23A33.8,33.8,0,0,1,141.9,243C141.06,230.7,144.71,218.25,142.34,206.19Zm-41.25-52c-.56,2.76-2.32,5.09-4,7.32L85.64,176.35c-1.37,1.79-2.87,3.67-5,4.38-3.62,1.19-7.57-1.67-9-5.22s-.9-7.52-.39-11.3c1.34-10,.43-37.57,11.49-43.17C94.12,115.27,102.86,145.48,101.09,154.15Z"/><path class="cls-2" d="M104.54,177.95a15.11,15.11,0,0,0-5.9,3.07c-6.53,4.76-13.17,9.62-18,16.1-9.31,12.52-10.55,29.4-8.28,44.83S80,272.21,82.67,287.59c4.66,27,.8,54.66-.77,82C80.79,389,81,409.1,86,427.69a70.49,70.49,0,0,0,2.3-8.63c11.84-55.87,2.08-114.46,12.57-170.6,3.62-19.37,9.6-38.2,15.59-57a19.71,19.71,0,0,0-1.27-6.55C113.44,180.68,109.05,177.12,104.54,177.95Z"/><path class="cls-2" d="M172.54,35.65c-5.15-7-10.39-14-16.82-19.74a127,127,0,0,0-37.58,24.46C105.51,52.3,94.85,69.16,98.5,86.15c3,14,14.79,24.13,22.84,36a74.33,74.33,0,0,1,12.73,40.26c.1,6.15-.57,12.36.42,18.44,1.41,8.75,6.15,16.66,7.86,25.35,2.36,12.06-1.28,24.5-.45,36.76a33.8,33.8,0,0,0,3.43,12.54c6-22.23,10-44.94,14-67.61L180,70c1.19-6.77,2.37-13.81.47-20.42C179,44.45,175.75,40,172.54,35.65Z"/><path class="cls-2" d="M82.76,121c-11.06,5.61-10.16,33.21-11.49,43.17-.51,3.78-1,7.75.39,11.3s5.33,6.41,9,5.22c2.14-.71,3.64-2.59,5-4.38l11.42-14.88c1.71-2.23,3.47-4.57,4-7.32C102.86,145.48,94.12,115.27,82.76,121Z"/></g></g></svg>