<svg xmlns="http://www.w3.org/2000/svg" viewBox="0 0 264.46 436.44"><defs><style>.cls-1{fill:#706954;}.cls-2{fill:#3d3a32;}.cls-3{fill:#605a4c;}</style></defs><title>tree1-noleaves</title><g id="Layer_2" data-name="Layer 2"><g id="Layer_3" data-name="Layer 3"><path class="cls-1" d="M256,412.34l-4.22-1.5a31.39,31.39,0,0,1-12.67-11.63,15.14,15.14,0,0,0-9.92-12.3l-.78-.28a9.85,9.85,0,0,1-4.7-9.64l.47-1.33a22,22,0,0,0-13.35-28l-20.49-7.26v-43.8h9.76A14.42,14.42,0,0,0,214.17,285a5,5,0,0,0,.27-1.42c.22-4.54,5-5.85,8.7-6.17h11.72a9.61,9.61,0,0,0,9.58-9.58v-2.24c-.13-5.19,3.16-6.9,6.14-7.39h7.69a6.17,6.17,0,1,0,0-12.35H229.51a6.19,6.19,0,0,0-6.17,6.17,6,6,0,0,0,.07.73c0,1.63-.73,5.44-8.69,5.44H194.59a9.46,9.46,0,0,0-4.28,1.06V137.18h5.26a13.07,13.07,0,0,0,13-13c.19-4.54,4.07-5.85,7.16-6.17h7.93c.16,0,.3,0,.46,0s.3,0,.46,0a8.71,8.71,0,0,0,8.69-8.69v-3.13c-.11-5.19,2.6-6.9,5.05-7.39h5.24a6.17,6.17,0,0,0,0-12.35H222.09a6.19,6.19,0,0,0-6.17,6.17c0,.2,0,.39.06.59.07,1.54-.4,5.59-7.15,5.59H194a9.52,9.52,0,0,0-5.46,1.73V66.68a6,6,0,0,1,4.19-3.44l.28,0a9.63,9.63,0,0,0,1.78-.18c1.57.06,2.45-.33,2.8-1a9.72,9.72,0,0,0,5.15-8.52V31.63c0-11.82,8.86-11.18,8.86-11.18l-.17-.09a8.23,8.23,0,0,0,7.31-8.14v-4A8.26,8.26,0,0,0,210.48,0h-19a8.25,8.25,0,0,0-8.23,8.23v5.69c0,15.84-11.11,15.47-11.11,15.47v.13A13.67,13.67,0,0,0,160.3,43V72.95s-3.64,13.12-13.9,16.92H128.61c-13.67,0-18.25-17.23-18.25-17.23V64.07c0-.36-.08-.7-.11-1.05s.11-.69.11-1.05a11,11,0,0,0-11-11h-.12c-1.15,0-10.18-.41-10.18-10A9.71,9.71,0,0,0,89,39.5a6.5,6.5,0,0,0,.09-.92,6.65,6.65,0,0,0-6.63-6.63H62.82a6.63,6.63,0,1,0,0,13.25h.43c1.67,0,7.79.63,7.79,7.25V63.92a9,9,0,0,0,3.3,6.91c0,1.08.72,1.78,2.93,1.66h.14a8.86,8.86,0,0,0,2.65.45h.11c2.88,1.16,3.79,4.37,4,6.92v37.57a12.87,12.87,0,0,0,1.54,6v39.12a13.7,13.7,0,0,0-1.45-2A9.59,9.59,0,0,0,76.15,156h-17c-7.26,0-7.84-4-7.78-5.53a6,6,0,0,0,.07-.65,6.19,6.19,0,0,0-6.17-6.17H20.73a6.17,6.17,0,1,0,0,12.35H27c2.67.49,5.62,2.2,5.5,7.39v2.75a9.09,9.09,0,0,0,9.07,9.07h10c3.36.32,7.6,1.63,7.8,6.17,0,.12,0,.21,0,.32A13.63,13.63,0,0,0,73,194.42H83.51a4.19,4.19,0,0,0,2.24-.66V219.6a25.78,25.78,0,0,1-2,9.06c-3,6-2,31.55,0,39.16a87.67,87.67,0,0,1,2,15.83v44.49a24.45,24.45,0,0,0-19.58,22.52c-.78,2.61-3,6.52-9.54,7.68l-2.87,0a16.79,16.79,0,0,0-14.27,7.86h0a42.92,42.92,0,0,1-20.05,7l-6.9,0A12.48,12.48,0,0,0,0,385.48H0A12.48,12.48,0,0,0,12.37,398l47.16.27h0l26.22.15v.75A23.93,23.93,0,0,0,109.61,423h56.84a23.85,23.85,0,0,0,18.86-9.3l1.88.67,26.55,9.4,2.11.75,31.82,11.27A11.24,11.24,0,0,0,262,429l.83-2.34A11.24,11.24,0,0,0,256,412.34Z"/><ellipse class="cls-2" cx="116.96" cy="250.79" rx="25.36" ry="40.51"/><path class="cls-3" d="M188.33,379.54V367.81A24.43,24.43,0,0,0,164,343.45H127.6a24.43,24.43,0,0,0-24.36,24.36v12.88a19,19,0,0,0,9,35.7h19.26a11,11,0,0,0,10.28,7.16h17.11a11,11,0,0,0,10.28-7.16h12.74a19,19,0,0,0,6.4-36.84Z"/></g></g></svg>