<svg xmlns="http://www.w3.org/2000/svg" viewBox="0 0 320.61 425.54"><defs><style>.cls-1{fill:#9ca86a;}.cls-2{fill:#93a062;}.cls-3{fill:#808958;}.cls-4{fill:#605a4c;}.cls-5{fill:#706954;}</style></defs><title>tree2</title><g id="Layer_2" data-name="Layer 2"><g id="Layer_15" data-name="Layer 15"><path class="cls-1" d="M201.18,79.48c-.15.42-.28.84-.4,1.27C200.89,80.33,201,79.9,201.18,79.48Z"/><path class="cls-1" d="M202.13,77.2a20.94,20.94,0,0,0-.85,2C201.54,78.5,201.82,77.84,202.13,77.2Z"/><path class="cls-1" d="M200.5,81.81c-.05.23-.1.47-.15.71C200.4,82.28,200.44,82,200.5,81.81Z"/><path class="cls-1" d="M200.1,84.12c0,.13,0,.26,0,.39C200.08,84.38,200.09,84.25,200.1,84.12Z"/><path class="cls-1" d="M117.59,50.8h0a14.6,14.6,0,0,1,14.56-14.56h12.59A14.6,14.6,0,0,1,159.3,50.8h0a14.41,14.41,0,0,1-.51,3.76h16.14A13.12,13.12,0,0,1,188,41.47h19.25a13.12,13.12,0,0,1,13.08,13.08,12.94,12.94,0,0,1-.94,4.82,21,21,0,0,1,7.69,16.24V89h36.47A21.12,21.12,0,0,0,284.62,68V65.66s0-.09,0-.13A21.12,21.12,0,0,0,263.56,44.6h-3.24a21.14,21.14,0,0,0-20.61-16.76H225.64V21.06A21.12,21.12,0,0,0,204.58,0H129.72a21.12,21.12,0,0,0-21.06,21.06v5.21H85.81A21.12,21.12,0,0,0,64.76,47.33v.06A20.82,20.82,0,0,0,66,54.55h52.06A14.41,14.41,0,0,1,117.59,50.8Z"/><path class="cls-2" d="M90,116.32h49.06a17.64,17.64,0,0,1,4.51.6,20.86,20.86,0,0,1,11-3.13h42.65a21.11,21.11,0,0,1,21,20.22h10a31.11,31.11,0,0,1,30.84-27.89h30.54a30.71,30.71,0,0,1,13.51,3.12V86.41a21.12,21.12,0,0,0-18.52-20.89s0,.09,0,.13V68A21.12,21.12,0,0,1,263.56,89H227.09V75.61a21,21,0,0,0-7.69-16.24,12.94,12.94,0,0,0,.94-4.82,13.12,13.12,0,0,0-13.08-13.08H188a13.12,13.12,0,0,0-13.08,13.08H158.79a14.41,14.41,0,0,0,.51-3.76h0a14.6,14.6,0,0,0-14.56-14.56H132.15A14.6,14.6,0,0,0,117.59,50.8h0a14.41,14.41,0,0,0,.51,3.76H65.59A21.12,21.12,0,0,0,44.53,75.61V89H62.64A27.43,27.43,0,0,1,90,116.32Z"/><path class="cls-3" d="M303.12,109.25a30.71,30.71,0,0,0-13.51-3.12H259.07A31.11,31.11,0,0,0,228.23,134h-10a21.11,21.11,0,0,0-21-20.22H154.52a20.86,20.86,0,0,0-11,3.13,17.64,17.64,0,0,0-4.51-.6H90A27.43,27.43,0,0,0,62.64,89H27.35A27.43,27.43,0,0,0,0,116.4v5a27.43,27.43,0,0,0,27.35,27.35H57.27A17.84,17.84,0,0,0,72,156.66h33.81a20.94,20.94,0,0,0,13.51,4.94h9.21a20.83,20.83,0,0,0,8.68-1.91,21.06,21.06,0,0,0,17.27,9.07h42.65A21,21,0,0,0,213,161.51a21.35,21.35,0,0,0,1.44-1.83h17.11a31.08,31.08,0,0,0,27.5,16.75h30.54a31.09,31.09,0,0,0,31-31v-8.31A31.09,31.09,0,0,0,303.12,109.25Z"/><rect class="cls-3" x="163.86" y="92.74" width="29.12" height="14.33" rx="7.16" ry="7.16"/><rect class="cls-3" x="89.99" y="81.76" width="43.68" height="21.49" rx="10.75" ry="10.75"/><path class="cls-2" d="M263.34,191.27h8.94a10.39,10.39,0,0,0-9.74-6.87H249.69a10.39,10.39,0,0,0-10.36,10.36,10.28,10.28,0,0,0,2,6h8A15.17,15.17,0,0,1,263.34,191.27Z"/><path class="cls-3" d="M275.88,191.27H263.34a15.17,15.17,0,0,0-14,9.54H238.76a12,12,0,0,0-12,12h0a12,12,0,0,0,12,12h15.9a11.79,11.79,0,0,0,5.77-1.52,12.16,12.16,0,0,0,2.37-1.72l.53,0h12.54A15.17,15.17,0,0,0,291,206.4h0A15.17,15.17,0,0,0,275.88,191.27Z"/><path class="cls-4" d="M210.58,387.49V377.35a21.12,21.12,0,0,0-21.06-21.06H158.07A21.12,21.12,0,0,0,137,377.35v11.14a16.43,16.43,0,0,0,7.79,30.86h16.63a9.56,9.56,0,0,0,8.91,6.19h14.8a9.56,9.56,0,0,0,8.91-6.19h11a16.41,16.41,0,0,0,5.54-31.86Z"/><path class="cls-3" d="M72.42,176.72H59.58a17.17,17.17,0,0,0-17.12,17.09H40.18a13.86,13.86,0,0,0-13.82,13.82h0a13.86,13.86,0,0,0,13.82,13.82H50.55A13.83,13.83,0,0,0,62.18,215a10.6,10.6,0,0,0-2.14-.59H51.37A6.39,6.39,0,0,1,45,208.07v-.89a6.31,6.31,0,0,1,.86-3.17,17.11,17.11,0,0,0,13.73,7H72.42a17.15,17.15,0,0,0,14.85-8.65,17,17,0,0,0,2.27-8.47A17.17,17.17,0,0,0,72.42,176.72Z"/><path class="cls-2" d="M84.21,283.16h8.94a10.39,10.39,0,0,0-9.74-6.87H70.56A10.39,10.39,0,0,0,60.2,286.65a10.28,10.28,0,0,0,2,6h8A15.17,15.17,0,0,1,84.21,283.16Z"/><path class="cls-5" d="M267.44,394.13h-3.87a27.15,27.15,0,0,1-13.68-5.82,13.09,13.09,0,0,0-11.63-7.16h-.71a8.51,8.51,0,0,1-6.61-6.5v-1.22A19,19,0,0,0,213,354.52V262.76h4.42a14.54,14.54,0,0,0,14.5-14.5c.2-5,4.47-6.49,7.9-6.87h8.89l.51,0,.51,0a9.69,9.69,0,0,0,9.67-9.67v-3.48a9.85,9.85,0,0,1,1-5,11.79,11.79,0,0,1-5.77,1.52h-15.9a12,12,0,0,1-9.48-4.71H215.66a10.58,10.58,0,0,0-2.63.33V161.51a21,21,0,0,1-15.85,7.25H154.52a21.06,21.06,0,0,1-17.27-9.07,20.83,20.83,0,0,1-8.68,1.91h-6v53a9.85,9.85,0,0,0-1.45-.11H98.88c-7.86,0-9.25-3.51-9.4-5.49a6.32,6.32,0,0,0,.07-.88v-.89a6.37,6.37,0,0,0-2.27-4.87A17.15,17.15,0,0,1,72.42,211H59.58a17.11,17.11,0,0,1-13.73-7,6.31,6.31,0,0,0-.86,3.17v.89a6.39,6.39,0,0,0,6.38,6.38H60a10.6,10.6,0,0,1,2.14.59c2.47,1,4.6,3.12,4.49,7.57v3.14a10,10,0,0,0,9.92,9.92H89.83c4.05.37,9.1,1.84,9.34,6.82a5.76,5.76,0,0,0,.28,1.57A15.77,15.77,0,0,0,114.9,256.9h7.72V312a8.19,8.19,0,0,0-1.42-.14H106.47a12.62,12.62,0,0,1-2.53-.24,15,15,0,0,1-7.2,1.83H84.21l-.53,0a12.21,12.21,0,0,1-1.11.91,7.14,7.14,0,0,1,.87,3.91v2.38a7.86,7.86,0,0,0,7.84,7.84H100c2.9.29,6.51,1.44,6.68,5.34,0,.21,0,.41.06.59A11.8,11.8,0,0,0,118.44,345h4.17v10a21.13,21.13,0,0,0-15.54,19.24c-.66,2.26-2.59,5.65-8.21,6.69H96.38a14.52,14.52,0,0,0-12.3,6.87h0a37.11,37.11,0,0,1-17.3,6.12h-6a10.76,10.76,0,1,0,0,21.52h73.44a16.37,16.37,0,0,1,2.79-27V377.35a21.12,21.12,0,0,1,21.06-21.06h31.45a21.12,21.12,0,0,1,21.06,21.06v10.14a16.37,16.37,0,0,1,4.81,28.16h52a9.72,9.72,0,0,0,9.69-9.69v-2.14A9.72,9.72,0,0,0,267.44,394.13Z"/><path class="cls-3" d="M96.75,283.16H84.21a15.17,15.17,0,0,0-14,9.54H59.63a12,12,0,1,0,0,23.93h15.9a11.84,11.84,0,0,0,7-2.33,12.21,12.21,0,0,0,1.11-.91l.53,0H96.75a15,15,0,0,0,7.2-1.83,15.17,15.17,0,0,0,7.93-13.3h0A15.17,15.17,0,0,0,96.75,283.16Z"/><path class="cls-2" d="M182.85,246.66h8.94a10.39,10.39,0,0,0-9.74-6.87H169.21a10.39,10.39,0,0,0-10.36,10.36,10.28,10.28,0,0,0,2,6h8A15.17,15.17,0,0,1,182.85,246.66Z"/><path class="cls-3" d="M195.4,246.66H182.85a15.17,15.17,0,0,0-14,9.54H158.28a12,12,0,0,0-12,12h0a12,12,0,0,0,12,12h15.9a11.9,11.9,0,0,0,8.14-3.24l.53,0H195.4a15.13,15.13,0,0,0,0-30.26Z"/></g></g></svg>