<svg xmlns="http://www.w3.org/2000/svg" viewBox="0 0 739.85 965.05"><defs><style>.cls-1{fill:#666674;}.cls-2{fill:#89899c;}.cls-3{fill:#9f9fb5;}.cls-4{fill:#222226;}.cls-5{fill:#333;}.cls-6{fill:#a6a6bd;}.cls-7{fill:#ffbebd;}.cls-8{fill:#ffc;}</style></defs><title>robot</title><g id="Layer_2" data-name="Layer 2"><g id="Layer_1-2" data-name="Layer 1"><g id="Layer0_0_FILL" data-name="Layer0 0 FILL"><path class="cls-1" d="M668.45,851.3,665,826.45q-59.9-17-102.8-57.75V800a299.07,299.07,0,0,0,78.7,42.7q13.4,4.85,27.5,8.55m-317.8-259-2.4,15.25A1436.81,1436.81,0,0,0,527.5,592.05,855.82,855.82,0,0,0,559,482.75q-8.32,1-16.65,1.9a624.44,624.44,0,0,1-27.9,93.75,1016.32,1016.32,0,0,1-163.8,13.85M343.8,562.6H321.3L318.45,577H353l-9.25-14.4m58.7-353.7q3.87-9.05,8.5-17.7-24.73,24.9-48.45,51.65-.5,28.8,8.45,50.85,13.3,32.75,47.5,50.5h0q1.55-1.55,3.15-2.95a168.08,168.08,0,0,1,12.2-13.1,38.77,38.77,0,0,1-24.55-5.55A43.44,43.44,0,0,1,392,303.1a65.08,65.08,0,0,1-5.35-25.35,125.87,125.87,0,0,1,2.6-26.3,208.91,208.91,0,0,1,13.2-42.55m-188,708.3-3.55-20.4L162.7,874v20.8l51.75,22.35m155.45-107v36.3A344.25,344.25,0,0,0,461,895.95q15.52,5.62,31.8,9.9l-3.9-28.8q-69.42-19.68-119-66.9M83.9,965l-.4-36.9L0,858.4v37.25L83.9,965m162.15-508.6a36.93,36.93,0,0,1,15.5,6.35,50.87,50.87,0,0,1,8.1,7,59.17,59.17,0,0,1,4,4.85,68,68,0,0,1,11.85,26,66.85,66.85,0,0,1,.25,28.5,67.82,67.82,0,0,1-11.7,26.05,69.58,69.58,0,0,1-4.45,5.5,66.17,66.17,0,0,1-5,5,64,64,0,0,1-10.25,7.6l1.15,11.8.4,3.9-3.8,2.85-7.75,6,4.75,12.25-1.5.7-10.5,5,.55,2.15,3.5,13.3-10.4,7,.4,1,5.25,12.15-6.2,6.35-4.2,4.3,3.6,7.75-.6.9-6.4,10.2,2,10.6.65,3.2-10.2,6.55,3.8,5.15,3.25,4.4-14.5,12.7,7,10.15,1.4,2.05L204.3,749l4.7,9,.75,1.45-12,13,2.35,8.55,27.2,24,78.65-328.3L196.3,407.75l-11.05,51.1q1.87.1,4.45.35a135,135,0,0,0,31.75-.75q4-.6,12.3-1.95a46,46,0,0,1,12.3-.05m105.5-103.6-1.3-9.15-32.1,3.9q17.6,41.75,55.25,70.15a463.77,463.77,0,0,0,129.6-7.3l-12-20.3-2.6,2.3Q392.15,439.9,351.55,352.85Z"/><path class="cls-2" d="M715.9,825.6V800.7Q692.55,823.2,665,826.45l3.4,24.85a90.69,90.69,0,0,0,23.6-8.55A107.84,107.84,0,0,0,715.9,825.6M692.35,718.65V694.6L653.8,719.3l-.55,1.1v1.9l1.35.8,6.55,3.6v1.6l-5,9.75.85,1.5,35.4-20.9m-382.1-61.5h9.85l6.6-8a7.62,7.62,0,0,1,6.55-2.5q2.15.2,4.4.25,1.25,0,2.55,0l4-5.85h3.3l4.3,1.35,11,3.4L365,635.6l14.6,6.6,6.6-6.6,4.6,3.75,5.25,4.3,8.4-4.4,8,13.15,8.8-3.65,4,5.1,7.7,9.9a19.17,19.17,0,0,0,2.15-2.2,2.51,2.51,0,0,1,2.6-1.1l4,8.15,2.25,4.6H450l.15.05a5.12,5.12,0,0,1,3.15,2.7,14.83,14.83,0,0,1,1.35,8.6,6.68,6.68,0,0,0,0,1,5.26,5.26,0,0,0,1.6,3.4h8.4l-2.15,12.45h9.1v1.8l-6.2,10.6,7,7.65h2.9v2.95l-3.65,4.75v5.45l9.5,4.75V744l-2.2,3.3-3.65,6.9v2.2l31.35-8.6.8-2.7q-1.29-.23-2.6-.55a73.16,73.16,0,0,1-7.15-2,33.89,33.89,0,0,1-17.85-14.05,42,42,0,0,1-6.9-22.3,31.46,31.46,0,0,1,1.65-11.35,33.46,33.46,0,0,1,4.05-8q.6-.9,1.25-1.75l3.5-5.4v-6.6a8.9,8.9,0,0,1,2.2-.65,2.8,2.8,0,0,0,2.2-1.85,42.19,42.19,0,0,0,2-7.6,24.59,24.59,0,0,1,1.45-4.75h7.6v-7.85h13a43.63,43.63,0,0,1,.4-13.9h7l5.7-6.9a6.62,6.62,0,0,1,5.65-2.15q1.85.15,3.8.2,1.1,0,2.2.05L540,622.7h2.85l1.25.4,3.15-10.4,5.3-17.6,5.45-18L568.3,542.9l14.8-49.1,2-6.6,11.65-38.65-7.85-21-3.35-9.05q-120.07,5.17-248.8,24.8l-30.8,33.35L227.3,804.9,400.3,777v0l4.2-5.25,3.2-4,0-.05-12-5.75,2.3-3.7q.22-.39.4-.8l.55-.7,3.4-5.35a6.86,6.86,0,0,0,0-2.25h-15.7v-12.4l-4.85,3-3.9,2.45-6.2,3-1.75-1.75-6.65-6.65v17.5H347.85l.8,1,7.15,9.55,1.9,2.55-5.1,6.6a49.3,49.3,0,0,0-8.15,4.35,38.5,38.5,0,0,1-22.9,6.3,90.57,90.57,0,0,1-26.45-4.7,39.23,39.23,0,0,1-20.7-16.25,48.7,48.7,0,0,1-8-25.85,37.44,37.44,0,0,1,1.95-13.15,38.78,38.78,0,0,1,4.65-9.3q.68-1,1.45-2l4-6.25V699.5a12.56,12.56,0,0,1,2.55-.75,3.16,3.16,0,0,0,2.55-2.1,47.26,47.26,0,0,0,2.35-8.8,28.07,28.07,0,0,1,1.65-5.5h8.8v-11.7l10.95-5.1,2.9-8.4m53.1-128.8,12.35-33.6q83.7-1,166.65-10.1,8.33-.9,16.65-1.9a855.82,855.82,0,0,1-31.5,109.3A1436.81,1436.81,0,0,1,348.25,607.5l2.4-15.25L353,577h-34.6l2.85-14.4,6.75-34.25h35.3m131.8-375q-6.8-26.2,6.8-44.3a1153.6,1153.6,0,0,0-91,82.15q-4.63,8.65-8.5,17.7a208.91,208.91,0,0,0-13.2,42.55,125.87,125.87,0,0,0-2.6,26.3A65.08,65.08,0,0,0,392,303.1a43.44,43.44,0,0,0,17.3,19.5,38.77,38.77,0,0,0,24.55,5.55q24.2-23.15,54-31.2l17.1,16.6,28-15.65,15.65,13.8,7.15-3.25,13.75-6.25,6.65-12a22.07,22.07,0,0,1-2.8-.8,9.08,9.08,0,0,1-1-.4q-8.35-3.55-11.25-13.2-.15-.85-.35-1.65a28.9,28.9,0,0,1,1.4-16.85q.25-.7.55-1.45a31.47,31.47,0,0,1,6.45-10,26.61,26.61,0,0,1,6.7-5.1q8.9-4.75,17.2-1.3a.06.06,0,0,1,.1,0,16,16,0,0,1,4.6,2.8,15.84,15.84,0,0,1,3,3.15l25.7-46.6a53.55,53.55,0,0,1-3.65,5.15q-14.85,18.5-43,17.45t-52.85-21q-24.8-19.9-31.9-47.1M507.3,223.2a5.17,5.17,0,0,1,1.3.3,27.16,27.16,0,0,1,17.6,11.2,28.08,28.08,0,0,1,5.35,21.6,29.18,29.18,0,0,1-33,24.3,27.32,27.32,0,0,1-4.25-1A27.62,27.62,0,0,1,479.5,269a29,29,0,0,1,27.8-45.8M547.8,876v-28.8q-27,26-58.85,29.8l3.9,28.8a106.93,106.93,0,0,0,27.3-9.9A124.66,124.66,0,0,0,547.8,876M210.9,896.8l3.55,20.4,29.4-23.9-1.95-22-31,25.5m-55.65-1.15-.8-7.05L152.9,874l-69.4,54.1.4,36.9,71.35-69.4m44-430.7a82.73,82.73,0,0,0-27,0q-1.86,4-1.55,10.5a55.81,55.81,0,0,0,8.15,26h.05a62.2,62.2,0,0,1,80.15,59.3,22.36,22.36,0,0,1-1.3,8,10.06,10.06,0,0,1-3.3,4.65,64,64,0,0,0,10.25-7.6,41.6,41.6,0,0,0,3.55-10.7,58.34,58.34,0,0,0,.05-20.85,82.92,82.92,0,0,0-69.1-69.25m296.75-100.9q11.75-1.65,24.55-4.7l40-32L544.8,334.8l-14-5.3-24.9,16.35-25.45-23-61.9,32Q448.6,370.7,495.95,364.05Z"/><path class="cls-3" d="M692.35,694.6v-.65L646.75,682l-2,3.45,6,6.6h2.5v2.55l-3.15,4.1v4.7l8.2,4.1v4.1l-4.5,7.7,38.55-24.7M590.2,762.7l-5.35-5.35a60.26,60.26,0,0,0-22.6,11.35q42.9,40.75,102.8,57.75,27.5-3.25,50.85-25.75-28.15-19.25-62.5-39.2l-1.1,1.85-.95,1.55,6,5.35q.35,0,1,1.65s-.58.32-1.65.85L639.45,786.5a41.22,41.22,0,0,1-23.75,2.35,38.7,38.7,0,0,1-20.2-10.65,120,120,0,0,1-9-10q-1.2-1.5-2-2.7l5.15-2.5.55-.3M508.6,223.5a32,32,0,0,1,7.1,7,30.05,30.05,0,0,1,5.65,23,31.15,31.15,0,0,1-27.1,26.1,27.32,27.32,0,0,0,4.25,1,29.18,29.18,0,0,0,33-24.3,28.08,28.08,0,0,0-5.35-21.6,27.16,27.16,0,0,0-17.6-11.2M739.85,24.85a24,24,0,0,0-7.3-17.6,24.93,24.93,0,0,0-35.15,0,24.07,24.07,0,0,0-7.25,17.6A23.9,23.9,0,0,0,697.4,42.4,24,24,0,0,0,715,49.7a26.23,26.23,0,0,0,4.65-.4,100.06,100.06,0,0,0,0-14.9,12,12,0,0,1,.2-4.6A4.29,4.29,0,0,1,721.2,28a2.86,2.86,0,0,1,2.1-.6q1.7.25,2.85,2.65a18,18,0,0,1,1.75,7.15,59.65,59.65,0,0,1-.25,7.6q-.06.79-.15,1.55a24.8,24.8,0,0,0,5-4,23.82,23.82,0,0,0,7.3-17.55M193.95,849.1,162.7,874l48.2,22.75,31-25.5-44.35-25-3.6,2.85M474.1,803.95l-1.05,1.8,7,6.2q.4,0,1.2,1.9-.1.1-2,1l-20,15.95a48.09,48.09,0,0,1-27.5,2.7,44.46,44.46,0,0,1-23.4-12.35A140.14,140.14,0,0,1,398,809.6q-1.4-1.75-2.4-3.15l6-2.95.65-.3L396,797a69.79,69.79,0,0,0-26.15,13.15q49.63,47.22,119,66.9,31.84-3.75,58.85-29.8Q515.19,825,475.4,801.8l-1.3,2.15M91.2,825.65l-5.75-4.5L0,858.4l83.5,69.75L152.9,874l-61.7-48.4m404.75-461.6,1.45,6.5.35,1.55-6.2,6.5-.55.55,2.1,7,.5,1.65-2.65,2.4,12,20.3a463.77,463.77,0,0,1-129.6,7.3q-37.65-28.4-55.25-70.15l32.1-3.9-.6-4.2a526.18,526.18,0,0,0-114.8,23.3l101.9,80.45q128.73-19.63,248.8-24.8-26.15-29.55-65-59.1-12.8,3.05-24.55,4.7M600.8,245.45a15.84,15.84,0,0,0-3-3.15,16,16,0,0,0-4.6-2.8.06.06,0,0,0-.1,0,19.42,19.42,0,0,1,2.25,3.1,23.12,23.12,0,0,1,2.45,6.35q.15.7.3,1.35.25,1.2.4,2.35t.2,2.45a34.83,34.83,0,0,1-3,14.9Q591,281,582.25,286.15a25.74,25.74,0,0,1-5.25,2.5,20.89,20.89,0,0,1-3.65.75,22.07,22.07,0,0,0,2.8.8q6.5,1.25,13.4-2.5a26.7,26.7,0,0,0,7-5.25,33.05,33.05,0,0,0,6.3-9.8,33.9,33.9,0,0,0,2.6-11.35,29,29,0,0,0-.5-5.9l-.2-1.1q-.25-.8-.5-1.65a21.19,21.19,0,0,0-3.4-7.2M502.95,107.7a12.83,12.83,0,0,0-1,1.35q-13.6,18.1-6.8,44.3,7.1,27.2,31.9,47.1t52.85,21q28.1,1.05,43-17.45a53.55,53.55,0,0,0,3.65-5.15,5.59,5.59,0,0,1,.45-.75q8.3-14.45,5-33.45a68.09,68.09,0,0,1-15.65,2.15,10,10,0,0,1-4.5-.85,3.31,3.31,0,0,1-2.25-3,3.26,3.26,0,0,1,.85-2.15,4.74,4.74,0,0,1,2-1.4,16.42,16.42,0,0,1,4.75-.45,57.39,57.39,0,0,0,13.15-1.75q-7.28-26.38-31.55-45.9-24.8-19.9-52.9-21T502.95,107.7Z"/><path class="cls-4" d="M588.55,740.1h0l-2.4,3,8.5,6-4.65,2.7a13.6,13.6,0,0,0,1.15.75,62.84,62.84,0,0,0,29.85,9.25,62,62,0,0,0,30.6-5.9,35.22,35.22,0,0,0,8.5-5.4l2.35-4h-1.6l-3.75-6.8q-2.59,1.58-5.3,2.9l-.1,0a68.83,68.83,0,0,1-56.65,1,42.75,42.75,0,0,1-6.45-3.6m6.3-8.05h0l-2.75,3.5a22.55,22.55,0,0,0,4.15,1.8,41.07,41.07,0,0,0,9.25,1.6q16.75,1.3,30.05-3.55A50.94,50.94,0,0,0,649,728a50.09,50.09,0,0,0,5.55-4.95l-1.35-.8v-1.9l.55-1.1,4.5-7.7v-1.75q-10,2.3-25.8,9.65-19.1,8.9-28.75,10.8-4.9.85-7.35,1.4-.8.15-1.55.35m49.25-68h-7.25a4.26,4.26,0,0,1-1.35-3,41.47,41.47,0,0,0-7.55,1.35,36.7,36.7,0,0,0-16.15,10.3,63.61,63.61,0,0,0-11,16.35q-2.7,5.55-7.4,18.3Q591.6,712.1,590,716h.2a7.64,7.64,0,0,1,0,1.95l-2.9,4.6a203.18,203.18,0,0,1,25.65-26,198.89,198.89,0,0,1,31.25-21.8h-2L644.1,664m-71.8-42q-2.77,0-5.4-.05l-8.85-4-.4,1.85a6.34,6.34,0,0,0-1.7-1.35,85,85,0,0,1-8.65-5.75l-3.15,10.4,2.5.75a70.24,70.24,0,0,0-4.5,17.45,85.16,85.16,0,0,0-.7,9.15,83.77,83.77,0,0,0,1.7,18.55q4.4,21.55,19,42l1.55,1.5L569.1,710l3.4-2.1a178.2,178.2,0,0,1-2.25-20.75q-.55-10.65-.3-27.9.1-5.15.3-8.8,0-1.7.15-3a65.42,65.42,0,0,1,2-11.75,38,38,0,0,1,5-10.85,30.19,30.19,0,0,1,2.45-3.1l.45-.45-3.95-3.3L572.3,622m43.85,1,2.15-6.4a149.06,149.06,0,0,1-20.75,3.45q-9.85,1.06-16.8,1.55l4.1,3.25,7.25-3.8,6.9,11.35,7.6-3.15,3.45,4.45a34.4,34.4,0,0,0-5,.25,36.22,36.22,0,0,0-10.25,3,25.63,25.63,0,0,0-8.45,6.2,26.7,26.7,0,0,0-4.5,7.25q-.8,2-1.45,4.25a60.13,60.13,0,0,0-1.8,13.2,157.92,157.92,0,0,0,.95,22q.7,6.9,2.9,21.9l.7,4.15h4.7a43,43,0,0,0,1.7-11.05q.15-5.7.2-8.6a65.57,65.57,0,0,1,.7-8.45q3.05-19.2,25-36.05.95-.75,1.9-1.4a39.71,39.71,0,0,1,6.9-4L623,644.1a52.41,52.41,0,0,0,1-7.75q.55-8.65-7.9-13.3m-3.75-50.1a12.94,12.94,0,0,0-4-9.8,54.82,54.82,0,0,1-17.4,10.3q-14.88,5.56-32.9,3.6l-5.45,18a81.86,81.86,0,0,0,38.6.35,85.33,85.33,0,0,0,22.7-8.4l-5-2.8a19.14,19.14,0,0,1,2.25-6.55,10.28,10.28,0,0,0,1.3-4.75M601.6,500.2l-3.65-2.85v-1.6l7.25-8.1-1.4-1.15q-10,3.56-20.7,7.3l-14.8,49.1a52.65,52.65,0,0,0,6.45.3,53.49,53.49,0,0,0,20-4.1,50.36,50.36,0,0,0,4.6-2.2,18.14,18.14,0,0,1,2.2-5.25q7.05-11.65-6.8-16.1l6.9-15.35M135.3,812a141.49,141.49,0,0,0,18.25,4.05q20.4,3.35,37,1.4h.05l-2-3.2,10.65-11.55-6.8-8.8a85.85,85.85,0,0,1-25.2,5.25q-24.75,2-42.75-5.85a57.1,57.1,0,0,1-13.8-8.35l-8.3,6.25q.66.84,1.35,1.65a57.13,57.13,0,0,0,14.4,11.95,77.14,77.14,0,0,0,17.1,7.2M407.65,767.7l0,.05-3.2,4a23.8,23.8,0,0,0,4.8,2.1A46.81,46.81,0,0,0,420,775.7q19.4,1.5,34.75-4.1a59.7,59.7,0,0,0,15.6-8.5,50.53,50.53,0,0,0,5.6-4.9q.43-.41.85-.85l-1.6-.9v-2.2l3.65-6.9,2.2-3.3v-2q-11.55,2.64-29.85,11.15-22.15,10.3-33.3,12.5-5.7,1-8.5,1.6l-1.8.4m71-80.8a33.46,33.46,0,0,0-4.05,8,31.46,31.46,0,0,0-1.65,11.35,42,42,0,0,0,6.9,22.3,33.89,33.89,0,0,0,17.85,14.05,73.16,73.16,0,0,0,7.15,2q14.63-3.17,29.75-7.9a5.3,5.3,0,0,0,3.4-2,4.93,4.93,0,0,0,.65-2.85q0-.38,0-.75a66.07,66.07,0,0,1-10.55-.25,63.29,63.29,0,0,1-15.3-3.5,56.08,56.08,0,0,1-13-6.85,50.6,50.6,0,0,1-18.5-24,52.77,52.77,0,0,1-2.6-9.6M375.7,494.75l-12.35,33.6h-35.3L321.3,562.6h22.5L353,577l-2.4,15.25a1016.32,1016.32,0,0,0,163.8-13.85,624.44,624.44,0,0,0,27.9-93.75q-82.95,9.14-166.65,10.1m113.4,7.2,38-2.75-18.2,67.85a132,132,0,0,1-38.35,5.5l18.5-70.6m66.65-193.5-7.15,3.25-15.65-13.8-28,15.65-17.1-16.6q-29.75,8.05-54,31.2a168.08,168.08,0,0,0-12.2,13.1Q449,316.5,483,309.2l24.5,22.2,24.15-15,13.1,10.45,19.15-7.2-8.2-11.2m37.4,456.8q-2-1.15-3.5-2.25l-5.15,2.5q.85,1.2,2,2.7a120,120,0,0,0,9,10,38.7,38.7,0,0,0,20.2,10.65,41.22,41.22,0,0,0,23.75-2.35l17.25-13.75q1.6-.8,1.65-.85-.65-1.65-1-1.65l-6-5.35.95-1.55q-3.45,1.6-8.5,4.15A63.38,63.38,0,0,1,629.3,773a42.58,42.58,0,0,1-18.6-.55,68.77,68.77,0,0,1-17.55-7.25m-94.35-107h-2.45q.3,2.05.75,4.1a81.43,81.43,0,0,0,22.55,42q3.15,3.12,6.65,6a83.7,83.7,0,0,0,17.6,10.95l-.7-.95h11.25Q537.86,709.65,525,686.65q-2.3-4.14-4.5-8.7-7.3-15.2-8.7-27.5h-13v7.85M474.1,803.95q-3.88,1.9-9.8,4.85-9.95,5-16.75,6.4a48.91,48.91,0,0,1-21.55-.65,78.59,78.59,0,0,1-20.3-8.35,44,44,0,0,1-4.1-2.7l-6,2.95q1,1.4,2.4,3.15a140.14,140.14,0,0,0,10.35,11.55,44.46,44.46,0,0,0,23.4,12.35,48.09,48.09,0,0,0,27.5-2.7l20-15.95q1.85-.9,2-1-.8-1.9-1.2-1.9l-7-6.2,1.05-1.8M106,821.8l-4.45-4.8L91.2,825.65,152.9,874l1.55,14.55,8.25.75V874l31.25-24.95-8-13.15q-43.72,22.58-80-14.15M454.65,685.5a47,47,0,0,0-8.7,1.6q-10.15,3-18.7,11.9a73.74,73.74,0,0,0-12.8,18.95q-3.1,6.4-8.55,21.15-2.06,5.57-3.9,10.05h.25a6.86,6.86,0,0,1,0,2.25l-3.4,5.35a239.58,239.58,0,0,1,29.75-30.15,233.93,233.93,0,0,1,36.2-25.25H462.5l2.15-12.45h-8.4a5.26,5.26,0,0,1-1.6-3.4M400.3,777v0l-2.8,3.5,9.85,7-5.4,3.1q.65.43,1.35.85a72.38,72.38,0,0,0,34.55,10.75,71.6,71.6,0,0,0,35.45-6.85,40.4,40.4,0,0,0,9.8-6.3l2.75-4.5H484l-4.4-7.9a75.89,75.89,0,0,1-32.15,10.65,76.87,76.87,0,0,1-39.65-6.1,48.61,48.61,0,0,1-7.5-4.2M346.6,662.65a91.95,91.95,0,0,0,1.2,32q5.06,25,22.05,48.7l1.75,1.75,6.2-3,3.9-2.45a214.43,214.43,0,0,1-2.55-24q-.65-12.35-.35-32.3.1-6,.3-10.2.12-2,.25-3.55a77.62,77.62,0,0,1,2.35-13.6,42.85,42.85,0,0,1,5.75-12.55,35.42,35.42,0,0,1,3.35-4.2l-4.6-3.75-6.6,6.6L365,635.6l-2.2,10.25-11-3.4a83.68,83.68,0,0,0-5.2,20.2m88.45-1.1a19.17,19.17,0,0,1-2.15,2.2l-7.7-9.9a49,49,0,0,0-5.75.35,40.78,40.78,0,0,0-11.85,3.45,29,29,0,0,0-15,15.6,40.69,40.69,0,0,0-1.7,4.9,69.47,69.47,0,0,0-2.1,15.3,183.29,183.29,0,0,0,1.1,25.5q.85,8,3.4,25.4l.8,4.8h5.4a50.34,50.34,0,0,0,2-12.8q.15-6.6.25-9.95a72.49,72.49,0,0,1,.8-9.8q3.55-22.2,28.9-41.75,1.09-.84,2.15-1.6a47,47,0,0,1,8-4.65l-4-8.15a2.51,2.51,0,0,0-2.6,1.1M273,715.4a38.78,38.78,0,0,0-4.65,9.3,37.44,37.44,0,0,0-1.95,13.15,48.7,48.7,0,0,0,8,25.85,39.23,39.23,0,0,0,20.7,16.25,90.57,90.57,0,0,0,26.45,4.7,38.5,38.5,0,0,0,22.9-6.3A49.3,49.3,0,0,1,352.6,774l5.1-6.6-1.9-2.55a79.88,79.88,0,0,1-25.5,1.5,68.06,68.06,0,0,1-32.85-12A60.62,60.62,0,0,1,273,715.4m-81.3,46.95a187.45,187.45,0,0,1-24.8,1,86.79,86.79,0,0,1-24.2-4.25,66.94,66.94,0,0,1-29-19.65A72.69,72.69,0,0,1,105,727.2l-1.5,1.45,7.85,10.55-8.65,7.15a98.16,98.16,0,0,0,17.75,17.25,97,97,0,0,0,70.8,18.85q4.51-.57,8.85-1.5l-2.35-8.55,12-13L209,758q-6.59,3.24-17.3,4.35m30.55-51.6-3.25-4.4a99.07,99.07,0,0,1-27.4,10.45,78,78,0,0,1-35.55-.1,62.4,62.4,0,0,1-30.9-18,58.23,58.23,0,0,1-9.7-13.45l-3.8,4.45,5.65,10.4-5.8,5.65a93.19,93.19,0,0,0,9.9,10.6,88.63,88.63,0,0,0,33.15,19.35,87.72,87.72,0,0,0,38.3,3.45,89.38,89.38,0,0,0,21.85-5.55l-7-10.15,14.5-12.7m6.85-40.1a109.4,109.4,0,0,1-94.15-22.2q-3.94-3.22-7.55-6.75l-3.55,2.45v11.3l-1.95,1.9q.89,1.92,2,3.85a91.29,91.29,0,0,0,12.65,16.15A114.85,114.85,0,0,0,149.1,689a47.29,47.29,0,0,0,30,10.75,93.92,93.92,0,0,0,15.6-1.15,170.45,170.45,0,0,0,30-7.15l-2-10.6,6.4-10.2m7.4-19.3-5.25-12.15q-13.37-.89-28.2-7.45-13.2-5.85-34.75-20.3-15.35-10.35-22.65-17.55a63.65,63.65,0,0,1-7.15-8.35l-1.25,1,6.55,11.8-8.5,7.55a108.48,108.48,0,0,0,29.5,31.25q26.95,19.35,58.4,20.55,3.7.16,7.1,0l6.2-6.35m1.25-33.45-.55-2.15,10.5-5a117.15,117.15,0,0,1-9-7.75q-10.1-10.25-15.3-15.2a169.85,169.85,0,0,0-39-27.85,173.66,173.66,0,0,0-27.75-11.55l-9.45,8.4,4.5,4.75-.35.25q7.17,4.26,15,9.5,5.3,3.55,28.15,19.65,24.49,17.26,43.15,26.9m74.2,39.25h-1.7l-2.9,8.4-10.95,5.1v11.7h-2.8q.37,2.37.85,4.75a96.34,96.34,0,0,0,54.2,68.2l-.8-1h13q-22.72-14.7-39.3-49.15-8.47-17.59-10.15-31.85a51.72,51.72,0,0,1,.55-16.1m-142.5-141.1-8.25,6.5q16.15-.68,36.85,11.65a147.57,147.57,0,0,1,34.7,28.05A107.93,107.93,0,0,1,252.2,591.9l3.8-2.85-.4-3.9q-3-7.92-5-12.7a131.48,131.48,0,0,0-10.5-19.85,94.57,94.57,0,0,0-36.45-32.4,96.58,96.58,0,0,0-36.3-10.7l2.15,6.55M350.25,343.7l1.3,9.15q40.6,87.05,136.8,39.6l2.6-2.3,2.65-2.4-.5-1.65q-16.85,5.05-26.6,7a120.74,120.74,0,0,1-31.4,2.7,96.77,96.77,0,0,1-31-7.35A113.79,113.79,0,0,1,376.6,372a142.09,142.09,0,0,1-26.35-28.3m20.75-50-5.45,2.8,0,0a142,142,0,0,0,21,28.45q14.75,15.3,32,22.45V344.2q-34.2-17.75-47.5-50.5m126.75,78.4-.35-1.55a233.39,233.39,0,0,1-32.6,2Q439,372.1,419,364a110.27,110.27,0,0,1-37.2-25,130.39,130.39,0,0,1-20.5-26.65l-.95.6,2.9,7.3q.4.6,1,1.55l-10,4.65a126.78,126.78,0,0,0,25.15,30.35q20.9,18.4,45.9,24,18,4,41.1,1.65,9.7-1,25.1-3.9Z"/><path class="cls-5" d="M592.15,735.55l-3.6,4.55a42.75,42.75,0,0,0,6.45,3.6,68.83,68.83,0,0,0,56.65-1l.1,0q2.71-1.32,5.3-2.9l-.1-.2-.85-1.5,5-9.75v-1.6l-6.55-3.6A50.09,50.09,0,0,1,649,728a50.94,50.94,0,0,1-13.45,7.35q-13.3,4.85-30.05,3.55a41.07,41.07,0,0,1-9.25-1.6,22.55,22.55,0,0,1-4.15-1.8m-4.8-13L584.5,727l10.35,5q.75-.2,1.55-.35,2.45-.55,7.35-1.4,9.65-1.9,28.75-10.8,15.8-7.35,25.8-9.65V707.5l-8.2-4.1v-4.7l3.15-4.1V692h-2.5l-6-6.6,2-3.45,3.35-5.7v-1.55h-5.85A198.89,198.89,0,0,0,613,696.55a203.18,203.18,0,0,0-25.65,26M634.3,652.8a4.39,4.39,0,0,0-2.65-2.35H617.3q-1,.65-1.9,1.4-21.9,16.85-25,36.05a65.57,65.57,0,0,0-.7,8.45q0,2.9-.2,8.6a43,43,0,0,1-1.7,11.05H590q1.6-3.9,3.35-8.65,4.7-12.75,7.4-18.3a63.61,63.61,0,0,1,11-16.35,36.7,36.7,0,0,1,16.15-10.3A41.47,41.47,0,0,1,635.5,661a3.62,3.62,0,0,1,0-.85,12.76,12.76,0,0,0-1.2-7.4m-18.15-64.5-2.25-1.25a85.33,85.33,0,0,1-22.7,8.4,81.86,81.86,0,0,1-38.6-.35l-5.3,17.6a85,85,0,0,0,8.65,5.75,6.34,6.34,0,0,1,1.7,1.35l.4-1.85,8.85,4q2.63.09,5.4.05l4.05-4.05,3.95,3.3-.45.45a30.19,30.19,0,0,0-2.45,3.1,38,38,0,0,0-5,10.85,65.42,65.42,0,0,0-2,11.75q-.1,1.35-.15,3-.2,3.65-.3,8.8-.25,17.25.3,27.9a178.2,178.2,0,0,0,2.25,20.75l4.15-2.6V716h6.5l-.7-4.15q-2.2-15-2.9-21.9a157.92,157.92,0,0,1-.95-22,60.13,60.13,0,0,1,1.8-13.2q.65-2.25,1.45-4.25a26.7,26.7,0,0,1,4.5-7.25,25.63,25.63,0,0,1,8.45-6.2A36.22,36.22,0,0,1,605,634a34.4,34.4,0,0,1,5-.25l-3.45-4.45-7.6,3.15-6.9-11.35-7.25,3.8-4.1-3.25q6.95-.49,16.8-1.55a149.06,149.06,0,0,0,20.75-3.45l2.7-7.75h-1.65l-6.05-3.25,5.25-12.5-2.4-4.85m-41.4-45.1a52.65,52.65,0,0,1-6.45-.3L558,577.05q18,2,32.9-3.6a54.82,54.82,0,0,0,17.4-10.3,18.06,18.06,0,0,0-3.55-2.75,46.66,46.66,0,0,1,2-9.2q3.2-10.15-7.6-13.45l.15-.85a50.36,50.36,0,0,1-4.6,2.2,53.49,53.49,0,0,1-20,4.1m18.8-65.15q-1,1.27-2.1,2.65-2.05,2.6-3.4,4a19.08,19.08,0,0,1-2.95,2.5l-2,6.6q10.74-3.74,20.7-7.3l-10.25-8.45M102.7,746.35l-2.4,2,8.15,12.7-9.5,12.7,12,11.1-.2.15a57.1,57.1,0,0,0,13.8,8.35q18,7.8,42.75,5.85a85.85,85.85,0,0,0,25.2-5.25l-1.1-1.4,9-10.4-.35-1.2q-4.34.93-8.85,1.5a97,97,0,0,1-70.8-18.85,98.16,98.16,0,0,1-17.75-17.25m306.6,27.5a23.8,23.8,0,0,1-4.8-2.1L400.3,777a48.61,48.61,0,0,0,7.5,4.2,76.87,76.87,0,0,0,39.65,6.1,75.89,75.89,0,0,0,32.15-10.65l-1.05-2,5.85-11.3v-1.85l-7.55-4.2q-.42.44-.85.85a50.53,50.53,0,0,1-5.6,4.9,59.7,59.7,0,0,1-15.6,8.5q-15.35,5.6-34.75,4.1a46.81,46.81,0,0,1-10.75-1.85m69.3-86.95a52.77,52.77,0,0,0,2.6,9.6,50.6,50.6,0,0,0,18.5,24,56.08,56.08,0,0,0,13,6.85,63.29,63.29,0,0,0,15.3,3.5,70.34,70.34,0,0,0,22.05-1.3l-6.2-8.2a83.7,83.7,0,0,1-17.6-10.95q-3.5-2.83-6.65-6a81.43,81.43,0,0,1-22.55-42q-.45-2.05-.75-4.1H491.2a24.59,24.59,0,0,0-1.45,4.75,42.19,42.19,0,0,1-2,7.6,2.8,2.8,0,0,1-2.2,1.85,8.9,8.9,0,0,0-2.2.65v6.6l-3.5,5.4q-.65.85-1.25,1.75m-79.7,69.85-1,1.5-2.3,3.7,12,5.75,1.8-.4q2.8-.6,8.5-1.6,11.15-2.2,33.3-12.5,18.3-8.51,29.85-11.15V739.3l-9.5-4.75V729.1l3.65-4.75V721.4h-2.9l-7-7.65,6.2-10.6v-1.8h-6.75a233.93,233.93,0,0,0-36.2,25.25,239.58,239.58,0,0,0-29.75,30.15M727.5,46.35q.09-.76.15-1.55a59.65,59.65,0,0,0,.25-7.6,18,18,0,0,0-1.75-7.15q-1.15-2.4-2.85-2.65a2.86,2.86,0,0,0-2.1.6,4.29,4.29,0,0,0-1.35,1.8,12,12,0,0,0-.2,4.6,100.06,100.06,0,0,1,0,14.9,98.49,98.49,0,0,1-1.25,10.55,104,104,0,0,1-7.45,24.4q-2.7,6-8.55,16.25-4.2,7.3-7,11.45a69.38,69.38,0,0,1-8.45,10.35,111.15,111.15,0,0,1-10.1,8.4q-9.1,7-13.45,10.05a143.61,143.61,0,0,1-14.2,8.95,78.61,78.61,0,0,1-18.9,7.45,57.39,57.39,0,0,1-13.15,1.75,16.42,16.42,0,0,0-4.75.45,4.74,4.74,0,0,0-2,1.4,3.26,3.26,0,0,0-.85,2.15,3.31,3.31,0,0,0,2.25,3,10,10,0,0,0,4.5.85,68.09,68.09,0,0,0,15.65-2.15,90.81,90.81,0,0,0,20.3-8,157.46,157.46,0,0,0,16-9.9q5.7-4,15.1-11.25,4.15-3.3,5.6-4.55a59.84,59.84,0,0,0,5.25-5,102.12,102.12,0,0,0,7.25-9.6,221.32,221.32,0,0,0,14-23.4,107.3,107.3,0,0,0,9.35-25.4,168.45,168.45,0,0,0,2.7-21.2M591.1,752.55a13.6,13.6,0,0,1-1.15-.75l-1.35.8h-1.85l-1.9,4.75,5.35,5.35-.55.3q1.55,1.1,3.5,2.25a68.77,68.77,0,0,0,17.55,7.25,42.58,42.58,0,0,0,18.6.55,63.38,63.38,0,0,0,14.5-5.55q5-2.55,8.5-4.15l1.1-1.85,6.65-11a35.22,35.22,0,0,1-8.5,5.4,62,62,0,0,1-30.6,5.9,62.84,62.84,0,0,1-29.85-9.25M534.4,627.7q-2,0-3.8-.2a6.62,6.62,0,0,0-5.65,2.15l-5.7,6.9h-7a43.63,43.63,0,0,0-.4,13.9q1.4,12.3,8.7,27.5,2.2,4.56,4.5,8.7,12.86,23,29.45,33.75h2V705.3L562.2,711q-14.65-20.5-19-42a83.77,83.77,0,0,1-1.7-18.55,85.16,85.16,0,0,1,.7-9.15,70.24,70.24,0,0,1,4.5-17.45l-2.5-.75-1.25-.4H540l-3.45,5.05q-1.1,0-2.2-.05M464.3,808.8q5.92-2.95,9.8-4.85l1.3-2.15L483.1,789a40.4,40.4,0,0,1-9.8,6.3,71.6,71.6,0,0,1-35.45,6.85,72.38,72.38,0,0,1-34.55-10.75q-.7-.42-1.35-.85l-1.55.9h-2.15L396,797l6.2,6.2-.65.3a44,44,0,0,0,4.1,2.7,78.59,78.59,0,0,0,20.3,8.35,48.91,48.91,0,0,0,21.55.65q6.8-1.45,16.75-6.4m-310.75,7.3A141.49,141.49,0,0,1,135.3,812a77.14,77.14,0,0,1-17.1-7.2,57.13,57.13,0,0,1-14.4-11.95q-.69-.81-1.35-1.65l-4.4,3.35,7.25,10.65-8.15,7,4.4,4.75,4.45,4.8q36.23,36.73,80,14.15,1.81-.91,3.65-1.95l5.85-8.8-4.8-7.7h-.05q-16.65,2-37-1.4M441.6,668.6a47,47,0,0,0-8,4.65q-1.06.76-2.15,1.6-25.35,19.55-28.9,41.75a72.49,72.49,0,0,0-.8,9.8q-.1,3.35-.25,9.95a50.34,50.34,0,0,1-2,12.8H402q1.84-4.48,3.9-10.05,5.45-14.75,8.55-21.15A73.74,73.74,0,0,1,427.25,699q8.55-8.9,18.7-11.9a47,47,0,0,1,8.7-1.6,6.68,6.68,0,0,1,0-1,14.83,14.83,0,0,0-1.35-8.6,5.12,5.12,0,0,0-3.15-2.7l-.15-.05h-6.2l-2.25-4.6m-29.15-16.2-8-13.15-8.4,4.4-5.25-4.3a35.42,35.42,0,0,0-3.35,4.2,42.85,42.85,0,0,0-5.75,12.55,77.62,77.62,0,0,0-2.35,13.6q-.13,1.57-.25,3.55-.2,4.19-.3,10.2-.3,20,.35,32.3a214.43,214.43,0,0,0,2.55,24l4.85-3v12.4h7.55l-.8-4.8q-2.55-17.4-3.4-25.4a183.29,183.29,0,0,1-1.1-25.5,69.47,69.47,0,0,1,2.1-15.3,40.69,40.69,0,0,1,1.7-4.9,29,29,0,0,1,15-15.6,40.78,40.78,0,0,1,11.85-3.45,49,49,0,0,1,5.75-.35l-4-5.1-8.8,3.65m-118,34.7q-.48-2.38-.85-4.75h-6a28.07,28.07,0,0,0-1.65,5.5,47.26,47.26,0,0,1-2.35,8.8,3.16,3.16,0,0,1-2.55,2.1,12.56,12.56,0,0,0-2.55.75v7.65l-4,6.25q-.77,1-1.45,2a60.62,60.62,0,0,0,24.45,38.95,68.06,68.06,0,0,0,32.85,12,79.88,79.88,0,0,0,25.5-1.5l-7.15-9.55a95.63,95.63,0,0,1-54.2-68.2M166.9,763.35a187.45,187.45,0,0,0,24.8-1q10.71-1.11,17.3-4.35l-4.7-9,11.8-13.4-1.4-2.05a89.38,89.38,0,0,1-21.85,5.55,87.72,87.72,0,0,1-38.3-3.45,88.63,88.63,0,0,1-33.15-19.35,93.19,93.19,0,0,1-9.9-10.6l-3.7,3.65,4.5,10.9-7.3,6.9a72.69,72.69,0,0,0,8.7,12.25,66.94,66.94,0,0,0,29,19.65,86.79,86.79,0,0,0,24.2,4.25m58.5-68.7-.65-3.2a170.45,170.45,0,0,1-30,7.15,93.92,93.92,0,0,1-15.6,1.15,47.29,47.29,0,0,1-30-10.75,114.85,114.85,0,0,1-12.55-11.65A91.29,91.29,0,0,1,123.9,661.2q-1.11-1.93-2-3.85L114.1,665l8.65,11.75-7.3,8.5a58.23,58.23,0,0,0,9.7,13.45,62.4,62.4,0,0,0,30.9,18,78,78,0,0,0,35.55.1A99.07,99.07,0,0,0,219,706.35l-3.8-5.15,10.2-6.55m3.7-24,.6-.9L226.1,662l4.2-4.3q-3.4.16-7.1,0-31.45-1.2-58.4-20.55a108.48,108.48,0,0,1-29.5-31.25l-2.15,2,7.5,9.75-9.1,6.55,5.7,10.9-9.85,6.65q3.61,3.53,7.55,6.75a109.87,109.87,0,0,0,30.85,17.9,112.35,112.35,0,0,0,63.3,4.3m2.15-31.45-.4-1,10.4-7-3.5-13.3q-18.66-9.64-43.15-26.9-22.85-16.1-28.15-19.65-7.88-5.24-15-9.5l-10.55,7,5.9,10.2-8.25,6.5a63.65,63.65,0,0,0,7.15,8.35q7.3,7.2,22.65,17.55,21.55,14.45,34.75,20.3,14.83,6.56,28.2,7.45m88.85,18h-8.15a51.72,51.72,0,0,0-.55,16.1q1.68,14.26,10.15,31.85,16.58,34.45,39.3,49.15h2.35v-17.5l6.65,6.65q-17-23.7-22.05-48.7a91.95,91.95,0,0,1-1.2-32,83.68,83.68,0,0,1,5.2-20.2l-4.3-1.35h-3.3l-4,5.85q-1.3,0-2.55,0-2.25,0-4.4-.25a7.62,7.62,0,0,0-6.55,2.5l-6.6,8M161.2,522.55l-1.5,1.2v9.75l-7.5,8.15,4.75,6.6-.25.2A173.66,173.66,0,0,1,184.45,560a169.85,169.85,0,0,1,39,27.85q5.2,4.95,15.3,15.2a117.15,117.15,0,0,0,9,7.75l1.5-.7-4.75-12.25,7.75-6a107.93,107.93,0,0,0-19.45-29.65,147.57,147.57,0,0,0-34.7-28.05q-20.7-12.33-36.85-11.65m71.1-13a62.92,62.92,0,0,0-53.4-8.2l-12.2,6.3.6,1.8a96.58,96.58,0,0,1,36.3,10.7,94.57,94.57,0,0,1,36.45,32.4,131.48,131.48,0,0,1,10.5,19.85q2.07,4.78,5,12.7l-1.15-11.8a10.06,10.06,0,0,0,3.3-4.65,22.36,22.36,0,0,0,1.3-8,61.27,61.27,0,0,0-7.2-28.8,60.61,60.61,0,0,0-19.55-22.3M491,379.15l.55-.55q-15.4,2.9-25.1,3.9-23,2.35-41.1-1.65-25-5.65-45.9-24a126.78,126.78,0,0,1-25.15-30.35l-.15.05-.55.25,3.65,9.65-7.6,3.1.6,4.2A142.09,142.09,0,0,0,376.6,372a113.79,113.79,0,0,0,27.55,16.5,96.77,96.77,0,0,0,31,7.35,120.74,120.74,0,0,0,31.4-2.7q9.75-2,26.6-7l-2.1-7m6.4-8.6-1.45-6.5q-47.35,6.65-77.45-9.25v-7.35q-17.25-7.15-32-22.45a142,142,0,0,1-21-28.45,2.09,2.09,0,0,0-.7,1.25l3.9,9.9-7.4,4.65A130.39,130.39,0,0,0,381.8,339,110.27,110.27,0,0,0,419,364q20.05,8.1,45.8,8.55A233.39,233.39,0,0,0,497.4,370.55Z"/><path class="cls-6" d="M596.3,428.35l-7.4-.85,7.85,21L585.1,487.2a19.08,19.08,0,0,0,2.95-2.5q1.35-1.4,3.4-4,1.11-1.38,2.1-2.65,3.4-4.29,5.45-7.3a63.14,63.14,0,0,0,6-10.8,36.89,36.89,0,0,0,3-12A27.82,27.82,0,0,0,606,435.7q-2.1-5.2-5.75-6.6a14.45,14.45,0,0,0-4-.75m-51.5-101.5L531.7,316.4l-24.15,15L483,309.2q-34.1,7.3-61.35,32.05-1.6,1.4-3.15,2.95h0v10.6l61.9-32,25.45,23,24.9-16.35,14,5.3,15.65-7.45,3.5-7.7-19.15,7.2m-348.5,80.9L305.95,476.6l30.8-33.35L234.85,362.8l-38.55,45m65.25,55a36.93,36.93,0,0,0-15.5-6.35,46,46,0,0,0-12.3.05q-8.25,1.35-12.3,1.95a135,135,0,0,1-31.75.75q-2.58-.25-4.45-.35t-3,0a12.76,12.76,0,0,0-6.8,2.15,10.89,10.89,0,0,0-3.2,4,84.63,84.63,0,0,1,59.3,12.4A84.45,84.45,0,0,1,268.3,534.2a58.34,58.34,0,0,1-.05,20.85,41.6,41.6,0,0,1-3.55,10.7,66.17,66.17,0,0,0,5-5,69.58,69.58,0,0,0,4.45-5.5,67.82,67.82,0,0,0,11.7-26.05,66.85,66.85,0,0,0-.25-28.5,68,68,0,0,0-11.85-26,59.17,59.17,0,0,0-4-4.85A50.87,50.87,0,0,0,261.55,462.8Z"/></g><g id="batter_0_Layer0_0_FILL" data-name="batter 0 Layer0 0 FILL"><path class="cls-7" d="M466.25,578.26a151.47,151.47,0,0,0,44.26-6.35l21-78.31-43.92,3.17Z"/></g><g id="eyes_0_Layer0_0_FILL" data-name="eyes 0 Layer0 0 FILL"><path class="cls-8" d="M521.35,253.5a30.05,30.05,0,0,0-5.65-23,32,32,0,0,0-7.1-7,5.17,5.17,0,0,0-1.3-.3A29,29,0,0,0,479.5,269a27.62,27.62,0,0,0,14.75,10.6,31.15,31.15,0,0,0,27.1-26.1M597.8,249a23.12,23.12,0,0,0-2.45-6.35,19.42,19.42,0,0,0-2.25-3.1q-8.3-3.45-17.2,1.3a26.61,26.61,0,0,0-6.7,5.1,31.47,31.47,0,0,0-6.45,9.95q-.3.75-.55,1.45a28.9,28.9,0,0,0-1.4,16.85q.2.8.35,1.65,2.9,9.65,11.25,13.2a9.09,9.09,0,0,0,.95.4,20.9,20.9,0,0,0,3.65-.75,25.74,25.74,0,0,0,5.25-2.5q8.8-5.2,13.45-16.15a34.83,34.83,0,0,0,3-14.9q0-1.25-.2-2.45t-.4-2.35Q598,249.65,597.8,249Z"/></g></g></g></svg>