<svg xmlns="http://www.w3.org/2000/svg" viewBox="0 0 567.2 1175"><defs><style>.cls-1{fill:#89899c;}.cls-2{fill:#666674;}.cls-3{fill:#9f9fb5;}.cls-4{fill:#333;}.cls-5{fill:#222226;}.cls-6{fill:#a6a6bd;}.cls-7{fill:#b8dec1;}.cls-8{fill:#ffc;}</style></defs><title>brobot-charged</title><g id="Layer_2" data-name="Layer 2"><g id="Layer_1-2" data-name="Layer 1"><g id="Layer2_0_FILL" data-name="Layer2 0 FILL"><path class="cls-1" d="M472.6,1109.65l.65-26.1-80.4,25.75.35,27.5,79.4-27.15M408.95,281.4l16.3-14.25,28,6.5v11l-8,9.6a170.16,170.16,0,0,0,35.05-4.7q4.8-16.5,3.8-37.45l-16.7-34q-35.65,9.3-65.55,34.2,2.8,14.55,7,29.15m-12.55,11v13.3l26.75,12.55,2.1-17.4Z"/><path class="cls-2" d="M392.85,1109.3q-59-44.3-105.85-107.2l4.75,41a345.55,345.55,0,0,0,101.45,93.7l-.35-27.5M430.8,311.6l2.35-2.8A264.2,264.2,0,0,0,499.5,302a177.51,177.51,0,0,0,6.75-40.55q.3-6.55.25-13.25L484.15,252q1,21-3.8,37.45a170.16,170.16,0,0,1-35.05,4.7l8-9.6v-11l-28,27.15-2.1,17.4,1.5.75Z"/><path class="cls-3" d="M388.5,1010.3h11.65q-10.4,12.5-27.4,22.15a32.55,32.55,0,0,1-18.1,4.35q-35.9-2-46.65-38.1h4l1.6-3.4L287,1002.1q46.85,62.9,105.85,107.2l80.4-25.75Q442.5,1037.3,397,996.7l-8.55,13.6M484.15,252l22.35-3.8L467.45,218l16.7,34m-87.75,40.3,28.85,8.45,28-27.15-28-6.5-16.3,14.25Z"/><path class="cls-4" d="M402.1,981.5l-1.7-1q-5.55,4.8-18.1,6a194.41,194.41,0,0,1-27.4,1,85.89,85.89,0,0,1-26.55-5.3,58.57,58.57,0,0,1-15.8-9.05l-1,1.25,6.1,3.55v5.55h-5.1v6.6h3.55l-2.4,5.2a45.36,45.36,0,0,0,11.6,8.35,53.7,53.7,0,0,0,28.2,5.75,78,78,0,0,0,27.55-7.3,125.34,125.34,0,0,0,13.45-7.2l-4-2.75,11.6-10.65m-7.45-38.85a44.3,44.3,0,0,1-7.6,2.6,67.38,67.38,0,0,1-13,1.8q-5.3.2-13.25-.15a184.87,184.87,0,0,1-21.9-1.9,75.5,75.5,0,0,1-20.9-6.4l-.8-.4v.3l-3.8,3.05,6.8,9.6-6.8,8.1a26,26,0,0,0,2.25,2h3.05v2.45a57.89,57.89,0,0,0,6,4,68.94,68.94,0,0,0,33.2,9.8,80.21,80.21,0,0,0,33.75-6.4,96.07,96.07,0,0,0,11-5.3l-4.65-3.6V957.7l5.6-6.05-9-9m-80.55-26,6.05,4.6-2.3,2.85q.3.3.65.6,10.3,7.8,26.8,10.35a79.61,79.61,0,0,0,20.05.65,66.83,66.83,0,0,0,19.5-4.7,68.6,68.6,0,0,0,9.65-5.2L393,924.3h3.75q.9-.7,1.85-1.4v-3.1l-7.1-8.65,9.1-4.5v-2.6l-.85-.55q-12.55,8.5-35.35,9.9a104.83,104.83,0,0,1-24.5-1.1,51.83,51.83,0,0,1-19.55-7.35l-6.25,8.75v3m8.1-62.7v3.55h-7.3A63.71,63.71,0,0,0,367,890.5a60.34,60.34,0,0,0,29.35-6.2L395,881.8l6.55-8.1q.25-3-2.9-4.25a41.19,41.19,0,0,1-4.15-1.8V862.1l11.1-8.6-5.7-3.4a69.15,69.15,0,0,1-10.8,8.9,52.5,52.5,0,0,1-22.9,8.05,56.89,56.89,0,0,1-24.35-2.5A62.32,62.32,0,0,1,322.2,854m-6.6-36.45-1.95,1.3q2.5,2.55,5.25,5a70.7,70.7,0,0,0,61.65,16.1,73.53,73.53,0,0,0,20.7-7.55l-2.15-1.2v-4.55l6.5-4.3q-4.35,1.6-8.8,2.8a92.5,92.5,0,0,1-33.9,2.9,76.54,76.54,0,0,1-32.35-11,60,60,0,0,1-5.45-3.7,65.51,65.51,0,0,1-13.85-13.8L308,804.4l7.6,9.65v3.5M415.45,508a7.46,7.46,0,0,0-2-2.85l-5.55,14q-1.7,3.4-3,6.65-22.75,54.35,28.95,70.7,1.4-2.35,6.6,2.35l8.15-9.15,5.6,4.85a5.68,5.68,0,0,0,4.1.45l1.9-3.75a42.8,42.8,0,0,1-13.6-4.75,50,50,0,0,1-18-16.4,69.28,69.28,0,0,1-9.2-21.9,122,122,0,0,1-3.05-23.6q-.15-2.15-.25-11.65,0-2-.1-4.3l-.5-.65m21.1-7.65H429.7l-1.15,1.9q0,.2,0,.45.1,5.3.55,10.25a98,98,0,0,0,2.35,13.55,73.89,73.89,0,0,0,9.35,22.35,59.39,59.39,0,0,0,16.75,17.75,50.41,50.41,0,0,0,23.5,8.65,46.85,46.85,0,0,0,14.25-.55l2.6-5.8v-5.3h16.3v-2.9L518,547.85a102.39,102.39,0,0,1-15.65.2,86.32,86.32,0,0,1-26.5-5.75,71.21,71.21,0,0,1-22.65-14.2,60.15,60.15,0,0,1-11.85-15.15,55.3,55.3,0,0,1-2.9-6.4,53.68,53.68,0,0,1-2-6.2m40-28.55q-1.7-1.45-3.3-2.9h-6.9l4.1,10.6H462.3a5.57,5.57,0,0,0-3-1.45,15.19,15.19,0,0,0-4.6,2.9v10.2h-1.7q1.75,2.8,3.8,5.5A79.29,79.29,0,0,0,473,512.95a81.7,81.7,0,0,0,12,7.4,84.52,84.52,0,0,0,36.55,8.85,97.41,97.41,0,0,0,12.55-.6v-4.15h10.2V520.1l-3.55-8.2,11.2-7.25v-2.4l-2.9-9.6a43.7,43.7,0,0,1-7.65,2q-13.15,2.3-30-3.2a104.46,104.46,0,0,1-34.9-19.6m14.9-16.15A94.8,94.8,0,0,0,525.3,467.1a76.42,76.42,0,0,0,36-3.8l1-.4-4.75-9.45,6.1-7.75-3.35-10.1a58.73,58.73,0,0,1-5.65,2.4,70.05,70.05,0,0,1-27.55,3.7,97.42,97.42,0,0,1-34.5-8.4,87.24,87.24,0,0,1-10.95-5.75l-1,1.25,5.6,4.35h4L477,443.75l6.6,5.8a7.72,7.72,0,0,0,.55,1.7q3.6,2.3,7.25,4.4m69.15-65.5h5.6v-2.4l-5.9-7.3q-3,2.85-6.35,5.55a96.28,96.28,0,0,1-34.75,17.95,100.5,100.5,0,0,1-36.6,3.1l-1.45,2.9v1.9l9.15,4.85-3.6,4.5a95.31,95.31,0,0,0,72.8-6,7.42,7.42,0,0,1,.6-2.85l5.6-5.3-5.1-9.2v-7.7m-4.75-41.3q.25-.3.5-.55l-9-4.1H545.8l3.6-9.15-4.1-2.9-4.35-2.2a54.66,54.66,0,0,1-4.7,6.35,58,58,0,0,1-22.05,15.8,78,78,0,0,1-26.8,5.7,95.73,95.73,0,0,1-14.45-.3l3.6,1.2-8.7,12.1.75.65a94.26,94.26,0,0,0,60-4.25,89,89,0,0,0,27.25-18.35m-30.9-51.5h-14a28,28,0,0,1-3.5,6.9q-6.6,8.9-20.25,13.85a65,65,0,0,1-21.4,3.85l-6,18H472.5l-10.05,11.4q2.9.1,5.85,0A75.65,75.65,0,0,0,498,344.4a65.7,65.7,0,0,0,23.75-18.3,63.44,63.44,0,0,0,7.1-10.9l-3-.95v-14Q525.45,300,524.95,297.35Z"/><path class="cls-5" d="M397,996.7l-2.55-1.8a125.34,125.34,0,0,1-13.45,7.2,78,78,0,0,1-27.55,7.3,53.7,53.7,0,0,1-28.2-5.75,45.36,45.36,0,0,1-11.6-8.35h0l-1.6,3.4h-4q10.75,36.15,46.65,38.1a32.55,32.55,0,0,0,18.1-4.35q17-9.65,27.4-22.15H388.5L397,996.7m7.6-29.35-2-1.5a96.07,96.07,0,0,1-11,5.3,80.21,80.21,0,0,1-33.75,6.4,68.94,68.94,0,0,1-33.2-9.8,57.89,57.89,0,0,1-6-4,6.12,6.12,0,0,1-.05,1.1,3.84,3.84,0,0,1-1.95,3.1l-4.1,5.25a58.57,58.57,0,0,0,15.8,9.05,85.89,85.89,0,0,0,26.55,5.3,194.41,194.41,0,0,0,27.4-1q12.55-1.25,18.1-6L395,977l9.6-9.6m-2-32.9-8.15-8.6a68.6,68.6,0,0,1-9.65,5.2,66.83,66.83,0,0,1-19.5,4.7,79.61,79.61,0,0,1-20.05-.65q-16.5-2.55-26.8-10.35-.35-.3-.65-.6l-4.75,5.75,4.05,5.55v2.75l.8.4a75.5,75.5,0,0,0,20.9,6.4,184.87,184.87,0,0,0,21.9,1.9q8,.35,13.25.15a67.38,67.38,0,0,0,13-1.8,44.3,44.3,0,0,0,7.6-2.6l-.1-.1,8.1-8.1m-87.75-76.9h-.3l5.05,9.1-3.55,7.6-4.55,4.05,9.1,9.55-6.05,6.1,7.1,9.15-1.35,1.85a51.83,51.83,0,0,0,19.55,7.35,104.83,104.83,0,0,0,24.5,1.1q22.8-1.4,35.35-9.9L392.5,898l8.1-6.1-4.2-7.6A60.34,60.34,0,0,1,367,890.5a63.71,63.71,0,0,1-52.15-32.95m4-33.7q-2.75-2.45-5.25-5L310,821.1q2.1,9.3,9.1,12.15l-7.45,6,10.4,14.7.1,0h0a62.32,62.32,0,0,0,19.7,10.55,56.89,56.89,0,0,0,24.35,2.5,52.5,52.5,0,0,0,22.9-8.05,69.15,69.15,0,0,0,10.8-8.9l-1.9-1.15v-3l8.65-7.55v-3.1l-5.45-2.85a73.53,73.53,0,0,1-20.7,7.55,70.7,70.7,0,0,1-61.65-16.1m79.8-23.1-23.8-18.9L333.65,808,313.8,784.15l-6.8,3,6.1,9.65-1.85,2.75a65.51,65.51,0,0,0,13.85,13.8,60,60,0,0,0,5.45,3.7,76.54,76.54,0,0,0,32.35,11,92.5,92.5,0,0,0,33.9-2.9q4.45-1.2,8.8-2.8l1.1-.75h-8.1v-6l3.15-5.7-3.05-9.1M421,514.35l-5.1-5.7q0,2.3.1,4.3.1,9.5.25,11.65a122,122,0,0,0,3.05,23.6,69.28,69.28,0,0,0,9.2,21.9,50,50,0,0,0,18,16.4,42.8,42.8,0,0,0,13.6,4.75l3.65-7.35,14.8,2.9V576.65h15.8l.9-2a46.85,46.85,0,0,1-14.25.55,50.41,50.41,0,0,1-23.5-8.65,59.39,59.39,0,0,1-16.75-17.75,73.89,73.89,0,0,1-9.35-22.35,98,98,0,0,1-2.35-13.55q-.45-4.95-.55-10.25,0-.25,0-.45l-7.5,12.1m64,6a81.7,81.7,0,0,1-12-7.4,79.29,79.29,0,0,1-16.25-16.3q-2.05-2.7-3.8-5.5h-14.6v9.2h-1.8a53.68,53.68,0,0,0,2,6.2,55.3,55.3,0,0,0,2.9,6.4,60.15,60.15,0,0,0,11.85,15.15,71.21,71.21,0,0,0,22.65,14.2,86.32,86.32,0,0,0,26.5,5.75,102.39,102.39,0,0,0,15.65-.2l.8-2.65L531,540.9l3.1-3.85V528.6a97.41,97.41,0,0,1-12.55.6A84.52,84.52,0,0,1,485,520.35m40.3-53.25a94.8,94.8,0,0,1-33.85-11.45q-3.65-2.1-7.25-4.4a12,12,0,0,0,2.05,2.7H479.6L474,457.8l7.15,6.25L476,468.9h-2.8q1.6,1.45,3.3,2.9a104.46,104.46,0,0,0,34.9,19.6q16.8,5.5,30,3.2a43.7,43.7,0,0,0,7.65-2l-.15-.55,10.2-10.15-8.15-10.15,11.65-8.25-.3-.65-1,.4a76.42,76.42,0,0,1-36,3.8m36.15-47.35a6.88,6.88,0,0,1-1.95-4.55,97.94,97.94,0,0,1-72.8,6l-5,6.35a87.24,87.24,0,0,0,10.95,5.75,97.42,97.42,0,0,0,34.5,8.4,70.05,70.05,0,0,0,27.55-3.7,58.73,58.73,0,0,0,5.65-2.4l-1.2-3.9,3.55-3.35a6.69,6.69,0,0,0,3-2.5,34.13,34.13,0,0,0-4.25-6.1m-5.1-71.45q-.25.25-.5.55A89,89,0,0,1,528.6,367.2a94.26,94.26,0,0,1-60,4.25l6.9,5.65h7.65l-9.6,13.5q1.1,3.5,8.1,3.9l7.65,3.85-4.1,3.4-2.6,5.3a100.5,100.5,0,0,0,36.6-3.1A96.28,96.28,0,0,0,553.95,386q3.35-2.7,6.35-5.55l-.75-.95,7.65-15H553.95l5.15-11.65v-4.3H557l-.65-.3m-19.7-30.65-7.75-2.45a63.44,63.44,0,0,1-7.1,10.9A65.7,65.7,0,0,1,498,344.4a75.65,75.65,0,0,1-29.75,6.9q-2.95.1-5.85,0l-.15.15v2.45l10.65,3.6a95.73,95.73,0,0,0,14.45.3,78,78,0,0,0,26.8-5.7,58,58,0,0,0,22.05-15.8,54.66,54.66,0,0,0,4.7-6.35l-2.25-1.15V317.65h-2m-103.5-8.85-2.35,2.8a55.29,55.29,0,0,0,25.65,9.8,67.57,67.57,0,0,0,9.3.55,65,65,0,0,0,21.4-3.85q13.65-5,20.25-13.85a28,28,0,0,0,3.5-6.9,30.42,30.42,0,0,0,1.2-4.4,36.11,36.11,0,0,0,.4-12.3q-1-8.4-6.25-19.15A177.51,177.51,0,0,1,499.5,302,264.2,264.2,0,0,1,433.15,308.8Z"/></g><g id="Layer1_0_FILL" data-name="Layer1 0 FILL"><path class="cls-3" d="M136.15,1024.45h4.4l1.75-3.7-29.1,7.4Q164.3,1096.7,228.6,1145l87.65-28.1q-33.5-50.35-83.05-94.7l-9.4,14.9h12.75q-11.3,13.6-29.9,24.1A35.18,35.18,0,0,1,187,1066q-39.15-2.1-50.85-41.5m-1.4-723.65,27.35-8.45-11.9-11-15.45-14.25-26.65,6.5,26.65,27.15m-77.1-52.55,21.2,3.8,15.8-34-37,30.2M360.9,440.7l3.35,4.4v3.5h-7.6v2.15l6.3,9.15-9.45,3.45,6.65,7-4.75,3.9,28.95,26.65a962.8,962.8,0,0,1-145.45,0q-20.5-20.25-38.05-50.1,19.7-1.05,41.55-.6v-1.9L240,445.1l-74.2,4.75,37.5,68,225.35-7.7-56.6-65-11.2-4.45m46.55-245.8a3.76,3.76,0,0,0,.45-1.55q.5-6.2-17.55-12.1a174.6,174.6,0,0,0-32.55-6.65q-1.5,5.9-3,11.3-.8,3-2.3,3.45a2.52,2.52,0,0,1-2.2-.35,3.81,3.81,0,0,1-1.4-2,8.88,8.88,0,0,1,.35-4.7q1-4.1,2.1-8.35-2.45-.25-5-.45-26-2.05-44.75.9-17.8,2.85-19.05,8.6a.56.56,0,0,0,0,.25.94.94,0,0,0-.05.3q-.5,6.15,17.5,12T344,203.35q26,2,44.7-1,16.25-2.55,18.75-7.5M385.1,0a18.34,18.34,0,0,0-13.4,5.5,18.28,18.28,0,0,0-5.5,13.35,18.18,18.18,0,0,0,5.5,13.35,18.28,18.28,0,0,0,13.4,5.55h1.05A18,18,0,0,0,398.4,32.2a18.09,18.09,0,0,0,5.55-13.35A18.2,18.2,0,0,0,398.4,5.5,18.12,18.12,0,0,0,385.1,0Z"/><path class="cls-5" d="M140.55,1024.45h-4.4q11.7,39.4,50.85,41.5a35.18,35.18,0,0,0,19.65-4.75q18.6-10.5,29.9-24.1H223.8l9.4-14.9-2.8-1.9a128,128,0,0,1-14.7,7.85q-15.55,7.05-29.95,7.95a58.38,58.38,0,0,1-30.75-6.25,49.08,49.08,0,0,1-12.7-9.1l-1.75,3.7m98.8-35.85a108.51,108.51,0,0,1-12.05,5.85,88.73,88.73,0,0,1-36.8,6.95,75,75,0,0,1-36.15-10.65,79.58,79.58,0,0,1-6.65-4.45,7.12,7.12,0,0,1,0,1.2,4.14,4.14,0,0,1-2.1,3.35l-4.45,5.75a61.65,61.65,0,0,0,17.2,9.85,93.39,93.39,0,0,0,29,5.75,205.05,205.05,0,0,0,29.85-1.05q13.75-1.35,19.75-6.6l-5.85-3.8,10.45-10.5-2.1-1.65M208,968.15a76.64,76.64,0,0,0,14.25-1.95,45.47,45.47,0,0,0,8.25-2.9l-.1-.05,8.85-8.85-8.9-9.35a65,65,0,0,1-10.55,5.65,72.12,72.12,0,0,1-21.2,5.15,86.51,86.51,0,0,1-21.9-.7q-18-2.8-29.15-11.35l-.8-.6-5.1,6.25,4.4,6v3q.45.25.9.45a82.56,82.56,0,0,0,22.75,7A197.21,197.21,0,0,0,193.6,968q8.7.4,14.45.15m-64.4-97.6h-.35l5.55,9.95-3.9,8.3L140,893.2l9.95,10.45-6.65,6.65,7.75,9.9-1.5,2a57.25,57.25,0,0,0,21.3,8.1,114.81,114.81,0,0,0,26.75,1.15q24.8-1.5,38.55-10.8l-7.9-6,8.8-6.65-4.55-8.3a65.84,65.84,0,0,1-66.5-4.8,67.08,67.08,0,0,1-22.35-24.4M142.3,828.4l-3.95,2.45q2.3,10.15,9.95,13.25l-8.1,6.55,11.3,16,.1,0h0a67.47,67.47,0,0,0,21.5,11.5,62,62,0,0,0,26.5,2.75,57.61,57.61,0,0,0,25-8.8,72.52,72.52,0,0,0,11.75-9.7l-2.05-1.25v-3.3l9.4-8.25V846.3l-5.9-3.15a79.3,79.3,0,0,1-22.6,8.25A77.19,77.19,0,0,1,148,833.85q-3-2.65-5.75-5.45M135,793.95l6.65,10.45-2,3a72.57,72.57,0,0,0,21,19.1,83.09,83.09,0,0,0,35.25,12,100.49,100.49,0,0,0,37-3.2q4.85-1.3,9.65-3l1.15-.85h-8.85v-6.6l3.45-6.2q-35.8,1.35-71.95.7L142.4,790.55l-7.35,3.4M122.3,491.15H108.45q-1.65,2.8-3.6,5.5a79.11,79.11,0,0,1-15.45,16.3A77.12,77.12,0,0,1,78,520.35a77,77,0,0,1-34.7,8.85,87.28,87.28,0,0,1-11.9-.6v8.45l2.9,3.85,11.6,4.3.75,2.65a91.64,91.64,0,0,0,14.8.2,78.17,78.17,0,0,0,25.15-5.75,67.13,67.13,0,0,0,21.5-14.2,59.06,59.06,0,0,0,11.25-15.15,49.34,49.34,0,0,0,2.75-6.4,60.92,60.92,0,0,0,1.9-6.2H122.3v-9.2M4.4,463.55l11.1,8.25L7.75,481.95l9.7,10.15-.2.55a39.71,39.71,0,0,0,7.25,2q12.5,2.3,28.45-3.2A97.86,97.86,0,0,0,86,471.8q1.6-1.45,3.1-2.9h-2.6l-4.85-4.85,6.75-6.25-5.3-3.85h-6.3a13.49,13.49,0,0,0,1.95-2.7q-3.4,2.3-6.9,4.4A86.85,86.85,0,0,1,39.8,467.1a69,69,0,0,1-34.1-3.8l-1-.4-.3.65m76.85-36L76.4,421.2a86.83,86.83,0,0,1-21.15,4.15,86.41,86.41,0,0,1-34.6-4.3,87.91,87.91,0,0,1-13.3-5.85,7.09,7.09,0,0,1-1.85,4.55,30.94,30.94,0,0,0-4,6.1,6,6,0,0,0,2.85,2.5l3.4,3.35L6.6,435.6a52.81,52.81,0,0,0,5.35,2.4A63.18,63.18,0,0,0,38,441.7a88.69,88.69,0,0,0,32.8-8.4,87.2,87.2,0,0,0,10.4-5.75M87,377.1l6.6-5.65a81.75,81.75,0,0,1-26.05,3,82.85,82.85,0,0,1-30.9-7.2,83.89,83.89,0,0,1-25.8-18.35q-.25-.3-.5-.55l-.65.3H7.75v4.3l4.85,11.65H0l7.25,15-.65.95q2.85,2.85,6,5.55a89,89,0,0,0,67.7,21l-2.45-5.3-3.9-3.4,7.25-3.85q6.65-.4,7.7-3.9l-9.15-13.5H87m44,135.85a103.62,103.62,0,0,1-2.2,13.55A78.49,78.49,0,0,1,120,548.85a58.76,58.76,0,0,1-16,17.75,46.24,46.24,0,0,1-22.25,8.65,42.1,42.1,0,0,1-13.5-.55l.85,2H84.1V586.8l14-2.9,3.55,7.35a39.22,39.22,0,0,0,12.85-4.75,48.46,48.46,0,0,0,17.1-16.4,71.2,71.2,0,0,0,8.75-21.9,128.49,128.49,0,0,0,2.85-23.6q.15-2.15.25-11.65,0-2,.1-4.3l-4.85,5.7-7.1-12.1v.45q-.1,5.3-.55,10.25m-77.6-215.6a26.49,26.49,0,0,0,3.35,6.9Q63,313.15,76,318.1a58.77,58.77,0,0,0,20.3,3.85,60.58,60.58,0,0,0,8.8-.55,51,51,0,0,0,24.35-9.8l-2.25-2.8A238.41,238.41,0,0,1,64.25,302a187,187,0,0,1-6.4-40.55q-4.9,10.75-5.95,19.15a37.88,37.88,0,0,0,.4,12.3,35.4,35.4,0,0,0,1.15,4.4m-17,17.85L29,317.65H27.1V328.8l-2.15,1.15A54.8,54.8,0,0,0,50.3,352.1a71.3,71.3,0,0,0,25.45,5.7,86,86,0,0,0,13.7-.3l10.1-3.6v-2.45l-.1-.15q-2.8.1-5.6,0a68.32,68.32,0,0,1-28.15-6.9,62.23,62.23,0,0,1-22.55-18.3,63.08,63.08,0,0,1-6.75-10.9m368,327,3.8-89.75a1615.62,1615.62,0,0,0-174.55,3.5l-5.15,29.9h-27V619.5h15.85l9.75,11.45v16l177.35-4.7m-16.2-72.45V633a1270.18,1270.18,0,0,1-136.8,3.6V569.75a1200.61,1200.61,0,0,1,136.8,0M369.9,414.1l-73,1.35-31.6-28.1a50.28,50.28,0,0,1-14.65-7.15l-6.4,6.35,9.1,12.6q31.9,40.85,108,23.6l8.5-8.65m-9,26.6-3.3-4.4Q299,459,251.85,416.75l-12.6,10.4a4,4,0,0,0,2.85,2.55l3.8,5.3q51,48.4,110.75,15.75V448.6h7.6v-3.5l-3.35-4.4M332.85,317.15l-25.4,9q-25.45-11.05-36.25-39a90.35,90.35,0,0,0,.25,9q5.75,39.3,38.05,61.1,9-1.6,16.3-10.85a90.31,90.31,0,0,1,32.7,17.45,43.54,43.54,0,0,0,19-15.2l11.2,6.2q15.3-16.3,21.75-40.45l-14.4,14-17.55-6.6-21.5,12Z"/><path class="cls-4" d="M230.4,1020.3l-4.35-3,12.65-11.6-1.85-1.15q-6,5.25-19.75,6.6a205.05,205.05,0,0,1-29.85,1.05,93.39,93.39,0,0,1-29-5.75,61.65,61.65,0,0,1-17.2-9.85L140,998l6.6,3.85v6.1h-5.5v7.15h3.85l-2.65,5.7a49.08,49.08,0,0,0,12.7,9.1,58.38,58.38,0,0,0,30.75,6.25q14.4-.9,29.95-7.95a128,128,0,0,0,14.7-7.85m-8.1-54.1A76.64,76.64,0,0,1,208,968.15q-5.75.25-14.45-.15a197.21,197.21,0,0,1-23.85-2.1,82.56,82.56,0,0,1-22.75-7q-.45-.2-.9-.45v.35l-4.2,3.35,7.45,10.45-7.45,8.8q1.2,1.15,2.5,2.25h3.3v2.65a79.58,79.58,0,0,0,6.65,4.45,75,75,0,0,0,36.15,10.65,88.73,88.73,0,0,0,36.8-6.95,108.51,108.51,0,0,0,12.05-5.85l-5.05-3.85v-5l6.1-6.6-9.85-9.85a45.47,45.47,0,0,1-8.25,2.9M237,921.3l-.9-.65q-13.75,9.3-38.55,10.8a114.81,114.81,0,0,1-26.75-1.15,57.25,57.25,0,0,1-21.3-8.1l-6.8,9.6v3.3l6.6,5-2.55,3.1.8.6q11.2,8.55,29.15,11.35a86.51,86.51,0,0,0,21.9.7,72.12,72.12,0,0,0,21.2-5.15,65,65,0,0,0,10.55-5.65l-1.6-1.7h4.05q1-.75,2-1.55v-3.4l-7.7-9.35,9.9-5v-2.8M151.6,870.55h-7.95A67.08,67.08,0,0,0,166,894.95a65.84,65.84,0,0,0,66.5,4.8l-1.5-2.7,7.15-8.85q.25-3.25-3.2-4.65a44,44,0,0,1-4.5-2v-6l12.1-9.4-6.2-3.7a72.52,72.52,0,0,1-11.75,9.7,57.61,57.61,0,0,1-25,8.8,62,62,0,0,1-26.5-2.75,67.47,67.47,0,0,1-21.5-11.5v3.85m-15.45-57.9,8.3,10.5V827l-2.15,1.4q2.7,2.8,5.75,5.45A77.19,77.19,0,0,0,215.2,851.4a79.3,79.3,0,0,0,22.6-8.25l-2.4-1.25v-5l7.15-4.65q-4.8,1.7-9.65,3a100.49,100.49,0,0,1-37,3.2,83.09,83.09,0,0,1-35.25-12,72.57,72.57,0,0,1-21-19.1l-3.55,5.25m-118.9-320-2.75,9.6v2.4l10.65,7.25-3.4,8.2v4.35h9.7v4.15a87.28,87.28,0,0,0,11.9.6A77,77,0,0,0,78,520.35a77.12,77.12,0,0,0,11.35-7.4,79.11,79.11,0,0,0,15.45-16.3q1.95-2.7,3.6-5.5H106.8v-10.2a14.56,14.56,0,0,0-4.3-2.9,5.27,5.27,0,0,0-3,1.45h-7.7l3.9-10.6h-6.6q-1.5,1.45-3.1,2.9a97.86,97.86,0,0,1-33.1,19.6Q37,496.9,24.5,494.6a39.71,39.71,0,0,1-7.25-2M11.95,438a52.81,52.81,0,0,1-5.35-2.4L3.4,445.7l5.8,7.75L4.7,462.9l1,.4a69,69,0,0,0,34.1,3.8,86.85,86.85,0,0,0,32.1-11.45q3.5-2.1,6.9-4.4a6.06,6.06,0,0,0,.5-1.7l6.25-5.8L73,433.15h3.85l5.3-4.35-.9-1.25a87.2,87.2,0,0,1-10.4,5.75A88.69,88.69,0,0,1,38,441.7a63.18,63.18,0,0,1-26.1-3.7M76.4,421.2,73,416.7l8.7-4.85v-1.9L80.3,407a89,89,0,0,1-67.7-21q-3.15-2.7-6-5.55L1,387.75v2.4H6.35v7.7L1.5,407l5.3,5.3a8,8,0,0,1,.55,2.85A87.91,87.91,0,0,0,20.65,421a86.41,86.41,0,0,0,34.6,4.3A86.83,86.83,0,0,0,76.4,421.2M86,358.7l3.4-1.2a86,86,0,0,1-13.7.3,71.3,71.3,0,0,1-25.45-5.7,54.8,54.8,0,0,1-25.35-22.15l-4.1,2.2-3.9,2.9,3.4,9.15H18.9l-8.55,4.1q.25.25.5.55a83.89,83.89,0,0,0,25.8,18.35,82.85,82.85,0,0,0,30.9,7.2,81.75,81.75,0,0,0,26.05-3l.65-.65L86,358.7m57.4,154.25q-.1,9.5-.25,11.65a128.49,128.49,0,0,1-2.85,23.6,71.2,71.2,0,0,1-8.75,21.9,48.46,48.46,0,0,1-17.1,16.4,39.22,39.22,0,0,1-12.85,4.75L103.4,595a5.13,5.13,0,0,0,3.9-.45l5.3-4.85,7.75,9.15q4.95-4.7,6.25-2.35,49.05-16.35,27.5-70.7-1.3-3.25-2.85-6.65l-5.3-14A7.39,7.39,0,0,0,144,508l-.5.65q0,2.3-.1,4.3m-11.85-10.7-1.1-1.9H124a60.92,60.92,0,0,1-1.9,6.2,49.34,49.34,0,0,1-2.75,6.4,59.06,59.06,0,0,1-11.25,15.15,67.13,67.13,0,0,1-21.5,14.2,78.17,78.17,0,0,1-25.15,5.75,91.64,91.64,0,0,1-14.8-.2l3.6,12.85v2.9H65.75v5.3l2.55,5.8a42.1,42.1,0,0,0,13.5.55A46.24,46.24,0,0,0,104,566.6a58.76,58.76,0,0,0,16-17.75,78.49,78.49,0,0,0,8.85-22.35,103.62,103.62,0,0,0,2.2-13.55q.45-4.95.55-10.25v-.45M40.15,297.35q-.5,2.65-1,2.95v14l-2.8.95a63.08,63.08,0,0,0,6.75,10.9A62.23,62.23,0,0,0,65.7,344.4a68.32,68.32,0,0,0,28.15,6.9q2.8.1,5.6,0L89.9,339.9H102l-5.7-18A58.77,58.77,0,0,1,76,318.1q-13-5-19.2-13.85a26.49,26.49,0,0,1-3.35-6.9H40.15M357.6,436.3l9.75-4.1-5.95-9.45q-76.1,17.25-108-23.6L244,403.9l7.85,12.85Q299,458.95,357.6,436.3m-2.2,37.9,4.75-3.9-6.65-7,9.45-3.45-6.3-9.15Q296.95,483.4,245.9,435l-8.2,6.95L240,445.1l2.35,3.15v1.9l-5,3.45a7.92,7.92,0,0,0,.3,2.2l4.1,6.3q45.9,54.35,108.85,16l4.75-4M385.1,37.75a19,19,0,0,1-5.95-.9L375.5,56.7q-7.9,42-12.15,63-6,29.75-12,54.25-1.05,4.25-2.1,8.35a8.88,8.88,0,0,0-.35,4.7,3.81,3.81,0,0,0,1.4,2,2.52,2.52,0,0,0,2.2.35q1.5-.5,2.3-3.45,1.5-5.4,3-11.3,3.15-12.45,6.25-26.95,2.8-12.85,7.9-38.55,2.7-13.45,8-40.25.7-3.45,2.05-10.3,1.15-5.9,1.8-10.3.5-3.85.9-5.65a24.57,24.57,0,0,1,1.45-4.85Z"/><path class="cls-2" d="M113.2,1028.15l5.2,44.7A377.15,377.15,0,0,0,229,1175l-.4-30q-64.3-48.3-115.4-116.85m7.15-429.3-7.75-9.15q-3.15,31.2-4.1,60.8A687,687,0,0,0,112.75,755l29.65,35.55,23.95,28.75q-1.9-21.75-3-43.65-3.25-62.35-.4-125.15,2.55-55.6,9.9-111.6L154.1,525.8q21.55,54.35-27.5,70.7-1.3-2.35-6.25,2.35m-62.7-350.6q-.1,6.7.2,13.25A187,187,0,0,0,64.25,302a238.41,238.41,0,0,0,62.95,6.75l2.25,2.8,5.85,7.35,1.45-.75-2-17.4L108.1,273.65v11l7.65,9.6a154.27,154.27,0,0,1-33.3-4.7Q77.85,273,78.85,252l-21.2-3.8M201.5,630.95h25.6l-9.75-11.45H201.5v11.45M423.1,553.1q-7.4-.35-14.85-.65l-3.8,89.75L227.1,646.9v16a1447.3,1447.3,0,0,0,190.25-5.25,579.73,579.73,0,0,0,6.2-83.55q0-10.6-.45-21m-67.7-78.9-4.75,4q-63,38.3-108.85-16l-4.1-6.3a7.92,7.92,0,0,1-.3-2.2l5-3.45q-21.85-.45-41.55.6,17.55,29.85,38.05,50.1a962.8,962.8,0,0,0,145.45,0L355.4,474.2m-58.45-58.75,14.3-51.35q-37-27.6-39.8-68a90.35,90.35,0,0,1-.25-9,382.92,382.92,0,0,0-5.85,100.25l31.6,28.1m91.85-1.7,10.7-9.25L414.4,323q-9.4,23.05-23.45,39Z"/><path class="cls-6" d="M130.5,500.35l1.1,1.9,7.1,12.1,4.85-5.7.5-.65a7.39,7.39,0,0,1,1.9-2.85l5.3,14q1.55,3.4,2.85,6.65l18.75,13.1,30.5-21.1-37.5-68L124,500.35h6.45M414.4,323l-4-8.6Q404,338.55,388.7,354.85l-11.2-6.2a43.54,43.54,0,0,1-19,15.2,90.31,90.31,0,0,0-32.7-17.45q-7.35,9.25-16.3,10.85-32.3-21.8-38.05-61.1,2.8,40.35,39.8,68,8.8-2.45,19.6-10a235.88,235.88,0,0,1,30.05,13.7,39.5,39.5,0,0,0,20.35-12.5l9.7,6.65Q405,346.05,414.4,323m-22.1-60.55a19.07,19.07,0,0,1,6.15,4.7,23.8,23.8,0,0,1,0,30.55A17.23,17.23,0,0,1,386,303.95a16.72,16.72,0,0,0,7.3,1.6,17.29,17.29,0,0,0,13.45-6.3,21.56,21.56,0,0,0,4.85-9.1,26.37,26.37,0,0,0,.7-6.2q0-.2,0-.4v-.1q0-1,0-1.9a22,22,0,0,0-5.5-12.8,17.29,17.29,0,0,0-13.45-6.3h-1m-78.75-5.35a22.48,22.48,0,0,1,7.25,5.9,30.72,30.72,0,0,1,0,38q-6.15,7.4-14.7,7.85a18.76,18.76,0,0,0,8.6,2q9.3,0,15.9-7.9a30.72,30.72,0,0,0,0-38.05Q324,257,314.7,257,314.1,257,313.55,257.1Z"/><path class="cls-1" d="M162.1,292.35l-27.35,8.45,2,17.4,25.35-12.55v-13.3M82.45,289.5a154.27,154.27,0,0,0,33.3,4.7l-7.65-9.6v-11l26.65-6.5L150.2,281.4q4-14.6,6.65-29.15-28.35-24.9-62.2-34.2l-15.8,34q-1,21,3.6,37.45M315.5,1145.4l.75-28.5L228.6,1145l.4,30,86.5-29.6M443.8,540.25,428.7,510.1l-225.35,7.7-30.5,21.1q-7.35,56-9.9,111.6-2.85,62.8.4,125.15,1.1,21.9,3,43.65,36.15.65,71.95-.7a1242.61,1242.61,0,0,0,131.45-12.15q21.9-3.25,43.7-7.25a1928.89,1928.89,0,0,0,30.35-259m-35.55,12.2q7.45.3,14.85.65.4,10.4.45,21a579.73,579.73,0,0,1-6.2,83.55A1447.3,1447.3,0,0,1,227.1,662.9v-32H201.5v-45.1h27l5.15-29.9a1615.62,1615.62,0,0,1,174.55-3.5M390.95,362l-9.7-6.65a39.5,39.5,0,0,1-20.35,12.5,235.88,235.88,0,0,0-30.05-13.7q-10.8,7.5-19.6,10l-14.3,51.35,73-1.35,18.9-.35L390.95,362m16.5-167.1q-2.5,5-18.75,7.5-18.75,3-44.7,1t-44.05-7.85q-18-5.8-17.5-12a.94.94,0,0,1,.05-.3q-41.05,79.6-55.8,163.5,8.8,22.65,24,33.45a50.28,50.28,0,0,0,14.65,7.15A382.92,382.92,0,0,1,271.2,287.1q10.8,27.95,36.25,39l25.4-9L357,333.9l21.5-12,17.55,6.6,14.4-14,1.15-24.25a21.56,21.56,0,0,1-4.85,9.1,17.29,17.29,0,0,1-13.45,6.3,16.72,16.72,0,0,1-7.3-1.6,18.17,18.17,0,0,1-6.15-4.7,22.45,22.45,0,0,1-5.55-15.3,22.2,22.2,0,0,1,5.55-15.2,17.29,17.29,0,0,1,12.45-6.3h1a17.29,17.29,0,0,1,13.45,6.3,22,22,0,0,1,5.5,12.8l-4.8-86.65m-93.9,62.2q.55-.05,1.15-.05,9.3,0,15.9,7.9a30.72,30.72,0,0,1,0,38.05q-6.6,7.9-15.9,7.9a18.76,18.76,0,0,1-8.6-2,22.3,22.3,0,0,1-7.3-5.9,30.91,30.91,0,0,1,0-38.05Q305,257.55,313.55,257.1Z"/></g><g id="battery_0_Layer0_0_FILL" data-name="battery 0 Layer0 0 FILL"><path class="cls-7" d="M388.2,633V569.73a1192.34,1192.34,0,0,0-136.8,0v66.84A1265.25,1265.25,0,0,0,388.2,633Z"/></g><g id="eyes2_0_Layer0_0_FILL" data-name="eyes2 0 Layer0 0 FILL"><path class="cls-8" d="M320.74,263A22.74,22.74,0,0,0,313.5,257q-8.54.45-14.74,7.85a30.88,30.88,0,0,0,0,38.06,22.58,22.58,0,0,0,7.29,5.91q8.54-.45,14.7-7.85a30.73,30.73,0,0,0,0-38.06m77.65,4.17a19.4,19.4,0,0,0-6.11-4.74,17.29,17.29,0,0,0-12.47,6.32,23.72,23.72,0,0,0,0,30.49,18.51,18.51,0,0,0,6.15,4.74,17.21,17.21,0,0,0,12.43-6.28,23.64,23.64,0,0,0,0-30.53Z"/></g></g></g></svg>