<svg xmlns="http://www.w3.org/2000/svg" viewBox="0 0 490.39 903.21"><defs><style>.cls-1{fill:#474337;}.cls-2{fill:#6b6452;}.cls-3{fill:#9e8955;}.cls-4{fill:#747a8a;}.cls-5{fill:#272d3b;}.cls-6{fill:#3d465c;}.cls-7{fill:#948471;}.cls-8{fill:#70613c;}.cls-9{fill:#333;}.cls-10{fill:#c9b399;}.cls-11{fill:#567a46;}.cls-12{fill:#6f9e5a;}.cls-13{fill:#6fc9c9;}.cls-14{fill:#300;}</style></defs><title>deero</title><g id="Layer_2" data-name="Layer 2"><g id="Layer_1-2" data-name="Layer 1"><g id="Layer0_0_FILL" data-name="Layer0 0 FILL"><path class="cls-1" d="M256.39,866.71a2,2,0,0,1-.3-.35q-.15-.25-.65-1.3-7.85-20.4-11.85-30.5a118.26,118.26,0,0,0,1.1,27q4.88,1.9,11.7,5.15m-105.45,26.9,2.75.7q-3.8-11.51-7.75-25.65-1.16,13.07-2,22.25,1.07.61,2,1a30.84,30.84,0,0,0,5,1.7m-36-366.7q2.42-1.14,4.35-2-1.93-23.23-2.5-29.25-3.12,11.54-9.4,34.2a46.78,46.78,0,0,0,7.55-3m102.4-408.45A73.71,73.71,0,0,1,215.24,130q4.84,1.58,8,2.3a67.11,67.11,0,0,0,7.35,1.2A155.66,155.66,0,0,1,227,99.26q0-8,.85-15.85h-.45a38.86,38.86,0,0,1-4.8-1.2q-2.9-.85-4.45.35a6.74,6.74,0,0,1,3.7,3.55,10.15,10.15,0,0,1,1,5.2,22,22,0,0,1-1,5.15q-.5,1.7-1.65,5.1-1.35,4.4-2.8,16.9m-75.15-64.8q-.11-.19-.25-.4a.59.59,0,0,1,0,.2,15.38,15.38,0,0,0,.85,8.6,15.62,15.62,0,0,0,5.25,6.75,15.3,15.3,0,0,0,8,3.1q1.7.15,5.2.2a8.54,8.54,0,0,1,4.65,1.55,7,7,0,0,1,2.25,5.25,22,22,0,0,1-.85,6.15l-8.9,33.85q-.44,1.73-.85,3.3-2.13,8.85-2.85,13.8a64.46,64.46,0,0,0-.7,8.4,12.6,12.6,0,0,0,14.45,6.3,13,13,0,0,0,2.5-.9,27.56,27.56,0,0,1-4-10.15,46.25,46.25,0,0,1,.5-19.75q3.65-12.5,5.35-18.75,3.1-11.2,2.65-19.1-.2-6.3-3.35-9.9-2.5-2.6-7.75-4-8.65-2.2-8.9-2.3-7.95-2.85-13.2-12.25m37.7-35.75q.09-2.32.25-4.65-.62,1.53-1.1,3.15a62.47,62.47,0,0,0-2.15,11.1q-.4,3.75-1.1,11.3a36.07,36.07,0,0,1-1.1,5.65,14.67,14.67,0,0,1-1.4,3.2l1.85.4q3.55-5.65,4.35-14.5,0-.4.4-15.65M477,304.41l-4.05-16.85a107.22,107.22,0,0,0-18.75,27.25Z"/><path class="cls-2" d="M123.94,842a21.07,21.07,0,0,0-3.2,2.2,24.39,24.39,0,0,0-5.8,7.1,39.59,39.59,0,0,0-3.4,8.35q-.9,3.25-2,8.9-1.8,10.75-2.4,18.25-.5,4.65,1,6.85,1.2,1.85,5.15,3.4A121.58,121.58,0,0,0,128,902a35.14,35.14,0,0,0,15.1.65q.35-4.73.9-11.75.79-9.18,2-22.25,3.95,14.14,7.75,25.65.46,1.32.9,2.6a8.08,8.08,0,0,0,4.75-3.1,11,11,0,0,0,2.35-5.4,18.85,18.85,0,0,0,.1-5.85,53.19,53.19,0,0,0-1.1-5.75q-1.5-7.3-5.1-23.65-.7-3.55-1.35-5.7a23,23,0,0,0-2.3-5.3,15.17,15.17,0,0,0-3.1-3.7,20.08,20.08,0,0,1-.2,2.65,11.16,11.16,0,0,1-2,5.2q-3,3.75-10.25,4.5-7,.5-9.75-2.4a8.94,8.94,0,0,1-2.2-4,18.94,18.94,0,0,1-.45-2.35m125-35.35a1.63,1.63,0,0,0-.2-.25q0,1.38-.1,2.35a26.28,26.28,0,0,1-1.45,6.8,14.32,14.32,0,0,1-4.1,5.65,10,10,0,0,1-6.4,2.45,9.83,9.83,0,0,1-5.9-2.1,13.69,13.69,0,0,1-4.1-5,20.67,20.67,0,0,1-1.1-2.6,16.15,16.15,0,0,0-2.2,2.1,15,15,0,0,0-3.2,6.1,21.55,21.55,0,0,0-.65,6.05l.4,6.1q.2,4.25-.05,12.25-.3,8.45-.2,12.25a19.81,19.81,0,0,0,.5,3.7,6.61,6.61,0,0,0,1.65,3.15,11.28,11.28,0,0,0,4.6,2.4,87.9,87.9,0,0,0,20.15,3.1q-1.16-4.76-1.9-9.6a118.26,118.26,0,0,1-1.1-27q4,10.1,11.85,30.5.5,1.05.65,1.3a2,2,0,0,0,.3.35,1.58,1.58,0,0,0,.65.4l.15,0a3,3,0,0,0,2.4-.85q2.6-2.1,3.5-3a10.23,10.23,0,0,0,2.5-3.65,10.49,10.49,0,0,0,0-6.35q-.4-1.5-2.3-6.25-1.7-4.15-6.4-20.55-3.7-12.8-8-19.85m-105-315.6a51.81,51.81,0,0,0-3.5-12.65,33.4,33.4,0,0,0-7.45-10.8q-.73-.69-1.5-1.3a20.87,20.87,0,0,0-6.65-4,19.59,19.59,0,0,0-3.45.55,18.6,18.6,0,0,0-6,2.65q-5.25,3.5-9.75,11.35-.23.41-.5.8A89.14,89.14,0,0,0,99,491.46a84.22,84.22,0,0,0-4.3,22.85,39.34,39.34,0,0,0,0,5,27.18,27.18,0,0,0,1,5.55,13.56,13.56,0,0,0,5.65,8.2,3.67,3.67,0,0,0,3.5.75,2.49,2.49,0,0,0,.35-.15q1.3-.6,2.15-3.35.06-.21.1-.45,6.28-22.66,9.4-34.2.57,6,2.5,29.25.48,5.39,1,11.65,1.9-1.55,11.9-7.1a37.87,37.87,0,0,0,5.9-4,18.4,18.4,0,0,0,4.2-4.7,21.13,21.13,0,0,0,2.55-8,50.15,50.15,0,0,0,.2-8.65,121.83,121.83,0,0,0-1.15-13.1M243.59,78.91a4.63,4.63,0,0,0-.9-2.15,3.34,3.34,0,0,0-2-1.2q-1.75-.3-3.85,1.6a56.91,56.91,0,0,1-4.3,4.2,8.11,8.11,0,0,1-4.65,2.05q-.81,7.85-.85,15.85a155.66,155.66,0,0,0,3.5,34.25,62.49,62.49,0,0,0,6.8.45q2.26-13.93,3.5-28.4a61.94,61.94,0,0,1,2-12.15q2.1-6.55,6.7-9.5a6.15,6.15,0,0,0-3.2-1.1,5.89,5.89,0,0,0-3.3.75,13.13,13.13,0,0,0,.5-4.65M193.44.31a18.65,18.65,0,0,0-9.1,6.2,26.75,26.75,0,0,0-4.15,6.75q-.16,2.33-.25,4.65-.35,15.25-.4,15.65-.8,8.85-4.35,14.5l-1.85-.4a10.18,10.18,0,0,1-1.25,1.75,11.67,11.67,0,0,1-6.3,3.4,15.72,15.72,0,0,1-7.35-.25q-5.15-1.4-12.75-6.9a16.27,16.27,0,0,0-3.7,7.6q.14.21.25.4,5.25,9.4,13.2,12.25.25.1,8.9,2.3,5.25,1.35,7.75,4,3.15,3.6,3.35,9.9.45,7.9-2.65,19.1-1.7,6.25-5.35,18.75a46.25,46.25,0,0,0-.5,19.75,27.56,27.56,0,0,0,4,10.15,11.87,11.87,0,0,0,4-2.9,16.31,16.31,0,0,0,3.45-6.15,43.72,43.72,0,0,0,1.55-7q1.23-6.68,2.4-13.4,10-57.1,15.75-116.25a4.37,4.37,0,0,0-.65-3.25q-1.1-1.45-4-.6m279.5,287.25a44.64,44.64,0,0,0-8.6-2.25,14.28,14.28,0,0,0-8.4,1.1,22.37,22.37,0,0,0-4.85,3.9,102,102,0,0,0-8.5,9.6,32.7,32.7,0,0,0-5.65,10,18.59,18.59,0,0,0-.8,3.45,12.09,12.09,0,0,0,1.2,7.05q3.75,7.85,5.1,9.5a14,14,0,0,0,4.65,3.75l.4.2a14.23,14.23,0,0,0,7.95,1.1,49.54,49.54,0,0,0,8.75-2l18.25-5.6A21.75,21.75,0,0,0,486,326a8,8,0,0,0,2.85-2.3,10.59,10.59,0,0,0,1.5-5.25,28.39,28.39,0,0,0-2.15-12.75q-1.2-3.15-3.1-3.75-1.55-.5-4.5.9l-3.6,1.6-22.8,10.4A107.22,107.22,0,0,1,472.94,287.56Z"/><path class="cls-3" d="M138.54,754.21a47.8,47.8,0,0,1-18.1-2.15q-.51,17.81.35,39,.6,15.45,2.9,48.6.11,1.31.25,2.35a18.94,18.94,0,0,0,.45,2.35,8.94,8.94,0,0,0,2.2,4q2.75,2.9,9.75,2.4,7.25-.75,10.25-4.5a11.16,11.16,0,0,0,2-5.2,20.08,20.08,0,0,0,.2-2.65q.1-1.35.1-3.15a454,454,0,0,1,7.15-85.65,47.17,47.17,0,0,1-17.55,4.55m109.2-21.75q-.51.37-1.05.7-6.95,4.3-17.75,4.75a29.09,29.09,0,0,1-12.1-1.5q3.06,30.11,7,67.5a53.71,53.71,0,0,0,.8,6.5,27.3,27.3,0,0,0,1,3.55,20.67,20.67,0,0,0,1.1,2.6,13.69,13.69,0,0,0,4.1,5,9.83,9.83,0,0,0,5.9,2.1,10,10,0,0,0,6.4-2.45,14.32,14.32,0,0,0,4.1-5.65,26.28,26.28,0,0,0,1.45-6.8q.08-1,.1-2.35.1-2,.1-4.75l-1.1-69.2m-220-264a40.88,40.88,0,0,0-1.8,6,27.55,27.55,0,0,0,0,12.45,48.39,48.39,0,0,0,4.9,11q1.52,2.89,2.85,5.1a17.2,17.2,0,0,0-2.6,5.1,18.18,18.18,0,0,0,.25,12.8,26.1,26.1,0,0,0,6.3,9.4,44.08,44.08,0,0,0,12,8.1,71.45,71.45,0,0,0,28.6,7.4q-.78-4.22-1.25-9.5Q76,526.16,75.49,513q-.1-2.7-.3-8.65-8.54-12-17.6-24a319.94,319.94,0,0,1-29.8-11.9M274.44,82.81a53.51,53.51,0,0,1-8.85,21.6,79.86,79.86,0,0,1-5.6,7.2,56.57,56.57,0,0,0-2.05,11.55,3.53,3.53,0,0,0,.25,2.25,3.29,3.29,0,0,0,2.65,1,33.21,33.21,0,0,0,3.7-.3,7.44,7.44,0,0,1,3.55.55,6.27,6.27,0,0,1,2,1.65q.6.7,1.7,2.1.4.58.9,1.2a66.63,66.63,0,0,0,.35-11q-.15-2.6-.15-3.45a9.82,9.82,0,0,1,.5-3.3,10.61,10.61,0,0,1,2.2-3.2l2.8-2.95a17.22,17.22,0,0,0,4.4-8.75,21.29,21.29,0,0,0-8,4.4A13,13,0,0,0,279,93a12.86,12.86,0,0,0-4.55-10.15m-161.6-34.9a19,19,0,0,0-5.15,5.65,20.81,20.81,0,0,0-2.75,7.25,13.27,13.27,0,0,0-5.9-2.9,14.21,14.21,0,0,0-6.6.15,14,14,0,0,1,5.4,6.65,73.65,73.65,0,0,1,2.55,7.1l.45,1.5A73.81,73.81,0,0,0,105.49,83q4.7,8.35,5.2,9.35a87.26,87.26,0,0,1,7.55,23q.58,3.15,1,6.45a162.06,162.06,0,0,1,.6,31q-.4,5.05-.9,7.9a28.65,28.65,0,0,1-2.35,7.6,17.41,17.41,0,0,1-4.85,6.2,14,14,0,0,1-2.95,1.85q2.15,2.51,2.75,3.15a80.85,80.85,0,0,0,10.4,9.65,46.79,46.79,0,0,0,12.45,6.95,33.21,33.21,0,0,0,10.6,2.05,37.79,37.79,0,0,1,7-9.55,36.88,36.88,0,0,1,52.05,0,39.83,39.83,0,0,1,4,4.65,34.52,34.52,0,0,1,5.65,11.9q.74-.58,1.65-1.4a30.06,30.06,0,0,1,3.1-2.6,16,16,0,0,1,6.95-2.3,58.42,58.42,0,0,1,7.55-.2,28.93,28.93,0,0,1,5.1.6,12.36,12.36,0,0,1,1.4.45,32.08,32.08,0,0,1,3.5-9.4q4.45-7.65,10.75-7.65h2.6q-.17-1.88-.3-6.05a53.73,53.73,0,0,0-.55-6.55q-.08-.53-.2-1a27.71,27.71,0,0,0-1.65-5.7,16,16,0,0,0,6.8-1.75.14.14,0,0,0,.1,0q7.25-3.45,8.85-10.4-1,.27-2,.45a41,41,0,0,1-9.7.9,44.17,44.17,0,0,1-11.65-2,38.5,38.5,0,0,0,11.25-6.25,39.22,39.22,0,0,0,8.65-9.4q1.3-2.15.85-3.35a2.5,2.5,0,0,0-2.45-1.6,11.11,11.11,0,0,0-3.55.45,70.18,70.18,0,0,1-16.95,3.4l-1.65.1q-2.39.11-4.75,0a62.49,62.49,0,0,1-6.8-.45,67.11,67.11,0,0,1-7.35-1.2q-3.11-.72-8-2.3-4-1.29-9-3.15a146,146,0,0,0-17-5.3,65.64,65.64,0,0,0-6.85-1.15q-1.17,6.72-2.4,13.4a43.72,43.72,0,0,1-1.55,7,16.31,16.31,0,0,1-3.45,6.15,11.87,11.87,0,0,1-4,2.9,13,13,0,0,1-2.5.9,13,13,0,0,1-14.45-6.3,64.46,64.46,0,0,1,.7-8.4q.72-5,2.85-13.8a68.75,68.75,0,0,0-13.85,5.25q-3.36-11.28-11.9-25.8-10.65-17.9-14-25.9-6.45-15.15-5-27.85m318.3,272.6a32.12,32.12,0,0,1-1-5.5q-2.62,1-5.5,2.4-12.6,6.5-38,19.25-19.5,9.85-30,13.95-17.15,6.7-31.75,8.05-13.35,1.2-33.8-2-30-4.65-33.8-5-22-.9-32.85-2.25-18-2.32-28.8-10.2l3.4-2a4.75,4.75,0,0,0-2.15-1,5.58,5.58,0,0,0-2.35,0,6.44,6.44,0,0,1,1.15-2q1.4-1.7,1.45-1.8a6,6,0,0,0,1-2.1,2.33,2.33,0,0,0-.35-2q-.95-1.2-3.5-.75a12.39,12.39,0,0,1-4.15.35q1.1-1.4,1.5-2a5.88,5.88,0,0,0,.9-2.3,3.91,3.91,0,0,0-.6-2.45,2.47,2.47,0,0,0-1.9-1.3,4.94,4.94,0,0,0-2.75.9l-7.15,4.6q-.93-4-1.65-8a19.13,19.13,0,0,1-7.5,1.85,22.81,22.81,0,0,1-14-3.6,37,37,0,0,1-10.35-10,91.6,91.6,0,0,1-7.4-12.6q-7.3-14.9-9.5-26.9a53.43,53.43,0,0,1-.5-18.1q1.4,9,8.5,17.9t20.6,18.1q8.82,6,17.9,11.5,13.34,8.15,27.25,15.35,16.5,8.45,29.1,10.9,16.75,3.25,28.9-3.25,11.15-6.1,15.55-19.15a33.21,33.21,0,0,0,1-19.65,21.66,21.66,0,0,1-4.55,9.15,13.72,13.72,0,0,1-4.9,3.85,7.78,7.78,0,0,1-5.85.55,16.45,16.45,0,0,1-2.5-1.35,23.09,23.09,0,0,0-2.5-1.4,12.63,12.63,0,0,0-5.9-1q-4.15.4-6.25.45a15,15,0,0,1-8-1.9,8.77,8.77,0,0,1-2.9-2.85,7.09,7.09,0,0,1-1.1-3.9,8,8,0,0,1,1.65-4.6,25.91,25.91,0,0,1,3.5-3.75,76.91,76.91,0,0,1,12.5-8.75q7.85-4.6,13.5-3.5a12.74,12.74,0,0,1,3.75,1.25q-8.74-10.45-17.25-21.4a32.69,32.69,0,0,1-3.9-6,13.06,13.06,0,0,1-.85-2.55,20.3,20.3,0,0,1-3.65-4.75,29.29,29.29,0,0,1-2.2-4.8h-.65q-.85,0-3,.1a184.74,184.74,0,0,0-24,3.65,37.25,37.25,0,0,1-35,25.15,41.28,41.28,0,0,1-6.15-.45,31.1,31.1,0,0,1-18.25-4.45,31.25,31.25,0,0,1-9.45-8.75q-1.4-2.15-2.1-3.25a17,17,0,0,0-2.5-3,12.31,12.31,0,0,0-2.85-2q-.8-.5-3.15-1.6a30.07,30.07,0,0,0-4.1-1.45,9.67,9.67,0,0,0-4.3-.3q-4.05.6-6.65,5a22.57,22.57,0,0,0-2.85,8.75,52.59,52.59,0,0,0-.35,5.75q1.13,4,2.5,8.65a220.62,220.62,0,0,1,6.85,69.6,5.11,5.11,0,0,0-1.8-3,4.9,4.9,0,0,0-5-1.35,5.07,5.07,0,0,0-3.35,4.1,6.21,6.21,0,0,0,.05,3,6.09,6.09,0,0,0-3-1.4q-3.5-.7-5.35,1.6a6,6,0,0,0,3.9,9.15,6.54,6.54,0,0,0-3.15,1.4,6.78,6.78,0,0,0-2.1,2.7,4.77,4.77,0,0,0,2,1.45,4.29,4.29,0,0,0,2.4.2l-85.85,65.1q-6.4,4.85-9.3,7.4a59.84,59.84,0,0,0-7.15,7.35,33.27,33.27,0,0,0,4.3,11.65,38,38,0,0,0,11.5,11.45,98.16,98.16,0,0,0,14.65,7.65,282.92,282.92,0,0,0,40.5,14q9.8,2.65,11,3.05a53.41,53.41,0,0,1,10.4,4.2,34.92,34.92,0,0,1,5.9,4.05q.26-.39.5-.8,4.5-7.85,9.75-11.35a18.6,18.6,0,0,1,6-2.65,19.59,19.59,0,0,1,3.45-.55q1-.07,2,0l-.1-.2a10.89,10.89,0,0,0-4.85-5,19.89,19.89,0,0,0-6.6-1.7q-1.15-.1-6.9-.3-4.77-.07-9.5-.5a132.66,132.66,0,0,1-40.15-9.75q-4.6-1.65-6.1-4.25a6.64,6.64,0,0,1-.75-4.8q.14-.74.35-1.45a11.68,11.68,0,0,1-1.25-4.75,13.25,13.25,0,0,1,2.15-7.45,32.49,32.49,0,0,1,5.1-6.3,172.27,172.27,0,0,1,17.1-15q6.15-4.8,18.4-13.45a30.69,30.69,0,0,1,5.1-2.85,6.63,6.63,0,0,1,5.3,0q2.6,1.1,4.25,4.75a21.58,21.58,0,0,1,1.75,7,16.69,16.69,0,0,1,6.1,6,44.41,44.41,0,0,1,4.1,9.4q.24.9.45,1.75,2.54,9.46,4.1,18.85,1,6.45,3,19.4a96.92,96.92,0,0,0,3.65,14.5q.77.61,1.5,1.3a33.4,33.4,0,0,1,7.45,10.8,51.81,51.81,0,0,1,3.5,12.65,121.83,121.83,0,0,1,1.15,13.1,50.15,50.15,0,0,1-.2,8.65,21.13,21.13,0,0,1-2.55,8,18.4,18.4,0,0,1-4.2,4.7,33.66,33.66,0,0,0,3.3,12.8,32.57,32.57,0,0,0,5.35,7.55q2.15,2.3,6.8,6.45a241.81,241.81,0,0,0,24.5,19.8,104.29,104.29,0,0,0,13.25,7.7,145.93,145.93,0,0,0,21.35,2q22.95.65,34.65-9,8.9-7.45,12.2-21.2.28-1.18.5-2.4a99.24,99.24,0,0,0,1.4-23.4q-1.85-40.4-16.4-84A477,477,0,0,0,217,376q-2.76-5.4-5.75-10.9,31,5.93,55.55,8.15a324,324,0,0,0,59.55.3,222.79,222.79,0,0,0,58.35-13,172,172,0,0,0,51.25-29.6,30.28,30.28,0,0,1-4.8-10.4m-164.7-19.2a2.57,2.57,0,0,1,1,1.75,9.24,9.24,0,0,1-2.6,3,12.89,12.89,0,0,1-4.6,2.25,23.05,23.05,0,0,1-5,.6q-1.7,0-5.2-.25a164.85,164.85,0,0,1-19-3q.55-1.35,3.15-2.1a77.09,77.09,0,0,1,14-1.6,130.3,130.3,0,0,0,14.15-1.15q3.1-.55,4.25.5M140.69,351.66a23.66,23.66,0,0,1,6.4-8.6,18.85,18.85,0,0,1,2-1.4,37.63,37.63,0,0,0-5.85,22,38.14,38.14,0,0,0,3.3,13,36,36,0,0,0,7.6,10.9q3,3,5.6,3.1a5.39,5.39,0,0,0,4.5-1.95,9.14,9.14,0,0,0,2.4-4.8,21,21,0,0,0,.3-5.3q-.2-4.65-.2-5.3a45.57,45.57,0,0,0,9.15,16.1q3.85,4.35,7.35,4.75a7.22,7.22,0,0,0,5.85-2.25,10.45,10.45,0,0,0,3.15-5.85,17.27,17.27,0,0,0-.1-6.65,48.29,48.29,0,0,0-1.45-5.5,4.5,4.5,0,0,0,2.15,2.05,4.87,4.87,0,0,0,3.9.35,6.34,6.34,0,0,0,3.15-2.4,8.26,8.26,0,0,0,1.5-3.75,16.13,16.13,0,0,0-1.4-8q-.58-1.37-1.3-2.75.71,1,1.35,2.1a33.87,33.87,0,0,1,4.1,11q.95,5.55-1,8.5a5.61,5.61,0,0,1-3.45,2.6,4.29,4.29,0,0,1-4-.6q5,11.75.5,17a10.23,10.23,0,0,1-7.3,3.2,22.87,22.87,0,0,1-8.45-1.35q-9-3-10.4-8.85-1.9,4.85-7.6,6.6a14.65,14.65,0,0,1-10.65-.5,19.68,19.68,0,0,1-8.05-6.55,31.43,31.43,0,0,1-4.8-9.7,44.74,44.74,0,0,1,1.85-31.25m89.5,197.4a7.73,7.73,0,0,1,1.25-3.15,6.82,6.82,0,0,1,3.2-1.7,23,23,0,0,0,4.1-1.75,2.93,2.93,0,0,1,.85.85,4.08,4.08,0,0,1,.35,2,13.09,13.09,0,0,1-.25,2,6.86,6.86,0,0,1-1.1,2.5,7.16,7.16,0,0,1-1.2.75,3.79,3.79,0,0,0-1.2,1,3.85,3.85,0,0,0-.35,2,27.22,27.22,0,0,0,.85,7q.55,1.95-.1,2.6a1.35,1.35,0,0,1-1.45.3,3,3,0,0,1-1.55-.8,10.26,10.26,0,0,1-3.5-6.25A17.13,17.13,0,0,1,230.19,549.06Z"/><path class="cls-4" d="M166.19,696.16q-.26-.38-.55-.75-2.59,10-7.8,15.55a20.58,20.58,0,0,1-7.9,5.35,21.42,21.42,0,0,1-14.75-.25,31.37,31.37,0,0,1-12.75-8.5,46.74,46.74,0,0,1-7.05-10.4l-.15.15a23.49,23.49,0,0,0-4.4,4.6,15.31,15.31,0,0,0-2.65,5.75,11.59,11.59,0,0,0,.25,6.15q.8,2.15,5.5,7.8,3.8,4.5,3.5,8-.25,2.5-4.4,8.15-3.5,4.85-2.35,8,1.05,2.7,5.4,4.6a45.9,45.9,0,0,0,4.35,1.65,47.8,47.8,0,0,0,18.1,2.15,47.17,47.17,0,0,0,17.55-4.55q2.1-1,4.1-2.25,8.75-5.25,11.65-12.5a16.41,16.41,0,0,0,1.2-8.55,13.24,13.24,0,0,0-3.45-7.7q-1.3-1.2-1.85-1.8a6.61,6.61,0,0,1-1.4-2,6.55,6.55,0,0,1,.3-4.3,1.81,1.81,0,0,0,.1-.3,42.48,42.48,0,0,0,1.6-4.05q1.35-4.8-2.15-10m80.35-16.9a35.45,35.45,0,0,1-4.85,11.65,20.5,20.5,0,0,1-10.05,7.8q-6.65,2.45-12-.55a16.83,16.83,0,0,1-6.9-7.6q-.37-.76-.75-1.65a19.4,19.4,0,0,0-3.5,3,9.77,9.77,0,0,0-2.15,4,7.48,7.48,0,0,0,0,4.45,17,17,0,0,0,1.25,2.3,17.76,17.76,0,0,1,1.35,2.3q1.7,3.6,0,10.6-1.95,7.9-1.35,11a11.58,11.58,0,0,0,3,5.7,15.06,15.06,0,0,0,5.35,3.8q.45.2.9.35a29.09,29.09,0,0,0,12.1,1.5q10.8-.45,17.75-4.75.54-.33,1.05-.7a20.83,20.83,0,0,0,5.6-5.8,17.25,17.25,0,0,0,2.85-8.6,28.87,28.87,0,0,0-1.3-8.1,55,55,0,0,1-1.8-8.15q-.1-1.75,0-5.3a41.76,41.76,0,0,0,0-5.35,27.09,27.09,0,0,0-3.75-10.85q-.92-1.6-2.35-3.65Q246.82,678.1,246.54,679.26Z"/><path class="cls-5" d="M167.64,620.41q1,12.58,1.2,25.25a36.57,36.57,0,0,0,8.85-1,91.19,91.19,0,0,0,16-5.8l4.25-1.9,11.25,43.4a65.27,65.27,0,0,0,2.75,8.6q.38.89.75,1.65a16.83,16.83,0,0,0,6.9,7.6q5.4,3,12,.55a20.5,20.5,0,0,0,10.05-7.8,35.45,35.45,0,0,0,4.85-11.65q.28-1.16.55-2.6-1-1.39-2.2-3a7.29,7.29,0,0,1-.8.25q-7.8,2-16-2a29.59,29.59,0,0,1-12.4-11.2q-6.94-11.26-6.5-29.15,5.87-3,10.55-5.75-2.11.56-4.3,1a69.92,69.92,0,0,1-19.1.7,108.18,108.18,0,0,1-28.7-7M95.69,524.86a27.18,27.18,0,0,1-1-5.55q-1.5,4.8-2.7,9.7a171.08,171.08,0,0,0-3.2,17.15q-1.17,9.17-1.45,18.8-.24,8.54.2,17.45.36,6,1,12.2,3.85,36.5,20.25,85.8,3.2,9.45,5.45,14.4.55,1.21,1.1,2.35a46.74,46.74,0,0,0,7.05,10.4,31.37,31.37,0,0,0,12.75,8.5,21.42,21.42,0,0,0,14.75.25,20.58,20.58,0,0,0,7.9-5.35,24.13,24.13,0,0,1-10.15-3.8,36.17,36.17,0,0,1-8.8-8,78.4,78.4,0,0,1-6.7-10q-15-25.6-22-58.9-5.9-28.1-6.3-63.2,0-5.65.3-8.45a26.17,26.17,0,0,1,2-8,16.08,16.08,0,0,1,5.25-6.65,13.94,13.94,0,0,1,2.3-1.4q-4.61-4.15-8.9-8.7a3.67,3.67,0,0,1-3.5-.75A13.56,13.56,0,0,1,95.69,524.86Z"/><path class="cls-6" d="M113.74,542.51a13.94,13.94,0,0,0-2.3,1.4,16.08,16.08,0,0,0-5.25,6.65,26.17,26.17,0,0,0-2,8q-.3,2.8-.3,8.45.4,35.1,6.3,63.2,7,33.3,22,58.9a78.4,78.4,0,0,0,6.7,10,36.17,36.17,0,0,0,8.8,8,24.13,24.13,0,0,0,10.15,3.8q5.21-5.52,7.8-15.55a82.84,82.84,0,0,0,2.3-15q1.2-17.49.9-34.75-.19-12.67-1.2-25.25a108.18,108.18,0,0,0,28.7,7,69.92,69.92,0,0,0,19.1-.7q2.19-.39,4.3-1-4.68,2.77-10.55,5.75-.44,17.89,6.5,29.15a29.59,29.59,0,0,0,12.4,11.2q8.2,4.05,16,2a7.29,7.29,0,0,0,.8-.25q1.23,1.61,2.2,3,.35-1.81.65-4,.45-2.71.85-6,3.65-33.85,8.7-79.25a62.31,62.31,0,0,0,3.75-11.4q3.26-14.44-1-26.7-.22,1.22-.5,2.4-3.3,13.75-12.2,21.2-11.7,9.65-34.65,9a145.93,145.93,0,0,1-21.35-2,155.81,155.81,0,0,1-77.6-37.3Z"/><path class="cls-7" d="M78.34,545.81h-.15a49.74,49.74,0,0,0,2,7.6A26.75,26.75,0,0,0,87.39,565q.28-9.63,1.45-18.8l-2.4-.1q-5.4-.1-8.1-.25M95,148.41q-1.53-1-2.7-1.65a127.49,127.49,0,0,0,5,20.7,3.13,3.13,0,0,1,2.5-.4,2.79,2.79,0,0,1,1.25.7q.15.1,1.1,1,4.23,4.88,6.6,7.55a14,14,0,0,0,2.95-1.85,17.41,17.41,0,0,0,4.85-6.2,28.65,28.65,0,0,0,2.35-7.6q.5-2.85.9-7.9a162.06,162.06,0,0,0-.6-31q-.42-3.3-1-6.45a112.73,112.73,0,0,1-3.3,23.5,13.15,13.15,0,0,1-2.85,6.25,10.8,10.8,0,0,1-2.9,2l-3.25,1.45-2.5,1.15a7.61,7.61,0,0,1-2.6.7A10.76,10.76,0,0,1,95,148.41Z"/><path class="cls-8" d="M75.19,504.31q.2,6,.3,8.65.55,13.2,1.45,23.35.47,5.28,1.25,9.5h.15q2.7.15,8.1.25l2.4.1A171.08,171.08,0,0,1,92,529q-8.17-12.4-16.85-24.7m71.6,41.55a32.57,32.57,0,0,1-5.35-7.55,33.66,33.66,0,0,1-3.3-12.8,37.87,37.87,0,0,1-5.9,4q-10,5.55-11.9,7.1-.52-6.26-1-11.65-1.93.86-4.35,2a46.78,46.78,0,0,1-7.55,3q0,.24-.1.45-.85,2.75-2.15,3.35a2.49,2.49,0,0,1-.35.15q4.29,4.55,8.9,8.7a155.81,155.81,0,0,0,77.6,37.3,104.29,104.29,0,0,1-13.25-7.7,241.81,241.81,0,0,1-24.5-19.8q-4.65-4.15-6.8-6.45m29.55-250.3q-9.08-5.52-17.9-11.5-13.5-9.3-20.6-18.1t-8.5-17.9a53.43,53.43,0,0,0,.5,18.1q2.2,12,9.5,26.9a91.6,91.6,0,0,0,7.4,12.6,37,37,0,0,0,10.35,10,22.81,22.81,0,0,0,14,3.6,19.13,19.13,0,0,0,7.5-1.85,148,148,0,0,1-2.2-21.85M58.19,415.91a32.49,32.49,0,0,0-5.1,6.3,13.25,13.25,0,0,0-2.15,7.45,11.68,11.68,0,0,0,1.25,4.75,11.07,11.07,0,0,1,1.9-3.25,21.17,21.17,0,0,1,3.9-3.35q1.35-1,4.35-2.65a107.93,107.93,0,0,0,22.35-17.5q3.2-3.3,4.8-4.9a40.74,40.74,0,0,1,5.2-4.35,20.13,20.13,0,0,1,6.2-2.9,13.45,13.45,0,0,1,6.7-.1l.9.25a92.8,92.8,0,0,1-.85,17.8q-1.1,8.2-4.7,23.45-1.47,6.58-4.1,17.75,4.73.43,9.5.5,5.75.2,6.9.3a19.89,19.89,0,0,1,6.6,1.7,10.89,10.89,0,0,1,4.85,5l.1.2q.26.57.45,1.1a24.52,24.52,0,0,1,4.25,2.9,96.92,96.92,0,0,1-3.65-14.5q-2-13-3-19.4-1.56-9.39-4.1-18.85-.21-.85-.45-1.75a44.41,44.41,0,0,0-4.1-9.4,16.69,16.69,0,0,0-6.1-6,21.58,21.58,0,0,0-1.75-7q-1.65-3.65-4.25-4.75a6.63,6.63,0,0,0-5.3,0,30.69,30.69,0,0,0-5.1,2.85q-12.25,8.65-18.4,13.45a172.27,172.27,0,0,0-17.1,15m-47,17.4a33.27,33.27,0,0,1-4.3-11.65q-.49.62-.95,1.25a32.18,32.18,0,0,0-5.1,10.7,22.3,22.3,0,0,0-.15,11.55q1.85,7.05,8.9,12.85a68.22,68.22,0,0,0,14.1,8.55q2.06,1,4.1,1.9a319.94,319.94,0,0,0,29.8,11.9A313.61,313.61,0,0,0,99,491.46a89.14,89.14,0,0,1,6.1-13.75,34.92,34.92,0,0,0-5.9-4.05,53.41,53.41,0,0,0-10.4-4.2q-1.15-.4-11-3.05a282.92,282.92,0,0,1-40.5-14,98.16,98.16,0,0,1-14.65-7.65,38,38,0,0,1-11.5-11.45m245.65-266.4q1.22-1.8,3.55-5.35a16,16,0,0,1-6.8,1.75,27.71,27.71,0,0,1,1.65,5.7q.8-1,1.6-2.1m1.1-43.75A56.57,56.57,0,0,1,260,111.61l-1,1.15q-4.75,5.4-7.05,8.1a52.48,52.48,0,0,0-8.2,13,70.18,70.18,0,0,0,16.95-3.4,11.11,11.11,0,0,1,3.55-.45,2.5,2.5,0,0,1,2.45,1.6q.45,1.2-.85,3.35a39.22,39.22,0,0,1-8.65,9.4,38.5,38.5,0,0,1-11.25,6.25,44.17,44.17,0,0,0,11.65,2,41,41,0,0,0,9.7-.9,65.29,65.29,0,0,0,5.45-20q-.5-.62-.9-1.2-1.1-1.4-1.7-2.1a6.27,6.27,0,0,0-2-1.65,7.44,7.44,0,0,0-3.55-.55,33.21,33.21,0,0,1-3.7.3,3.29,3.29,0,0,1-2.65-1,3.53,3.53,0,0,1-.25-2.25m-43.5,97a32.84,32.84,0,0,1-1.4,6.15,184.74,184.74,0,0,1,24-3.65q2.15-.1,3-.1h.65a32.28,32.28,0,0,1-1.25-4.35l-.4,0q-.75-.1-3.75-.85a25.12,25.12,0,0,0-12.4-.5,26.93,26.93,0,0,0-8.5,3.35m-89.25,6a9.67,9.67,0,0,1,4.3.3,30.07,30.07,0,0,1,4.1,1.45q2.35,1.1,3.15,1.6a12.31,12.31,0,0,1,2.85,2,17,17,0,0,1,2.5,3q.7,1.1,2.1,3.25a31.67,31.67,0,0,0,21.5,13,30.79,30.79,0,0,0,6.2.2,35.05,35.05,0,0,1-9.9-3.1,37.48,37.48,0,0,1-10-7.25,35.43,35.43,0,0,1-9.5-16.2,33,33,0,0,1-15.9-2.25,100.85,100.85,0,0,1-15.4-7.8q-1.71-1-3-1.85a104,104,0,0,0,2.95,17.75q1.42,5.71,4.2,15.35a52.59,52.59,0,0,1,.35-5.75,22.57,22.57,0,0,1,2.85-8.75q2.6-4.4,6.65-5M231.44,545.91a7.73,7.73,0,0,0-1.25,3.15,17.13,17.13,0,0,0-.1,7.35,10.26,10.26,0,0,0,3.5,6.25,3,3,0,0,0,1.55.8,1.35,1.35,0,0,0,1.45-.3q.65-.65.1-2.6a27.22,27.22,0,0,1-.85-7,3.85,3.85,0,0,1,.35-2,3.79,3.79,0,0,1,1.2-1,7.16,7.16,0,0,0,1.2-.75,6.86,6.86,0,0,0,1.1-2.5,13.09,13.09,0,0,0,.25-2,4.08,4.08,0,0,0-.35-2,2.93,2.93,0,0,0-.85-.85,23,23,0,0,1-4.1,1.75,6.82,6.82,0,0,0-3.2,1.7M147.09,343.06a23.66,23.66,0,0,0-6.4,8.6,44.74,44.74,0,0,0-1.85,31.25,31.43,31.43,0,0,0,4.8,9.7,19.68,19.68,0,0,0,8.05,6.55,14.65,14.65,0,0,0,10.65.5q5.7-1.75,7.6-6.6,1.45,5.85,10.4,8.85a22.87,22.87,0,0,0,8.45,1.35,10.23,10.23,0,0,0,7.3-3.2q4.5-5.25-.5-17a4.29,4.29,0,0,0,4,.6,5.61,5.61,0,0,0,3.45-2.6q2-3,1-8.5a33.87,33.87,0,0,0-4.1-11q-.64-1.07-1.35-2.1.72,1.38,1.3,2.75a16.13,16.13,0,0,1,1.4,8,8.26,8.26,0,0,1-1.5,3.75,6.34,6.34,0,0,1-3.15,2.4,4.87,4.87,0,0,1-3.9-.35,4.5,4.5,0,0,1-2.15-2.05,48.29,48.29,0,0,1,1.45,5.5,17.27,17.27,0,0,1,.1,6.65,10.45,10.45,0,0,1-3.15,5.85,7.22,7.22,0,0,1-5.85,2.25q-3.5-.4-7.35-4.75a45.57,45.57,0,0,1-9.15-16.1q0,.65.2,5.3a21,21,0,0,1-.3,5.3,9.14,9.14,0,0,1-2.4,4.8,5.39,5.39,0,0,1-4.5,1.95q-2.6-.1-5.6-3.1a36,36,0,0,1-7.6-10.9,38.14,38.14,0,0,1-3.3-13,37.63,37.63,0,0,1,5.85-22,18.85,18.85,0,0,0-2,1.4m283.1-28a32.12,32.12,0,0,0,1,5.5,30.28,30.28,0,0,0,4.8,10.4,172,172,0,0,1-51.25,29.6,222.79,222.79,0,0,1-58.35,13,324,324,0,0,1-59.55-.3q-24.58-2.22-55.55-8.15,3,5.5,5.75,10.9,11.83-.21,27.05,1,5.6.4,27.8,2.65,35.35,3.55,55.5,1.55,25.55-2.5,55.4-14.35,18.4-7.3,52.35-24.65,4.85-2.5,7.2-4a28.39,28.39,0,0,0,5.2-4.3l-.4-.2a14,14,0,0,1-4.65-3.75q-1.35-1.65-5.1-9.5a12.09,12.09,0,0,1-1.2-7.05A43.17,43.17,0,0,0,430.19,315Z"/><path class="cls-9" d="M268.59,262.06a12.74,12.74,0,0,0-3.75-1.25q-5.65-1.1-13.5,3.5a76.91,76.91,0,0,0-12.5,8.75,25.91,25.91,0,0,0-3.5,3.75,8,8,0,0,0-1.65,4.6,7.09,7.09,0,0,0,1.1,3.9,8.77,8.77,0,0,0,2.9,2.85,15,15,0,0,0,8,1.9q2.1,0,6.25-.45a12.63,12.63,0,0,1,5.9,1,23.09,23.09,0,0,1,2.5,1.4,16.45,16.45,0,0,0,2.5,1.35,7.78,7.78,0,0,0,5.85-.55,13.72,13.72,0,0,0,4.9-3.85,21.66,21.66,0,0,0,4.55-9.15l.15-.75a21.85,21.85,0,0,0,.4-4.85q-4.2-9.14-10.1-12.1m-50.15-60.9a30.06,30.06,0,0,0-3.1,2.6q-.91.82-1.65,1.4a38.44,38.44,0,0,1,1.15,9.5,37,37,0,0,1-.4,5.5,26.93,26.93,0,0,1,8.5-3.35,25.12,25.12,0,0,1,12.4.5q3,.75,3.75.85l.4,0a4.6,4.6,0,0,0,3.1-.65,4.76,4.76,0,0,0,1.8-2.9,18.89,18.89,0,0,0,.45-3.6,26.61,26.61,0,0,0-.4-5.15,9,9,0,0,0-2.1-4.35,8.42,8.42,0,0,0-2.9-1.85,12.36,12.36,0,0,0-1.4-.45,28.93,28.93,0,0,0-5.1-.6,58.42,58.42,0,0,0-7.55.2,16,16,0,0,0-6.95,2.3M102.19,168.81q-.95-.95-1.1-1a2.79,2.79,0,0,0-1.25-.7,3.13,3.13,0,0,0-2.5.4,7.15,7.15,0,0,0-1.15,1,12.9,12.9,0,0,0-3.45,8.35,45.25,45.25,0,0,0,.7,9.65,96.92,96.92,0,0,0,2.35,10.7,27.72,27.72,0,0,0,4.9,9.45,27.25,27.25,0,0,0,4.95,4.35q.93.65,2.55,1.65,1.29.82,3,1.85a100.85,100.85,0,0,0,15.4,7.8,33,33,0,0,0,15.9,2.25,37.4,37.4,0,0,1-1.25-9.8,36.27,36.27,0,0,1,3.75-16.5,33.21,33.21,0,0,1-10.6-2.05,46.79,46.79,0,0,1-12.45-6.95,80.85,80.85,0,0,1-10.4-9.65q-.6-.64-2.75-3.15Q106.42,173.7,102.19,168.81Z"/><path class="cls-10" d="M37.64,530.31a21.81,21.81,0,0,0-1,5.75,34.35,34.35,0,0,0,3.25,14.6,56.65,56.65,0,0,0,10.35,16.1,49.56,49.56,0,0,0,15.25,11.4A44.26,44.26,0,0,0,84,582.51q1.82,0,3.55-.1-.44-8.91-.2-17.45a26.75,26.75,0,0,1-7.2-11.55,49.74,49.74,0,0,1-2-7.6,71.45,71.45,0,0,1-28.6-7.4,44.08,44.08,0,0,1-12-8.1m63.2-457-.45-1.5a90.43,90.43,0,0,1-1.8,9.5q-1.3,5.5-4.25,16.35a125.57,125.57,0,0,0-3.2,38.1q.37,5.56,1.2,11,1.17.69,2.7,1.65a10.76,10.76,0,0,0,5.8,2,7.61,7.61,0,0,0,2.6-.7l2.5-1.15,3.25-1.45a10.8,10.8,0,0,0,2.9-2,13.15,13.15,0,0,0,2.85-6.25,112.73,112.73,0,0,0,3.3-23.5,87.26,87.26,0,0,0-7.55-23q-.5-1-5.2-9.35A73.81,73.81,0,0,1,100.84,73.31Z"/><path class="cls-11" d="M252.19,190.31a16.53,16.53,0,0,1,6.1-6.5,9.92,9.92,0,0,1,3.65-1.1l-5.65,0h-2.6q-6.3,0-10.75,7.65a32.08,32.08,0,0,0-3.5,9.4,8.42,8.42,0,0,1,2.9,1.85,9,9,0,0,1,2.1,4.35,26.61,26.61,0,0,1,.4,5.15,18.89,18.89,0,0,1-.45,3.6,4.76,4.76,0,0,1-1.8,2.9,4.6,4.6,0,0,1-3.1.65,32.28,32.28,0,0,0,1.25,4.35,29.29,29.29,0,0,0,2.2,4.8,20.3,20.3,0,0,0,3.65,4.75,10.39,10.39,0,0,0,5.8,2.85l10.2.1a9.58,9.58,0,0,1-4.3-1.2,16.25,16.25,0,0,1-6.1-6.5q-4.4-7.65-4.4-18.5t4.4-18.55m-70.75-8.8a34.6,34.6,0,0,1,25.4,10.5q.62.62,1.2,1.25a39.83,39.83,0,0,0-4-4.65,36.88,36.88,0,0,0-52.05,0,37.79,37.79,0,0,0-7,9.55,36.27,36.27,0,0,0-3.75,16.5,37.4,37.4,0,0,0,1.25,9.8,35.43,35.43,0,0,0,9.5,16.2,37.48,37.48,0,0,0,10,7.25,38.91,38.91,0,0,1-6-5,36,36,0,0,1,25.5-61.45Z"/><path class="cls-12" d="M273.64,190.31q-4.4-7.65-10.7-7.65a10,10,0,0,0-4.65,1.15,16.53,16.53,0,0,0-6.1,6.5q-4.4,7.7-4.4,18.55t4.4,18.5a16.25,16.25,0,0,0,6.1,6.5,9.58,9.58,0,0,0,4.3,1.2h.35q6.3,0,10.7-7.7t4.45-18.5q0-10.85-4.45-18.55m-10.8-3.8h.85q5.35,0,9.1,6.45a34.85,34.85,0,0,1,0,31.45Q269,231,263.69,231h-.15a8.83,8.83,0,0,1-3.75-1,13.84,13.84,0,0,1-5.2-5.55,34.85,34.85,0,0,1,0-31.45,13.9,13.9,0,0,1,5.2-5.5,9,9,0,0,1,3-.95m-56,5.5A36,36,0,0,0,155.94,243a38.91,38.91,0,0,0,6,5,35.05,35.05,0,0,0,9.9,3.1,41.28,41.28,0,0,0,6.15.45,37.25,37.25,0,0,0,35-25.15,32.84,32.84,0,0,0,1.4-6.15,37,37,0,0,0,.4-5.5,38.44,38.44,0,0,0-1.15-9.5,34.52,34.52,0,0,0-5.65-11.9q-.58-.63-1.2-1.25m-25-4.15a28.67,28.67,0,0,1,20.25,49,27.55,27.55,0,0,1-13.15,7.6,29,29,0,0,1-7.1.85,28.73,28.73,0,1,1,0-57.45Z"/><path class="cls-13" d="M263.69,186.51h-.85a9,9,0,0,0-3,.95,13.9,13.9,0,0,0-5.2,5.5,34.85,34.85,0,0,0,0,31.45,13.84,13.84,0,0,0,5.2,5.55,8.83,8.83,0,0,0,3.75,1h.15q5.35,0,9.1-6.55a34.85,34.85,0,0,0,0-31.45q-3.75-6.45-9.1-6.45m-61.55,9.75a28.71,28.71,0,1,0-20.25,49,29,29,0,0,0,7.1-.85,28.75,28.75,0,0,0,13.15-48.2Z"/><path class="cls-14" d="M267.39,303.06a2.57,2.57,0,0,0-1-1.75q-1.15-1-4.25-.5A130.3,130.3,0,0,1,248,302a77.09,77.09,0,0,0-14,1.6q-2.6.75-3.15,2.1a164.85,164.85,0,0,0,19,3q3.5.25,5.2.25a23.05,23.05,0,0,0,5-.6,12.89,12.89,0,0,0,4.6-2.25A9.24,9.24,0,0,0,267.39,303.06Z"/></g></g></g></svg>