<?xml version="1.0" encoding="utf-8"?>
<!-- Generator: Adobe Illustrator 21.1.0, SVG Export Plug-In . SVG Version: 6.00 Build 0)  -->
<svg version="1.1" id="Layer_1" xmlns="http://www.w3.org/2000/svg" xmlns:xlink="http://www.w3.org/1999/xlink" x="0px" y="0px"
	 viewBox="0 0 217.9 208.3" style="enable-background:new 0 0 217.9 208.3;" xml:space="preserve">
<style type="text/css">
	.st0{fill:#6C7B85;}
	.st1{fill:#92A6B3;}
	.st2{fill:#B5CEDE;}
	.st3{fill:url(#SVGID_1_);}
	.st4{fill:#FFFFFF;}
	.st5{fill:#CCCCCC;}
	.st6{fill:#666666;}
</style>
<g transform="matrix( 1, 0, 0, 1, 0,0) ">
	<g>
		<g id="Layer4_0_FILL">
			<path class="st0" d="M172.3,149.8c0-0.1,0.1-0.1,0.4-0.2c-1.6-2.9-3.7-5.4-6.5-7.3c-0.7,2.5-1.5,4.8-2.5,7.1
				c0.5,0.2,1.5,0.2,2.8,0c0.5,0,0.9,0.1,1.2,0.4l0.5,0.2c0.4,0.2,0.8,0.3,1.2,0.2c0.2,0,0.5-0.1,1-0.2h1.2
				C171.9,150,172.2,149.9,172.3,149.8 M139.5,156.6c0.4,0.9,1.6,1.8,3.4,2.5c2.9,1.5,5.8,2.4,8.6,2.7c2.8,0.3,6.1,0,9.8-1
				c2.2-0.7,5.4-1.9,9.7-3.6c1.6-0.4,2.6-1.2,3.2-2.2c0.2-0.5,0.3-1,0.3-1.5c-4.6,1.6-8,2.6-10.2,3.1c-6.6,1.1-12.4,0.8-17.4-0.9
				c-1.3-0.5-3.1-1.3-5.3-2.5c-1.6-1-3-1.8-4-2.2l0.4,2C138.3,154.7,138.8,155.9,139.5,156.6 M148.4,99.6c5,2.9,10.8,5.2,17.3,6.8
				c4.7,1.2,10,2,15.8,2.4c3.4,0.3,6.9,0.5,10.6,0.5c4.2,0.5,7.9,0.3,11.1-0.4c0.4-0.1,0.9-0.3,1.4-0.5c3.4-1,6.2-2.5,8.4-4.6
				c-0.4-2.2-1.4-3.5-3.1-4.1c-2.2,1.7-4.8,3.1-7.9,4c-5.2,1.6-11.9,2.1-19.9,1.7C172.7,104.9,161.5,103,148.4,99.6 M121.5,184.8
				c-1.7-0.5-3.8-1.6-6.1-3.1c-2.9-1.7-4.9-2.9-6.1-3.4c-0.8-0.2-1.7-0.5-2.8-0.7c-1.9-0.3-4.2-0.6-6.7-0.9
				c-1.7-0.1-3.8-0.2-6.5-0.2c1.9,2.5,3.8,5.1,5.7,7.9c1-0.5,2-0.8,3-1c1.6-0.5,3.4-0.7,5.2-0.7c1.6-0.1,3.2,0,5,0.2
				C114.3,183.2,117.4,183.8,121.5,184.8 M89.2,195.1c-0.4,0.8-0.7,1.5-1,2.1c-1.3,2.7-1.1,4.9,0.7,6.6c1.7,1.6,5.6,2.9,11.5,3.8
				c1.6,0.2,3.2,0.4,5,0.6c4.2,0.1,8.4-0.4,12.4-1.4c5.7-1.5,9.7-4.1,12.2-7.6c1.7-2.6,2.9-5.4,3.6-8.3c-1.9,1.5-4.1,3-6.8,4.5
				c-7,3.5-12.4,5.7-16.2,6.5c-1.3,0.3-2.7,0.5-4.1,0.6c-5.1,0.2-9.4-0.8-13-3.1C91.5,198,90.1,196.6,89.2,195.1 M126.8,134.6
				c-1.5-1.3-2.8-3.4-3.9-6.2c-1-2.7-3.1-8.1-6.4-16.3c0.1,13.3,2,26.4,5.7,39.1c4.8-1.5,9.4-3.2,13.9-5.2
				c10.2-4.9,19.4-11.2,27.5-19c0.7-0.5,1.7-1.4,3.1-2.6c0.6-0.4,1.2-0.8,1.9-1.1c0.6-0.2,1.4-0.6,2.3-1.2c0.9-0.6,3.7-0.6,8.3,0
				c0.1,0,0.2,0.1,0.4,0.2c4.4,0.5,8.8,0.5,13.2,0c4.6-0.5,8.3-1.4,11-2.9c0.3-0.2,0.7-0.4,1.1-0.6c1.7-1,3.2-2.4,4.6-4.2
				c-1.7,0.4-3.5,0.9-5.2,1.2c-4,0.6-8.2,0.8-12.6,0.7c-4.4-0.5-7.7-0.9-9.9-1.1c-0.5,0-1,0-1.4,0c-3.1-0.2-5.8,0-8.2,0.4
				c-4.3,1-10.5,4.7-18.6,11.1c-7.6,6-14,9.2-19.1,9.6C131.4,137,128.8,136.3,126.8,134.6 M11.2,121c-1.6-5.9-2.8-12.8-3.7-20.5
				c-0.6,2.3-1.2,4.7-1.7,7.1c-2.5,11.7-3.5,23.2-3,34.6c1.4,11.3,6.3,20,14.8,26.4c31.8,16.4,54.9,15.8,69.3-1.8
				c-2.7-3.9-4.9-7.5-6.6-10.8c-0.2-0.4-0.4-0.7-0.6-0.9c-5.9-0.7-11.7-1.9-17.4-3.7l12.1,9.8c0.8,0.8,1.3,1.3,1.3,1.4
				c0.4,0.4,0.5,1,0.5,1.6c0,1.1-0.9,1.9-2.7,2.2c-8.8,3.1-18.2,2.5-28-1.6c-9-3.9-16.5-10-22.4-18.2
				C17.9,139.6,13.9,131.1,11.2,121 M143.9,18.5c-0.6-0.8-1.5-1.6-2.8-2.2c-2.2-1-4.9-1.6-8.1-1.6c-3.1,0-5.7,0.5-7.9,1.6
				c-1.4,0.6-2.3,1.3-2.7,2.2c0.4,0.8,1.3,1.5,2.7,2.1c2.2,1.1,4.9,1.7,7.9,1.7c3.1,0,5.8-0.6,8.1-1.7
				C142.4,20,143.4,19.3,143.9,18.5z"/>
			<path class="st1" d="M168.6,123.4c-0.7,0.3-1.3,0.7-1.9,1.1c-1.4,1.2-2.5,2.1-3.1,2.6c-8.1,7.8-17.3,14.1-27.5,19l1.4,5
				c1.1,0.5,2.4,1.2,4,2.2c2.2,1.2,4,2,5.3,2.5c5.1,1.7,10.9,2,17.4,0.9c2.3-0.5,5.7-1.6,10.2-3.1c-0.1-0.9-0.6-1.9-1.5-3.1
				c-0.1-0.4-0.2-0.6-0.3-0.8c-0.2,0.1-0.4,0.1-0.4,0.2c-0.2,0.1-0.4,0.2-0.7,0.2h-1.2c-0.5,0.2-0.8,0.2-1,0.2
				c-0.5,0.1-0.9,0-1.2-0.2l-0.5-0.2c-0.4-0.3-0.8-0.4-1.2-0.4c-1.3,0.2-2.3,0.2-2.8,0c1-2.2,1.8-4.6,2.5-7.1
				C167.9,136.4,168.8,130.1,168.6,123.4 M120.1,49.1c-0.2,0.1-5.6,3.2-16.2,9.6c-0.9,0.4-1.8,0.8-2.7,1.4
				C84.8,70,66.7,77.6,46.8,82.8c-0.1,0-0.3,0-0.4,0.1c-7.2,1.7-13.3,2.6-18.4,2.7c-5.4,0-10.1-0.9-14.2-2.7
				c-2.5,5.7-4.6,11.6-6.3,17.7c0.9,7.7,2.1,14.5,3.7,20.5c2.8,10.1,6.8,18.6,12,25.8c5.9,8.2,13.4,14.3,22.4,18.2
				c9.8,4.1,19.1,4.6,28,1.6c1.8-0.4,2.7-1.1,2.7-2.2c0.1-0.6-0.1-1.1-0.5-1.6c-0.1-0.2-0.5-0.6-1.3-1.4l-12.1-9.8
				c5.7,1.8,11.5,3,17.4,3.7c-5.5-10.3-9-20.1-10.4-29.4c-0.2-0.2-0.3-0.4-0.2-0.4c-0.1-0.7-0.1-1.5-0.2-2.4c-0.1-0.6-0.1-1.2,0-1.9
				c0-3.8,0.6-7.2,1.8-10.1c0.6-1.4,1.3-2.8,2.2-4c1.9-2.7,4.3-4.6,7.4-5.9c3.2-1.3,6.3-1.4,9.3-0.4c4,1.3,7.7,5,11.2,11.1
				c4.8,8.2,8.5,17,11.1,26.4c3.6,12.6,2.6,21.6-2.9,26.9c-1.3,1.4-2.8,2.6-4.5,3.5c-1.8,0.8-3.8,1.4-6,1.6c-3,0.5-6.2,0.4-9.5-0.2
				c1.4,2,2.8,4.2,4.4,6.4c2.7,0,4.8,0.1,6.5,0.2c2.5,0.3,4.8,0.6,6.7,0.9c1.1,0.2,2,0.5,2.8,0.7c1.2,0.5,3.2,1.6,6.1,3.4
				c2.4,1.6,4.4,2.6,6.1,3.1c-4.1-1-7.2-1.6-9.3-1.9c-1.8-0.2-3.5-0.3-5-0.2c-1.8,0-3.5,0.2-5.2,0.7c-1.1,0.2-2.1,0.5-3,1
				c-2.1,1-3.9,2.5-5.5,4.3c-1.6,2.2-3.1,4.3-4.2,6.4c0.8,1.5,2.2,2.9,4.2,4.2c3.6,2.3,7.9,3.4,13,3.1c1.4-0.1,2.7-0.2,4.1-0.6
				c3.8-0.8,9.2-3,16.2-6.5c2.7-1.5,5-3,6.8-4.5c0.2-1.2,0.3-2.4,0.3-3.7c0.1-2.5-0.3-5.2-1.2-8.2c-0.2-0.6-1.3-3.1-3.1-7.5
				c-2.9-6.7-5.4-13.5-7.4-20.3c-3.7-12.8-5.6-25.8-5.7-39.1c3.3,8.2,5.4,13.6,6.4,16.3c1.1,2.9,2.4,5,3.9,6.2c2,1.7,4.6,2.4,7.8,2
				c5.1-0.4,11.5-3.6,19.1-9.6c8.1-6.4,14.3-10.1,18.6-11.1c2.4-0.5,5.1-0.6,8.2-0.4c0.4,0,0.9,0,1.4,0c2.2,0.2,5.4,0.6,9.9,1.1
				c4.3,0.2,8.5-0.1,12.6-0.7c1.7-0.4,3.5-0.8,5.2-1.2c0.2-0.4,0.5-0.7,0.9-1.1c1.8-2.6,2.7-5.4,2.7-8.2c0-0.6,0-1.1-0.1-1.6
				c-2.2,2.1-5,3.6-8.4,4.6c-0.5,0.2-1,0.3-1.4,0.5c-3.2,0.8-6.9,0.9-11.1,0.4c-3.7-0.1-7.2-0.2-10.6-0.5
				c-5.8-0.4-11.1-1.2-15.8-2.4c-6.5-1.6-12.3-3.8-17.3-6.8c13.1,3.3,24.3,5.2,33.6,5.8c8,0.4,14.6-0.1,19.9-1.7
				c3.1-1,5.8-2.3,7.9-4c3.6-3.1,6.2-6.7,7.8-11c0.1-0.5,0.2-1.1,0.2-1.6c-4,4.2-10,6.6-18.2,7.1c-1.8,0.1-3.8,0.1-6,0
				c-2.9,0-6.1-0.1-9.5-0.3c-3.2-0.3-6.5-0.7-10.1-1.2c-5.2-0.8-9.1-2.6-11.7-5.2c-0.5-0.8-0.7-1.5-0.6-1.9c0.5-0.9,1-1.3,1.7-1.3
				c4.4-2,9.9-3.8,16.5-5.3l10.6-3c1.2-0.2,2.3-0.5,3.4-0.7c1.9-0.4,3.8-0.8,5.5-1c1-5.5-0.8-13.2-5.1-23.2
				c-0.2-0.6-0.5-1.1-0.7-1.4c-0.4-1-0.8-1.9-1.2-2.8c-0.9-1.7-1.8-3.4-2.6-4.9c-1.9,1.9-4.3,3.4-7.3,4.5c-0.4,0.2-0.9,0.4-1.4,0.5
				c-4.2,1.3-8.8,1.7-13.8,1.2c-1.6-0.3-6.1-1.2-13.4-2.8c-5.4-1.2-9.9-1.8-13.4-1.8C134.4,43.5,127.5,45.4,120.1,49.1 M141.1,16.3
				c1.3,0.6,2.2,1.3,2.8,2.2c0.4-0.5,0.6-1.1,0.6-1.7c0-1.6-1.1-2.9-3.4-3.9c-2.2-1-4.9-1.6-8.1-1.6c-3.1,0-5.7,0.5-7.9,1.6
				c-2.3,1.1-3.4,2.4-3.4,3.9c0,0.6,0.2,1.2,0.7,1.7c0.4-0.8,1.3-1.6,2.7-2.2c2.2-1,4.9-1.6,7.9-1.6
				C136.2,14.8,138.9,15.3,141.1,16.3 M73.1,18.3c-2.4-1.2-4.9-2.2-7.4-3c-1.3-0.5-2.5-0.8-3.7-1c-5,2.6-9.9,6.4-14.7,11.4
				c-2.4,2.6-4.3,4.7-5.8,6.1c-0.4,0.2-0.7,0.5-0.9,0.8c-2.8,2.4-5.5,3.9-8.2,4.4c-4.1,0.9-9.3-0.4-15.5-4c-0.7-0.4-1.5-0.8-2.2-1.2
				c-2.2-1.1-4-2.5-5.5-4.1C8.5,27,8,26.3,7.7,25.5c-1.9,1.5-3.8,3.2-5.5,5c-1.9,2.4-2.5,4.1-2,5.1c0.5,1.5,1.8,2.4,3.7,2.7
				c6,2.6,11.3,6.3,16,11.1c2.8,2.8,5.3,5.9,7.4,9.2c0.1-0.2,0.2-0.4,0.3-0.6l0.1-0.1c5.8-8.4,12.5-15.8,20.1-22.4
				c4.4-3.8,9-7.3,13.9-10.5C65.4,22.5,69.2,20.3,73.1,18.3z"/>
			<path class="st2" d="M162.5,87.4c2.5,2.7,6.4,4.4,11.7,5.2c3.6,0.5,6.9,0.9,10.1,1.2c3.4,0.2,6.6,0.3,9.5,0.3
				c2.2,0.1,4.2,0.1,6,0c8.2-0.5,14.2-2.9,18.2-7.1c0.3-8.2-5.9-12.3-18.4-12.3c0.1-0.3,0.1-0.5,0.1-0.7c-1.7,0.2-3.6,0.6-5.5,1
				c-1,0.2-2.2,0.5-3.4,0.7l-10.6,3c-6.6,1.5-12.1,3.3-16.5,5.3c-0.7,0-1.2,0.4-1.7,1.3C161.7,85.9,161.9,86.5,162.5,87.4
				 M80.3,101.1c-3.1,1.3-5.5,3.2-7.4,5.9c-0.9,1.2-1.7,2.5-2.2,4c-1.2,2.9-1.8,6.3-1.8,10.1c-0.1,0.7-0.1,1.3,0,1.9
				c0.1,0.8,0.1,1.6,0.2,2.4c0,0.1,0.1,0.2,0.2,0.4c1.4,9.3,4.9,19.1,10.4,29.4c0.2,0.2,0.4,0.5,0.6,0.9c1.7,3.3,3.9,6.9,6.6,10.8
				c0.6,1,1.3,2.1,2,3.2c3.4,0.6,6.5,0.7,9.5,0.2c2.2-0.3,4.2-0.8,6-1.6c1.7-0.9,3.2-2.1,4.5-3.5c5.5-5.3,6.5-14.3,2.9-26.9
				c-2.6-9.3-6.3-18.1-11.1-26.4c-3.5-6.1-7.2-9.8-11.2-11.1C86.6,99.7,83.5,99.8,80.3,101.1 M105.7,7.8
				c-11.3,1.7-22.2,5.2-32.6,10.5c-3.9,2-7.7,4.2-11.5,6.7c-4.9,3.2-9.5,6.7-13.9,10.5c-7.5,6.6-14.2,14-20.1,22.4L27.5,58
				c-0.1,0.2-0.2,0.4-0.3,0.6c-5.4,7.6-9.9,15.7-13.5,24.2c4.1,1.8,8.8,2.7,14.2,2.7c5.1-0.1,11.2-1,18.4-2.7
				c0.2-0.1,0.3-0.1,0.4-0.1c19.9-5.2,38-12.7,54.3-22.7c0.9-0.6,1.8-1.1,2.7-1.4c10.7-6.3,16.1-9.5,16.2-9.6
				c7.5-3.7,14.3-5.6,20.5-5.7c3.6,0,8.1,0.6,13.4,1.8c7.3,1.6,11.8,2.5,13.4,2.8c5,0.5,9.6,0.1,13.8-1.2c0.5-0.1,0.9-0.2,1.4-0.5
				c3-1.1,5.4-2.6,7.3-4.5c-4.7-7.5-10.7-14-17.9-19.3c-9.1-6.8-19.6-11.5-31.5-14C129.2,6.1,117.6,5.9,105.7,7.8 M141.1,12.8
				c2.3,1.1,3.4,2.4,3.4,3.9c0,0.6-0.2,1.2-0.6,1.7c-0.6,0.8-1.5,1.5-2.8,2.1c-2.2,1.1-4.9,1.7-8.1,1.7c-3.1,0-5.7-0.6-7.9-1.7
				c-1.4-0.6-2.3-1.3-2.7-2.1c-0.5-0.5-0.7-1.1-0.7-1.7c0-1.6,1.1-2.9,3.4-3.9c2.2-1,4.9-1.6,7.9-1.6
				C136.2,11.3,138.9,11.8,141.1,12.8 M43.2,12.1c-7.5,0.3-15,2.1-22.3,5.2c-0.1,0.2-0.2,0.3-0.3,0.4c-0.8,0.4-1.6,0.7-2.5,1.1
				c-3.7,1.9-7.2,4.1-10.5,6.8C8,26.3,8.5,27,9.2,27.8c1.5,1.6,3.3,2.9,5.5,4.1c0.8,0.4,1.5,0.8,2.2,1.2c6.2,3.5,11.4,4.9,15.5,4
				c2.7-0.5,5.4-2,8.2-4.4c0.2-0.3,0.5-0.5,0.9-0.8c1.5-1.4,3.4-3.5,5.8-6.1c4.8-5,9.7-8.8,14.7-11.4C55.8,12.6,49.6,11.8,43.2,12.1
				z"/>
		</g>
	</g>
</g>
<g transform="matrix( 0.2213134765625, 0, 0, 0.2213134765625, 149.4,175.85) ">
	<g transform="matrix( 1, 0, 0, 1, 0,0) ">
		<g>
			<g id="bubbles_0_Layer0_0_FILL">
				
					<radialGradient id="SVGID_1_" cx="1825.3632" cy="-2872.8687" r="42.4375" gradientTransform="matrix(0.2213 0 0 -0.2213 -467.4547 -1394.1305)" gradientUnits="userSpaceOnUse">
					<stop  offset="0" style="stop-color:#7FAFC0;stop-opacity:0"/>
					<stop  offset="1" style="stop-color:#7FAFC0"/>
				</radialGradient>
				<path class="st3" d="M-43.7-781c-9-9-20-13.6-32.8-13.6s-23.7,4.5-32.8,13.6c-9,9-13.6,20-13.6,32.8s4.5,23.7,13.6,32.8
					c9,9,20,13.6,32.8,13.6s23.7-4.5,32.8-13.6c9-9,13.6-20,13.6-32.8S-34.7-772-43.7-781 M-40.8-765.8c1.2,1.1,2.2,2.6,2.9,4.5
					c0.5,1.2,0.9,2.4,1.1,3.6c0.3,1.4,0.5,2.8,0.5,4.2c0,2.9-0.6,5.4-2,7.6c-0.2,0.4-0.5,0.8-0.9,1c-0.4,0.3-0.8,0.4-1.3,0.2
					c-0.2-2.1-0.5-3.7-0.7-4.9c-0.4-1.8-0.9-3.4-1.5-4.7c-1.2-1.8-2-3.2-2.6-4.2c-1-1.6-1.5-3.2-1.4-4.8c0-0.1,0-0.1,0-0.1
					c0.1-0.8,0.4-1.5,0.9-2.1c0.6-0.7,1.9-1,3.9-1C-41.5-766.4-41.2-766.2-40.8-765.8 M-54.3-781.8c1.7,1.1,2.7,2.2,3.1,3.3
					c0.4,1,0.4,2.4-0.1,4.2c-0.4,1.4-1.1,2.6-2,3.5c-1,1.1-2.1,1.5-3.3,1.4c-0.8-0.2-1.7-0.7-2.8-1.5c-2.2-1.6-4.4-2.8-6.4-3.5
					c-0.1,0-0.2-0.1-0.2-0.1c-1.2-0.5-2.4-0.8-3.5-1c-0.9-0.2-2.4-0.4-4.5-0.5c-1.9-0.2-3.3-0.4-4.4-0.7c-1.5-0.5-2.8-1.3-3.8-2.4
					c-1.1-1.2-1.6-2.5-1.6-3.8c0.1-1.1,0.4-2.1,1.2-3.1c0.7-0.9,1.5-1.6,2.5-2.1c0.9-0.4,2-0.8,3.4-1c3.5,0.2,6.9,0.8,10.3,1.8
					C-62.1-786.2-58-784.3-54.3-781.8z"/>
				<path class="st4" d="M-51.2-778.5c-0.4-1.2-1.4-2.3-3.1-3.3c-3.7-2.5-7.7-4.4-12.1-5.7c-3.4-1-6.8-1.6-10.3-1.8
					c-1.3,0.3-2.5,0.6-3.4,1c-1,0.5-1.8,1.2-2.5,2.1c-0.7,1-1.1,2-1.2,3.1c0,1.4,0.5,2.6,1.6,3.8c1,1.1,2.3,1.9,3.8,2.4
					c1,0.3,2.5,0.5,4.4,0.7c2.1,0.2,3.6,0.3,4.5,0.5c1.1,0.2,2.3,0.5,3.5,1c0.1,0,0.2,0.1,0.2,0.1c2,0.8,4.2,2,6.4,3.5
					c1.1,0.8,2,1.3,2.8,1.5c1.2,0.2,2.3-0.2,3.3-1.4c0.9-0.9,1.5-2.1,2-3.5C-50.9-776.1-50.8-777.5-51.2-778.5 M-38-761.3
					c-0.7-1.9-1.6-3.4-2.9-4.5c-0.3-0.3-0.7-0.6-1.1-0.8c-2,0-3.3,0.3-3.9,1c-0.5,0.6-0.8,1.3-0.9,2.1c0,0,0,0.1,0,0.1
					c-0.1,1.6,0.4,3.2,1.4,4.8c0.6,1,1.4,2.4,2.6,4.2c0.7,1.3,1.2,2.9,1.5,4.7c0.2,1.2,0.5,2.8,0.7,4.9c0.4,0.1,0.8,0.1,1.3-0.2
					c0.4-0.2,0.7-0.6,0.9-1c1.4-2.2,2-4.7,2-7.6c0-1.4-0.2-2.8-0.5-4.2C-37.1-758.9-37.5-760.1-38-761.3z"/>
			</g>
		</g>
	</g>
</g>
<g transform="matrix( 2.6289520263671875, 0, 0, 2.6289520263671875, 156.6,225.2) ">
	<g transform="matrix( 1, 0, 0, 1, 0,0) ">
		<g>
			<g id="eyeballs_0_Layer0_0_FILL">
				<path class="st5" d="M-1.3-65.3c-1-1-2.3-1.6-3.7-1.6s-2.7,0.5-3.8,1.6s-1.6,2.3-1.6,3.8s0.5,2.7,1.6,3.8s2.3,1.6,3.8,1.6
					s2.7-0.5,3.7-1.6s1.6-2.3,1.6-3.8S-0.3-64.3-1.3-65.3 M-4.4-66.5c1.2,0,2.2,0.4,3.1,1.2c0.8,0.8,1.3,1.9,1.3,3.1
					c0,1.2-0.4,2.2-1.3,3c-0.9,0.9-1.9,1.3-3.1,1.3s-2.2-0.4-3.1-1.3c-0.8-0.8-1.2-1.8-1.2-3c0-1.2,0.4-2.3,1.2-3.1
					C-6.7-66.1-5.6-66.5-4.4-66.5 M13-61c0.3-0.7,0.4-1.5,0.1-2.4c-0.2-0.9-0.7-1.5-1.4-2c-0.7-0.5-1.3-0.6-2-0.5
					c-0.7,0.2-1.2,0.7-1.5,1.4c-0.3,0.8-0.4,1.6-0.1,2.5c0.2,0.9,0.7,1.6,1.3,2c0.6,0.5,1.3,0.7,2,0.5C12.2-59.8,12.7-60.3,13-61
					 M9.9-65.9c0.6-0.2,1.2,0,1.9,0.4c0.6,0.4,1,1,1.2,1.8c0.2,0.8,0.1,1.5-0.1,2.1c-0.3,0.7-0.8,1.1-1.5,1.3
					c-0.6,0.2-1.2,0-1.9-0.4c-0.6-0.4-1-1-1.2-1.8c-0.2-0.8-0.1-1.5,0.1-2.2C8.8-65.3,9.3-65.7,9.9-65.9z"/>
				<path class="st4" d="M-1.3-65.3c-0.9-0.8-1.9-1.2-3.1-1.2s-2.2,0.4-3.1,1.2c-0.8,0.8-1.2,1.9-1.2,3.1c0,1.2,0.4,2.2,1.2,3
					c0.9,0.9,1.9,1.3,3.1,1.3s2.2-0.4,3.1-1.3c0.8-0.8,1.3-1.8,1.3-3C-0.1-63.4-0.5-64.5-1.3-65.3 M-4-63.2c0.4,0.4,0.6,0.8,0.6,1.3
					c0,0.2,0,0.4-0.1,0.5c-0.1,0.2-0.2,0.4-0.4,0.6c0,0.1-0.1,0.1-0.1,0.1c-0.3,0.3-0.6,0.4-0.9,0.5c-0.1,0-0.2,0-0.3,0
					c-0.5,0-0.9-0.2-1.3-0.5C-7-61-7.1-61.4-7.1-61.9s0.2-0.9,0.6-1.3c0,0,0.1-0.1,0.1-0.1c0.4-0.3,0.8-0.4,1.2-0.4
					c0.2,0,0.4,0,0.5,0c0.2,0.1,0.4,0.2,0.5,0.2C-4.2-63.4-4.1-63.3-4-63.2 M11.8-65.5c-0.6-0.4-1.2-0.5-1.9-0.4
					c-0.6,0.2-1.1,0.6-1.5,1.2c-0.3,0.6-0.4,1.4-0.1,2.2c0.2,0.8,0.6,1.4,1.2,1.8c0.6,0.4,1.2,0.6,1.9,0.4c0.6-0.2,1.1-0.6,1.5-1.3
					c0.3-0.7,0.4-1.4,0.1-2.1C12.8-64.5,12.4-65.1,11.8-65.5 M10.4-64.4c0.1,0,0.1-0.1,0.2-0.1c0.3,0,0.6,0.1,0.8,0.3
					c0.2,0.2,0.3,0.5,0.3,0.8c0,0.1,0,0.1,0,0.2c0,0.2-0.1,0.4-0.2,0.5c0,0-0.1,0.1-0.1,0.1c-0.2,0.2-0.5,0.4-0.8,0.4
					c-0.3,0-0.6-0.1-0.9-0.4c-0.2-0.2-0.3-0.4-0.3-0.6c0,0,0-0.1,0-0.2c0-0.3,0.1-0.6,0.3-0.8C9.9-64.4,10.1-64.4,10.4-64.4z"/>
				<path class="st6" d="M-3.4-61.9c0-0.5-0.2-0.9-0.6-1.3c-0.1-0.1-0.2-0.2-0.3-0.2c-0.1-0.1-0.3-0.2-0.5-0.2c-0.1,0-0.3,0-0.5,0
					c-0.4,0-0.8,0.1-1.2,0.4c0,0-0.1,0.1-0.1,0.1c-0.4,0.4-0.6,0.8-0.6,1.3S-7-61-6.6-60.6c0.4,0.4,0.8,0.5,1.3,0.5
					c0.1,0,0.2,0,0.3,0c0.4-0.1,0.7-0.2,0.9-0.5c0,0,0.1-0.1,0.1-0.1c0.2-0.2,0.3-0.4,0.4-0.6C-3.5-61.5-3.4-61.7-3.4-61.9
					 M10.6-64.5c-0.1,0-0.1,0-0.2,0.1c-0.3,0-0.5,0.1-0.7,0.2c-0.2,0.2-0.3,0.5-0.3,0.8c0,0.1,0,0.1,0,0.2c0,0.3,0.1,0.5,0.3,0.6
					c0.2,0.2,0.5,0.4,0.9,0.4c0.3,0,0.6-0.1,0.8-0.4c0,0,0.1-0.1,0.1-0.1c0.1-0.2,0.2-0.3,0.2-0.5c0,0,0-0.1,0-0.2
					c0-0.3-0.1-0.6-0.3-0.8C11.2-64.4,10.9-64.5,10.6-64.5z"/>
			</g>
		</g>
	</g>
</g>
<g transform="matrix( 2.6289520263671875, 0, 0, 2.6289520263671875, 153.2,220.85) ">
	<g transform="matrix( 1, 0, 0, 1, 0,0) ">
		<g>
			<g id="eyelid1_0_Layer0_0_FILL">
				<path class="st2" d="M-4.2-66.9c-3.3,0.2-5.3,2-6,5.3c-0.2,1.3,0.2,1.9,1.1,1.7c4.3-2.2,7.7-2.8,10.3-1.9c0.7,0,0.9-0.4,0.6-1.1
					C0.4-65.3-1.6-66.6-4.2-66.9z"/>
			</g>
		</g>
	</g>
</g>
<g transform="matrix( 2.6289520263671875, 0, 0, 2.6289520263671875, 204,221.3) ">
	<g transform="matrix( 1, 0, 0, 1, 0,0) ">
		<g>
			<g id="eyelid2_0_Layer0_0_FILL">
				<path class="st2" d="M-4.5-63c-0.6-2-1.6-3.2-2.8-3.8c-1.6-0.3-2.6,0.7-2.9,3c-0.1,0.9,0.1,1.4,0.6,1.4c2.1-1,3.7-0.9,5,0.2
					C-4.4-62.2-4.3-62.4-4.5-63z"/>
			</g>
		</g>
	</g>
</g>
</svg>
