<?xml version="1.0" encoding="utf-8"?>
<!-- Generator: Adobe Illustrator 21.1.0, SVG Export Plug-In . SVG Version: 6.00 Build 0)  -->
<svg version="1.1" id="Layer_1" xmlns="http://www.w3.org/2000/svg" xmlns:xlink="http://www.w3.org/1999/xlink" x="0px" y="0px"
	 viewBox="0 0 501.7 934.4" style="enable-background:new 0 0 501.7 934.4;" xml:space="preserve">
<style type="text/css">
	.st0{fill:#FFF1CD;}
	.st1{fill:#E6D5AA;}
	.st2{fill:#C9C845;}
	.st3{fill:#CCCCCC;}
	.st4{fill:#FFFFFF;}
	.st5{fill:#333333;}
	.st6{fill:#C2C278;}
	.st7{fill:#A3A233;}
	.st8{fill:#E8E64F;}
	.st9{fill:#666666;}
	.st10{fill:#E0E0E0;}
</style>
<g transform="matrix( 0.9995574951171875, 0.0297393798828125, -0.0297393798828125, 0.9995574951171875, 143.65,569.6) ">
	<g transform="matrix( 1, 0, 0, 1, 0,0) ">
		<g>
			<g id="wing1_0_Layer0_0_FILL">
				<path class="st0" d="M-43.2,63.4c-1.7-8.5-2.2-16.6-1.4-24.5c-4,13.6-4,27.9,0.2,42.9c4.4,15.9,12.5,29.5,24.2,41.1
					c11.1,10.8,24.6,19.1,40.5,24.8c14.9,5.3,30.7,8,47.4,8c6,0,11.1-0.6,15.3-1.6c5.4-1.4,9.7-3.8,12.8-7.2
					c3.5-3.9,4.7-8.7,3.7-14.4c-0.2-0.9-0.4-1.7-0.6-2.4c-6.4,8.5-18.2,12.5-35.4,12c-16.5-0.6-32-3.9-46.5-9.9
					c-15.5-6.3-28.4-15.2-38.8-26.5C-32.8,93.6-39.9,79.5-43.2,63.4 M151.4,74.8c-2.7-0.8-6.1-1.6-10.2-2.5
					c-0.6,0.2-1.1,0.5-1.5,0.8c-1,0.8-1.6,1.8-1.9,3.1c-0.3,1.3,0,2.3,0.7,3.2c0.3,0.4,1,0.8,1.9,1.3c1,0.5,1.6,0.9,2,1.2
					c1.1,1.1,1.4,2.7,0.7,4.7c-0.5,1.6-1.5,3.2-2.9,4.7c-7.9,9.2-14.3,15.8-19.2,20.1c-4.1,3.5-8.3,6.4-12.5,8.6
					c7.1-2.2,13.9-5.8,20.4-10.9C140.8,99.8,148.2,88.4,151.4,74.8 M153.2,24.9c0.4,0,0.9,0.1,1.6,0.1c0.6,0,1.3,0.1,2,0.1
					c1.4,0.1,2.5,0.5,3.4,1c0.6,0.3,1.3,0.8,2.1,1.5c0.4,0.4,1.1,0.9,1.9,1.8c0.8,0.5,1.3,0.9,1.5,1.4c0.3,0.6,0.3,1.5,0.1,2.7
					c-0.8,3.5-2,7.3-3.6,11.4c-1.1,2.7-2.7,6.4-4.9,11c-1.4,3.1-2.6,5.4-3.5,6.9c-0.6,0.9-1.2,1.8-1.8,2.6c1.8-1.3,3.5-2.7,5.2-4.2
					c5.5-4.9,9.6-10.6,12.5-17.1c2.6-6.3,2.9-11.3,0.9-15.2c-1.8-3.3-4.8-5.3-9.2-6c-2.5-0.4-5.5-0.4-8.9,0
					c-1.7,0.2-3.5,0.5-5.4,0.9C148.9,24.3,151,24.7,153.2,24.9 M212.4-66c-3.2-3.6-6.9-5.6-11.1-6.1s-8.2-0.4-12,0.2
					c-49.6,7.8-98,20.3-145.1,37.7C22.4-26.1,5-17.4-8.2-8.2c-10,7-18.2,14.8-24.4,23.2c-1.3,5.9-2.1,12-2.4,18.4
					c-0.6,16.5,2.6,31.9,9.7,46.2c7.1,14.3,17.4,26.3,30.9,35.9c13.5,9.6,28.2,15.3,44,17.2c4.2,0.5,7.8,0.6,11,0.2
					c3.9-0.5,7.3-1.6,10.1-3.4c3.1-2.1,5.2-5,6.2-8.8c1-4,0.4-7.4-1.8-10.1c7.5-2.2,13.3-4.2,17.2-5.9c6.1-2.7,11.1-6,14.8-9.9
					c4.4-4.5,7-9.8,7.8-16.1c0.8-6.7-0.7-12.1-4.7-16.3c4.6,1.9,9.4,1.8,14.4-0.1c5-1.9,8.6-5.1,10.6-9.6c2.1-4.5,2.2-9.3,0.4-14.3
					c-1.8-5-4.9-8.6-9.4-10.8c15.5-6.6,26.9-11.8,34.1-15.5C172.7,5.3,182.9-1.6,191-9.1c9.7-8.9,17-19,21.9-30.3
					c2.5-5.9,4.1-11.6,5-17.3C216.6-60.2,214.7-63.3,212.4-66z"/>
				<path class="st1" d="M219-52.8c-0.3-1.3-0.7-2.6-1.1-3.9c-0.8,5.7-2.5,11.4-5,17.3C208.1-28,200.8-17.9,191-9.1
					c-8.1,7.4-18.4,14.4-30.7,20.8c-7.2,3.7-18.6,8.9-34.1,15.5c4.5,2.2,7.6,5.8,9.4,10.8c1.8,5,1.7,9.8-0.4,14.3
					c-2,4.5-5.6,7.7-10.6,9.6c-5,1.9-9.8,2-14.4,0.1c4,4.2,5.5,9.6,4.7,16.3c-0.8,6.3-3.4,11.6-7.8,16.1c-3.7,3.8-8.7,7.1-14.8,9.9
					c-3.9,1.7-9.7,3.7-17.2,5.9c2.2,2.7,2.8,6.1,1.8,10.1c-1,3.8-3.1,6.7-6.2,8.8c-2.8,1.8-6.2,3-10.1,3.4c-3.2,0.4-6.8,0.3-11-0.2
					c-15.8-1.9-30.5-7.6-44-17.2c-13.5-9.6-23.8-21.5-30.9-35.9c-7.1-14.3-10.3-29.7-9.7-46.2c0.2-6.3,1-12.5,2.4-18.4
					c-4.6,6.3-8.2,12.9-10.8,19.9c-0.5,1.3-0.9,2.7-1.3,4c-0.8,7.9-0.3,16,1.4,24.5c3.3,16.1,10.4,30.2,21.4,42.2
					c10.4,11.3,23.3,20.2,38.8,26.5c14.5,6,30,9.3,46.5,9.9c17.2,0.5,29-3.5,35.4-12c-1.4-4.3-4.2-6.9-8.3-7.6
					c6.3,0.1,12.3-0.7,18.1-2.5c4.2-2.2,8.3-5.1,12.5-8.6c4.9-4.2,11.3-10.9,19.2-20.1c1.4-1.5,2.4-3.1,2.9-4.7
					c0.6-2,0.4-3.5-0.7-4.7c-0.4-0.4-1-0.8-2-1.2c-0.9-0.5-1.6-0.9-1.9-1.3c-0.7-0.9-1-1.9-0.7-3.2c0.3-1.3,0.9-2.3,1.9-3.1
					c0.4-0.3,0.9-0.6,1.5-0.8c-0.8-0.2-1.6-0.4-2.4-0.6c4.7-1.5,9.1-3.7,13.2-6.6c0.6-0.8,1.2-1.7,1.8-2.6c0.9-1.5,2.1-3.8,3.5-6.9
					c2.2-4.6,3.8-8.3,4.9-11c1.7-4.1,2.9-7.9,3.6-11.4c0.2-1.2,0.2-2.1-0.1-2.7c-0.2-0.4-0.7-0.9-1.5-1.4c-0.9-0.8-1.5-1.4-1.9-1.8
					c-0.8-0.7-1.4-1.2-2.1-1.5c-0.9-0.5-2-0.8-3.4-1c-0.8,0-1.4-0.1-2-0.1c-0.6,0-1.2-0.1-1.6-0.1c-2.2-0.2-4.3-0.6-6.2-1.3
					c1.9-0.4,3.7-0.7,5.4-0.9c3.4-0.4,6.4-0.4,8.9,0c7.5-3,14.7-6.8,21.5-11.4c9-6.2,16.8-13.5,23.4-21.9c7.3-9.4,11.8-18.4,13.2-27
					C220.3-42.7,220.2-47.8,219-52.8z"/>
			</g>
		</g>
	</g>
</g>
<g transform="matrix( 0.9995574951171875, 0.0297393798828125, -0.0297393798828125, 0.9995574951171875, 392.05,455.85) ">
	<g transform="matrix( 1, 0, 0, 1, 0,0) ">
		<g>
			<g id="tailfluf_0_Layer0_0_FILL">
				<path class="st0" d="M83.5,6.3c-8.3,4-17.1,6.7-26.3,8.2c9.7-9.9,15.6-22.1,17.8-36.7c2.2-14.6,0.1-28-6.3-40.3
					C53.5-46.5,39.3-29,26.4-9.9c2-7.8,2.8-15.7,2.6-23.9c-0.3-8.2-1.6-16.1-4-23.7C23.4-62.2,21-66,17.7-69
					c-3.7-3.4-7.4-4.2-11.1-2.5C-8.6-48.6-20.1-24.2-28,1.8c-2.1-3.8-4.8-7.1-8.3-10c-3.4-2.8-7.2-4.8-11.4-6.1l6.4,48.5
					c2.4,11.9,8.1,21.7,17.3,29.5c9.2,7.8,19.5,11.6,30.7,11.3c6.6-0.2,13.4-1.8,20.5-4.7C32.9,68,39.2,64.5,46,59.9
					c10.7-7.3,19.1-15,25.4-23.1C79,26.9,83.1,16.8,83.5,6.3z"/>
			</g>
		</g>
	</g>
</g>
<g transform="matrix( 0.9995574951171875, 0.0297393798828125, -0.0297393798828125, 0.9995574951171875, 180.75,545.7) ">
	<g transform="matrix( 1, 0, 0, 1, 0,0) ">
		<g>
			<g id="body_0_Layer0_0_FILL">
				<path class="st2" d="M256.2,255.5c-0.3-3.8-0.9-7.5-1.8-11.1c-0.1,0.1-0.1,0.1-0.2,0.2c-4.5,4.8-9.2,8.2-14.3,10.2
					c-3.4,1.4-7,2.2-10.8,2.4c0.4,0.8,0.7,1.6,1,2.4c2.2,5.7,3.4,12.3,3.8,19.9c0.2,3.5,0.2,6.7,0,9.7c-0.1,1.5-0.3,2.9-0.5,4.2
					c-0.8,4.9-2.3,9.2-4.6,12.9c-2.1,3.4-5,6.7-8.8,9.7c-2.9,2.3-6.6,4.7-11.2,7.3c-14.9,8.7-30.6,16-47,21.8
					c-1.5,5.8-4,11.6-7.5,17.4c2.2-2.9,5.7-5.1,10.3-6.6c1.8-0.6,6-1.5,12.6-2.7c7.7-1.5,15.2-4,22.4-7.4c4.9-2.4,9.6-5.1,14.1-8.3
					c-1.2,2.1-2.3,4.1-3.4,6c-3.7,6.1-7.8,11.4-12.1,15.9c-2.2,2.2-3.9,3.9-5,5.1c-1.9,2-3.2,3.9-4.1,5.7c-1.1,2.2-1.6,4.5-1.5,6.9
					c0.2,2.6,1.1,4.6,2.8,6.2c1.8-3.5,5.1-6.7,9.7-9.6c2.7-1.7,6.9-4.1,12.6-7.1c9.6-5.8,17.2-13.8,22.8-23.8c2.6-5,4.1-7.7,4.4-8.2
					c1.9-3,4-5.2,6.4-6.5c1.9-1,4.3-1.6,7.1-1.9c1.8-0.1,4.3,0,7.7,0.2L278,328c-0.3-3.7-3.1-7-8.2-10c-3-1.6-5.2-2.8-6.6-3.7
					c-2.5-1.5-4.5-3-5.9-4.5c-3.4-3.5-4.9-8.5-4.6-15c0-1.1,0.2-2.9,0.6-5.6c0.4-2.9,1.1-6.8,2-11.6
					C256.6,270.3,256.9,263,256.2,255.5 M101.4,255.6c-0.1-0.5-0.2-1.1-0.3-1.6c-0.9,0.9-1.9,1.7-2.8,2.3c-5,3.3-11.2,4.3-18.6,3.2
					c-1.3-0.2-2.6-0.5-3.9-0.8c1,1.7,1.9,3.6,2.7,5.6c0.3,0.7,0.6,1.5,0.8,2.3c1.8,5.6,2.8,11.9,2.9,19c0.1,3.3,0,6.3-0.3,9
					c-0.1,1.4-0.3,2.6-0.6,3.9c-0.8,4.5-2.3,8.3-4.4,11.5c-2,2.9-4.7,5.6-8.2,7.9c-2.6,1.8-6,3.6-10.3,5.4
					C45,329.8,30.8,334.6,15.9,338c-1.5,5.2-3.9,10.3-7.2,15.2c2.1-2.4,5.2-4,9.4-4.9c1.6-0.3,5.4-0.6,11.4-1
					c7-0.5,13.7-1.9,20.3-4.1c4.5-1.6,8.8-3.6,12.9-6c-1.1,1.8-2.2,3.6-3.3,5.2c-3.5,5.2-7.2,9.7-11.2,13.3c-2,1.8-3.6,3.1-4.6,4.1
					c-1.7,1.6-3,3.2-3.8,4.8c-1.1,1.9-1.6,3.9-1.5,6.2c0.1,2.4,0.8,4.4,2.2,6c1.8-3,4.8-5.6,9-7.8c2.5-1.2,6.3-2.9,11.5-5
					c8.8-4.3,15.8-10.7,21-19.4c2.5-4.3,3.9-6.7,4.2-7.1c1.8-2.6,3.7-4.3,5.8-5.2c1.8-0.7,3.9-1,6.5-0.9c1.6,0.2,3.9,0.6,6.9,1.2
					l15.1,3.4c-0.2-3.4-2.6-6.9-7.2-10.3c-2.6-1.9-4.6-3.3-5.8-4.2c-2.2-1.7-3.9-3.3-5.2-4.9c-3-3.6-4.2-8.5-3.8-14.5
					c0-1,0.3-2.7,0.7-5.1c0.5-2.6,1.2-6.1,2.1-10.6c1.3-6.6,1.8-13.4,1.4-20.4C102.5,262.6,102.1,259.1,101.4,255.6z"/>
				<path class="st1" d="M285.2,81.4c-2-7.3-4.9-15.9-8.7-25.6c-4.5-11.2-7.8-19.5-10-25.1c-8.2-20.7-13.2-37.9-14.9-51.5
					c-0.7-7-1.2-12.2-1.8-15.7c-0.9-6-2.4-10.9-4.4-14.9c-4.7-9.4-13-15.7-24.7-19c-10.9-3-21.9-2.8-33.1,0.7
					c-8.9,2.9-18.5,7.9-28.9,15.2c-11.8,9-23.7,17.7-35.9,26.2c-12.2,8.4-29.3,16.3-51.2,23.5c-22,7.2-42.5,12.5-61.7,15.7
					c0.8,0.3-1.6,1.2-7.3,2.6c-5.7,1.4-14.2,7.2-25.5,17.4C-34,41.3-41.4,56.3-45,76.3c-3.6,19.9-3.5,39.6,0.2,58.9
					c3.8,19.3,10.4,36.5,19.8,51.5c9,14.3,21.5,27.3,37.6,39.1c12.9,9.5,28.8,18.6,47.7,27.4c5.8,2.7,10.9,4.6,15.5,5.7
					c1.3,0.3,2.6,0.5,3.9,0.8c7.4,1.1,13.6,0.1,18.6-3.2c0.9-0.6,1.9-1.4,2.8-2.3c3.3-3.2,6.4-8.2,9.4-15
					c4.2-9.5,7.9-15.7,11.1-18.7c6.3-6,15-8.2,25.9-6.7c5.3,0.7,10.9,2.3,17,4.8c4.2,3.7,9.2,8.3,14.9,13.7
					c9.9,9.5,19.4,16.3,28.6,20.4c7.5,3.5,14.6,5,21.4,4.7c3.7-0.2,7.3-1,10.8-2.4c5.1-2,9.8-5.4,14.3-10.2c0.1-0.1,0.1-0.1,0.2-0.2
					c3.4-3.6,6.9-8.4,10.5-14.4c13.3-22,21.7-46.1,25.3-72.3C293.8,131.6,292.2,106.1,285.2,81.4z"/>
			</g>
		</g>
	</g>
</g>
<g transform="matrix( 0.9995574951171875, 0.0297393798828125, -0.0297393798828125, 0.9995574951171875, 280.4,552.55) ">
	<g transform="matrix( 1, 0, 0, 1, 0,0) ">
		<g>
			<g id="wing1_0_Layer0_0_FILL_1_">
				<path class="st0" d="M-43.2,63.4c-1.7-8.5-2.2-16.6-1.4-24.5c-4,13.6-4,27.9,0.2,42.9c4.4,15.9,12.5,29.5,24.2,41.1
					c11.1,10.8,24.6,19.1,40.5,24.8c14.9,5.3,30.7,8,47.4,8c6,0,11.1-0.6,15.3-1.6c5.4-1.4,9.7-3.8,12.8-7.2
					c3.5-3.9,4.7-8.7,3.7-14.4c-0.2-0.9-0.4-1.7-0.6-2.4c-6.4,8.5-18.2,12.5-35.4,12c-16.5-0.6-32-3.9-46.5-9.9
					c-15.5-6.3-28.4-15.2-38.8-26.5C-32.8,93.6-39.9,79.5-43.2,63.4 M151.4,74.8c-2.7-0.8-6.1-1.6-10.2-2.5
					c-0.6,0.2-1.1,0.5-1.5,0.8c-1,0.8-1.6,1.8-1.9,3.1c-0.3,1.3,0,2.3,0.7,3.2c0.3,0.4,1,0.8,1.9,1.3c1,0.5,1.6,0.9,2,1.2
					c1.1,1.1,1.4,2.7,0.7,4.7c-0.5,1.6-1.5,3.2-2.9,4.7c-7.9,9.2-14.3,15.8-19.2,20.1c-4.1,3.5-8.3,6.4-12.5,8.6
					c7.1-2.2,13.9-5.8,20.4-10.9C140.8,99.8,148.2,88.4,151.4,74.8 M153.2,24.9c0.4,0,0.9,0.1,1.6,0.1c0.6,0,1.3,0.1,2,0.1
					c1.4,0.1,2.5,0.5,3.4,1c0.6,0.3,1.3,0.8,2.1,1.5c0.4,0.4,1.1,0.9,1.9,1.8c0.8,0.5,1.3,0.9,1.5,1.3c0.3,0.6,0.3,1.5,0.1,2.7
					c-0.8,3.5-2,7.3-3.6,11.4c-1.1,2.7-2.7,6.4-4.9,11c-1.4,3.1-2.6,5.4-3.5,6.9c-0.6,0.9-1.2,1.8-1.8,2.6c1.8-1.3,3.5-2.7,5.2-4.2
					c5.5-4.9,9.6-10.6,12.5-17.1c2.6-6.3,2.9-11.3,0.9-15.2c-1.8-3.3-4.8-5.3-9.2-6c-2.5-0.4-5.5-0.4-8.9,0
					c-1.7,0.2-3.5,0.5-5.4,0.9C148.9,24.3,151,24.7,153.2,24.9 M212.4-66c-3.2-3.6-6.9-5.6-11.1-6.1s-8.2-0.4-12,0.2
					c-49.6,7.8-98,20.3-145.1,37.7C22.4-26.1,5-17.4-8.2-8.2c-10,7-18.2,14.8-24.4,23.2c-1.3,5.9-2.1,12-2.4,18.4
					c-0.6,16.5,2.6,31.9,9.7,46.2c7.1,14.3,17.4,26.3,30.9,35.9c13.5,9.6,28.2,15.3,44,17.2c4.2,0.5,7.8,0.6,11,0.2
					c3.9-0.5,7.3-1.6,10.1-3.4c3.1-2.1,5.2-5,6.2-8.8c1-4,0.4-7.4-1.8-10.1c7.5-2.2,13.3-4.2,17.2-5.9c6.1-2.7,11.1-6,14.8-9.9
					c4.4-4.5,7-9.8,7.8-16.1c0.8-6.7-0.7-12.1-4.7-16.3c4.6,1.9,9.4,1.8,14.4-0.1c5-1.9,8.6-5.1,10.6-9.6c2.1-4.5,2.2-9.3,0.4-14.3
					c-1.8-5-4.9-8.6-9.4-10.8c15.5-6.6,26.9-11.8,34.1-15.5C172.7,5.3,182.9-1.6,191-9.1c9.7-8.9,17-19,21.9-30.3
					c2.5-5.9,4.1-11.6,5-17.3C216.6-60.2,214.7-63.3,212.4-66z"/>
				<path class="st1" d="M219-52.8c-0.3-1.3-0.7-2.6-1.1-3.9c-0.8,5.7-2.5,11.4-5,17.3C208.1-28,200.8-17.9,191-9.1
					c-8.1,7.4-18.4,14.4-30.7,20.8c-7.2,3.7-18.6,8.9-34.1,15.5c4.5,2.2,7.6,5.8,9.4,10.8c1.8,5,1.7,9.8-0.4,14.3
					c-2,4.5-5.6,7.7-10.6,9.6c-5,1.9-9.8,2-14.4,0.1c4,4.2,5.5,9.6,4.7,16.3c-0.8,6.3-3.4,11.6-7.8,16.1c-3.7,3.8-8.7,7.1-14.8,9.9
					c-3.9,1.7-9.7,3.7-17.2,5.9c2.2,2.7,2.8,6.1,1.8,10.1c-1,3.8-3.1,6.7-6.2,8.8c-2.8,1.8-6.2,3-10.1,3.4c-3.2,0.4-6.8,0.3-11-0.2
					c-15.8-1.9-30.5-7.6-44-17.2c-13.5-9.6-23.8-21.5-30.9-35.9c-7.1-14.3-10.3-29.7-9.7-46.2c0.2-6.3,1-12.5,2.4-18.4
					c-4.6,6.3-8.2,12.9-10.8,19.9c-0.5,1.3-0.9,2.7-1.3,4c-0.8,7.9-0.3,16,1.4,24.5c3.3,16.1,10.4,30.2,21.4,42.2
					c10.4,11.3,23.3,20.2,38.8,26.5c14.5,6,30,9.3,46.5,9.9c17.2,0.5,29-3.5,35.4-12c-1.4-4.3-4.2-6.9-8.3-7.6
					c6.3,0.1,12.3-0.7,18.1-2.5c4.2-2.2,8.3-5.1,12.5-8.6c4.9-4.2,11.3-10.9,19.2-20.1c1.4-1.5,2.4-3.1,2.9-4.7
					c0.6-2,0.4-3.5-0.7-4.7c-0.4-0.4-1-0.8-2-1.2c-0.9-0.5-1.6-0.9-1.9-1.3c-0.7-0.9-1-1.9-0.7-3.2c0.3-1.3,0.9-2.3,1.9-3.1
					c0.4-0.3,0.9-0.6,1.5-0.8c-0.8-0.2-1.6-0.4-2.4-0.6c4.7-1.5,9.1-3.7,13.2-6.6c0.6-0.8,1.2-1.7,1.8-2.6c0.9-1.5,2.1-3.8,3.5-6.9
					c2.2-4.6,3.8-8.3,4.9-11c1.7-4.1,2.9-7.9,3.6-11.4c0.2-1.2,0.2-2.1-0.1-2.7c-0.2-0.4-0.7-0.9-1.5-1.3c-0.9-0.8-1.5-1.4-1.9-1.8
					c-0.8-0.7-1.4-1.2-2.1-1.5c-0.9-0.5-2-0.8-3.4-1c-0.8,0-1.4-0.1-2-0.1c-0.6,0-1.2-0.1-1.6-0.1c-2.2-0.2-4.3-0.6-6.2-1.3
					c1.9-0.4,3.7-0.7,5.4-0.9c3.4-0.4,6.4-0.4,8.9,0c7.5-3,14.7-6.8,21.5-11.4c9-6.2,16.8-13.5,23.4-21.9c7.3-9.4,11.8-18.4,13.2-27
					C220.3-42.7,220.2-47.8,219-52.8z"/>
			</g>
		</g>
	</g>
</g>
<g transform="matrix( 0.9995574951171875, 0.0297393798828125, -0.0297393798828125, 0.9995574951171875, 189.95,386.55) ">
	<g transform="matrix( 1, 0, 0, 1, 0,0) ">
		<g>
			<g id="neck_0_Layer0_0_FILL">
				<path class="st0" d="M49.1-6.6c-0.3-4.5-1.2-8.3-2.8-11.6c-2-3.9-4.7-6.3-8.2-7.3c-2-0.6-4.3-0.6-6.9-0.1
					c-1.8,0.4-4,1.1-6.7,2.1c-11,4.8-20.9,11-29.8,18.5C-4.3,3.3-4,9.5-4.2,13.9c-0.5,11-3.9,23.6-10,37.8
					c-3.5,8.1-9.2,20.2-16.9,36.3c-8.9,20.7-14.2,42.5-16,65.3c-0.3,4.4-0.5,8.6-0.5,12.6c0.7,1.1,1.4,2.2,2.1,3.1
					c2.8,3.3,6.5,5.6,11.1,6.9c4.4,1.1,8.8,1.1,13.3,0c7.9-2,15-6.9,21.5-14.9c4.2-5,7.5-10.6,10.1-16.8c0-0.1,0.1-0.2,0.2-0.3
					c0-3.8,0.1-7.7,0.4-11.5c1.1-15.7,4.2-31,9.4-45.7c2.1-5.8,5.2-13.5,9.5-23.1c5.1-11.4,8.4-19,10-22.9
					C47,22.6,50.1,6.8,49.1-6.6z"/>
				<path class="st1" d="M50.3-53.9c-3.3-5.9-7.7-10.6-13.2-14c-5.9-3.7-11.9-5.1-18-4.2c-7.7,1.1-14,5.4-19,13.1
					c-4.5,6.9-7,14.9-7.5,23.8c-0.3,5.5,0.2,13.7,1.5,24.6c0.2,2,0.4,4,0.6,5.8c8.9-7.5,18.8-13.7,29.8-18.5
					c2.6-1.1,4.9-1.8,6.7-2.1c2.5-0.5,4.8-0.5,6.9,0.1c3.5,1,6.2,3.4,8.2,7.3c1.6,3.2,2.6,7.1,2.8,11.6c1,13.4-2.1,29.2-9.4,47.3
					c-1.6,3.9-4.9,11.5-10,22.9c-4.2,9.6-7.4,17.3-9.5,23.1c-5.2,14.7-8.3,29.9-9.4,45.7c-0.3,3.8-0.4,7.7-0.4,11.5
					c-0.1,0.1-0.1,0.2-0.2,0.3c-2.5,6.2-5.9,11.8-10.1,16.8c-6.5,8-13.6,12.9-21.5,14.9c-4.5,1.1-8.9,1.1-13.3,0
					c-4.6-1.2-8.3-3.5-11.1-6.9c-0.8-0.9-1.5-2-2.1-3.1c0.1,21.7,5.1,39.1,15,52.1c6.8,8.9,15.7,14.9,26.7,18c0.5,0.1,1,0.3,1.5,0.4
					c12.2,3.1,22.8,1.5,31.8-4.9c5.4-3.8,9.8-9.1,13.2-16c2.9-5.8,5-12.6,6.4-20.4c0.7-4.1,0.1-8-1.8-11.8c-1.4-2.7-3-4.1-4.9-4.3
					c-6.8-11.9-11.5-22.8-14.3-32.9c-4.1-14.6-4.1-27.8-0.1-39.6c2.2-6.5,6.6-14.6,13.4-24.3c7.8-11.1,12.8-19,15-23.7
					c4.9-10.3,7.5-22.6,8-37c0.3-9.3-0.5-22.2-2.4-38.8c-0.9-8.3-1.8-14.7-2.7-19C55.2-43,53-49,50.3-53.9z"/>
			</g>
		</g>
	</g>
</g>
<g transform="matrix( 0.9995574951171875, 0.0297393798828125, -0.0297393798828125, 0.9995574951171875, 180.85,600.6) ">
	<g transform="matrix( 1, 0, 0, 1, 0,0) ">
		<g>
			<g id="scarf_0_Layer0_0_FILL">
				<path class="st3" d="M-43.9,197.7c1.1,8,3.1,14.9,6.2,20.7c4.1,7.5,10.5,14.3,19.4,20.4c5.7,3.9,14.3,8.6,25.6,13.9
					c8,3.7,14.1,6.3,18.4,7.8c7,2.4,13.5,3.5,19.4,3.5c7,0.1,13.4-1.7,19.2-5.2c6.2-3.8,10.1-8.8,11.7-15c-1.4-3.9-2.7-7.9-3.9-11.8
					c-5.2,5.5-12.3,8.8-21.3,10c-8.3,1.1-17.1,0.2-26.3-2.6c-20-6-37-17.5-50.9-34.6c-8.5-10.5-14.7-21.6-18.7-33.5c0,1.5,0,3,0,4.5
					C-45,185.6-44.6,192.9-43.9,197.7 M34.5-48.4c0-0.2,0-0.4,0-0.6c-0.6,1.8-1.2,3.8-1.8,6c-2.1,7.2-4.3,12.6-6.7,16
					c-3.1,4.6-8,8.8-14.7,12.7C6-11.3,1.2-9.6-2.9-9.2c-4.8,0.5-10.8-0.6-18-3.3c-9.2-3.5-18-7.8-26.4-13.1c0,4.4,0.1,8.8,0.1,13.1
					C-35.9-1.6-24,4.9-11.5,7.1C-3.2,8.6,4.9,8,12.7,5.3C21,2.4,27.3-2.3,31.8-8.9c3,2.3,5.4,5.6,7.3,10c1.1,2.6,2.3,6.7,3.7,12.3
					c6.5,27.4,14.1,53.5,22.7,78.1c5.2,15.3,8.5,26.6,9.7,34c2.2,12.9,1.2,24.1-3,33.4c-11.8-10.3-20.9-22.9-27.4-37.8
					c-0.1-0.1-0.1-0.3-0.2-0.4c5.5,34.1,13.5,67.8,23.9,101.1c0.1-0.1,0.2-0.3,0.3-0.4c2.9-3.9,6.7-6,11.2-6.1
					c3.9-0.2,8,0.9,12.2,3.1c3,1.6,6.5,4.1,10.7,7.5c4.7,3.9,8.3,6.5,10.6,7.9c4.2,2.6,8.1,4,11.9,4.4
					c-23.4-82-49.7-162.5-79.1-241.5c-3.6-9.7-6.2-17.1-7.6-22.2C36.3-33.9,34.9-41.5,34.5-48.4z"/>
				<path class="st4" d="M42.8,13.3c-1.4-5.5-2.6-9.6-3.7-12.3c-1.9-4.4-4.3-7.7-7.3-10C27.3-2.3,21,2.4,12.7,5.3
					C4.9,8-3.2,8.6-11.5,7.1C-24,4.9-35.9-1.6-47.1-12.4c0.8,66.5,1.4,127.8,1.9,183.8c4,11.8,10.2,23,18.7,33.5
					c13.9,17.1,30.9,28.6,50.9,34.6c9.2,2.8,18,3.6,26.3,2.6c9-1.2,16.1-4.5,21.3-10c-1.1-3.4-2.2-6.8-3.3-10.2
					c-10.4-33.2-18.4-66.9-23.9-101.1c0,0.1,0.1,0.3,0.2,0.4c6.5,14.8,15.6,27.4,27.4,37.8c4.1-9.3,5.1-20.5,3-33.4
					c-1.2-7.4-4.5-18.7-9.7-34C56.9,66.8,49.3,40.8,42.8,13.3 M34.5-49c-0.4-6.6-0.8-10.8-1.1-12.5c-0.9-4.9-2.8-8.5-5.7-10.8
					c-2,8.6-3.9,15.1-5.5,19.7c-2.5,7.1-5.6,13.1-9.3,17.9c-4.3,5.6-9.7,9.7-16.1,12.2c-6.9,2.7-13.3,2.9-19.4,0.6
					c-6.4-2.4-11.4-7.3-15.1-14.6c-3.2-6.3-4.9-13.6-5.2-21.7l-4.7,4c0.1,9.7,0.2,19.2,0.3,28.7c8.4,5.3,17.2,9.6,26.4,13.1
					c7.2,2.6,13.2,3.7,18,3.3c4.1-0.4,8.9-2.1,14.3-5.2c6.7-3.8,11.6-8,14.7-12.7c2.3-3.4,4.6-8.8,6.7-16
					C33.3-45.2,33.9-47.2,34.5-49z"/>
			</g>
		</g>
	</g>
</g>
<g transform="matrix( 0.9995574951171875, 0.0297393798828125, -0.0297393798828125, 0.9995574951171875, 92.65,234.85) ">
	<g transform="matrix( 1, 0, 0, 1, 0,0) ">
		<g>
			<g id="goosehad_0_Layer0_0_FILL">
				<path class="st1" d="M-44.7,6.2c-0.5-0.1-1-0.2-1.5-0.3c3.9,7.4,10.9,12.8,21.1,16.2c0.4-1.2,1.2-2.6,2.2-4.2
					c1.8-2.7,2.8-4.8,3.1-6.2c-6.1,0.2-11.1-0.3-15-1.3C-38.7,9.7-42,8.2-44.7,6.2 M-21.6-2.1c-1.3-1.2-3.2-2.4-5.7-3.5
					c-2.9-1.1-5-2-6.3-2.7c-1.1-0.6-2.4-1.4-3.8-2.4c-1.6-1.2-2.9-2.1-3.7-2.7c-1.4-1.1-2.4-1.9-2.9-2.3c-1-0.9-1.8-1.9-2.4-2.8
					c-0.4-0.8-0.8-1.7-1.1-2.8c-0.1-0.1-0.1-0.1-0.2-0.2c2.9,13.6,9.1,21.6,18.7,24.2C-29,3-29.1,3-29.2,3.1c0.7-0.2,1.3-0.5,2-0.8
					C-25,1.2-23.2-0.2-21.6-2.1 M-29.8-26.4c-1.1-1.6-3.2-5.1-6.3-10.5c-1.5-2.6-2.4-4.2-2.6-4.6c-1-1.7-1.7-3.3-2.1-4.7
					c-0.9-2.6-1.4-5.7-1.5-9.1c0-0.4,0-0.8-0.1-1.2c-0.2-0.5-0.5-1-0.7-1.5c-1.5,14.1,3.2,27.6,13.9,40.5c2.7,0.1,5.4-0.3,8.2-1.1
					C-24.2-20.1-27.1-22.7-29.8-26.4 M177.8,68.5c3.2,1.2,6.5,1.2,9.9,0c-8.6-3.9-13.9-6.2-15.9-7.2c-1.5,2.7-1.8,5.8-1,9.1
					c0.8,3.3,2.6,5.8,5.2,7.5c-7.5-0.5-14.5-2.7-21-6.5c0.3,3,0.8,5.6,1.4,7.9c-7-3.8-12.5-6.5-16.3-8.1c-6.2-2.5-11.9-3.9-17.2-4.2
					c-4.7-0.2-12.6,0.8-23.7,3.2c-10.1,2.2-17.9,2.8-23.5,1.9c-5.2-0.9-12.7-4.1-22.4-9.6c-9.5-5.3-17-8.4-22.5-9.1
					c-4.6-0.6-10-0.2-16.2,1.2c-1,0.2-6.4,1.6-16.2,4.3c-6.4,1.8-11.7,2.7-15.7,2.9c-5.5,0.2-10.4-0.8-14.7-3.2
					c2.7-2.2,4.5-5,5.3-8.5l-6.6-3.5c2.5-2.9,4.3-6.2,5.4-9.9c0.6-1.9,0.9-3.8,1-5.6c-3.5,9.3-10.2,15.2-19.9,17.6
					c2.4,2.8,5.7,4.6,9.8,5.4c-0.8,3.1-3.1,5-6.9,5.6c4.3,4.1,8.8,5.7,13.5,4.8c-1.9,2-4.4,3.4-7.4,4.1c3.6,3,7.4,4.8,11.5,5.2
					c8.1,32.6,35.7,52.3,82.7,59.1c3.2,0.5,6.5,0.9,9.8,1.2c8.9,0.5,17.4,0.1,25.6-1.2c26.5-4.1,49-17.3,67.5-39.5
					c5.7,2.4,11.4,2.4,17.1,0c-4.9-2.2-7.3-6.1-7.2-11.7c6.4,2.4,13.3,1.6,20.6-2.4C183.9,76.9,179.9,73.3,177.8,68.5 M183.7,13.4
					c-7.9,4.9-15.9,7.1-24.1,6.5c3,3.1,5.1,5.4,6.4,7c0.3,0.3,0.5,0.7,0.8,1c16.6-2.1,26.7-10.5,30.1-25.3
					C192.3,7.3,188,10.8,183.7,13.4 M131.4-49.2c-1-0.2-2-0.5-2.9-0.8C83.5-65.7,43.1-59.4,7.3-31.1c-6.2,0.8-11.9,0.8-17.1,0
					c1.5,9.7,5,18.7,10.5,27.2c6,9.2,13.6,16.5,22.9,21.9c2.3,1.4,4.6,2.3,6.7,2.6c2.6,0.4,4.7-0.1,6.2-1.6c2.2-0.5,5.7,0,10.4,1.6
					c4.6,1.5,8,1.8,10.3,1c1.7-0.6,3.3-1.7,4.9-3.4c0.3-0.3,1.6-1.9,3.9-4.8c2.8-3.4,6.6-6.9,11.5-10.4c2.8-2,7.1-5,12.9-8.8
					c9.2-6.5,17.5-13.8,25.1-22.1C121.3-34.6,126.7-41.7,131.4-49.2 M184.3-26.7c-0.6-0.4-1.2-0.9-1.8-1.5
					c14.5-6.1,23.1-20.5,26-43.1c-3.2,7.8-7.8,14.9-13.8,21.5c-7.4,8.2-16.1,14.5-26,18.9c4.8,2,9.8,3.4,15.1,4.1
					C184-26.7,184.2-26.7,184.3-26.7 M212.3-23.4c0.8-1.7,1.6-3.4,2.3-5.3c-0.7,1-1.4,1.9-2.3,2.9c-4.2,4.7-9.8,8.7-16.9,11.9
					c-3.8,1.8-8.4,3.5-13.8,5.1c-6.3,1.8-11.1,3.2-14.3,4.1c2.8,2.4,6,4,9.5,5C193.3-1,205.2-8.9,212.3-23.4z"/>
				<path class="st0" d="M208.4-71.2c0.1-0.4,0.1-0.7,0.2-1.1c-22.8,22.4-48.6,30.1-77.2,23.1c-4.7,7.5-10,14.5-16.1,21.2
					C107.7-19.8,99.4-12.4,90.2-6c-5.8,3.8-10.1,6.8-12.9,8.8c-4.9,3.5-8.7,7-11.5,10.4c-2.3,2.9-3.6,4.5-3.9,4.8
					c-1.6,1.7-3.2,2.9-4.9,3.4c-2.3,0.8-5.7,0.4-10.3-1c-4.7-1.6-8.2-2.1-10.4-1.6c-1.5,1.5-3.6,2-6.2,1.6c-2.1-0.3-4.4-1.2-6.7-2.6
					C14.4,12.7,6.8,5.4,0.8-3.8c-5.5-8.5-9-17.5-10.5-27.2c-14.6-2.2-25.5-10.6-32.7-25.4c0,0.4,0,0.8,0.1,1.2
					c0.1,3.4,0.6,6.5,1.5,9.1c0.5,1.4,1.2,3,2.1,4.7c0.2,0.4,1.1,1.9,2.6,4.6c3.1,5.4,5.2,8.9,6.3,10.5c2.7,3.7,5.6,6.3,8.8,7.8
					c-2.8,0.8-5.5,1.2-8.2,1.1c0.3,0.3,0.6,0.7,0.8,1c-7.8,1.2-14.2-0.4-19.1-4.7c0.3,1.1,0.6,2,1.1,2.8c0.6,0.9,1.4,1.9,2.4,2.8
					c0.5,0.4,1.5,1.2,2.9,2.3c0.8,0.6,2.1,1.5,3.7,2.7c1.4,1,2.7,1.8,3.8,2.4c1.3,0.7,3.4,1.6,6.3,2.7c2.5,1.1,4.4,2.2,5.7,3.5
					c-1.5,1.8-3.4,3.3-5.6,4.3c-0.7,0.3-1.3,0.6-2,0.8c-3.8,3-8.9,4-15.5,3.1c2.8,2.1,6,3.5,9.9,4.4c3.9,1,8.9,1.4,15,1.3
					c-0.3,1.4-1.3,3.4-3.1,6.2c-1,1.5-1.8,2.9-2.2,4.2c0.2,0.1,0.4,0.1,0.6,0.2c-0.5,3.3-1.3,6.3-2.4,9c-0.1,1.9-0.4,3.8-1,5.6
					c-1.1,3.7-2.9,7-5.4,9.9l6.6,3.5c-0.8,3.5-2.5,6.3-5.3,8.5c4.3,2.4,9.2,3.4,14.7,3.2c4-0.2,9.3-1.1,15.7-2.9
					c9.7-2.7,15.1-4.1,16.2-4.3c6.2-1.4,11.6-1.8,16.2-1.2c5.5,0.7,13,3.8,22.5,9.1c9.7,5.5,17.2,8.7,22.4,9.6
					c5.6,0.9,13.4,0.3,23.5-1.9c11-2.4,18.9-3.5,23.7-3.2c5.3,0.3,11,1.7,17.2,4.2c3.8,1.6,9.3,4.3,16.3,8.1
					c-0.6-2.2-1.1-4.9-1.4-7.9c6.5,3.8,13.5,6,21,6.5c-2.6-1.7-4.4-4.2-5.2-7.5c-0.9-3.3-0.5-6.3,1-9.1c2.1,0.9,7.4,3.3,15.9,7.2
					c0.1,0,0.2,0,0.2,0c-9.3-7.8-16.7-21.3-22.2-40.5c0.4,0,0.7-0.1,1-0.2c-0.3-0.3-0.5-0.7-0.8-1c-1.3-1.6-3.4-3.9-6.4-7
					c8.2,0.6,16.2-1.6,24.1-6.5c4.2-2.6,8.6-6.2,13.1-10.8C188.1,5,181,4.2,175.4,0.3c0.5,0,0.9-0.1,1.4-0.1c-3.5-0.9-6.6-2.6-9.5-5
					c3.2-0.9,7.9-2.3,14.3-4.1c5.4-1.7,9.9-3.4,13.8-5.1c7.1-3.2,12.7-7.2,16.9-11.9c0.8-0.9,1.6-1.9,2.3-2.9c0,0,0,0,0.1,0
					c-0.8,0.5-1.5,0.9-2.3,1.4c-10.7,6.1-20.1,6.4-28,0.7c-0.2,0-0.3,0-0.5-0.1c-5.3-0.7-10.3-2.1-15.1-4.1
					c9.9-4.4,18.6-10.7,26-18.9C200.6-56.3,205.2-63.4,208.4-71.2z"/>
			</g>
		</g>
	</g>
</g>
<g transform="matrix( 0.9995574951171875, 0.0297393798828125, -0.0297393798828125, 0.9995574951171875, 208.9,320.7) ">
	<g transform="matrix( 1, 0, 0, 1, 0,0) ">
		<g>
			<g id="eye1_0_Layer0_0_FILL">
				<path class="st3" d="M9.4-43.8C9.4-51.7,6.6-58.4,1-64c-5.6-5.6-12.3-8.4-20.2-8.4s-14.6,2.8-20.2,8.3s-8.4,12.3-8.4,20.2
					c0,0.8,0,1.6,0.1,2.4c0.5,6.9,3.2,12.8,8.2,17.8c5.6,5.6,12.3,8.4,20.2,8.4S-4.5-18.1,1-23.7C6.6-29.2,9.4-35.9,9.4-43.8
					 M-4.2-62.7C0.4-58.1,2.7-52.5,2.7-46c0,6.5-2.3,12.1-7,16.8c-4.6,4.6-10.2,7-16.7,6.9c-6.6,0-12.2-2.3-16.8-7
					c-3.5-3.5-5.7-7.6-6.5-12.2c-0.3-1.5-0.4-3-0.4-4.6c0-6.5,2.3-12.1,7-16.8c4.6-4.6,10.2-6.9,16.8-6.9
					C-14.4-69.6-8.8-67.3-4.2-62.7z"/>
				<path class="st4" d="M2.7-46c0-6.5-2.3-12.1-6.9-16.8c-4.6-4.6-10.2-6.9-16.7-6.9c-6.6,0-12.2,2.3-16.8,6.9
					c-4.6,4.6-7,10.2-7,16.8c0,1.6,0.1,3.1,0.4,4.6c0.9,4.6,3,8.7,6.5,12.2c4.6,4.6,10.2,7,16.8,7c6.5,0,12.1-2.3,16.7-6.9
					C0.4-33.8,2.7-39.4,2.7-46 M-35.7-39.5c0-2.9,1.1-5.4,3.3-7.5c2.2-2.1,4.8-3.1,7.9-3.1c3,0,5.6,1.1,7.8,3.2
					c2.2,2.1,3.3,4.6,3.3,7.5c0,2.9-1.1,5.5-3.3,7.6c-2.2,2.1-4.8,3.1-7.8,3.1c-3,0-5.7-1-7.9-3.1C-34.6-34-35.7-36.5-35.7-39.5z"/>
				<path class="st5" d="M-32.5-47c-2.2,2.1-3.3,4.6-3.3,7.5c0,2.9,1.1,5.5,3.2,7.6c2.2,2.1,4.8,3.1,7.9,3.1c3,0,5.6-1,7.8-3.1
					c2.2-2.1,3.3-4.6,3.3-7.6c0-2.9-1.1-5.4-3.3-7.5c-2.2-2.1-4.8-3.2-7.8-3.2C-27.7-50.1-30.3-49.1-32.5-47z"/>
			</g>
		</g>
	</g>
</g>
<g transform="matrix( 0.9995574951171875, 0.0297393798828125, -0.0297393798828125, 0.9995574951171875, 114.85,328.75) ">
	<g transform="matrix( 1, 0, 0, 1, 0,0) ">
		<g>
			<g id="eye2_0_Layer1_0_FILL">
				<path class="st3" d="M-11.7-51.4c0.1-1.1,0.1-2.2-0.1-3.4c-0.5-5.3-2.6-9.6-6.4-13.1s-8.2-4.9-13.2-4.5s-9,2.7-12.1,6.7
					c-3,3.8-4.3,8.1-4.1,13c0,0.3,0,0.6,0,1c0.4,5.3,2.6,9.6,6.4,13.1c3.8,3.4,8.2,4.9,13.1,4.5s9-2.7,12.2-6.7
					C-13.4-43.9-12-47.5-11.7-51.4 M-20.3-67.2c3.4,3,5.3,6.9,5.7,11.5c0.1,1.5,0.1,2.9-0.1,4.3c-0.4,3-1.6,5.7-3.6,8.1
					c-2.8,3.6-6.4,5.5-10.7,5.9c-4.4,0.4-8.2-0.9-11.6-4c-3.3-2.9-5.2-6.6-5.6-11.1c0-0.2,0-0.3,0-0.5c-0.4-4.7,0.8-8.8,3.6-12.4
					c2.8-3.6,6.4-5.5,10.7-5.9C-27.6-71.6-23.7-70.3-20.3-67.2z"/>
				<path class="st4" d="M-14.6-55.7c-0.4-4.6-2.3-8.5-5.7-11.5c-3.4-3.1-7.3-4.4-11.7-4c-4.3,0.4-7.9,2.3-10.7,5.9
					c-2.8,3.6-4,7.7-3.6,12.4c0,0.1,0,0.3,0,0.5c0.4,4.5,2.3,8.2,5.6,11.1c3.4,3,7.2,4.4,11.6,4c4.3-0.4,7.9-2.3,10.7-5.9
					c1.9-2.4,3.1-5.1,3.6-8.1C-14.5-52.8-14.5-54.2-14.6-55.7z"/>
			</g>
		</g>
	</g>
	<g transform="matrix( 1, 0, 0, 1, 0,0) ">
		<g>
			<g id="eye2_0_Layer0_0_FILL">
				<path class="st5" d="M-22.7-53.2c0-2.3-0.9-4.3-2.6-6c-1.7-1.7-3.8-2.5-6.2-2.5c-2.4,0-4.5,0.8-6.2,2.5c-1.7,1.7-2.6,3.7-2.6,6
					c0,2.3,0.8,4.3,2.5,6c1.7,1.7,3.8,2.5,6.2,2.5c2.4,0,4.5-0.8,6.2-2.5C-23.5-48.8-22.7-50.8-22.7-53.2z"/>
			</g>
		</g>
	</g>
</g>
<g transform="matrix( 0.9995574951171875, 0.0297393798828125, -0.0297393798828125, 0.9995574951171875, 207.7,319.5) ">
	<g transform="matrix( 1, 0, 0, 1, 0,0) ">
		<g>
			<g id="eyelid1_0_Layer0_0_FILL">
				<path class="st1" d="M8.9-45.9c1.9,0.7,3.9,1.2,5.9,1.6c-0.2-1.5-0.5-3-0.9-4.5C12.3-47.7,10.6-46.7,8.9-45.9 M5.5-63.5
					C2.1-67-2.1-69.5-7-71c-4.9-1.5-9.8-1.7-14.6-0.6c-3.7,0.8-7.6,2.6-11.6,5.2c-2.7,1.8-6,4.5-10.1,8.1c-1.3,1.2-2.1,2.1-2.5,2.5
					c-0.8,1-1.4,2-1.7,2.9c-0.4,1.2-0.4,2.3,0,3.5c0.3,0.8,0.8,1.5,1.4,2c0.1-0.6,0.9-1.5,2.3-2.6c0.1-0.1,0.2-0.2,0.3-0.3
					c1.2-1.8,3.1-3.3,5.5-4.5c3.1-1.5,6.7-2.3,10.7-2.3c2.4,0,6,0,10.9,0.1c4.2-0.2,7.6-0.9,10.3-2.3c-0.6,1.5-1.5,2.8-2.7,4
					c-1.2,1.2-2.5,2.1-4,2.7c8.3,0.9,16.5,0.4,24.5-1.5C10.3-57.8,8.2-60.9,5.5-63.5z"/>
				<path class="st5" d="M13.9-48.8c3.6-2.5,6.7-5.6,9.3-9.3c-3.7,1.6-7.5,2.8-11.3,3.7c-8,1.9-16.2,2.4-24.5,1.5
					c1.5-0.6,2.8-1.5,4-2.7c1.2-1.2,2.1-2.5,2.7-4c-2.7,1.4-6.1,2.2-10.3,2.3c-4.8-0.1-8.5-0.1-10.9-0.1c-4,0.1-7.6,0.8-10.7,2.3
					c-2.4,1.2-4.3,2.7-5.5,4.5c1.5-1,4.2-1.8,8.2-2.5c4.3-0.8,10.4,0.3,18.4,3.1c7.9,2.8,13.6,5.9,16.9,9.2c3.3,3.3,5.5,5.8,6.5,7.4
					c1.3,2,1.6,3.9,0.9,5.8c1,0.2,2,0,3.1-0.5c0.4-0.2,0.8-0.5,1.2-0.8c7.1-0.8,14.1-2.3,20.9-4.3c-5.9,0-11.4-1.4-16.4-4.3
					c5.8-1.1,10.9-3.4,15.5-6.8c-5.8,1.1-11.5,1.1-17,0c-2-0.4-4-0.9-5.9-1.6C10.6-46.7,12.3-47.7,13.9-48.8z"/>
			</g>
		</g>
	</g>
</g>
<g transform="matrix( 0.9995574951171875, 0.0297393798828125, -0.0297393798828125, 0.9995574951171875, 101.45,320.25) ">
	<g transform="matrix( 1, 0, 0, 1, 0,0) ">
		<g>
			<g id="eyelid2_0_Layer0_0_FILL">
				<path class="st1" d="M-35.6-59.5c1.2,0.1,2.5,0,3.8,0c-1-0.9-1.9-1.9-2.8-2.9C-35-61.5-35.3-60.5-35.6-59.5 M0.3-60.2
					c-1.1-2.2-2.2-4.1-3.2-5.8C-3.9-67.7-5.6-69-8-70c-2.4-1-5.3-1.8-8.7-2.2c-3.4-0.4-6.6,0-9.7,1.2c-3,1.2-5.2,2.8-6.6,4.9
					c4.7,2.9,9.6,4.7,14.8,5.6c-0.8-0.7-1.5-1.5-2.1-2.6c-0.6-1.1-1-2.2-1.2-3.4c1.5,1.5,3.5,2.7,6,3.6c2.9,0.8,5.1,1.5,6.6,2
					c2.4,0.8,4.5,2,6.2,3.6c1.4,1.3,2.3,2.7,2.9,4.2c0.1,0.1,0.1,0.2,0.1,0.3c0.7,1,1.1,1.8,1.1,2.2c0.5-0.2,0.8-0.6,1.1-1.1
					C3-52.4,3.1-53.1,3-54c-0.1-0.7-0.4-1.5-0.7-2.3C2.1-56.7,1.4-58,0.3-60.2z"/>
				<path class="st5" d="M-4.5-56.3c2.4,1.2,4,2.3,4.8,3.3c-0.6-1.5-1.5-2.9-2.9-4.2c-1.7-1.6-3.8-2.8-6.2-3.6
					c-1.5-0.5-3.7-1.1-6.6-2c-2.5-0.9-4.5-2.1-6-3.6c0.2,1.2,0.6,2.3,1.2,3.4c0.6,1,1.3,1.9,2.1,2.6c-5.2-0.9-10.1-2.7-14.8-5.6
					c-2.2-1.3-4.3-2.9-6.4-4.7c1.1,3.1,2.7,5.8,4.6,8.3c0.9,1,1.8,2,2.8,2.9c-1.3,0.1-2.5,0.1-3.8,0c-3.5-0.3-6.9-1.4-10.3-3.2
					c2.4,3.2,5.3,5.7,8.7,7.6c-3.3,1-6.8,1-10.4-0.1c3.9,2.7,8,5,12.2,6.9c0.2,0.3,0.4,0.5,0.7,0.8c0.6,0.6,1.2,0.9,1.8,1
					c-0.2-1.4,0.1-2.7,1.1-3.9c0.8-0.9,2.4-2.2,4.8-3.9c2.3-1.7,6.1-2.8,11.2-3.2C-10.8-58.1-7-57.6-4.5-56.3z"/>
			</g>
		</g>
	</g>
</g>
<g transform="matrix( 0.9995574951171875, 0.0297393798828125, -0.0297393798828125, 0.9995574951171875, 72.05,365.35) ">
	<g transform="matrix( 1, 0, 0, 1, 0,0) ">
		<g>
			<g id="beak_0_Layer1_0_FILL">
				<path class="st6" d="M124.8-17.3c1-0.5,1.8-1.5,2.7-3.2c0.3-0.8,0.6-1.7,0.8-2.6C127.3-20.9,126.2-19,124.8-17.3z"/>
				<path class="st7" d="M120.8-33.7c0.7-0.3,1.5-0.5,2.3-0.6c1,0,1.7,0.1,2.1,0.3c0.8,0.4,1.6,1.3,2.2,2.9c0.7,1.6,1,3.4,1,5.3
					c0,1-0.1,1.9-0.3,2.8c-0.2,0.9-0.4,1.7-0.8,2.6c-0.8,1.7-1.7,2.7-2.7,3.2c-0.2,0.3-0.5,0.6-0.7,0.9c-6.7,7.6-12.7,15.6-18.2,24
					c5.2-1.1,11.5-7.1,19-18c5.9-6.7,11.3-11.5,16.4-14.3c7.4-4.6,11-10.8,10.7-18.4c-4,6.3-8.7,12-14.1,17.2c-2.2,2-4.2,3-5.8,2.8
					c0.1-2,0.4-3.5,0.8-4.7c0.7-1.8,1.7-2.9,3.1-3.4l0.1,0.1c-0.3-4.7-2.1-7.5-5.4-8.4C126.8-40.7,123.5-38.8,120.8-33.7
					 M-30.2,12.1c-1.6,1.1-2.4,2.5-2.4,4c0,1.6,0.8,2.9,2.4,4c1.6,1.1,3.6,1.7,5.9,1.7c2.3,0,4.3-0.6,5.9-1.7c1-0.7,1.7-1.4,2.1-2.2
					c0.3-0.5,0.4-1.1,0.4-1.8c0-1.6-0.8-2.9-2.4-4c-1.6-1.1-3.6-1.7-5.9-1.7c-0.2,0-0.4,0-0.6,0C-26.9,10.5-28.7,11.1-30.2,12.1
					 M55.1,26.1c-1.5-1.8-3.6-3.1-6.3-3.8c-2.7-0.7-5.2-0.7-7.5,0c-2.2,0.9-3.6,2.2-4.1,4.1c-0.2,0.7-0.2,1.4-0.2,2.1
					c0.2,1.2,0.7,2.4,1.7,3.5c1.6,1.9,3.7,3.2,6.5,3.9c2.7,0.7,5.2,0.6,7.4-0.2c2-0.7,3.3-1.8,3.9-3.3c0.1-0.2,0.2-0.5,0.3-0.8
					C57.3,29.9,56.7,28,55.1,26.1z"/>
				<path class="st8" d="M128-44.6c1.5-0.1,3.5,0.2,6,0.9c2.8,0.9,4.8,1.3,6,1.4c3.2,0.1,6-1.2,8.3-4c1.1-1.3,1.8-2.6,2.2-3.9
					c-5.6-11.8-15.2-14-28.9-6.6c-22.3,8.1-38.9,7.4-50-2.2c-17.9-15.6-36.6-17.5-56.1-5.9c-5.6,3.4-11.2,4.7-16.9,4
					c-3.3-0.2-4.7,1.5-4.2,5c2.3,17.5-5,32.3-22.1,44.4c-6.9,4.9-12,9.8-15.4,14.9c0.2,1.5,0.8,2.8,1.7,4.1c1.3,1.9,3,2.9,5,3
					c1.5,0,3.3-0.6,5.3-1.8c2.7-1.7,4.4-2.6,5.1-2.9c1.7-0.6,3.5-0.8,5.4-0.6c1.1,0.2,2.1,0.4,3.2,0.8c2.7,1,5.3,2.7,7.7,5
					c1.5,1.4,3.7,3.5,6.5,6.5c1.8,1.7,3.5,3.1,5.2,4.2c0.7,0.5,1.4,0.9,2,1.2c3.4,1.7,7.6,2.2,12.6,1.8c2.8-0.3,5.8-0.9,9.1-1.8
					c2.5-0.7,6.3-1.9,11.4-3.4c4.4-1.2,8.2-1.8,11.4-1.8c1.9,0,4.9,0.3,9,0.9c3.8,0.5,6.7,0.8,8.8,0.7c6.3-0.3,12.3-2.7,18.1-7.3
					c4.9-3.9,9.3-9.1,13.2-15.5c0.3-0.5,3.5-6.4,9.5-17.8c3.8-7.1,7.5-12.7,11-16.8C121.3-42.3,124.6-44.4,128-44.6z"/>
				<path class="st2" d="M150.9-49.3c-0.1-0.3-0.3-0.6-0.4-0.8c-0.4,1.3-1.2,2.6-2.2,3.9c-2.3,2.8-5.1,4.1-8.3,4
					c-1.1,0-3.1-0.5-6-1.4c-2.5-0.7-4.5-1-6-0.9c-3.3,0.2-6.7,2.3-10,6.2c-3.5,4-7.2,9.6-11,16.8c-6,11.3-9.2,17.3-9.5,17.8
					c-3.9,6.4-8.3,11.6-13.2,15.5c-5.8,4.6-11.8,7.1-18.1,7.3c-2.1,0.1-5-0.1-8.8-0.7c-4.1-0.6-7.1-0.9-9-0.9c-3.2,0-7,0.6-11.4,1.8
					c-5.1,1.5-8.9,2.7-11.4,3.4c-3.3,0.9-6.3,1.5-9.1,1.8c-5,0.5-9.2-0.1-12.6-1.8c-0.6-0.3-1.3-0.7-2-1.2c-1.6-1.1-3.3-2.5-5.2-4.2
					c-2.8-2.9-5-5.1-6.5-6.5c-2.4-2.3-5-4-7.7-5c-1.1-0.4-2.2-0.7-3.2-0.8c-1.9-0.2-3.7,0-5.4,0.6C-26.6,6-28.3,6.9-31,8.6
					c-2,1.3-3.8,1.9-5.3,1.8c-2-0.1-3.6-1.1-5-3c-0.9-1.2-1.5-2.6-1.7-4.1c-5.9,8.9-6.2,18.1-1,27.5C-18,53.3,20.5,59.8,71.5,50.4
					c9.2-2.8,16.2-9.2,20.9-19.3c4-8.2,8.5-16,13.6-23.6c5.5-8.3,11.5-16.3,18.2-24c0.2-0.3,0.5-0.6,0.7-0.9
					c1.4-1.7,2.5-3.7,3.4-5.8c0.2-0.9,0.3-1.8,0.3-2.8c0-1.9-0.3-3.6-1-5.3c-0.7-1.6-1.4-2.5-2.2-2.9c-0.4-0.2-1.1-0.3-2.1-0.3
					c-0.8,0.1-1.6,0.3-2.3,0.6c2.7-5.1,6-7,9.8-5.8c3.4,0.9,5.2,3.6,5.4,8.4l-0.1-0.1c-1.4,0.5-2.4,1.6-3.1,3.4
					c-0.4,1.1-0.6,2.7-0.8,4.7c1.6,0.2,3.5-0.7,5.8-2.8c5.4-5.1,10.1-10.8,14.1-17.2C151.8-45.1,151.5-47.2,150.9-49.3 M48.8,22.3
					c2.7,0.7,4.8,1.9,6.3,3.8c1.6,1.9,2.1,3.8,1.6,5.7c-0.1,0.3-0.2,0.5-0.3,0.8c-0.6,1.5-1.9,2.6-3.9,3.3c-2.2,0.8-4.7,0.9-7.4,0.2
					c-2.7-0.7-4.9-2-6.5-3.9c-1-1.1-1.5-2.3-1.7-3.5c-0.1-0.7,0-1.4,0.2-2.1c0.5-1.9,1.9-3.2,4.1-4.1C43.6,21.6,46.1,21.6,48.8,22.3
					 M-32.6,16.1c0-1.6,0.8-2.9,2.4-4c1.5-1,3.3-1.6,5.3-1.7c0.2,0,0.4,0,0.6,0c2.3,0,4.3,0.5,5.9,1.7c1.6,1.1,2.4,2.5,2.4,4
					c0,0.6-0.1,1.2-0.4,1.8c-0.4,0.8-1.1,1.6-2.1,2.2c-1.6,1.1-3.6,1.7-5.9,1.7c-2.3,0-4.3-0.6-5.9-1.7
					C-31.8,19-32.6,17.7-32.6,16.1z"/>
			</g>
		</g>
	</g>
	<g transform="matrix( 1, 0, 0, 1, 0,0) ">
		<g>
			<g id="beak_0_Layer0_0_FILL">
				<path class="st9" d="M26.6-85.3c-4.2-1.9-8.7-2.2-13.5-0.9c-4.8,1.3-8.6,3.8-11.3,7.5c-2.7,3.7-3.5,7.5-2.5,11.4
					c1,3.9,3.7,6.8,7.8,8.7c4.2,1.9,8.7,2.2,13.5,0.9c4.8-1.3,8.6-3.8,11.3-7.5c1.2-1.6,2-3.2,2.4-4.9c0.8,0.7,1.8,1.1,2.8,1.1
					c1.3,0,2.4-0.5,3.3-1.7c0.9-1,1.4-2.3,1.4-3.8c0-0.7-0.1-1.4-0.4-2.1c6.7-5.9,12.8-5.6,18.4,0.8c-0.2,0.7-0.3,1.5-0.3,2.4
					c0,1.8,0.5,3.3,1.7,4.5c1.1,1.3,2.4,1.9,3.9,1.9c0.3,0,0.7,0,1-0.1c0,4.1,1.4,8,4.3,11.6c3.7,4.6,8.6,7.5,14.8,8.7
					c6.2,1.2,11.9,0.3,17-2.7c5.1-3,8.1-7.1,9.2-12.5c1-5.3-0.3-10.3-4-15c-3.7-4.6-8.6-7.5-14.8-8.7C86.5-86.9,80.9-86,75.8-83
					c-2.6,1.5-4.7,3.3-6.3,5.5c-0.1-0.2-0.2-0.3-0.3-0.5c-1.1-1.2-2.4-1.8-4-1.8c-1,0-2,0.3-2.9,0.8c-7.3-9.3-15.2-9.5-23.6-0.7
					c-0.5-0.2-1-0.3-1.6-0.3c-1.3,0-2.4,0.5-3.4,1.6C32.5-81.5,30.1-83.8,26.6-85.3 M23.7-81.9c3.1,1.4,5,3.7,5.8,6.7
					c0.8,3,0.2,5.8-1.8,8.6c-1.9,2.8-4.6,4.7-8.2,5.6c-3.5,1-6.9,0.7-10-0.8c-3.1-1.4-5-3.6-5.8-6.6c-0.8-3-0.2-5.9,1.7-8.7
					c1.9-2.8,4.7-4.7,8.2-5.6C17.3-83.6,20.6-83.3,23.7-81.9 M91.5-81c4.5,0.9,8.1,3.1,10.8,6.6c2.7,3.5,3.6,7.3,2.9,11.4
					c-0.8,4.1-3,7.2-6.8,9.5c-3.8,2.3-7.9,3-12.5,2.1c-4.5-0.9-8.1-3.1-10.8-6.6c-2.7-3.5-3.7-7.3-2.9-11.4c0.8-4.1,3-7.3,6.9-9.5
					C82.8-81.1,86.9-81.8,91.5-81z"/>
			</g>
		</g>
	</g>
</g>
<g transform="matrix( 0.9995574951171875, 0.0297393798828125, -0.0297393798828125, 0.9995574951171875, 48.4,69.1) ">
	<g transform="matrix( 1, 0, 0, 1, 0,0) ">
		<g>
			<g id="hat_0_Layer1_0_FILL">
				<path class="st4" d="M149,85.2c-5.8-8.9-12.7-16.9-20.7-24c-6.6-5.9-13.7-10.9-21.3-15c-2.3,0.2-4.6,0.3-7,0.3
					c-6.4,0-12.4-0.8-18-2.3c-0.4,2.9-1.1,5.7-2.2,8.4c-1.9,4.9-4.9,9.5-9,13.9c-8.7,9.5-19.9,15-33.6,16.4
					c-4.5,0.5-8.9,0.4-13.1-0.1L42.6,131c3,2.4,6.2,4.7,9.6,6.8c2.4,1.5,4.8,2.8,7.3,4c-0.5-3.6-0.4-7.4,0.3-11.2
					c1-6.2,3.3-11.7,6.9-16.6c0.8-0.9,1.4-1.5,1.9-1.6c0.5-0.2,1.1-0.2,1.8,0c0.3,0.1,0.9,0.3,1.8,0.7c7.4,3.5,15.6,7.7,24.6,12.5
					c6,3.3,10.8,6.2,14.2,9c4,3.2,7.2,6.7,9.5,10.3c7.1-2.5,13.8-5.9,19.9-10.4c9.5-7,15-14.5,16.3-22.5
					C158,104.2,155.4,95.3,149,85.2 M142.3-53.8c-1-2.9-2.2-5.6-3.7-8.2c-1.9-1.4-3.9-2.8-6.1-4c-11.4-6.3-23.9-8-37.6-5.1
					c-11.3,2.4-20.6,7.4-27.9,15c-10.2-4.4-21.2-5.3-33-2.8c-9.8,2.1-18.2,6.2-25,12.2c-2.6,2.3-5.1,4.9-7.3,7.8
					c-5.4,7.2-8.4,14.8-8.8,22.8c-2.2-0.2-4.5-0.2-6.8,0c-10.5,1.1-19,6.2-25.5,15.5c-3.9,5.6-6.5,11.7-7.6,18.3
					c0.4,2.2,0.9,4.4,1.5,6.6c2.5,8.7,6.7,16.2,12.7,22.6c2.4,2.7,4.6,3.8,6.6,3.3c0.9-0.2,1.7-0.6,2.5-1.4c0.5-0.5,1.2-1.3,1.9-2.4
					c2.4-3.7,4.4-7.5,6.1-11.6c0.1,4.5,0.9,9.3,2.5,14.4c1.7,2.6,3.4,4.9,5,6.9c3.4,4,7.1,7,11.1,9.1c4.2,2.3,8.8,3.6,13.9,3.8
					c4.9,0.3,9.7-0.3,14.4-1.9c8.8-2.9,16.6-8.4,23.4-16.8c3.4-4.1,5.5-8.1,6.5-12c0.5-2.3,0.6-4.6,0.1-6.8c-0.2-1-0.5-2-0.9-2.9
					c2.2,2.9,4.9,5.6,8.1,8c0.9,0.7,1.8,1.3,2.8,1.9c2.7,1.2,5.5,2.2,8.5,2.9c5.3,1.2,10.5,1.5,15.6,0.9c5.3-0.6,10.3-2.2,15-4.7
					c4.8-2.6,8.9-5.8,12.2-9.8c4.4-5.3,7.9-12.6,10.4-21.9c2.2-8.3,2.9-15.6,1.9-22c-0.5-3.8-1.6-7.3-3.3-10.6
					c-1.3-2.5-2.9-4.6-4.7-6.5c4,1.6,7.6,3.5,10.8,5.7c0.3,0,0.6-0.1,0.9-0.2c1.4-0.3,2.6-1.1,3.5-2.2c1.5-1.8,2.3-4.5,2.5-8
					C144.8-43.1,144-48.5,142.3-53.8 M44.3-30.8c4.6,0.3,7.9,1.9,9.7,5c1.8,3.1,1.6,6.7-0.5,10.9c-2.1,4.2-5.6,7.6-10.4,10.4
					c-1,0.6-2,1.1-3,1.5c-3.8,1.7-7.5,2.4-11.1,2.2c-4.7-0.2-7.9-1.9-9.7-5c-1.8-3.1-1.6-6.7,0.5-10.9c1.3-2.6,3.1-4.9,5.6-7
					c1.4-1.2,3-2.4,4.8-3.4C34.9-29.7,39.6-31,44.3-30.8 M51.4-25.5c-1.5-2.5-4.1-3.9-7.9-4.2c-3.8-0.2-7.7,0.9-11.7,3.1
					c-2.2,1.2-4,2.7-5.5,4.2C25-20.9,24-19.5,23.2-18c-1.8,3.4-1.9,6.4-0.4,9c1.5,2.6,4.1,3.9,8,4.1c2.4,0.1,4.8-0.2,7.2-1
					c1.5-0.5,3-1.2,4.5-2.1c4-2.3,6.8-5.2,8.6-8.6C52.7-20,52.8-22.9,51.4-25.5z"/>
				<path class="st10" d="M138.6-61.9c1.5,2.6,2.7,5.3,3.7,8.2c1.8,5.3,2.5,10.7,2.2,16.1c-0.2,3.5-1,6.2-2.5,8
					c-0.9,1.1-2.1,1.9-3.5,2.2c-0.3,0.1-0.6,0.1-0.9,0.2c-3.2-2.2-6.8-4.1-10.8-5.7c1.8,1.8,3.4,4,4.7,6.5c1.7,3.3,2.8,6.8,3.3,10.6
					c1,6.4,0.3,13.7-1.9,22c-2.5,9.3-5.9,16.6-10.4,21.9c-3.3,4-7.4,7.2-12.2,9.8c-4.7,2.5-9.7,4.1-15,4.7
					c-5.1,0.6-10.3,0.3-15.6-0.9c-3-0.7-5.8-1.6-8.5-2.9c-1-0.6-1.9-1.3-2.8-1.9c-3.2-2.4-5.9-5.1-8.1-8c0.4,0.9,0.7,1.9,0.9,2.9
					c0.5,2.2,0.4,4.5-0.1,6.8c-1,3.9-3.1,7.9-6.5,12C47.8,58.7,40,64.3,31.2,67.2c-4.7,1.6-9.5,2.2-14.4,1.9
					c-5.1-0.3-9.7-1.6-13.9-3.8c-3.9-2.1-7.6-5.1-11.1-9.1c-1.7-2-3.4-4.3-5-6.9c-1.6-5.1-2.5-9.9-2.5-14.4
					c-1.7,4.1-3.7,7.9-6.1,11.6c-0.7,1.1-1.4,1.8-1.9,2.4c-0.8,0.8-1.6,1.2-2.5,1.4c-2,0.5-4.2-0.6-6.6-3.3
					c-6-6.4-10.2-13.9-12.7-22.6c-0.6-2.2-1.1-4.4-1.5-6.6c-0.7,4.4-0.9,9-0.4,13.8c1.3,12,6,21.9,14.3,29.6
					c8.3,7.8,17.7,11.1,28.2,10.1c0.8-0.1,1.5-0.2,2.3-0.3c1.1,0.9,2.3,1.8,3.5,2.7c7.1,5,14.8,8.1,23.3,9.1
					c4.2,0.5,8.6,0.5,13.1,0.1c13.7-1.4,24.9-6.9,33.6-16.4c4-4.4,7-9,9-13.9c1.1-2.7,1.8-5.5,2.2-8.4c5.6,1.5,11.6,2.3,18,2.3
					c2.4,0,4.7-0.1,7-0.3c7.6,4.1,14.7,9.1,21.3,15c8,7.1,14.9,15.1,20.7,24c6.4,10.1,9,19,7.7,26.8c-1.3,8-6.7,15.5-16.3,22.5
					c-6.1,4.4-12.8,7.9-19.9,10.4c-2.3-3.6-5.5-7.1-9.5-10.3c-3.5-2.7-8.2-5.7-14.2-9c-9-4.8-17.2-9-24.6-12.5
					c-0.9-0.4-1.6-0.6-1.8-0.7c-0.7-0.2-1.3-0.2-1.8,0c-0.5,0.1-1.1,0.7-1.9,1.6c-3.6,4.9-5.9,10.4-6.9,16.6
					c-0.7,3.8-0.8,7.5-0.3,11.2c-2.5-1.2-4.9-2.5-7.3-4c-3.4-2.1-6.6-4.3-9.6-6.8l2.2,5.5c12.2,17.3,26.8,26.6,43.9,27.8
					c33.2-1.6,60-17.7,80.6-48.1l-28.5-84.4c9.1-8.2,13.7-17.9,13.7-29.2c0-5.9-1.2-11.3-3.8-16.4c3.8-8,4.7-16.4,2.8-25.1
					C151.4-48.3,146.4-56,138.6-61.9 M53.9-25.8c-1.8-3.1-5-4.7-9.7-5c-4.6-0.2-9.4,1-14.2,3.8c-1.8,1-3.4,2.2-4.8,3.4
					c-2.4,2-4.2,4.4-5.6,7c-2.1,4.2-2.3,7.8-0.5,10.9c1.8,3.1,5,4.8,9.7,5C32.6-0.6,36.3-1.3,40-3c1-0.4,2-0.9,3-1.5
					c4.8-2.8,8.3-6.2,10.4-10.4C55.5-19,55.7-22.7,53.9-25.8 M43.4-29.6c3.8,0.2,6.5,1.6,7.9,4.2s1.3,5.5-0.4,8.9
					c-1.7,3.4-4.6,6.3-8.6,8.6c-1.5,0.9-3,1.6-4.5,2.1c-2.4,0.8-4.8,1.1-7.2,1c-3.8-0.2-6.5-1.5-8-4.1c-1.5-2.5-1.4-5.5,0.4-9
					c0.8-1.5,1.8-3,3.1-4.2c1.5-1.6,3.3-3,5.5-4.2C35.7-28.7,39.6-29.8,43.4-29.6z"/>
			</g>
		</g>
	</g>
	<g transform="matrix( 1, 0, 0, 1, 0,0) ">
		<g>
			<g id="hat_0_Layer0_0_FILL">
				<path class="st0" d="M85.1,116.7c-9.2-5.6-18.9-10-29.1-13.3c1.2,5,3,13.1,5.4,24.4l-12.1-5.6c2.3,6.8,5.5,13.2,9.6,19.2
					c4.8,7,10.6,12.9,17.3,17.8c-2-4-3.3-6.8-4-8.6c-1.3-3.3-2.2-6.3-2.5-9.1c5.5,5.7,11.8,10.1,19,13.2c4.5-4.5,7.7-9.9,9.7-16.4
					c1.1-3.6,1.7-7.3,1.8-11C95.5,123.5,90.4,119.9,85.1,116.7z"/>
				<path class="st1" d="M49.3,122.2l-0.9-0.4c-2,5.3-1.8,11.4,0.6,18.1c1.6,4.6,4.6,10.4,9,17.2c-4.5-0.1-7.8-0.2-10-0.2
					c1.9,4.3,5.3,8.1,10.3,11.4c3.1,2.1,7.9,4.5,14.3,7.2c2.2,0.9,3.9,1.5,4.9,1.8c1.8,0.5,3.5,0.7,5,0.4c1.8-0.2,3.3-0.9,4.6-2.2
					c1.4-1.4,1.9-2.9,1.7-4.5c1.7-0.2,4.1,0.4,7.2,2.1c3.2,1.7,5.5,2.5,7.1,2.4c2-0.1,3.9-0.9,5.6-2.6c7.5-3.4,12.8-9.3,15.7-17.8
					c2.9-8.5,2.6-16.4-1-23.7c-1.1,5.5-3.1,8.4-6.1,8.8c-1.2,0-2.4-0.3-3.7-1.1c-0.8-0.5-1.9-1.4-3.1-2.6c-3.2-3.2-6.5-6.2-10-9.1
					c-0.1,3.7-0.7,7.3-1.8,11c-2,6.4-5.2,11.9-9.7,16.4c-7.2-3-13.5-7.4-19-13.2c0.3,2.8,1.1,5.8,2.5,9.1c0.7,1.8,2,4.6,4,8.6
					c-6.7-4.9-12.5-10.8-17.3-17.8C54.8,135.5,51.6,129.1,49.3,122.2z"/>
			</g>
		</g>
	</g>
</g>
</svg>
