<svg xmlns="http://www.w3.org/2000/svg" viewBox="0 0 238.3 410.83"><defs><style>.cls-1{fill:#4c7c4f;}.cls-2{fill:#6c9e71;}.cls-3{fill:#fff;}.cls-4{fill:#353535;stroke:#000;stroke-miterlimit:10;stroke-width:0.2px;}.cls-5{fill:#83aa86;}.cls-6{fill:#445945;}</style></defs><title>wazow</title><g id="Layer_2" data-name="Layer 2"><g id="Layer_7" data-name="Layer 7"><path class="cls-1" d="M139.26,143c-5.48,13.87,14.29,71.59,38.67,89.87,0,0-18.52,18.75-10.31,44.07S162,322.88,162,322.88s-13.13,5.86-8,18.28-1.64,24.85,6.09,27.66,37.32,6.09,39.4,2.34-4.71-10.08-11.74-12.19-10.55-17.58-10.31-20.63,25.08-74.59,30-80.43,8.67-9.82,8.44-16.15,4-7.27-1.88-12.66-2-68.4-.17-70.75S148.64,119.22,139.26,143Z"/><path class="cls-2" d="M119.15,0A119.18,119.18,0,0,0,17.27,181h0c-5.48,13.87,14.29,71.59,38.67,89.87,0,0-18.52,18.75-10.31,44.07S40,360.85,40,360.85s-13.13,5.86-8,18.28S30.39,404,38.12,406.8s37.32,6.09,39.4,2.34S72.82,399.06,65.78,397s-10.55-17.58-10.31-20.63,25.08-74.59,30-80.43,8.67-9.82,8.44-16.15,4-7.27-1.88-12.66c-4.76-4.38-.9-23.32,1.67-31.51A119.16,119.16,0,1,0,119.15,0Z"/><path class="cls-3" d="M148.13,103.22c-22,1.18-43.35,7.11-63.26,15.73a11.2,11.2,0,0,1-1.46.53,65.39,65.39,0,0,0,129.2-4.29C192.37,105.65,169.9,102,148.13,103.22Z"/><circle class="cls-4" cx="159.21" cy="123.5" r="32.69" transform="translate(18.2 267.43) rotate(-83.39)"/><path class="cls-5" d="M215.31,94.72a63.13,63.13,0,0,0-3.23-8.94,93.74,93.74,0,0,0-7.15-14.64c-4.75-7.4-11.48-13.36-18.52-18.62-6.54-4.89-13.55-9.35-21.27-11.66-14.41-4.32-32.5-2.62-45.89,2.85A64.07,64.07,0,0,0,90.1,67.8a61.43,61.43,0,0,0-8.4,19.31c-.56,2.33-1,4.7-1.71,7-.37,1.17-.81,2.32-1.12,3.51a33.8,33.8,0,0,0-.71,4c-.73,5.4-1.39,11.26,1.29,16.2a4,4,0,0,0,1.1,1.39,3.23,3.23,0,0,0,2.85.28,11.2,11.2,0,0,0,1.46-.53c19.91-8.61,41.24-14.54,63.26-15.73,21.77-1.17,44.24,2.43,64.48,12l.69.31a2.44,2.44,0,0,0,1.54.36c.9-.22,1.12-1.36,1.19-2.29C216.45,107.3,216.86,100.91,215.31,94.72Z"/><path class="cls-6" d="M119.15,205.87c9.05-4.44,54.38-20.71,62-8.11l4.7-1.07a8,8,0,0,0-5.76,5.76l.35-3.06s-5.66-10.53-60.62,7l-1.25,5.92s-.59-7.3-5.46-8.22Z"/></g></g></svg>