<svg xmlns="http://www.w3.org/2000/svg" viewBox="0 0 319.61 340.61"><defs><style>.cls-1{opacity:0.32;}.cls-2{fill:#66645a;}.cls-3{fill:#9e9a86;}.cls-4{fill:#939186;}.cls-5{fill:#333;}.cls-6{fill:#686868;}.cls-7{fill:#d8d5ca;}.cls-8{fill:#706f6b;}.cls-9{fill:#232322;}.cls-10{fill:#d3d0c1;}.cls-11{fill:#d6d6d6;}.cls-12{fill:#fff;}.cls-13{fill:none;}.cls-14{fill:#a38600;}</style></defs><title>woat</title><g id="Layer_2" data-name="Layer 2"><g id="Layer_6" data-name="Layer 6"><path class="cls-1" d="M319.14,279.54s-136.66-33.82-147.92-41.46S109.5,200.63,75.48,206.4s-8.21-4.35-8.21-4.35,5.15-21.2-12.51-11.54-10.93-16.1-10.93-16.1L31.16,197.07,0,192.36l15,16.7s-23.38,9,8.32,12.43S-1,223,24.15,244.55,19.68,260,26.37,271.2s13.09,20.89,13.09,20.89l61-5.25,6-14.55A95.81,95.81,0,0,0,129,291.58c14.13,8.68,25.64,26.82,33.54,32.37s11.86,15.89,31,9.8-18.89-68.44-18.89-68.44,51.47-.75,56,18.11,78.14,36.64,88.38-3.89"/></g><g id="Layer_5" data-name="Layer 5"><path class="cls-2" d="M190.47,157.85s8.69-3.93,12.86,4.42S215,188.88,215,188.88l-4.81.3s18.2,35.73,21.94,45.64-26.51,21.33-26.51,21.33L170.73,208Z"/><path class="cls-3" d="M136.22,235.85c11.53-14.8,28.43-5.84,28.43-5.84s4.3,6,8.06,20.11a31.82,31.82,0,0,0,15,19.66v-12a142.86,142.86,0,0,0,10.73,14A19.27,19.27,0,0,0,211,278.66l-6.11-11.3,8.32,5.18v-5.16c9.17-12.74,4.3-35,4.3-35s-7.81-22.83-17.21-31.74c0,0,5.64-6,6.17-9.06a96.56,96.56,0,0,0-12.9-36.35l-5.91-6.85a40.55,40.55,0,0,1-5.69,8.76c-15.2,16.69-20.76-34.86-20.76-34.86-2.9,6-5.83,11.48-8.18,14.35-7.24,8.85-25.22,13-25.22,13s3.76,2.15,6.71,2.12-13.87,3.75-19.14,11.14-8.21,21.4-11.43,24.59l2.69-.17s-9.93,18-14.21,20.42l6.44-.4S60.27,255.84,54.1,263.54c0,0-12.34,9.73-16.1,10.77,0,0,0,.09.06.22,4.37-.47,16.18-2.07,22.15-6.08.81-.6,1.34-1,1.56-1.23a10.91,10.91,0,0,1-1.56,1.23c-3.18,2.41-10.6,7.41-19.36,9.14a2.22,2.22,0,0,0,.38,0L38,279.74a12.14,12.14,0,0,0,1,1.9c4.37.55,12.38-.54,25.86-8.74a11,11,0,0,1-5.1,7.72c-2.9,1.69-10.91,3.62-16.35,4.8l-2.16,2.8a6.11,6.11,0,0,0,2.61,1.88c13.36-.74,40.32-9.72,40.32-9.72,2.41,5.83,12.47,6.93,18.48,7-2.23-2.35-10.27-11-11-14A7.26,7.26,0,0,1,92,271l-4.34-5.45,17.42-53.38,17.24-19.59-1.15-7.25,4.29,7.59,5.37-.34-6.17,7.72s-4.73,46.4-9.2,51l6.88.65s-7.85,11.88-10.27,14.75l5.64,1.65s4.56,6.93,8.05,9.43,9.39-.59,9.39-.59l1.34-14.73-5.88-8.55c.34.42,5,6.13,8.18,5.15a84.48,84.48,0,0,1,8.7-1.9s-7,2.07-7,11c0,7.66,24.66,43.58,31.77,53.77l13.06,6.89s28.72-16.72,12.88-33.63L181.58,284l.36,0c-12.13-10.42-17.28-32.86-17.28-32.86,1.87-11.78-3-19.62-3-19.62C148.57,223.64,136.75,235.33,136.22,235.85Z"/><path class="cls-2" d="M38.06,274.53c.22.66,1,2.72,2.79,3.06,8.76-1.73,16.18-6.73,19.36-9.14C54.25,272.46,42.43,274.07,38.06,274.53Z"/><path class="cls-2" d="M39,281.64c.91,1.46,2.46,3.26,4.67,3.45l-.26.33c5.44-1.18,13.45-3.11,16.35-4.8a11,11,0,0,0,5.1-7.72C51.37,281.11,43.35,282.19,39,281.64Z"/><path class="cls-2" d="M84.16,280.37s-27,9-40.32,9.72c3.2,1.41,9.89,2.41,22.89-2.12,0,0,3,1.17,15-3.93,0,0,11.81,11.54,21.47,4,0,0-.22-.22-.58-.61C96.63,287.3,86.57,286.2,84.16,280.37Z"/><path class="cls-2" d="M111,255.94c-.55.74-9.48,12.57-13.38,14.91,0,0,6.45,3.4,11.28,1.73l-.8,3.31,6.46,1,3.74,6.81s19.32,2.59,22.27,1.32c0,0,12.89,18.72,17.73,23.3l5.1,10.53,2.69-.17,6.25,3.3c-7.11-10.19-31.76-46.11-31.77-53.77,0-8.95,7-11,7-11a84.48,84.48,0,0,0-8.7,1.9c-3.22,1-7.84-4.73-8.18-5.15l5.88,8.55-1.34,14.73s-5.9,3.08-9.39.59-8.05-9.43-8.05-9.43l-5.64-1.65c2.42-2.87,10.27-14.75,10.27-14.75l-6.88-.65c4.46-4.62,9.2-51,9.2-51l6.17-7.72-5.37.34-4.29-7.59,1.15,7.25-17.24,19.59L87.65,265.51,92,271c2.35-10.31,16.24-47.82,17.91-59.13l11.27-12.7s-7,50.34-13.93,55.4C107.24,254.51,109.61,257.3,111,255.94Z"/><path class="cls-2" d="M136.22,235.85c.53-.53,12.35-12.22,25.47-4.29,0,0,4.84,7.84,3,19.62,0,0,5.15,22.44,17.28,32.86l12.52.53a13,13,0,0,1,1.34-7.95s7.18,5.51,15.94,3.33l-.71-1.29a19.27,19.27,0,0,1-12.56-6.82,142.86,142.86,0,0,1-10.73-14v12a31.82,31.82,0,0,1-15-19.66C168.95,236,164.65,230,164.65,230S147.76,221.05,136.22,235.85Z"/><path class="cls-2" d="M173.17,94.44s-5.88,15.25-11.92,27.85c0,0,5.55,51.55,20.76,34.86a40.55,40.55,0,0,0,5.69-8.76s2.95-15.75,11.26-26C198.95,122.35,212.35,76,173.17,94.44Z"/><path class="cls-2" d="M213.24,267.38s8.32-5.4,13.15-6.24c0,0,9.14,8.65,11.28,12.31l-1.34,6s24.42,4.17,31,8.63,24-1.24,24-1.24V270.62s-24-7.18-32.26-22.39c0,0,3.44-6.72,0-11.93s-5.33-7.8-8.28-7.34-11.81.74-11.81.74l-21.44,2.7S222.4,254.64,213.24,267.38Z"/><polygon class="cls-2" points="185.29 191.02 181.82 195.29 152.59 204.66 187.72 198.69 199.02 199.43 189.08 195.3 185.29 191.02"/><path class="cls-4" d="M314.11,254l-38.57,8.83s-16.38,12.38-6.6,32.7l35.76,7s13.78-23.7,10.87-47.94"/><path class="cls-5" d="M313.13,254a3.61,3.61,0,0,1,1,0c2,.27,3.46,2.21,4.39,5.27l-5.36,14Z"/><path class="cls-6" d="M300.35,277c2.43-12.52,8-22.34,12.77-23v19.21l5.36-14c1.43,4.72,1.53,12.11,0,20.23-2.6,13.39-8.76,23.69-13.76,23S297.75,290.41,300.35,277Z"/><path class="cls-6" d="M171.1,307.14c2.29-11.81,10.14-21.2,19.57-24.83l6.55,24.3L201,280.77c.39,0,.79.07,1.18.13,14,1.94,22.76,16.83,19.57,33.27s-17.13,28.18-31.13,26.24S167.91,323.57,171.1,307.14Z"/><path class="cls-5" d="M190.67,282.31A23.36,23.36,0,0,1,201,280.77l-3.82,25.84Z"/><path class="cls-7" d="M271.56,4.77a7.87,7.87,0,0,1,1.63,8.45c-2.51,6.76-10.44,26.49-10.44,26.49l-1.68-11.1s-6.52,24.29-5.55,39.87l-13-2.35-.56-1.23c1.75-14.19,5.75-43.56,9.53-48.57S264.66,1.69,271.56,4.77Z"/><path class="cls-8" d="M243.92,14C250.18.55,256.66-.91,263.15.37a15.6,15.6,0,0,1,8.41,4.39c-6.9-3.08-16.27,6.46-20.11,11.56s-7.78,34.39-9.53,48.57l-4.67-10.28S237.65,27.55,243.92,14Z"/><path class="cls-3" d="M283.5,57.15c-.64-.71-11.84-5.09-24.83-.89s-13.89,17.46-13.89,17.46a22.42,22.42,0,0,0,3.4,11.79c10.67-29.33,33.39-24.86,33.39-24.86-22.38,5.73-15.15,15.75-22.63,16.84-5.46.8-8.43,6.46-9.63,9.46a13.72,13.72,0,0,0,1.79,1.71c6.56,5.19,11.45-6.51,13.12-9.5s12.86-13.34,18-15.73S284.14,57.86,283.5,57.15Z"/><path class="cls-9" d="M258.94,77.49c7.48-1.09.25-11.11,22.63-16.84,0,0-22.71-4.47-33.39,24.86A14.88,14.88,0,0,0,249.3,87C250.51,84,253.47,78.29,258.94,77.49Z"/><path class="cls-3" d="M118.47,65.31c-1.26,1.09-7.56,6.07,2.52,8.25s32,13.84,35.29,17.55c2.63,3,9.32,13.12,18.5,12.65,0-4.21-.24-9.42-.39-14.64a21.35,21.35,0,0,0-7.78-1.36c-14.66.08-.51-15-44.35-18.1,0,0,29.66-7.18,51.94,10.59,0-3.19,0-6.14.19-8.62a18.13,18.13,0,0,1,.37-2.56,21.35,21.35,0,0,1,3.37-7.49,44.14,44.14,0,0,0-11-2.64C141.64,56,119.73,64.22,118.47,65.31Z"/><path class="cls-9" d="M174.19,80.25c-22.28-17.77-51.94-10.59-51.94-10.59,43.84,3.1,29.69,18.17,44.35,18.1a21.35,21.35,0,0,1,7.78,1.36C174.28,86.11,174.21,83.09,174.19,80.25Z"/><path class="cls-3" d="M174.38,71.64c-.17,2.47-.22,5.43-.19,8.62a54,54,0,0,1,13.49,16.12,25.79,25.79,0,0,0,6.65-16.67,19.28,19.28,0,0,0-2.77-7.33c-8.43-2.07-13.68-2.17-16.81-3.3A18.13,18.13,0,0,0,174.38,71.64Z"/><path class="cls-3" d="M220.15,129.37c-.4.36-8,7.17-5,11.77a18.61,18.61,0,0,0,8.21,6.65s-7.19,1.06-11.44-7.47C211.88,140.32,209.65,133.91,220.15,129.37Zm52.9,21c.42,1.6,3,1.84,3,1.84,3.72.64,9.86-5,13.14-8.37.85-2.47,1.2-6-.17-10.87,0-.06,0-.11,0-.17a7.56,7.56,0,0,1-4.24-.18s-.2,3.28-3.44,7.17-10.53,2.5-12.62.79-5.61-4.76-8.25-5.83-2.83,1.4-6.88,1.77-3.64-5.82-2.84-10.77c0,0-4.78-25.06-16.65-39.59s-24.15-7.5-24.15-7.5a113.67,113.67,0,0,0-18.39-6.34,19.28,19.28,0,0,1,2.77,7.33,25.79,25.79,0,0,1-6.65,16.67,26.44,26.44,0,0,1-2.19,2.19,29.06,29.06,0,0,1-3.51,2.68,14.26,14.26,0,0,1-7.2,2.51,43.35,43.35,0,0,1-.38,8c-1.22,5.61.41,27.61,18.45,30.78S222,152.17,236,166.24a22.83,22.83,0,0,0,5.46,1.91s1.83,3.56-5.06,7.69c0,0,4.26,2.39,7.09.78a75.44,75.44,0,0,0-4,12.33s3-1.22,5.67-2.61c0,0,1.83,10.73,2.84,14.36,0,0,6.86-4.31,8.7-6.68-.12.33-2.21,5.75-2,8.71a26,26,0,0,0,15.59-19.2s1.82,4.39,1.62,6.65c0,0,6.07-11.23,4.45-19.11,0,0,4.46,1.76,6.28,1.86,0,0-6.69-8.19-3.86-13.27,0,0,9.55-3.25,7.57-10.26-3.27,1.94-8.93,5.23-10.21,5.31a6.57,6.57,0,0,1-3.64-1.21c-1.82,4-10.53,4.14-10.53,4.14-15.4-.46-22.48-6.16-24.3-8.09s-2-5.6-4.67-9.94-5.47,1.37-5.47,1.37a13.05,13.05,0,0,0,4.57,4.63c-4.15.26-8.21-4.6-8.21-4.6-2.36-5.83,4.28-8.94,4.64-9.09a8,8,0,0,0-1.81,5.83,7.1,7.1,0,0,1,6.88-1.25c4.06,1.38,4.46,7.7,7.1,11.22s12.16,6.4,21.47,7.26S273,150.41,273,150.41ZM201,107.25c-.68-3.94-1.81-8.53,2.8-12.81a28,28,0,0,1,14.62-7.23s6.72-.32,8.93,4.59,2.75,10.29,1.6,12.11-3.51,3.85-7.84,4.12A62,62,0,0,0,208.48,110C206.5,110.62,201.63,111.2,201,107.25Z"/><path class="cls-9" d="M174.19,80.25c0,2.83.09,5.86.19,8.87a23,23,0,0,1,11.11,9.45,26.44,26.44,0,0,0,2.19-2.19A54,54,0,0,0,174.19,80.25Z"/><path class="cls-3" d="M174.38,89.12c.15,5.23.36,10.43.39,14.64a14.26,14.26,0,0,0,7.2-2.51,29.06,29.06,0,0,0,3.51-2.68A23,23,0,0,0,174.38,89.12Z"/><path class="cls-3" d="M178.11,61.59a21.35,21.35,0,0,0-3.37,7.49c3.13,1.13,8.39,1.22,16.81,3.3C189.31,68.68,185.29,64.4,178.11,61.59Z"/><path class="cls-10" d="M196.84,47.09c-6.27,2.8-14.16,7.82-18.73,14.5,7.18,2.82,11.2,7.09,13.44,10.79a113.67,113.67,0,0,1,18.39,6.34s12.28-7,24.15,7.5,16.65,39.59,16.65,39.59c.81-4.95,7.9-4.4,10.33-3.91s3.44,1.18,10.53,4.22,8.71.27,10.53-3.12a5.28,5.28,0,0,1,1.52-1.79c-1.32-1.09-6.62-5.46-9.15-7.7a33.33,33.33,0,0,1-8-9.12c-5.22-8.15-8.82-18.78-7-24.55,1.91-6,7.6-5,11.65-3.29,0,0-.09-.09-.14-.13s-19-21.53-28.57-26.05-15.19-3.14-15.19-3.14C221.35,46.58,206,43,196.84,47.09Z"/><path class="cls-11" d="M203.76,94.44c-4.61,4.28-3.48,8.87-2.8,12.81s5.54,3.36,7.52,2.7A62,62,0,0,1,221.07,108c4.33-.27,6.68-2.3,7.84-4.12s.62-7.2-1.6-12.11-8.93-4.59-8.93-4.59A28,28,0,0,0,203.76,94.44Z"/><path class="cls-2" d="M220.15,129.37c-10.5,4.54-8.27,10.95-8.27,10.95,4.25,8.54,11.44,7.47,11.44,7.47a18.61,18.61,0,0,1-8.21-6.65C212.15,136.54,219.75,129.73,220.15,129.37Z"/><path class="cls-2" d="M228.46,131.92c-.36.15-7,3.25-4.64,9.09,0,0,4.06,4.86,8.21,4.6a13.05,13.05,0,0,1-4.57-4.63s2.84-5.71,5.47-1.37,2.84,8,4.67,9.94,8.91,7.63,24.3,8.09c0,0,8.71-.14,10.53-4.14a6.57,6.57,0,0,0,3.64,1.21c1.28-.08,6.94-3.36,10.21-5.31a7.58,7.58,0,0,0-.29-.85,9.41,9.41,0,0,0,3.21-4.68c-3.28,3.36-9.42,9-13.14,8.37,0,0-2.62-.24-3-1.84,0,0-1.62,5.41-10.94,4.57s-18.83-3.73-21.47-7.26-3-9.83-7.1-11.22a7.1,7.1,0,0,0-6.88,1.25A8,8,0,0,1,228.46,131.92Z"/><path class="cls-9" d="M250.75,125.81c-.8,4.95-1.21,11.12,2.84,10.77s4.26-2.83,6.88-1.77,6.16,4.12,8.25,5.83,9.38,3.09,12.62-.79,3.44-7.17,3.44-7.17a7.56,7.56,0,0,0,4.24.18c0,.06,0,.11,0,.17a.81.81,0,0,1,0-.16c1.58-10.05-5.4-11.64-5.4-11.64a5.28,5.28,0,0,0-1.52,1.79c-1.82,3.39-3.44,6.16-10.53,3.12s-8.1-3.73-10.53-4.22S251.57,120.87,250.75,125.81Z"/><path class="cls-3" d="M259.48,79.84c-1.82,5.77,1.79,16.41,7,24.55l.46-.31s-3.38-13.49-3.47-17.18c-.08-2.78,5.43-.15,8.15,1.3.14-.56,2.22-9.08-.49-11.64C267.07,74.88,261.38,73.81,259.48,79.84Z"/><path class="cls-11" d="M271.61,88.2c-2.72-1.45-8.23-4.08-8.15-1.3.09,3.69,3.47,17.18,3.47,17.18s2.51,4.55,7.1-.09c.09-1,1-12.43-2.44-15.73A.42.42,0,0,1,271.61,88.2Z"/><path class="cls-3" d="M266.94,104.09l-.46.31a33.33,33.33,0,0,0,8,9.12c-.63-.56-1.1-1-1.28-1.21,0,0,4.45-4.57.81-8.23V104C269.45,108.63,266.94,104.09,266.94,104.09Z"/><path class="cls-12" d="M269.33,105.13a4.73,4.73,0,0,0,2.76-1.49c.34-4.23.29-12.21-2.19-14.56l-.06-.06c-2.81-1.49-5.11-2.33-6.18-2.26l-.19,0a.83.83,0,0,0,0,.1c.09,3.34,3,15.37,3.41,16.82A3,3,0,0,0,269.33,105.13Z"/><path class="cls-12" d="M207,108.34A8,8,0,0,0,209,108c3.06-1,8.94-1.77,13.11-2,3.62-.23,5.36-1.82,6.18-3.12.48-.8.47-5.23-1.75-10.18-1.55-3.43-6.38-3.51-7.08-3.5a26.1,26.1,0,0,0-13.37,6.67c-3.49,3.23-2.89,6.63-2.26,10.22l.12.68c.08.44.31,1.78,3.13,1.61Z"/><path class="cls-13" d="M144.88,120.08a113.18,113.18,0,0,0-12.32,17.08"/><path class="cls-14" d="M210.1,98.75c0,4.72,4.17,8.28,9.32,8s9.31-4.41,9.31-9.12-4.17-8.28-9.32-8S210.09,94,210.1,98.75Z"/><path class="cls-5" d="M212.74,98.51c1.24.77,9.54.84,14.25-1,0,0,1.59.23.83,2s-5.38,5.2-13.19,3C214.65,102.48,210.19,101.14,212.74,98.51Z"/><path class="cls-14" d="M264.95,96c0,4.07,1.49,7.27,3.32,7.16s3.31-3.51,3.31-7.57-1.49-7.27-3.32-7.16S264.94,92,264.95,96Z"/><path class="cls-5" d="M265.89,95.91c.44.7,3.4,1,5.07-.43,0,0,.56.25.3,1.74s-1.91,4.32-4.69,2.18A3,3,0,0,1,265.89,95.91Z"/><path class="cls-7" d="M165.72,23.82c30.82,8.06,38.18,37.44,39.77,46.92-3.13,1.15-15.28-1.54-15.28-1.54s-10.89-45-45.18-39C125.83,33.53,117.78,40.4,114.4,45.8,118.79,31.81,131.11,14.51,165.72,23.82Z"/><path class="cls-3" d="M112,53.12c0,.18,0,.28,0,.28S112,53.3,112,53.12Z"/><path class="cls-8" d="M157.35,8.92c31.36-4.72,45.59,24,59.41,48.26,0,0-8.57,11.74-10.87,13.36a1.77,1.77,0,0,1-.4.2c-1.59-9.48-8.95-38.85-39.77-46.92-34.61-9.31-46.93,8-51.31,22A14.49,14.49,0,0,0,112,53.12C112,49.71,112.89,15.92,157.35,8.92Z"/></g></g></svg>