<svg xmlns="http://www.w3.org/2000/svg" viewBox="0 0 133.48 207.92"><defs><style>.cls-1{fill:#7f7b70;}.cls-2{fill:#9e9888;}.cls-3{fill:#1e1e1e;}.cls-4{fill:#89857a;}</style></defs><title>bear-side</title><g id="Layer_2" data-name="Layer 2"><g id="Layer_1-2" data-name="Layer 1"><path class="cls-1" d="M116.87,135.51V55.14A50.66,50.66,0,0,0,66.36,4.63h-.88A50.66,50.66,0,0,0,15,55.14v29.6c4.05-.37,12.61-.15,17.25,7.2,6.23,9.85,20.24,32.63,20.58,50.11.31,15.81-13.13,24.39-20.75,26.85a41,41,0,0,0,24.21,7.91H75.59C98.3,176.8,123,158.15,116.87,135.51Z"/><path class="cls-2" d="M52.81,142c-.34-17.48-14.35-40.26-20.58-50.11C27.59,84.58,19,84.37,15,84.74v50.78a41.29,41.29,0,0,0,17.08,33.37C39.68,166.43,53.12,157.86,52.81,142Z"/><circle class="cls-3" cx="37.9" cy="50.84" r="8.88"/><path class="cls-4" d="M66.26,79.5C60.47,81,57.54,90.14,57,99.11s2.58,28.55.94,36.6,6.33,6.75,10.1,4,6.5-3.56,7.14-5.91,3.42-20.19,3.23-24.45S85,83.62,77.12,79.77,66.26,79.5,66.26,79.5Z"/><rect class="cls-4" x="50.95" y="0.4" width="22.09" height="30.79" rx="7.99" ry="7.99" transform="translate(-1.75 10.39) rotate(-9.45)"/><circle class="cls-1" cx="123.26" cy="127.79" r="10.22"/><path class="cls-2" d="M3.11,47.56s12.56-1.35,15.11,0S26.89,61.5,22,68.84s-17.23,2.1-18,0S-.34,49.51,3.11,47.56Z"/><path class="cls-3" d="M11,60.64c-.66-.45-1.61,0-3.1.75a13.52,13.52,0,0,1-5.33,1.44l.76,3.54a13.86,13.86,0,0,0,5-1.27c1.12-.42,3.22-1.38,3.37-2.77A1.86,1.86,0,0,0,11,60.64Z"/><rect class="cls-3" y="46.96" width="7.69" height="7.01" rx="2.43" ry="2.43"/><path class="cls-1" d="M73.6,148.09a34.44,34.44,0,0,0-11.95-2.42c-15.05,3.15-12,26.56-12,26.57,3.62,11.24,7.9,24.1,9.43,27.07,0,0-7.13,8.59-2.32,8.59H72.23s5.16.69,6.19-7.56,5.31-22.28,5.31-22.28S94.57,156,73.6,148.09Z"/></g></g></svg>