<svg xmlns="http://www.w3.org/2000/svg" viewBox="0 0 162.88 207.92"><defs><style>.cls-1{fill:#7f7b70;}.cls-2{fill:#1e1e1e;}.cls-3{fill:#9e9888;}</style></defs><title>bear-front</title><g id="Layer_2" data-name="Layer 2"><g id="Layer_1-2" data-name="Layer 1"><path class="cls-1" d="M76.39,9.34H87.7a54.54,54.54,0,0,1,54.54,54.54v70.8a44.58,44.58,0,0,1-44.58,44.58H66.43a44.58,44.58,0,0,1-44.58-44.58V63.88A54.54,54.54,0,0,1,76.39,9.34Z" transform="translate(1.65 -1.41) rotate(0.99)"/><circle class="cls-2" cx="115.01" cy="55.52" r="8.77" transform="matrix(0.02, -1, 1, 0.02, 57.51, 169.55)"/><circle class="cls-2" cx="51.11" cy="54.41" r="8.77" transform="translate(-4.18 104.57) rotate(-89.01)"/><path class="cls-3" d="M79.28,47.29c-5.94,1.18-9.06,5.81-10.71,10.59s-6.21,16.44,11,16.64l7.49.13S105,74.15,96.81,58c0,0-4.14-9.43-9.28-10.38A23.21,23.21,0,0,0,79.28,47.29Z"/><path class="cls-2" d="M90.39,62.11c1.48-.69,2.42-1.14,3.07-.69a1.85,1.85,0,0,1,.62,1.68c-.16,1.38-2.26,2.29-3.37,2.69a25.48,25.48,0,0,1-16.33-.28c-1.1-.44-3.16-1.42-3.27-2.8a1.85,1.85,0,0,1,.67-1.66c.66-.43,1.58.05,3,.79,2.91,1.74,7.76,1.67,7.76,1.67S87.42,63.76,90.39,62.11Z"/><path class="cls-1" d="M26.93,154.77s12,39.16,14.79,44.6c0,0-7.07,8.45-2.32,8.47l15.27.06s5.09.7,6.13-7.44,5.33-22,5.33-22,10.78-21.74-9.88-29.62S26.93,154.77,26.93,154.77Z"/><path class="cls-1" d="M136.43,154.64s-12,39.16-14.78,44.6c0,0,7.07,8.45,2.33,8.47l-15.27.06s-5.09.7-6.14-7.44-5.33-22-5.33-22-10.79-21.73,9.87-29.62S136.43,154.64,136.43,154.64Z"/><path class="cls-1" d="M23.71,79.17C17.82,79,12.61,87,9.71,95.38S4.64,123.22,1,130.44s4.24,8.09,8.55,6.47,7.12-1.67,8.35-3.74,8.58-18.3,9.52-22.4S40.47,88,34,82.29,23.71,79.17,23.71,79.17Z"/><path class="cls-1" d="M142.87,79.07c5.88.25,10.54,8.55,12.88,17.11s3.2,28.11,6.39,35.57-4.78,7.79-9,5.88-7-2.14-8.08-4.29-7.33-18.83-8-23-11.54-23.55-4.67-28.85S142.87,79.07,142.87,79.07Z"/><rect class="cls-2" x="76.04" y="46.2" width="13.55" height="7.45" rx="3.73" ry="3.73" transform="translate(0.88 -1.43) rotate(0.99)"/><rect class="cls-1" x="21.21" y="3.02" width="35.97" height="30.8" rx="11.89" ry="11.89" transform="translate(-2.96 28.36) rotate(-38.44)"/><rect class="cls-1" x="106.43" y="3.23" width="35.97" height="30.8" rx="11.89" ry="11.89" transform="translate(30.51 -65.08) rotate(33.2)"/><rect class="cls-3" x="24.99" y="5.5" width="28.12" height="24.08" rx="11.89" ry="11.89" transform="translate(-2.44 28.08) rotate(-38.44)"/><rect class="cls-3" x="111.36" y="6.01" width="28.12" height="24.08" rx="11.89" ry="11.89" transform="translate(37.3 -73.01) rotate(37.75)"/><path class="cls-3" d="M70.48,83.83c-17.87,4-27.25,19.31-32.24,35.16s-18.74,54.53,33.11,55.1l22.5.39s53.86-1.75,29.24-55.36c0,0-12.38-31.25-27.84-34.37S70.48,83.83,70.48,83.83Z"/></g></g></svg>