<svg xmlns="http://www.w3.org/2000/svg" viewBox="0 0 181.67 242.77"><defs><style>.cls-1{fill:#fccd3b;}.cls-2{fill:#b58520;}.cls-3{fill:none;stroke:#000;stroke-miterlimit:10;}.cls-4{fill:red;}</style></defs><title>lion</title><g id="Layer_2" data-name="Layer 2"><g id="Layer_1-2" data-name="Layer 1"><path class="cls-1" d="M85.19,41.5H96.61a55.06,55.06,0,0,1,55.06,55.06V168a45,45,0,0,1-45,45H75.14a45,45,0,0,1-45-45V96.56A55.06,55.06,0,0,1,85.19,41.5Z"/><path class="cls-1" d="M35.48,189.22s12.28,39.49,15.1,45c0,0-7.11,8.56-2.31,8.56H63.68s5.14.68,6.16-7.53S75.14,213,75.14,213s10.8-22-10.09-29.86S35.48,189.22,35.48,189.22Z"/><path class="cls-1" d="M147,189.22s-12.28,39.49-15.1,45c0,0,7.11,8.56,2.31,8.56H118.8s-5.14.68-6.16-7.53S107.34,213,107.34,213s-10.8-22,10.09-29.86S147,189.22,147,189.22Z"/><path class="cls-1" d="M30.14,130.18c-5.94-.26-11.35,7.67-14.44,16.08s-5.67,28-9.54,35.21,4.12,8.25,8.51,6.7,7.22-1.55,8.51-3.61,9-18.3,10.05-22.42,13.66-22.68,7.22-28.61S30.14,130.18,30.14,130.18Z"/><path class="cls-1" d="M151,130.18c5.94-.26,11.35,7.67,14.44,16.08s5.67,28,9.54,35.21-4.12,8.25-8.51,6.7-7.22-1.55-8.51-3.61-9-18.3-10.05-22.42-13.66-22.68-7.22-28.61S151,130.18,151,130.18Z"/><polygon class="cls-2" points="134.56 170.48 110.22 169.96 88.88 181.67 68.06 169.05 43.73 168.53 32.01 147.19 11.19 134.56 11.72 110.22 0 88.88 12.62 68.06 13.15 43.73 34.49 32.01 47.11 11.19 71.45 11.72 92.79 0 113.61 12.62 137.95 13.15 149.66 34.49 170.48 47.11 169.96 71.45 181.67 92.79 169.05 113.61 168.53 137.95 147.19 149.66 134.56 170.48"/><path class="cls-1" d="M85.19,41.5H96.61a55.06,55.06,0,0,1,55.06,55.06v0a45,45,0,0,1-45,45H75.14a45,45,0,0,1-45-45v0A55.06,55.06,0,0,1,85.19,41.5Z"/><circle cx="123.5" cy="87.54" r="8.85"/><circle cx="58.97" cy="87.54" r="8.85"/><path d="M88.27,103.94h5.44A1.43,1.43,0,0,1,95,106.09l-2.72,4.71a1.43,1.43,0,0,1-2.48,0L87,106.09A1.43,1.43,0,0,1,88.27,103.94Z"/><path class="cls-3" d="M76.15,114.73c.87.48,6.77,3.6,11.17.23,3.07-2.36,3.66-6.56,3.8-8"/><path class="cls-3" d="M106,114.73c-.87.48-6.77,3.6-11.17.23-3.07-2.36-3.66-6.56-3.8-8"/><line class="cls-3" x1="125.77" y1="106.94" x2="161.9" y2="106.94"/><line class="cls-3" x1="125.77" y1="114.52" x2="159.97" y2="123.13"/><line class="cls-3" x1="52.9" y1="106.94" x2="16.77" y2="106.94"/><line class="cls-3" x1="52.9" y1="114.52" x2="18.7" y2="123.13"/><ellipse class="cls-4" cx="50.13" cy="103.18" rx="7.5" ry="2.97"/><ellipse class="cls-4" cx="131.94" cy="103.98" rx="7.5" ry="2.97"/><path class="cls-1" d="M25.23,46.72l-1.4,10.67a7,7,0,0,0,11.8,5.82L47.69,51.13a7,7,0,0,0-5.82-11.8l-10.67,1.4A7,7,0,0,0,25.23,46.72Z"/><path class="cls-1" d="M156.28,46.72l1.4,10.67a7,7,0,0,1-11.8,5.82L133.82,51.13a7,7,0,0,1,5.82-11.8l10.67,1.4A7,7,0,0,1,156.28,46.72Z"/></g></g></svg>