<svg xmlns="http://www.w3.org/2000/svg" viewBox="0 0 155.59 207.92"><defs><style>.cls-1{fill:#f9d05d;}.cls-2{fill:#cc9b44;}.cls-3{fill:#1e1e1e;}.cls-4{fill:none;stroke:#000;stroke-miterlimit:10;stroke-width:0.86px;}.cls-5{fill:#e86464;}</style></defs><title>lion-front</title><g id="Layer_2" data-name="Layer 2"><g id="Layer_1-2" data-name="Layer 1"><path class="cls-1" d="M72.11,35.54h9.77A47.15,47.15,0,0,1,129,82.7v61.21A38.54,38.54,0,0,1,90.5,182.45h-27A38.54,38.54,0,0,1,25,143.91V82.7A47.15,47.15,0,0,1,72.11,35.54Z"/><path class="cls-1" d="M29.53,162.06S40,195.88,42.47,200.57c0,0-6.09,7.33-2,7.33h13.2s4.4.59,5.28-6.45,4.53-19,4.53-19,9.25-18.83-8.64-25.57S29.53,162.06,29.53,162.06Z"/><path class="cls-1" d="M125,162.06s-10.52,33.82-12.93,38.51c0,0,6.09,7.33,2,7.33h-13.2s-4.4.59-5.28-6.45-4.53-19-4.53-19-9.25-18.83,8.64-25.57S125,162.06,125,162.06Z"/><path class="cls-1" d="M25,111.49c-5.09-.22-9.72,6.57-12.37,13.77s-4.86,24-8.17,30.16,3.53,7.06,7.28,5.74,6.18-1.32,7.28-3.09,7.73-15.67,8.61-19.2,11.7-19.43,6.18-24.5S25,111.49,25,111.49Z"/><path class="cls-1" d="M128.48,111.49c5.09-.22,9.72,6.57,12.37,13.77s4.86,24,8.17,30.16-3.53,7.06-7.28,5.74-6.18-1.32-7.28-3.09-7.73-15.67-8.61-19.2-11.7-19.43-6.18-24.5S128.48,111.49,128.48,111.49Z"/><polygon class="cls-2" points="115.25 146.01 94.4 145.56 76.12 155.59 58.3 144.78 37.45 144.33 27.41 126.06 9.59 115.25 10.03 94.4 0 76.12 10.81 58.3 11.26 37.45 29.54 27.41 40.35 9.59 61.19 10.03 79.47 0 97.3 10.81 118.14 11.26 128.18 29.54 146.01 40.35 145.56 61.19 155.59 79.47 144.78 97.3 144.33 118.14 126.06 128.18 115.25 146.01"/><path class="cls-1" d="M72.11,35.54h9.77A47.15,47.15,0,0,1,129,82.7v0A38.54,38.54,0,0,1,90.5,121.24h-27A38.54,38.54,0,0,1,25,82.7v0A47.15,47.15,0,0,1,72.11,35.54Z"/><circle class="cls-3" cx="104.91" cy="74.97" r="7.58"/><circle class="cls-3" cx="49.65" cy="74.97" r="7.58"/><path class="cls-3" d="M74.74,89H79.4a1.23,1.23,0,0,1,1.06,1.84l-2.33,4a1.23,1.23,0,0,1-2.13,0l-2.33-4A1.23,1.23,0,0,1,74.74,89Z"/><path class="cls-4" d="M64.36,98.26c.75.41,5.8,3.09,9.57.19,2.63-2,3.13-5.62,3.25-6.86"/><path class="cls-4" d="M89.92,98.26c-.75.41-5.8,3.09-9.57.19-2.63-2-3.13-5.62-3.25-6.86"/><path class="cls-1" d="M20.75,40l-1.2,9.13a6,6,0,0,0,10.1,5L40,43.79a6,6,0,0,0-5-10.1l-9.13,1.2A6,6,0,0,0,20.75,40Z"/><path class="cls-1" d="M133,40l1.2,9.13a6,6,0,0,1-10.1,5L113.75,43.79a6,6,0,0,1,5-10.1l9.13,1.2A6,6,0,0,1,133,40Z"/><path class="cls-5" d="M117.93,88.7C117.6,88,113,85.29,109.59,86s-3.87,2.73-3.43,3.77c.33.77,1,1.59,3.16,2.14a16.25,16.25,0,0,0,4.64.35,6.58,6.58,0,0,0,3.74-1.69C118.56,89.53,118.28,89.49,117.93,88.7Z"/><path class="cls-5" d="M36.29,88c.33-.72,4.89-3.41,8.33-2.74S48.5,88,48.05,89c-.33.77-1,1.59-3.16,2.14a16.25,16.25,0,0,1-4.64.35,6.58,6.58,0,0,1-3.74-1.69C35.66,88.84,35.94,88.8,36.29,88Z"/><line class="cls-4" x1="44.45" y1="91.59" x2="13.51" y2="91.59"/><line class="cls-4" x1="44.45" y1="98.08" x2="15.16" y2="105.46"/><line class="cls-4" x1="106.86" y1="91.59" x2="137.8" y2="91.59"/><line class="cls-4" x1="106.86" y1="98.08" x2="136.15" y2="105.46"/></g></g></svg>