<svg xmlns="http://www.w3.org/2000/svg" viewBox="0 0 143.85 207.92"><defs><style>.cls-1{fill:#cc9b44;}.cls-2,.cls-3{fill:#f9d05d;}.cls-3{stroke:#f2bd38;}.cls-3,.cls-5{stroke-miterlimit:10;stroke-width:0.85px;}.cls-4{fill:#1e1e1e;}.cls-5{fill:none;stroke:#000;}.cls-6{fill:#e5b735;}.cls-7{fill:#e86464;}</style></defs><title>lion-side</title><g id="Layer_2" data-name="Layer 2"><g id="Layer_1-2" data-name="Layer 1"><path class="cls-1" d="M127.61,140c5.06,4.71,13.13.44,14.26-7.58s2-12.26,2-12.26-3.39,4.24-3.39,6.22,1.41-4.8-.28-8.48-2.54-2-2.54-2,1,3.11-1.9,6.78-1.22-1.89,0-3.11-2.9,2-5.73,5.93S123.94,136.56,127.61,140Z"/><path class="cls-2" d="M31.48,81.35c-.56-.38-1.36,0-2.61.63a8.88,8.88,0,0,1-3.93,1.16v3.05a12.24,12.24,0,0,0,4.25-1.07c.94-.36,2.72-1.17,2.84-2.34A1.57,1.57,0,0,0,31.48,81.35Z"/><path class="cls-2" d="M74.45,157.39a29.09,29.09,0,0,0-10.09-2C51.64,158,54.22,177.79,54.22,177.79c3.06,9.49,6.67,20.36,8,22.86,0,0-6,7.26-2,7.26H73.28s4.35.58,5.23-6.39S83,182.71,83,182.71,92.15,164.07,74.45,157.39Z"/><path class="cls-2" d="M111,146.77V78.89A42.78,42.78,0,0,0,68.33,36.23h-.74A42.78,42.78,0,0,0,24.93,78.89v67.88A35,35,0,0,0,59.8,181.63H76.12C95.3,181.63,116.2,165.89,111,146.77Z"/><path class="cls-1" d="M104.7,134l-18.3-.1-16.22,9.52-15.47-9.69-18.3-.1-8.5-16.69h0A31.53,31.53,0,0,1,13.15,89l0-1h0a34.1,34.1,0,0,1,1-32.82l.27-.46.07-1.88A31.69,31.69,0,0,1,27.6,28.42q1.24-.9,2.57-1.68L31.43,26,41.22,9.42l18.3.1L75.74,0,91.21,9.69l18.3.1L118,26.49l15.47,9.69-.74,19.21,8.5,16.69-9.79,16.59-.74,19.21-16.22,9.52Z"/><path class="cls-3" d="M72,119.3c5,.18,9.08,7.24,11.13,14.55s2.92,24,5.71,30.39-4,6.69-7.64,5.09-6-1.79-6.95-3.62-6.4-16.07-7-19.62-10-20.08-4.19-24.66S72,119.3,72,119.3Z"/><path class="cls-2" d="M7.86,71.7c0-25.41,17.83-46,39.83-46s39.83,20.6,39.83,46-17.83,46-39.83,46c-20.62,0-40.06-17.14-42.32-40.33-.1-1.06.57-3,.54-3.72S7.86,72.5,7.86,71.7Z"/><ellipse class="cls-4" cx="22.91" cy="59.99" rx="3.75" ry="6.29"/><path class="cls-2" d="M2.84,72.43s10.61-1.14,12.77,0,7.32,11.77,3.19,18C16.16,94.35,11,94,7.4,92.75,5.35,92,3.83,91,3.59,90.4,2.93,88.63-.07,74.08,2.84,72.43Z"/><rect class="cls-4" y="72.1" width="3.94" height="6.31" rx="1.97" ry="1.97"/><circle class="cls-4" cx="5.73" cy="84.16" r="0.37"/><circle class="cls-4" cx="7.03" cy="87.47" r="0.19"/><circle class="cls-4" cx="4.68" cy="87.02" r="0.26"/><circle class="cls-4" cx="6.47" cy="89.56" r="0.37"/><line class="cls-5" x1="11.78" y1="81.26" x2="30.49" y2="83.64"/><line class="cls-5" x1="10.97" y1="87.63" x2="27.76" y2="97.12"/><path class="cls-1" d="M38.09,24.16A12,12,0,0,0,36,25.22L21.13,34.75s15.64-13,21-6.52c4.33,5.23-.33-1.94,3.26,15.48,2.93,14.19,16.42,16,18.58,17.51C90.18,79.08,81.66,93.6,77.42,99.69c-4.39,6.3-22.25,20-39.29,16.81-1.87-.35,9.51,6.5,11.4,6.64l15.88,1.2a12,12,0,0,0,10.1-4.26L93.82,98.19a12,12,0,0,0,2.65-5.83l4.26-27.08a12,12,0,0,0-2.84-9.77l-19.35-22a12,12,0,0,0-4-3l-19.68-9a12,12,0,0,0-9.36-.25Z"/><path class="cls-6" d="M71.35,25.69c3.47,2.51,3,16.81,1.55,20.06s-6.64,1.1-6.64,1.1Z"/><path class="cls-2" d="M71.35,25.69C68.57,22.26,59.2,34.36,59.2,36.51c0,3.25,5,11.59,8.55,10.17S75,30.21,71.35,25.69Z"/><path class="cls-2" d="M10.79,90.89c-.26.85-2.08,1.95-2.79,1.73"/><path class="cls-2" d="M108.76,159c6.76-.65,22.82-21.17,28.57-34,0,0-11.77,33.45-27,37.65S108.76,159,108.76,159Z"/><path class="cls-7" d="M37.44,79c-.3-.66-4.48-3.13-7.63-2.51S26.26,79,26.66,80c.3.7.93,1.45,2.9,2a14.89,14.89,0,0,0,4.25.32,6,6,0,0,0,3.43-1.55C38,79.79,37.76,79.76,37.44,79Z"/></g></g></svg>