<svg xmlns="http://www.w3.org/2000/svg" viewBox="0 0 121.9 207.92"><defs><style>.cls-1{fill:#f0f0f0;}.cls-2{fill:#1e1e1e;}.cls-3{fill:#f2bde7;}.cls-4{fill:#e86464;}</style></defs><title>panda-side</title><g id="Layer_2" data-name="Layer 2"><g id="Layer_1-2" data-name="Layer 1"><path class="cls-1" d="M111.63,139V62.47A48.23,48.23,0,0,0,63.54,14.38h-.83A48.23,48.23,0,0,0,14.62,62.47V139a39.43,39.43,0,0,0,39.3,39.3h18.4C93.94,178.29,117.51,160.54,111.63,139Z"/><circle class="cls-1" cx="36.45" cy="58.38" r="8.46"/><path class="cls-2" d="M70.44,151a32.79,32.79,0,0,0-11.37-2.3C44.73,151.66,47.63,174,47.63,174c3.45,10.7,7.52,22.95,9,25.77,0,0-6.79,8.18-2.21,8.18H69.13s4.91.65,5.89-7.2,5.06-21.21,5.06-21.21S90.4,158.49,70.44,151Z"/><ellipse class="cls-2" cx="63.58" cy="14.38" rx="17.59" ry="14.38"/><path class="cls-1" d="M3,53.58s12-1.28,14.39,0,8.25,13.27,3.6,20.26-16.4,2-17.14,0S-.32,55.44,3,53.58Z"/><path class="cls-2" d="M10.5,66c-.63-.43-1.53,0-2.95.71a12.87,12.87,0,0,1-5.07,1.37l.72,3.37a13.19,13.19,0,0,0,4.72-1.2C9,69.88,11,69,11.13,67.64A1.77,1.77,0,0,0,10.5,66Z"/><rect class="cls-2" y="53.01" width="7.32" height="6.67" rx="2.31" ry="2.31"/><path class="cls-3" d="M74.39,35.12a7.62,7.62,0,0,0,2.88-6.55,4.58,4.58,0,0,0,2.88.4c2.13-.4,4.64-2.8,4.79-5.17.17-2.67-2.31-4.56-4.44-5.25a7.27,7.27,0,0,0-2.27-.36,13.88,13.88,0,0,0,1-2.95,4.59,4.59,0,0,0-3.19-5.42,5,5,0,0,0-5.49,2.35,7,7,0,0,0-1.09,2.89A11,11,0,0,0,63,14.92c-1.61.44-2,2.67-1.26,4a6.31,6.31,0,0,0,2.84,2.56C61.35,23.52,57.27,27,59.74,30c1.34,1.62,3.89,1.2,5.71.84a10.83,10.83,0,0,0,3.29-1.2,11.6,11.6,0,0,0,.35,4.2C69.91,36.43,72.52,36.58,74.39,35.12Z"/><path class="cls-2" d="M63.54,87.37C57.67,88.9,54.31,97,53.33,104.73s1.28,24.54-.74,31.57,6,5.54,10,3,6.68-3.37,7.44-5.43,4.36-17.59,4.36-21.27,7.83-22.53.08-25.49S63.54,87.37,63.54,87.37Z"/><path class="cls-2" d="M14.62,91.27s39.31-7.39,49.88-7,48,3.51,48,3.51V99.3s-26.61-.23-35,11.24-22,.06-22,.06S20.67,99,14.62,104.81Z"/><path class="cls-2" d="M28.72,35.2c3.43-.65,21.07,6.1,23.2,17s-5.72,16.47-10.68,17.5c-3.63.75-8,.61-13.34-4.09a34,34,0,0,1-8.07-12c-1.73-4.59,0-11.35,1.64-13.9C24.4,35.25,25,35.91,28.72,35.2Z"/><path class="cls-1" d="M28.58,40.8c2.26-.43,13.86,4,15.26,11.15a9.45,9.45,0,0,1-7,11.51c-2.39.5-5.26.4-8.78-2.69a22.33,22.33,0,0,1-5.31-7.87c-1.14-3,0-7.46,1.08-9.14C25.74,40.83,26.11,41.27,28.58,40.8Z"/><path class="cls-2" d="M25.29,55.26c1.42,4.38,5.65,6.6,9.45,5s5.74-6.5,4.32-10.88-5.65-6.6-9.45-5S23.87,50.88,25.29,55.26Z"/><path class="cls-4" d="M37.61,70.89c-.54-1.2-8.15-5.68-13.87-4.56S17.3,70.87,18,72.61c.54,1.28,1.7,2.64,5.27,3.56a27.05,27.05,0,0,0,7.73.58,11,11,0,0,0,6.23-2.82C38.66,72.27,38.21,72.21,37.61,70.89Z"/><circle class="cls-2" cx="112.54" cy="146.86" r="9.36"/></g></g></svg>