<svg xmlns="http://www.w3.org/2000/svg" viewBox="0 0 161.01 207.92"><defs><style>.cls-1{fill:#1e1e1e;}.cls-2{fill:#404040;}.cls-3{fill:#f0f0f0;}.cls-4{fill:#f2bde7;}.cls-5{fill:none;stroke:#000;stroke-miterlimit:10;stroke-width:0.98px;}.cls-6{fill:#e86464;}</style></defs><title>panda-front</title><g id="Layer_2" data-name="Layer 2"><g id="Layer_1-2" data-name="Layer 1"><path class="cls-1" d="M24.74,155.2s12.09,38.88,14.87,44.27c0,0-7,8.43-2.28,8.43H52.5s5.06.67,6.07-7.42,5.21-21.85,5.21-21.85,10.64-21.64-9.93-29.4S24.74,155.2,24.74,155.2Z"/><path class="cls-2" d="M134.53,155.2s-12.09,38.88-14.87,44.27c0,0,7,8.43,2.28,8.43H106.77s-5.06.67-6.07-7.42-5.21-21.85-5.21-21.85-10.64-21.64,9.93-29.4S134.53,155.2,134.53,155.2Z"/><path class="cls-3" d="M73.68,9.76H84.92A54.21,54.21,0,0,1,139.13,64v70.36a44.3,44.3,0,0,1-44.3,44.3h-31a44.3,44.3,0,0,1-44.3-44.3V64A54.21,54.21,0,0,1,73.68,9.76Z"/><circle class="cls-3" cx="111.4" cy="55.09" r="8.71"/><ellipse class="cls-1" cx="42.86" cy="14.82" rx="18.12" ry="14.82"/><ellipse class="cls-1" cx="114.97" cy="14.82" rx="18.12" ry="14.82"/><circle class="cls-3" cx="47.87" cy="55.09" r="8.71"/><path class="cls-1" d="M24.62,80.27C18.77,80,13.44,87.82,10.4,96.1S4.82,123.66,1,130.77s4.06,8.12,8.37,6.6,7.11-1.52,8.37-3.55,8.88-18,9.9-22.08S41.1,89.41,34.76,83.57,24.62,80.27,24.62,80.27Z"/><path class="cls-1" d="M136.39,78.71c5.85-.25,11.18,7.55,14.22,15.83s5.58,27.56,9.39,34.67-4.06,8.12-8.37,6.6-7.11-1.52-8.37-3.55-8.88-18-9.9-22.08S119.91,87.85,126.25,82,136.39,78.71,136.39,78.71Z"/><path class="cls-4" d="M122.91,38.6a7.85,7.85,0,0,0,6.15-4.07,4.72,4.72,0,0,0,2.27,2c2.07.85,5.58.17,7-1.79,1.65-2.22.55-5.24-.91-7a7.49,7.49,0,0,0-1.77-1.58,14.3,14.3,0,0,0,2.55-2,4.73,4.73,0,0,0,.27-6.47,5.14,5.14,0,0,0-6.06-1,7.26,7.26,0,0,0-2.55,1.89,11.31,11.31,0,0,0-5.56-3.77c-1.64-.52-3.24,1.19-3.31,2.73a6.5,6.5,0,0,0,1,3.8c-4,0-9.45.74-9,4.71.26,2.15,2.7,3.22,4.47,3.92a11.16,11.16,0,0,0,3.52.8,12,12,0,0,0-2,3.83C118.3,37.22,120.48,38.81,122.91,38.6Z"/><circle class="cls-1" cx="79.93" cy="68.24" r="2.38"/><path class="cls-5" d="M79.93,68.24a6,6,0,0,1-6.07,5.91"/><path class="cls-5" d="M79.77,68.24a6,6,0,0,0,6.07,5.91"/><path class="cls-1" d="M24.74,79.62s53.9,26.63,103.61,2l10.78,8.56-3.67,19.61s-30-9.92-53.52-8.45-59.42,8.45-59.42,8.45L14.26,94.73Z"/><path class="cls-1" d="M51.44,34.2c-4,.8-21.21,14.62-19.66,26S44.06,73.72,49.94,72.67c4.3-.78,9.1-2.73,13.35-9.47a35.19,35.19,0,0,0,4.66-14.91c.27-5.15-4.05-11-6.83-12.74C56.25,32.46,55.88,33.33,51.44,34.2Z"/><path class="cls-3" d="M53.6,39.55c-2.66.52-14,9.61-12.93,17.09s8.08,8.89,11.95,8.2c2.83-.51,6-1.79,8.78-6.23a23.12,23.12,0,0,0,3.06-9.8c.18-3.38-2.67-7.21-4.49-8.37C56.77,38.41,56.52,39,53.6,39.55Z"/><circle class="cls-1" cx="53.76" cy="52.15" r="8.71"/><path class="cls-1" d="M107.91,34.2c4,.8,21.21,14.62,19.66,26s-12.29,13.53-18.16,12.47c-4.3-.78-9.1-2.73-13.35-9.47A35.19,35.19,0,0,1,91.4,48.28c-.27-5.15,4.05-11,6.83-12.74C103.09,32.46,103.47,33.33,107.91,34.2Z"/><path class="cls-3" d="M105.74,39.55c2.66.52,14,9.61,12.93,17.09s-8.08,8.89-11.95,8.2c-2.83-.51-6-1.79-8.78-6.23a23.12,23.12,0,0,1-3.06-9.8c-.18-3.38,2.67-7.21,4.49-8.37C102.58,38.41,102.82,39,105.74,39.55Z"/><circle class="cls-1" cx="105.58" cy="52.15" r="8.71"/><path class="cls-6" d="M30.69,70c.56-1.23,8.39-5.86,14.29-4.7s6.64,4.68,5.88,6.47c-.56,1.32-1.75,2.72-5.43,3.67a27.87,27.87,0,0,1-8,.6A11.28,11.28,0,0,1,31,73.15C29.61,71.43,30.07,71.37,30.69,70Z"/><path class="cls-6" d="M131.81,70c-.56-1.23-8.39-5.86-14.29-4.7s-6.64,4.68-5.88,6.47c.56,1.32,1.75,2.72,5.43,3.67a27.87,27.87,0,0,0,8,.6,11.28,11.28,0,0,0,6.42-2.9C132.89,71.43,132.42,71.37,131.81,70Z"/></g></g></svg>