<svg xmlns="http://www.w3.org/2000/svg" viewBox="0 0 178.42 207.92"><defs><style>.cls-1{fill:#f9e075;}.cls-2{fill:#565656;}.cls-3{fill:#8e8e8e;}.cls-4{fill:#1e1e1e;}.cls-5{fill:#f0f0f0;}.cls-6{fill:#e86464;}</style></defs><title>penguin-front</title><g id="Layer_2" data-name="Layer 2"><g id="Layer_1-2" data-name="Layer 1"><polygon class="cls-1" points="50.33 184.31 70.22 187.66 70.22 207.92 61.11 198.99 52.93 206.8 50.33 196.11 35.27 202.34 50.33 184.31"/><polygon class="cls-1" points="132.98 184.31 113.09 187.66 113.09 207.92 122.2 198.99 130.38 206.8 132.98 196.11 148.04 202.34 132.98 184.31"/><path class="cls-2" d="M117.17,157.38c-2.62,4.74-5,9.56-7.36,14.31l6.68,3.83s5.87-1.74,14.08-4.37C127.89,158.77,121.78,156.84,117.17,157.38Z"/><path class="cls-3" d="M145.48,146.35c-3.81-7.1-11.11-7.65-16.46-6.91a118.6,118.6,0,0,0-11.86,17.93c4.61-.54,10.72,1.39,13.4,13.78,5.67-1.82,12.45-4.06,19.2-6.46A37.26,37.26,0,0,0,145.48,146.35Z"/><path class="cls-4" d="M106.77,189H72c-27.28,0-49.59-16-49.59-49.59V60.68A60.86,60.86,0,0,1,83.11,0H95.69a60.86,60.86,0,0,1,60.68,60.68v78.76C156.36,175.52,134,189,106.77,189Z"/><path class="cls-5" d="M125.32,62.7a12,12,0,1,1,12-12A12,12,0,0,1,125.32,62.7Z"/><path class="cls-5" d="M75.8,75.5c-23.64,5-36,24.5-42.62,44.64S8.44,189.4,77,190.17l29.76.52s64.56-1.53,41.62-58c0,0-19.4-52-39.85-56S75.8,75.5,75.8,75.5Z"/><path class="cls-1" d="M108.15,41.08S124.31,4.47,158.51,0L147.34,8.94s14.61-1.55,21,2.06c0,0-23.55,2.75-25.61,4.81,0,0,12,0,15.47,3.09,0,0-19.08,2.58-23.72,6,0,0,8.42-.17,10.66,2.06C145.1,27,116.4,34.38,108.15,41.08Z"/><path class="cls-1" d="M72.85,41.08S56.7,4.47,22.49,0L33.66,8.94S19.05,7.39,12.69,11c0,0,23.55,2.75,25.61,4.81,0,0-12,0-15.47,3.09,0,0,19.08,2.58,23.72,6,0,0-8.42-.17-10.66,2.06C35.9,27,64.6,34.38,72.85,41.08Z"/><path class="cls-1" d="M77.13,62.46s12.83-7.53,25.94,0c0,0-3.71,6.25-13,6.06S77.13,62.46,77.13,62.46Z"/><circle class="cls-4" cx="125.32" cy="50.74" r="8.45"/><path class="cls-5" d="M54.22,62.7a12,12,0,1,1,12-12A12,12,0,0,1,54.22,62.7Z"/><path class="cls-4" d="M22.43,74.55s-32,42.4-19.55,62.21S8,119.87,33.29,103.65,22.43,74.55,22.43,74.55Z"/><path class="cls-4" d="M156,77.1s32,42.4,19.55,62.21-5.09-16.89-30.41-33.11S156,77.1,156,77.1Z"/><path class="cls-6" d="M144.57,69.21c-.63-1.38-9.39-6.56-16-5.26s-7.43,5.23-6.58,7.24c.62,1.47,2,3,6.07,4.11A31.2,31.2,0,0,0,137,76a12.63,12.63,0,0,0,7.19-3.25C145.78,70.8,145.26,70.73,144.57,69.21Z"/><path class="cls-6" d="M35.93,69.21c.63-1.38,9.39-6.56,16-5.26s7.43,5.23,6.58,7.24c-.62,1.47-2,3-6.07,4.11a31.2,31.2,0,0,1-8.91.67,12.63,12.63,0,0,1-7.19-3.25C34.73,70.8,35.25,70.73,35.93,69.21Z"/><circle class="cls-4" cx="54.21" cy="50.74" r="8.45"/></g></g></svg>