<svg xmlns="http://www.w3.org/2000/svg" viewBox="0 0 161.9 188.66"><defs><style>.cls-1{fill:#f5d44c;}.cls-2{fill:#565656;}.cls-3{fill:#8e8e8e;}.cls-4{fill:#fff;}.cls-5{fill:red;}</style></defs><title>penguin</title><g id="Layer_2" data-name="Layer 2"><g id="Layer_1-2" data-name="Layer 1"><polygon class="cls-1" points="45.67 167.24 63.72 170.28 63.72 188.66 55.45 180.56 48.03 187.65 45.67 177.95 32.01 183.6 45.67 167.24"/><polygon class="cls-1" points="120.67 167.24 102.62 170.28 102.62 188.66 110.88 180.56 118.31 187.65 120.67 177.95 134.33 183.6 120.67 167.24"/><path class="cls-2" d="M106.32,142.8c-2.37,4.3-4.55,8.67-6.68,13l6.06,3.48s5.33-1.58,12.77-4C116.05,144.06,110.5,142.31,106.32,142.8Z"/><path class="cls-3" d="M132,132.8c-3.46-6.44-10.08-6.94-14.93-6.27a107.62,107.62,0,0,0-10.76,16.27c4.19-.49,9.73,1.26,12.15,12.5,5.15-1.65,11.3-3.69,17.43-5.86A33.81,33.81,0,0,0,132,132.8Z"/><path d="M96.88,171.53H65.36c-24.75,0-45-14.53-45-45V55.06A55.22,55.22,0,0,1,75.41,0H86.83a55.22,55.22,0,0,1,55.06,55.06v71.47C141.88,159.27,121.63,171.53,96.88,171.53Z"/><path class="cls-4" d="M113.72,56.89A10.85,10.85,0,1,1,124.57,46,10.86,10.86,0,0,1,113.72,56.89Z"/><path class="cls-4" d="M68.78,68.51C47.33,73.05,36.08,90.74,30.11,109S7.66,171.86,69.89,172.55l27,.47s58.58-1.39,37.77-52.65c0,0-17.6-47.18-36.16-50.78S68.78,68.51,68.78,68.51Z"/><path class="cls-1" d="M98.13,37.28S112.79,4.06,143.83,0L133.69,8.11s13.26-1.4,19,1.87c0,0-21.37,2.5-23.24,4.37,0,0,10.92,0,14,2.81,0,0-17.31,2.34-21.52,5.46,0,0,7.64-.16,9.67,1.87C131.67,24.49,105.62,31.19,98.13,37.28Z"/><path class="cls-1" d="M66.11,37.28S51.45,4.06,20.41,0L30.55,8.11s-13.26-1.4-19,1.87c0,0,21.37,2.5,23.24,4.37,0,0-10.92,0-14,2.81,0,0,17.31,2.34,21.52,5.46,0,0-7.64-.16-9.67,1.87C32.57,24.49,58.62,31.19,66.11,37.28Z"/><path class="cls-1" d="M70,56.67s11.64-6.83,23.54,0c0,0-3.36,5.67-11.77,5.5S70,56.67,70,56.67Z"/><circle cx="113.72" cy="46.04" r="8.85"/><path class="cls-4" d="M49.19,56.89A10.85,10.85,0,1,1,60,46,10.86,10.86,0,0,1,49.19,56.89Z"/><circle cx="49.19" cy="46.04" r="8.85"/><path d="M20.36,67.65S-8.7,106.12,2.62,124.1s4.62-15.33,27.59-30S20.36,67.65,20.36,67.65Z"/><path d="M141.54,70s29.05,38.47,17.74,56.45-4.62-15.33-27.59-30S141.54,70,141.54,70Z"/><path class="cls-5" d="M131.18,62.8c-.57-1.25-8.52-5.95-14.51-4.77s-6.74,4.75-6,6.57c.57,1.34,1.77,2.76,5.51,3.73a28.31,28.31,0,0,0,8.09.61A11.46,11.46,0,0,0,130.81,66C132.28,64.25,131.8,64.18,131.18,62.8Z"/><path class="cls-5" d="M32.61,62.8c.57-1.25,8.52-5.95,14.51-4.77s6.74,4.75,6,6.57c-.57,1.34-1.77,2.76-5.51,3.73a28.31,28.31,0,0,1-8.09.61A11.46,11.46,0,0,1,33,66C31.51,64.25,32,64.18,32.61,62.8Z"/></g></g></svg>