<svg xmlns="http://www.w3.org/2000/svg" viewBox="0 0 144.56 207.92"><defs><style>.cls-1{fill:#f9e075;}.cls-2{fill:#1e1e1e;}.cls-3{fill:#f0f0f0;}.cls-4{fill:#e86464;}</style></defs><title>penguin-side</title><g id="Layer_2" data-name="Layer 2"><g id="Layer_1-2" data-name="Layer 1"><path class="cls-1" d="M104.23,201.43c-4.33,3-19.66,7.43-37,6.31-4-.26,2-4.5,2-4.5s-14.08,1.51-16.22-.15,7.58-5,7.58-5-10.32.82-10.87-2.28,49.37-13.71,55.79-5.87C110.47,196,108.56,198.44,104.23,201.43Z"/><polygon class="cls-2" points="102.63 197.24 144.21 189.4 128.15 187.7 144.21 180.88 128.15 182.7 144.56 174.52 117.01 182.7 102.63 197.24"/><path class="cls-2" d="M133.65,165.58c2.22-15.81.3-101.33.3-101.33A56.38,56.38,0,0,0,77.73,8h-1A56.38,56.38,0,0,0,20.54,64.24V90.3a6.4,6.4,0,0,1,.77,0,5.94,5.94,0,0,1,1.75.25,6.24,6.24,0,0,1,.86-.07c4.36,0,6.07,4.1,5.15,7.33a16.93,16.93,0,0,1,10.68,7.43c6.93,11,22.52,36.32,22.9,55.77.34,17.6-14.61,27.14-23.1,29.88a45.63,45.63,0,0,0,26.94,8.8H88C113.27,199.65,131.43,181.39,133.65,165.58Z"/><path class="cls-3" d="M126.09,166.49c2.12-26-40-53.56-57.4-66.67-13-9.78-36.81-10.06-48.11-9.58-2.44,20.59-6.43,49.69-5.68,52.82,0,18.2,18.67,57.87,53.31,59.14C102.67,200.66,124.37,187.48,126.09,166.49Z"/><path class="cls-3" d="M41.28,67.12c-4.66,0-8.46-5.44-8.46-12.12s3.79-12.12,8.46-12.12S49.73,48.31,49.73,55,45.94,67.12,41.28,67.12Z"/><path class="cls-2" d="M73.85,86s-30.33,73.62-4.73,97.61,1-26.42,31.52-59.54S73.85,86,73.85,86Z"/><path class="cls-1" d="M24.67,43S40,5.49,74.55,0L63.48,9.37s14.76-2,21.31,1.5c0,0-23.78,3.45-25.82,5.59,0,0,12.19-.34,15.76,2.7,0,0-19.26,3.15-23.87,6.76,0,0,8.53-.41,10.86,1.79C61.72,27.72,32.84,36,24.67,43Z"/><path class="cls-1" d="M0,66.13c-.5-3.09,28.5-17.92,28.49,2.3C28.48,78.75,10.31,73.39,0,66.13Z"/><path class="cls-4" d="M56.19,72.5c-.63-1.4-9.52-6.65-16.21-5.33s-7.53,5.31-6.67,7.34c.63,1.49,2,3.09,6.16,4.16a31.63,31.63,0,0,0,9,.68,12.8,12.8,0,0,0,7.28-3.3C57.41,74.11,56.88,74,56.19,72.5Z"/><ellipse class="cls-2" cx="38.88" cy="55" rx="6.06" ry="8.57"/></g></g></svg>