<svg xmlns="http://www.w3.org/2000/svg" viewBox="0 0 126.71 207.92"><defs><style>.cls-1,.cls-5{fill:#fbdadd;}.cls-2{fill:#1e1e1e;}.cls-3{fill:#f8c5cf;}.cls-4{fill:#b3b3b3;}.cls-5{stroke:#f8c5cf;stroke-miterlimit:10;stroke-width:0.96px;}</style></defs><title>pig-side</title><g id="Layer_2" data-name="Layer 2"><g id="Layer_1-2" data-name="Layer 1"><path class="cls-1" d="M107.77,136.88V60.39A48.21,48.21,0,0,0,59.7,12.32h-.83A48.21,48.21,0,0,0,10.8,60.39v76.49a39.41,39.41,0,0,0,39.29,39.29h18.4C90.09,176.17,113.64,158.43,107.77,136.88Z"/><circle class="cls-2" cx="32.61" cy="56.3" r="8.45"/><path class="cls-3" d="M126,121.12a8.92,8.92,0,0,0-8.84,2.69,7.89,7.89,0,0,0-1.92,0c-6.79.72-9.11,8.32-8.46,14.08.14,1.21,2,1.22,1.91,0-.35-3.08-.15-6.24,1.65-8.88a7.42,7.42,0,0,1,5.64-3.33,8.23,8.23,0,0,0-.69,2.74c-.15,1.86.25,4.66,2.15,5.6a4.44,4.44,0,0,0,5.08-1.76c.81-1.7-.29-5-1.39-6.31a5.61,5.61,0,0,0-1.92-1.5,7,7,0,0,1,6.28-1.45C126.71,123.25,127.22,121.4,126,121.12Zm-5.21,9.9q-3.28,2.23-3.35-.52a4.48,4.48,0,0,1-.1-2.85A6.39,6.39,0,0,1,118,126a4.77,4.77,0,0,1,.69.36C119.69,127.07,121.47,129.56,120.81,131Z"/><path class="cls-3" d="M65.14.68c3.91,2.83,3.34,18.94,1.75,22.6s-7.48,1.23-7.48,1.23Z"/><path class="cls-1" d="M65.14.68C62-3.18,51.45,10.45,51.45,12.88c0,3.66,5.68,13.05,9.64,11.46S69.28,5.78,65.14.68Z"/><path class="cls-3" d="M37.3,139.47c-.24-15.79-10-36.37-14.37-45.28A11,11,0,0,0,15.65,88a3.8,3.8,0,0,0-4.77,3.67l-7.2,29a75,75,0,0,0-.55,9c.61,12.66,8.65,30.81,18.23,33.7a3.53,3.53,0,0,0,2.65-.22C29.42,160.38,37.5,152.75,37.3,139.47Z"/><path class="cls-1" d="M1.17,52.1S13,50.22,15.54,51.38s8.9,12.83,4.6,20C17.41,76,11.56,75.9,7.45,74.71,5.11,74,3.34,73,3,72.28,2.19,70.33-2,54.12,1.17,52.1Z"/><ellipse class="cls-3" cx="2.4" cy="62.71" rx="1.45" ry="7.87" transform="translate(-10.84 1.37) rotate(-9.99)"/><path class="cls-4" d="M68.12,135.25c1.08,7.64-4.45,2.78-7.52,3.28-4.38.71-8.6,4.78-8.9-1.45-.07-1.43-.16-3.22-.26-5.24h17A17.42,17.42,0,0,0,68.12,135.25Z"/><path class="cls-5" d="M71.19,112c.13,3.15-2,14.06-2.8,19.85h-17a.54.54,0,0,1,0-.12c0-.78-.08-1.61-.11-2.46-.43-8.86-.91-20.67-.51-27,.53-8.54,3.32-17.28,8.83-18.67,0,0,2.83-3.41,10.35.25S71,107.94,71.19,112Z"/><path class="cls-5" d="M68.38,132.38c.06-.28-16.92-1.08-16.92-1.08"/><path class="cls-1" d="M69.61,198.59s-17.42,8.83-18.4,1-5.05-21.2-5.05-21.2-10.32-21,9.63-28.52S84,155.64,84,155.64s-11.73,37.72-14.43,43"/><path class="cls-4" d="M51.23,201.67c-1.33,8.75,4.91,3.27,8.31,3.89,4.87.89,9.49,5.63,9.93-1.52.1-1.64.24-3.69.38-6L51,197.74A20.61,20.61,0,0,1,51.23,201.67Z"/></g></g></svg>