<svg xmlns="http://www.w3.org/2000/svg" viewBox="0 0 161.05 207.92"><defs><style>.cls-1{fill:#b3b3b3;}.cls-2,.cls-3{fill:#fbdadd;}.cls-3{stroke:#f8c5cf;stroke-width:0.97px;}.cls-3,.cls-6{stroke-miterlimit:10;}.cls-4{fill:#1e1e1e;}.cls-5{fill:#f8c5cf;}.cls-6{fill:none;stroke:#000;stroke-width:0.6px;}</style></defs><title>pig-front</title><g id="Layer_2" data-name="Layer 2"><g id="Layer_1-2" data-name="Layer 1"><path class="cls-1" d="M16.81,134.24c-1.22,7.76-5.16,1.38-8.29,1-4.48-.62-9.79,2.09-8.24-4.06.36-1.42.8-3.18,1.31-5.18l16.51,5A17.73,17.73,0,0,0,16.81,134.24Z"/><path class="cls-2" d="M26.72,112.5c-.81,3.11-6.12,13.1-8.63,18.5L1.58,126a.55.55,0,0,1,0-.12l.62-2.43C4.45,114.63,7.5,103,9.77,96.95c3.06-8.16,8.37-15.84,14.14-15.55,0,0,3.77-2.48,10,3.32S27.74,108.5,26.72,112.5Z"/><path class="cls-1" d="M144.24,136.86c1.22,7.76,5.16,1.38,8.29,1,4.48-.62,9.79,2.09,8.24-4.06-.36-1.42-.8-3.18-1.31-5.18l-16.51,5A17.73,17.73,0,0,1,144.24,136.86Z"/><path class="cls-2" d="M134.32,115.12c.81,3.11,6.12,13.1,8.63,18.5l16.51-5a.55.55,0,0,0,0-.12l-.62-2.43c-2.22-8.76-5.26-20.4-7.54-26.45-3.06-8.16-8.37-15.84-14.14-15.55,0,0-3.77-2.48-10,3.32S133.31,111.12,134.32,115.12Z"/><path class="cls-3" d="M17.91,131.52c.14-.26-16.16-6.08-16.16-6.08"/><path class="cls-2" d="M75,11h11.1A53.55,53.55,0,0,1,139.6,64.57v69.51a43.76,43.76,0,0,1-43.76,43.76H65.17a43.76,43.76,0,0,1-43.76-43.76V64.57A53.55,53.55,0,0,1,75,11Z"/><circle class="cls-4" cx="114.42" cy="48.06" r="8.61" transform="translate(-9.62 52.05) rotate(-24.63)"/><circle class="cls-4" cx="47.25" cy="48.06" r="8.61"/><ellipse class="cls-5" cx="82.45" cy="66.95" rx="27.02" ry="15.81"/><ellipse class="cls-4" cx="72.21" cy="66.1" rx="2.37" ry="4.86"/><ellipse class="cls-4" cx="93.35" cy="66.1" rx="2.37" ry="4.86"/><path class="cls-2" d="M28,6.56,26.64,22.9a7.17,7.17,0,0,0,10.73,6.82l16.26-9.39a7.17,7.17,0,0,0-.55-12.7L38.23.68A7.17,7.17,0,0,0,28,6.56Z"/><path class="cls-2" d="M123.58,1.82l-14.85,7a7.17,7.17,0,0,0-.55,12.7l16.26,9.39A7.17,7.17,0,0,0,135.17,24L133.76,7.7A7.17,7.17,0,0,0,123.58,1.82Z"/><path class="cls-2" d="M120.38,198.42s-17.73,9-18.73,1-5.15-21.58-5.15-21.58-10.51-21.38,9.81-29,28.76,5.89,28.76,5.89-11.94,38.4-14.69,43.73"/><path class="cls-1" d="M101.66,201.55c-1.36,8.91,5,3.33,8.46,4,5,.9,9.66,5.73,10.11-1.54.1-1.67.24-3.76.38-6.13l-19.21-.29A21,21,0,0,1,101.66,201.55Z"/><path class="cls-2" d="M41.3,197.85s17.73,9,18.73,1,5.15-21.58,5.15-21.58,10.51-21.38-9.81-29-28.76,5.89-28.76,5.89,11.94,38.4,14.69,43.73"/><path class="cls-1" d="M60,201c1.36,8.91-5,3.33-8.46,4-5,.9-9.66,5.73-10.11-1.54-.1-1.67-.24-3.76-.38-6.13L60.26,197A21,21,0,0,0,60,201Z"/><path class="cls-5" d="M72,95c-17.28,3.2-26.32,15.79-31.11,28.8s-18,44.75,32.17,45.34l21.77.38s52.11-1.3,28.16-45.4c0,0-12.06-25.7-27-28.3S72,95,72,95Z"/><line class="cls-6" x1="85.36" y1="148.93" x2="78.15" y2="153.55"/><line class="cls-6" x1="78.15" y1="148.93" x2="85.36" y2="153.7"/></g></g></svg>