<svg xmlns="http://www.w3.org/2000/svg" viewBox="0 0 165.59 213.79"><defs><style>.cls-1{fill:#b3b3b3;}.cls-2,.cls-3{fill:#fbdadd;}.cls-3{stroke:#f8c5cf;}.cls-3,.cls-5{stroke-miterlimit:10;}.cls-4{fill:#f8c5cf;}.cls-5{fill:none;stroke:#000;stroke-width:0.62px;}</style></defs><title>pig</title><g id="Layer_2" data-name="Layer 2"><g id="Layer_1-2" data-name="Layer 1"><path class="cls-1" d="M17.28,138c-1.26,8-5.31,1.42-8.53,1-4.61-.63-10.07,2.15-8.47-4.18.37-1.46.82-3.27,1.35-5.33l17,5.18A18.23,18.23,0,0,0,17.28,138Z"/><path class="cls-2" d="M27.48,115.67c-.83,3.2-6.3,13.47-8.87,19l-17-5.18a.57.57,0,0,1,0-.13l.64-2.5c2.28-9,5.41-21,7.75-27.19,3.15-8.39,8.61-16.29,14.54-16,0,0,3.87-2.55,10.28,3.41S28.52,111.56,27.48,115.67Z"/><path class="cls-1" d="M148.31,140.72c1.26,8,5.31,1.42,8.53,1,4.61-.63,10.07,2.15,8.47-4.18-.37-1.46-.82-3.27-1.35-5.33l-17,5.18A18.23,18.23,0,0,1,148.31,140.72Z"/><path class="cls-2" d="M138.12,118.37c.83,3.2,6.3,13.47,8.87,19l17-5.18a.57.57,0,0,0,0-.13l-.64-2.5c-2.28-9-5.41-21-7.75-27.19-3.15-8.39-8.61-16.29-14.54-16,0,0-3.87-2.55-10.28,3.41S137.07,114.25,138.12,118.37Z"/><path class="cls-3" d="M18.42,135.23C18.56,135,1.81,129,1.81,129"/><path class="cls-2" d="M77.07,11.34H88.48a55.06,55.06,0,0,1,55.06,55.06v71.47a45,45,0,0,1-45,45H67a45,45,0,0,1-45-45V66.39A55.06,55.06,0,0,1,77.07,11.34Z"/><circle cx="117.65" cy="49.42" r="8.85" transform="translate(-9.89 53.52) rotate(-24.63)"/><circle cx="48.58" cy="49.42" r="8.85"/><ellipse class="cls-4" cx="84.78" cy="68.85" rx="27.78" ry="16.25"/><ellipse cx="74.25" cy="67.97" rx="2.44" ry="5"/><ellipse cx="95.99" cy="67.97" rx="2.44" ry="5"/><path class="cls-2" d="M28.84,6.75l-1.45,16.8a7.37,7.37,0,0,0,11,7l16.72-9.65a7.37,7.37,0,0,0-.56-13.06L39.3.7A7.37,7.37,0,0,0,28.84,6.75Z"/><path class="cls-2" d="M127.07,1.87,111.8,9a7.37,7.37,0,0,0-.56,13.06L128,31.74a7.37,7.37,0,0,0,11-7l-1.45-16.8A7.37,7.37,0,0,0,127.07,1.87Z"/><path class="cls-2" d="M123.78,204s-18.23,9.25-19.26,1-5.29-22.19-5.29-22.19-10.8-22,10.09-29.86,29.57,6.06,29.57,6.06-12.28,39.49-15.1,45"/><path class="cls-1" d="M104.53,207.25c-1.4,9.17,5.14,3.42,8.7,4.07,5.1.93,9.93,5.89,10.4-1.59.1-1.72.25-3.87.4-6.3l-19.76-.3A21.58,21.58,0,0,1,104.53,207.25Z"/><path class="cls-2" d="M42.46,203.44s18.23,9.25,19.26,1S67,182.27,67,182.27s10.8-22-10.09-29.86-29.57,6.06-29.57,6.06,12.28,39.49,15.1,45"/><path class="cls-1" d="M61.7,206.65c1.4,9.17-5.14,3.42-8.7,4.07-5.1.93-9.93,5.89-10.4-1.59-.1-1.72-.25-3.87-.4-6.3l19.76-.3A21.58,21.58,0,0,0,61.7,206.65Z"/><path class="cls-4" d="M74,97.72C56.21,101,46.92,114,42,127.34s-18.5,46,33.08,46.62l22.39.39s53.58-1.34,29-46.68c0,0-12.4-26.43-27.79-29.1S74,97.72,74,97.72Z"/><line class="cls-5" x1="87.77" y1="153.14" x2="80.36" y2="157.89"/><line class="cls-5" x1="80.36" y1="153.14" x2="87.77" y2="158.04"/></g></g></svg>