<svg xmlns="http://www.w3.org/2000/svg" viewBox="0 0 180.72 207.92"><defs><style>.cls-1,.cls-5{fill:#8e8e8e;}.cls-2{fill:#e5e5e5;}.cls-3{fill:#1e1e1e;}.cls-4{fill:#565656;}.cls-5{stroke:gray;stroke-miterlimit:10;stroke-width:0.95px;}</style></defs><title>raccoon-side</title><g id="Layer_2" data-name="Layer 2"><g id="Layer_1-2" data-name="Layer 1"><path class="cls-1" d="M110.91,139.21V62.93A48.07,48.07,0,0,0,63,15h-.83A48.07,48.07,0,0,0,14.22,62.93V91c3.85-.35,12-.14,16.37,6.83,5.91,9.35,19.2,31,19.53,47.55.29,15-12.46,23.14-19.69,25.48a38.9,38.9,0,0,0,23,7.5H71.73C93.28,178.38,116.77,160.69,110.91,139.21Z"/><path class="cls-2" d="M50.11,145.4c-.32-16.59-13.62-38.2-19.53-47.55-4.41-7-12.52-7.18-16.37-6.83v48.19a39.18,39.18,0,0,0,16.2,31.67C37.66,168.55,50.4,160.41,50.11,145.4Z"/><circle class="cls-3" cx="35.97" cy="58.86" r="8.43"/><path class="cls-2" d="M2.95,55.74s11.92-1.28,14.34,0S25.52,69,20.88,75.94s-16.35,2-17.09,0S-.32,57.59,2.95,55.74Z"/><path class="cls-3" d="M10.47,68.15c-.63-.43-1.52,0-2.94.71a12.83,12.83,0,0,1-5.06,1.37l.72,3.36a13.15,13.15,0,0,0,4.7-1.2C9,72,11,71.08,11.09,69.76A1.77,1.77,0,0,0,10.47,68.15Z"/><rect class="cls-3" y="55.18" width="7.3" height="6.65" rx="2.31" ry="2.31"/><path class="cls-1" d="M69.85,151.15a32.68,32.68,0,0,0-11.34-2.29c-14.28,3-11.39,25.21-11.39,25.21,3.44,10.67,7.5,22.87,8.95,25.69,0,0-6.77,8.15-2.2,8.15H68.54s4.89.65,5.87-7.18,5-21.14,5-21.14S89.74,158.65,69.85,151.15Z"/><path class="cls-4" d="M103.56,138.44c-1.12,5.46-2,10.94-2.86,16.34l7.75,1.73s5.25-3.51,12.52-8.61C114.54,136.52,107.94,136.49,103.56,138.44Z"/><path class="cls-1" d="M128,118.92c-5.92-5.82-13.27-4.13-18.31-1.76a122.24,122.24,0,0,0-6.18,21.28c4.37-1.94,11-1.91,17.4,9.46,5-3.53,11-7.81,16.92-12.24A38.41,38.41,0,0,0,128,118.92Z"/><path class="cls-4" d="M174.49,62.36c-1.79,1.25-10.56,3.88-21.82,10,8.07.57,17.87,4.56,22.69,19.12a115.47,115.47,0,0,0,5.09-16.75C181.88,68,177.43,60.31,174.49,62.36Z"/><path class="cls-4" d="M124,94.16a76.21,76.21,0,0,0-14.23,23c5-2.37,12.39-4.06,18.31,1.76a38.41,38.41,0,0,1,9.84,16.74A242.54,242.54,0,0,0,158,119.25C151.66,103.45,138.12,95.63,124,94.16Z"/><path class="cls-1" d="M152.67,72.36A119.66,119.66,0,0,0,129.07,89c-1.83,1.67-3.52,3.38-5.1,5.12,14.15,1.47,27.7,9.29,34,25.09l.53-.5c7.94-7.68,13.36-18.23,16.86-27.28C170.54,76.92,160.74,72.93,152.67,72.36Z"/><path class="cls-5" d="M75.06,122.5c-.59-5.91-1.13-11.69-2-15.38-2-8.26-6.22-16.33-11.85-16.74,0,0-3.35-2.85-10.08,2s3.14,23.76,3.65,27.76c.29,2.24,2.15,8.3,3.89,13.56C61.77,122,69.08,121,75.06,122.5Z"/><path class="cls-4" d="M75.06,122.5c-6-1.51-13.29-.52-16.39,11.22,1.37,4.13,2.68,7.76,3.11,8.68,1,2.09,3.66,2.4,7.62,4.34s11.6,1.85,8.75-5.38C76.57,137.36,75.78,129.83,75.06,122.5Z"/><path class="cls-1" d="M64.58.86c4.94,3.57,4.22,23.93,2.21,28.56S57.34,31,57.34,31Z"/><path class="cls-4" d="M64.58.86c-4-4.88-17.3,12.34-17.3,15.41,0,4.63,7.18,16.5,12.18,14.48S69.81,7.3,64.58.86Z"/><path class="cls-2" d="M38,41.59c3.91.77,20.46,14.09,19,25.06s-11.85,13-17.51,12c-4.15-.75-8.78-2.63-12.87-9.13a33.9,33.9,0,0,1-4.49-14.37c-.26-5,3.91-10.58,6.59-12.28C33.4,39.92,33.76,40.75,38,41.59Z"/><path class="cls-4" d="M37.38,46.88c3.18.63,16.67,11.48,15.45,20.41s-9.65,10.62-14.27,9.79c-3.38-.61-7.15-2.14-10.49-7.44a27.62,27.62,0,0,1-3.66-11.71c-.21-4,3.18-8.62,5.37-10C33.6,45.51,33.9,46.19,37.38,46.88Z"/><circle class="cls-3" cx="33.04" cy="57.97" r="8.4"/></g></g></svg>