<svg xmlns="http://www.w3.org/2000/svg" viewBox="0 0 193.8 207.92"><defs><style>.cls-1{fill:#8e8e8e;}.cls-2{fill:#565656;}.cls-3{fill:#e5e5e5;}.cls-4{fill:#1e1e1e;}</style></defs><title>raccoon-front</title><g id="Layer_2" data-name="Layer 2"><g id="Layer_1-2" data-name="Layer 1"><path class="cls-1" d="M6.57,108.27c1.34-6.12,2.61-12.1,4-15.85C13.66,84,19.07,76.08,25,76.33c0,0,3.85-2.58,10.3,3.35s-6.19,24.49-7.22,28.61c-.58,2.31-3.26,8.43-5.73,13.72C20.54,109.35,13,107.42,6.57,108.27Z"/><path class="cls-2" d="M111,149.45c-2.37,4.3-4.55,8.67-6.68,13l6.06,3.48s5.33-1.58,12.77-4C120.7,150.71,115.16,149,111,149.45Z"/><path class="cls-1" d="M136.66,139.45c-3.46-6.44-10.08-6.94-14.93-6.27A107.62,107.62,0,0,0,111,149.45c4.19-.49,9.73,1.26,12.15,12.5,5.15-1.65,11.3-3.69,17.43-5.86A33.81,33.81,0,0,0,136.66,139.45Z"/><path class="cls-2" d="M190.5,104.06c-1.83.59-9.89.5-21,2.69,6.64,2.59,13.83,8.51,14.07,22A101.66,101.66,0,0,0,192.27,116C195.23,110.74,193.5,103.09,190.5,104.06Z"/><path class="cls-2" d="M139.71,117.57a67.09,67.09,0,0,0-18,15.61c4.85-.67,11.47-.17,14.93,6.27a33.81,33.81,0,0,1,3.89,16.64,213.53,213.53,0,0,0,21.17-8.54C160.56,132.63,151.22,122.51,139.71,117.57Z"/><path class="cls-1" d="M169.54,106.75a105.35,105.35,0,0,0-24.21,7.85c-2,.92-3.84,1.92-5.63,3,11.51,4.94,20.85,15.05,22,30l.57-.28c8.68-4.38,16-11.83,21.31-18.52C183.37,115.26,176.18,109.34,169.54,106.75Z"/><path class="cls-1" d="M80.07,6.65H91.48a55.06,55.06,0,0,1,55.06,55.06v71.47a45,45,0,0,1-45,45H70a45,45,0,0,1-45-45V61.71A55.06,55.06,0,0,1,80.07,6.65Z"/><path class="cls-1" d="M30.35,154.38s12.28,39.49,15.1,45c0,0-7.11,8.56-2.31,8.56H58.55s5.14.68,6.16-7.53S70,178.18,70,178.18s10.8-22-10.09-29.86S30.35,154.38,30.35,154.38Z"/><path class="cls-1" d="M141.87,154.38s-12.28,39.49-15.1,45c0,0,7.11,8.56,2.31,8.56H113.67s-5.14.68-6.16-7.53-5.29-22.19-5.29-22.19-10.8-22,10.09-29.86S141.87,154.38,141.87,154.38Z"/><path class="cls-1" d="M50.53,24.71C55,19.86,56.72,18,55.15,14.41S45.66,3.61,35.72.87,22.33,2.13,20.91,9.52,27,34.42,34.5,35.26,50.53,24.71,50.53,24.71Z"/><path class="cls-1" d="M121.46,24.71c-4.46-4.85-6.19-6.67-4.62-10.3S126.33,3.61,136.27.87s13.39,1.27,14.81,8.65S145,34.42,137.49,35.26,121.46,24.71,121.46,24.71Z"/><path class="cls-3" d="M120.56,34.47c4.12.81,21.56,14.85,20,26.4s-12.49,13.74-18.46,12.66c-4.37-.79-9.25-2.77-13.57-9.62a35.72,35.72,0,0,1-4.73-15.14c-.27-5.23,4.12-11.14,6.94-12.94C115.66,32.7,116,33.58,120.56,34.47Z"/><path class="cls-2" d="M119.86,40c3.35.66,17.56,12.09,16.28,21.51S126,72.74,121.1,71.86c-3.56-.64-7.53-2.26-11.05-7.84a29.1,29.1,0,0,1-3.86-12.34c-.22-4.26,3.36-9.08,5.65-10.54C115.88,38.59,116.19,39.31,119.86,40Z"/><circle class="cls-4" cx="118.37" cy="52.69" r="8.85"/><path class="cls-3" d="M51.49,34.47c-4.11.81-21.55,14.85-20,26.4S44,74.61,50,73.53c4.37-.79,9.24-2.77,13.56-9.62a35.74,35.74,0,0,0,4.73-15.14c.27-5.23-4.12-11.14-6.94-12.94C56.38,32.7,56,33.58,51.49,34.47Z"/><path class="cls-2" d="M52,40c-3.35.66-17.56,12.09-16.28,21.51s10.17,11.19,15,10.32c3.56-.64,7.53-2.26,11.05-7.84a29.1,29.1,0,0,0,3.86-12.34c.22-4.26-3.36-9.08-5.65-10.54C56,38.59,55.72,39.31,52,40Z"/><circle class="cls-4" cx="53.85" cy="52.69" r="8.85"/><path class="cls-3" d="M83.2,43.65c-5.92,1.18-9,5.78-10.66,10.53s-6.17,16.36,11,16.55l7.45.13s17.83-.5,9.65-16.6c0,0-4.12-9.39-9.24-10.33A23.09,23.09,0,0,0,83.2,43.65Z"/><rect class="cls-4" x="79.97" y="42.56" width="13.49" height="7.41" rx="3.71" ry="3.71" transform="translate(0.81 -1.5) rotate(0.99)"/><path class="cls-4" d="M93.63,59.78c1.48-.72,2.43-1.2,3.08-.75a1.87,1.87,0,0,1,.65,1.69c-.14,1.39-2.24,2.35-3.35,2.77a25.73,25.73,0,0,1-16.49,0c-1.11-.42-3.21-1.38-3.35-2.77A1.87,1.87,0,0,1,74.83,59c.66-.45,1.6,0,3.08.75,3,1.71,7.86,1.55,7.86,1.55S90.66,61.49,93.63,59.78Z"/><path class="cls-2" d="M124.78,22.81c-3.26-3.54-4.52-4.87-3.37-7.52S128.34,7.4,135.6,5.4s9.77.92,10.81,6.32S142,29.89,136.48,30.51,124.78,22.81,124.78,22.81Z"/><path class="cls-2" d="M47.46,22.81c3.35-3.54,4.64-4.87,3.46-7.52S43.8,7.4,36.35,5.4s-10,.92-11.11,6.32,4.57,18.18,10.2,18.79S47.46,22.81,47.46,22.81Z"/><path class="cls-3" d="M76.07,79.62C58.29,83.56,49,98.83,44,114.6s-18.64,54.26,32.94,54.82l22.39.39s53.59-1.74,29.1-55.08c0,0-12.32-31.1-27.7-34.2S76.07,79.62,76.07,79.62Z"/><path class="cls-1" d="M164.33,108.27c-1.34-6.12-2.61-12.1-4-15.85-3.09-8.41-8.51-16.34-14.44-16.08,0,0-3.85-2.58-10.3,3.35s6.19,24.49,7.22,28.61c.58,2.31,3.26,8.43,5.73,13.72C150.35,109.35,157.89,107.42,164.33,108.27Z"/><path class="cls-2" d="M164.33,108.27c-6.44-.85-14,1.08-15.79,13.75,1.94,4.15,3.75,7.8,4.32,8.7,1.29,2.06,4.12,2.06,8.51,3.61s12.37.52,8.51-6.7C167.73,123.63,166,115.85,164.33,108.27Z"/><path class="cls-2" d="M6.57,108.27c6.44-.85,14,1.08,15.79,13.75-1.94,4.15-3.75,7.8-4.32,8.7-1.29,2.06-4.12,2.06-8.51,3.61s-12.37.52-8.51-6.7C3.17,123.63,4.91,115.85,6.57,108.27Z"/></g></g></svg>