<svg xmlns="http://www.w3.org/2000/svg" viewBox="0 0 257.13 275.85"><defs><style>.cls-1{fill:#565656;}.cls-2{fill:#8e8e8e;}.cls-3{fill:#e5e5e5;}</style></defs><title>racoon</title><g id="Layer_2" data-name="Layer 2"><g id="Layer_1-2" data-name="Layer 1"><path class="cls-1" d="M147.23,198.28c-3.15,5.7-6,11.5-8.86,17.23l8,4.62s7.07-2.09,16.95-5.26C160.14,200,152.78,197.63,147.23,198.28Z"/><path class="cls-2" d="M181.31,185c-4.59-8.54-13.37-9.21-19.81-8.32a142.78,142.78,0,0,0-14.27,21.59c5.55-.65,12.91,1.68,16.13,16.59,6.83-2.19,15-4.89,23.12-7.78A44.86,44.86,0,0,0,181.31,185Z"/><path class="cls-1" d="M252.74,138.06c-2.43.78-13.13.66-27.81,3.57,8.81,3.44,18.35,11.29,18.67,29.19a134.88,134.88,0,0,0,11.49-16.92C259,146.92,256.73,136.78,252.74,138.06Z"/><path class="cls-1" d="M185.35,156A89,89,0,0,0,161.5,176.7c6.44-.89,15.22-.23,19.81,8.32a44.86,44.86,0,0,1,5.16,22.08,283.3,283.3,0,0,0,28.09-11.32C213,176,200.62,162.54,185.35,156Z"/><path class="cls-2" d="M224.94,141.63A139.77,139.77,0,0,0,192.82,152c-2.62,1.22-5.1,2.54-7.47,3.94,15.27,6.55,27.67,20,29.22,39.78l.76-.37c11.52-5.81,21.22-15.69,28.28-24.57C243.29,152.92,233.74,145.06,224.94,141.63Z"/><path class="cls-2" d="M128.52,236.39H99.07A66.08,66.08,0,0,1,33.18,170.5V89.44A80.85,80.85,0,0,1,113.8,8.82h0a80.85,80.85,0,0,1,80.62,80.62V170.5A66.08,66.08,0,0,1,128.52,236.39Z"/><path class="cls-3" d="M68.31,45.73c-5.46,1.07-28.59,19.7-26.49,35S58.38,99,66.29,97.56c5.8-1,12.26-3.67,18-12.77A47.42,47.42,0,0,0,90.55,64.7c.36-6.94-5.46-14.79-9.2-17.16C74.8,43.38,74.29,44.55,68.31,45.73Z"/><path class="cls-3" d="M159.95,45.73c5.46,1.07,28.6,19.7,26.51,35S169.89,99,162,97.56c-5.8-1-12.27-3.67-18-12.77a47.39,47.39,0,0,1-6.28-20.09c-.36-6.94,5.46-14.79,9.21-17.16C153.46,43.38,154,44.55,159.95,45.73Z"/><path class="cls-2" d="M40.27,204.82s16.29,52.39,20,59.66c0,0-9.43,11.36-3.07,11.36H77.68s6.82.91,8.18-10,7-29.44,7-29.44,14.33-29.17-13.38-39.62S40.27,204.82,40.27,204.82Z"/><path class="cls-2" d="M188.22,204.82s-16.29,52.39-20,59.66c0,0,9.43,11.36,3.07,11.36H150.81s-6.82.91-8.18-10-7-29.44-7-29.44S121.28,207.23,149,196.78,188.22,204.82,188.22,204.82Z"/><path class="cls-2" d="M67,32.79c5.92-6.44,8.21-8.85,6.13-13.66S60.58,4.79,47.39,1.15,29.63,2.83,27.74,12.63s8.07,33,18,34.16S67,32.79,67,32.79Z"/><path class="cls-2" d="M161.15,32.79c-5.92-6.44-8.21-8.85-6.13-13.66s12.59-14.33,25.77-18,17.76,1.68,19.65,11.48-8.07,33-18,34.16S161.15,32.79,161.15,32.79Z"/><path class="cls-1" d="M69,53.11c-4.45.87-23.3,16-21.6,28.54S60.95,96.5,67.4,95.34c4.73-.85,10-3,14.66-10.4a38.61,38.61,0,0,0,5.12-16.37c.29-5.65-4.45-12-7.5-14C74.34,51.2,73.92,52.15,69,53.11Z"/><path class="cls-1" d="M159,53.11c4.45.87,23.3,16,21.6,28.54s-13.5,14.85-19.95,13.69c-4.73-.85-10-3-14.66-10.4a38.61,38.61,0,0,1-5.12-16.37c-.29-5.65,4.45-12,7.5-14C153.74,51.2,154.15,52.15,159,53.11Z"/><circle cx="157.05" cy="69.91" r="11.74"/><circle cx="71.44" cy="69.91" r="11.74"/><path class="cls-3" d="M110.38,57.91c-7.85,1.56-12,7.67-14.14,14s-8.19,21.7,14.58,22l9.88.17s23.66-.66,12.81-22c0,0-5.46-12.45-12.25-13.71S110.38,57.91,110.38,57.91Z"/><rect x="110.12" y="52.43" width="9.84" height="17.89" rx="4.92" ry="4.92" transform="translate(51.68 175.34) rotate(-89.01)"/><path d="M124.23,79.31c2-1,3.22-1.59,4.09-1a2.47,2.47,0,0,1,.86,2.24c-.19,1.85-3,3.12-4.45,3.68a34.13,34.13,0,0,1-21.87,0c-1.48-.56-4.26-1.83-4.45-3.68a2.47,2.47,0,0,1,.86-2.24c.87-.6,2.12,0,4.09,1,3.94,2.27,10.43,2.05,10.43,2.05S120.29,81.58,124.23,79.31Z"/><path class="cls-1" d="M165.56,30.26c-4.32-4.7-6-6.46-4.47-10S170.27,9.82,179.9,7.16s13,1.23,14.34,8.38-5.89,24.12-13.16,24.94S165.56,30.26,165.56,30.26Z"/><path class="cls-1" d="M63,30.26c4.44-4.7,6.16-6.46,4.6-10S58.12,9.82,48.22,7.16,34.9,8.39,33.49,15.54,39.54,39.66,47,40.48,63,30.26,63,30.26Z"/><path class="cls-3" d="M100.93,105.64c-23.59,5.22-36,25.49-42.56,46.41s-24.73,72,43.7,72.74l29.7.52s71.1-2.31,38.6-73.08c0,0-16.35-41.26-36.75-45.37S100.93,105.64,100.93,105.64Z"/><path class="cls-2" d="M218,143.64c-1.77-8.11-3.47-16.05-5.3-21-4.1-11.15-11.28-21.67-19.16-21.33,0,0-5.11-3.42-13.66,4.45s8.21,32.49,9.57,38c.77,3.07,4.33,11.18,7.61,18.2C199.48,145.08,209.48,142.52,218,143.64Z"/><path class="cls-1" d="M218,143.64c-8.54-1.12-18.54,1.43-20.95,18.24,2.57,5.51,5,10.35,5.73,11.55,1.71,2.74,5.47,2.74,11.28,4.79s16.41.68,11.28-8.89C222.53,164,220.22,153.7,218,143.64Z"/><path class="cls-2" d="M8.71,143.64c1.77-8.11,3.47-16.05,5.3-21,4.1-11.15,11.28-21.67,19.16-21.33,0,0,5.11-3.42,13.66,4.45s-8.21,32.49-9.57,38c-.77,3.07-4.33,11.18-7.61,18.2C27.25,145.08,17.25,142.52,8.71,143.64Z"/><path class="cls-1" d="M8.71,143.64c8.54-1.12,18.54,1.43,20.95,18.24-2.57,5.51-5,10.35-5.73,11.55-1.71,2.74-5.47,2.74-11.28,4.79s-16.41.68-11.28-8.89C4.2,164,6.52,153.7,8.71,143.64Z"/></g></g></svg>